<?xml version="1.0" standalone="yes"?>

<svg version="1.1" viewBox="0.0 0.0 544.4619422572179 428.2755905511811" fill="none" stroke="none" stroke-linecap="square" stroke-miterlimit="10" xmlns="http://www.w3.org/2000/svg" xmlns:xlink="http://www.w3.org/1999/xlink"><clipPath id="p.0"><path d="m0 0l544.4619 0l0 428.2756l-544.4619 0l0 -428.2756z" clip-rule="nonzero"></path></clipPath><g clip-path="url(#p.0)"><path fill="#000000" fill-opacity="0.0" d="m0 0l544.4619 0l0 428.2756l-544.4619 0z" fill-rule="evenodd"></path><path fill="#ffffff" d="m289.18933 236.63062l0 0c0 -54.40222 41.34491 -98.50394 92.346466 -98.50394l0 0c24.49179 0 47.98047 10.378067 65.2988 28.851135c17.318329 18.473068 27.047638 43.52794 27.047638 69.6528l0 0c0 54.40222 -41.34491 98.50394 -92.346436 98.50394l0 0c-51.001556 0 -92.346466 -44.101715 -92.346466 -98.50394z" fill-rule="evenodd"></path><path stroke="#000000" stroke-width="2.0" stroke-linejoin="round" stroke-linecap="butt" stroke-dasharray="8.0,6.0" d="m289.18933 236.63062l0 0c0 -54.40222 41.34491 -98.50394 92.346466 -98.50394l0 0c24.49179 0 47.98047 10.378067 65.2988 28.851135c17.318329 18.473068 27.047638 43.52794 27.047638 69.6528l0 0c0 54.40222 -41.34491 98.50394 -92.346436 98.50394l0 0c-51.001556 0 -92.346466 -44.101715 -92.346466 -98.50394z" fill-rule="evenodd"></path><path fill="#ffffff" fill-opacity="0.6423" d="m98.024345 182.13162l0 0c0 -83.72984 63.631966 -151.6063 142.12598 -151.6063l0 0c37.694153 0 73.84445 15.972761 100.49826 44.404457c26.653778 28.431702 41.627716 66.99335 41.627716 107.20184l0 0c0 83.72986 -63.631958 151.6063 -142.12598 151.6063l0 0c-78.49402 0 -142.12598 -67.876434 -142.12598 -151.6063z" fill-rule="evenodd"></path><path stroke="#000000" stroke-width="2.0" stroke-linejoin="round" stroke-linecap="butt" stroke-dasharray="8.0,6.0" d="m98.024345 182.13162l0 0c0 -83.72984 63.631966 -151.6063 142.12598 -151.6063l0 0c37.694153 0 73.84445 15.972761 100.49826 44.404457c26.653778 28.431702 41.627716 66.99335 41.627716 107.20184l0 0c0 83.72986 -63.631958 151.6063 -142.12598 151.6063l0 0c-78.49402 0 -142.12598 -67.876434 -142.12598 -151.6063z" fill-rule="evenodd"></path><path fill="#000000" fill-opacity="0.0" d="m165.11882 146.43083l127.55904 0l0 44.53543l-127.55904 0z" fill-rule="evenodd"></path><path fill="#000000" d="m210.2477 156.1548q0.828125 0 1.390625 0.21875q0.5625 0.203125 1.15625 0.6875l-0.703125 0.8125q-0.828125 -0.671875 -1.765625 -0.671875q-1.140625 0 -1.84375 0.875q-0.703125 0.875 -0.703125 2.828125q0 1.890625 0.6875 2.796875q0.703125 0.890625 1.84375 0.890625q0.59375 0 1.03125 -0.203125q0.4375 -0.203125 0.9375 -0.5625l0.625 0.8125q-0.4375 0.4375 -1.109375 0.734375q-0.65625 0.28125 -1.515625 0.28125q-1.125 0 -2.0 -0.546875q-0.875 -0.5625 -1.359375 -1.625q-0.484375 -1.078125 -0.484375 -2.578125q0 -1.515625 0.5 -2.578125q0.515625 -1.078125 1.375 -1.625q0.875 -0.546875 1.9375 -0.546875zm9.135605 9.34375l-0.6875 -2.3125l-3.484375 0l-0.6875 2.3125l-1.28125 0l2.953125 -9.1875l1.59375 0l2.9375 9.1875l-1.34375 0zm-3.859375 -3.328125l2.859375 0l-1.421875 -4.796875l-1.4375 4.796875zm14.824493 3.328125l-1.234375 0l-0.3125 -4.140625q-0.203125 -2.4375 -0.234375 -3.75l-1.984375 6.84375l-1.1875 0l-2.09375 -6.859375q0 1.671875 -0.171875 3.859375l-0.296875 4.046875l-1.203125 0l0.765625 -9.1875l1.703125 0l1.921875 6.6875l1.84375 -6.6875l1.71875 0l0.765625 9.1875zm8.010559 -9.015625q-0.5625 0 -0.8125 0.25q-0.234375 0.25 -0.234375 0.765625l0 0.96875l1.703125 0l-0.125 0.953125l-1.578125 0l0 6.078125l-1.21875 0l0 -6.078125l-1.25 0l0 -0.953125l1.25 0l0 -0.953125q0 -0.90625 0.578125 -1.453125q0.578125 -0.5625 1.609375 -0.5625q0.484375 0 0.859375 0.09375q0.390625 0.078125 0.828125 0.265625l-0.390625 0.890625q-0.59375 -0.265625 -1.21875 -0.265625zm4.714905 1.828125q1.484375 0 2.296875 0.984375q0.828125 0.984375 0.828125 2.6875q0 1.09375 -0.375 1.921875q-0.375 0.828125 -1.09375 1.296875q-0.703125 0.453125 -1.671875 0.453125q-1.484375 0 -2.3125 -0.984375q-0.8125 -0.984375 -0.8125 -2.671875q0 -1.09375 0.359375 -1.921875q0.375 -0.84375 1.078125 -1.296875q0.71875 -0.46875 1.703125 -0.46875zm0 0.984375q-1.828125 0 -1.828125 2.703125q0 2.671875 1.8125 2.671875q1.8125 0 1.8125 -2.6875q0 -2.6875 -1.796875 -2.6875zm8.18985 -0.984375q0.375 0 0.703125 0.078125l-0.234375 1.203125q-0.3125 -0.078125 -0.609375 -0.078125q-0.65625 0 -1.0625 0.484375q-0.390625 0.46875 -0.609375 1.484375l0 4.015625l-1.234375 0l0 -7.03125l1.046875 0l0.125 1.4375q0.28125 -0.796875 0.75 -1.1875q0.484375 -0.40625 1.125 -0.40625z" fill-rule="nonzero"></path><path fill="#000000" d="m199.82591 172.31105l-1.859375 9.1875l-1.625 0l-1.703125 -7.6875l-1.703125 7.6875l-1.578125 0l-1.875 -9.1875l1.25 0l1.46875 8.078125l1.78125 -8.078125l1.34375 0l1.8125 8.078125l1.53125 -8.078125l1.15625 0zm6.9152374 5.46875q0 0.3125 -0.03125 0.625l-4.484375 0q0.078125 1.15625 0.578125 1.703125q0.515625 0.546875 1.3125 0.546875q0.515625 0 0.9375 -0.140625q0.421875 -0.15625 0.890625 -0.46875l0.53125 0.734375q-1.109375 0.875 -2.453125 0.875q-1.453125 0 -2.28125 -0.953125q-0.8125 -0.96875 -0.8125 -2.640625q0 -1.09375 0.34375 -1.9375q0.359375 -0.84375 1.015625 -1.328125q0.65625 -0.484375 1.546875 -0.484375q1.40625 0 2.15625 0.921875q0.75 0.921875 0.75 2.546875zm-1.21875 -0.359375q0 -1.046875 -0.421875 -1.578125q-0.40625 -0.546875 -1.234375 -0.546875q-1.5 0 -1.640625 2.203125l3.296875 0l0 -0.078125zm6.388794 -3.109375q1.1875 0 1.890625 0.96875q0.71875 0.96875 0.71875 2.703125q0 1.09375 -0.34375 1.921875q-0.328125 0.828125 -0.953125 1.296875q-0.625 0.453125 -1.46875 0.453125q-1.109375 0 -1.859375 -0.921875l-0.125 0.765625l-1.078125 0l0 -9.84375l1.234375 -0.15625l0 3.859375q0.75 -1.046875 1.984375 -1.046875zm-0.453125 6.375q0.8125 0 1.265625 -0.65625q0.46875 -0.65625 0.46875 -2.046875q0 -1.421875 -0.421875 -2.046875q-0.421875 -0.640625 -1.21875 -0.640625q-0.921875 0 -1.625 1.078125l0 3.359375q0.265625 0.453125 0.671875 0.703125q0.40625 0.25 0.859375 0.25zm11.011307 -8.53125q0.921875 0 1.578125 0.265625q0.65625 0.25 1.265625 0.796875l-0.6875 0.78125q-0.53125 -0.421875 -1.03125 -0.609375q-0.5 -0.1875 -1.0625 -0.1875q-0.71875 0 -1.1875 0.328125q-0.46875 0.328125 -0.46875 0.96875q0 0.40625 0.15625 0.6875q0.15625 0.265625 0.59375 0.5q0.4375 0.21875 1.265625 0.46875q0.859375 0.265625 1.4375 0.578125q0.578125 0.296875 0.921875 0.84375q0.359375 0.53125 0.359375 1.359375q0 0.796875 -0.40625 1.421875q-0.390625 0.609375 -1.125 0.953125q-0.734375 0.34375 -1.75 0.34375q-1.90625 0 -3.125 -1.1875l0.703125 -0.765625q0.5625 0.453125 1.125 0.6875q0.578125 0.234375 1.28125 0.234375q0.859375 0 1.40625 -0.421875q0.5625 -0.421875 0.5625 -1.21875q0 -0.453125 -0.171875 -0.75q-0.171875 -0.3125 -0.59375 -0.546875q-0.421875 -0.234375 -1.21875 -0.484375q-1.40625 -0.421875 -2.0625 -1.015625q-0.65625 -0.609375 -0.65625 -1.625q0 -0.703125 0.359375 -1.25q0.375 -0.546875 1.03125 -0.84375q0.671875 -0.3125 1.5 -0.3125zm7.748169 9.390625q-0.40625 1.21875 -1.15625 1.921875q-0.734375 0.71875 -2.109375 0.875l-0.125 -0.96875q0.6875 -0.109375 1.09375 -0.34375q0.421875 -0.21875 0.65625 -0.578125q0.25 -0.359375 0.46875 -0.953125l-0.40625 0l-2.359375 -7.03125l1.296875 0l1.875 6.140625l1.84375 -6.140625l1.265625 0l-2.34375 7.078125zm5.651169 -7.234375q0.71875 0 1.28125 0.203125q0.578125 0.203125 1.109375 0.59375l-0.53125 0.78125q-0.46875 -0.3125 -0.90625 -0.453125q-0.4375 -0.140625 -0.90625 -0.140625q-0.609375 0 -0.953125 0.25q-0.34375 0.234375 -0.34375 0.65625q0 0.4375 0.328125 0.671875q0.328125 0.234375 1.171875 0.46875q1.171875 0.296875 1.75 0.796875q0.578125 0.5 0.578125 1.390625q0 1.03125 -0.8125 1.578125q-0.796875 0.546875 -1.953125 0.546875q-1.59375 0 -2.65625 -0.921875l0.65625 -0.734375q0.890625 0.671875 1.96875 0.671875q0.703125 0 1.109375 -0.28125q0.40625 -0.296875 0.40625 -0.78125q0 -0.359375 -0.15625 -0.578125q-0.140625 -0.21875 -0.5 -0.390625q-0.359375 -0.171875 -1.046875 -0.359375q-1.125 -0.28125 -1.625 -0.765625q-0.5 -0.5 -0.5 -1.265625q0 -0.546875 0.328125 -0.984375q0.328125 -0.453125 0.90625 -0.703125q0.578125 -0.25 1.296875 -0.25zm7.8648376 6.875q-0.6875 0.46875 -1.578125 0.46875q-0.890625 0 -1.390625 -0.5q-0.5 -0.515625 -0.5 -1.5l0 -4.234375l-1.21875 0l0 -0.953125l1.21875 0l0 -1.578125l1.234375 -0.140625l0 1.71875l1.65625 0l-0.125 0.953125l-1.53125 0l0 4.1875q0 0.546875 0.1875 0.796875q0.1875 0.234375 0.640625 0.234375q0.421875 0 0.9375 -0.28125l0.46875 0.828125zm6.577057 -3.40625q0 0.3125 -0.03125 0.625l-4.484375 0q0.078125 1.15625 0.578125 1.703125q0.515625 0.546875 1.3125 0.546875q0.515625 0 0.9375 -0.140625q0.421875 -0.15625 0.890625 -0.46875l0.53125 0.734375q-1.109375 0.875 -2.453125 0.875q-1.453125 0 -2.28125 -0.953125q-0.8125 -0.96875 -0.8125 -2.640625q0 -1.09375 0.34375 -1.9375q0.359375 -0.84375 1.015625 -1.328125q0.65625 -0.484375 1.546875 -0.484375q1.40625 0 2.15625 0.921875q0.75 0.921875 0.75 2.546875zm-1.21875 -0.359375q0 -1.046875 -0.421875 -1.578125q-0.40625 -0.546875 -1.234375 -0.546875q-1.5 0 -1.640625 2.203125l3.296875 0l0 -0.078125zm10.216919 -3.109375q0.875 0 1.390625 0.578125q0.515625 0.578125 0.515625 1.578125l0 5.03125l-1.21875 0l0 -4.859375q0 -1.359375 -0.984375 -1.359375q-0.53125 0 -0.890625 0.296875q-0.359375 0.296875 -0.765625 0.9375l0 4.984375l-1.234375 0l0 -4.859375q0 -1.359375 -0.984375 -1.359375q-0.53125 0 -0.890625 0.3125q-0.359375 0.296875 -0.75 0.921875l0 4.984375l-1.234375 0l0 -7.03125l1.046875 0l0.109375 1.03125q0.796875 -1.1875 2.03125 -1.1875q0.65625 0 1.109375 0.34375q0.46875 0.328125 0.65625 0.921875q0.421875 -0.609375 0.921875 -0.9375q0.5 -0.328125 1.171875 -0.328125zm6.2815247 0q0.71875 0 1.28125 0.203125q0.578125 0.203125 1.109375 0.59375l-0.53125 0.78125q-0.46875 -0.3125 -0.90625 -0.453125q-0.4375 -0.140625 -0.90625 -0.140625q-0.609375 0 -0.953125 0.25q-0.34375 0.234375 -0.34375 0.65625q0 0.4375 0.328125 0.671875q0.328125 0.234375 1.171875 0.46875q1.171875 0.296875 1.75 0.796875q0.578125 0.5 0.578125 1.390625q0 1.03125 -0.8125 1.578125q-0.796875 0.546875 -1.953125 0.546875q-1.59375 0 -2.65625 -0.921875l0.65625 -0.734375q0.890625 0.671875 1.96875 0.671875q0.703125 0 1.109375 -0.28125q0.40625 -0.296875 0.40625 -0.78125q0 -0.359375 -0.15625 -0.578125q-0.140625 -0.21875 -0.5 -0.390625q-0.359375 -0.171875 -1.046875 -0.359375q-1.125 -0.28125 -1.625 -0.765625q-0.5 -0.5 -0.5 -1.265625q0 -0.546875 0.328125 -0.984375q0.328125 -0.453125 0.90625 -0.703125q0.578125 -0.25 1.296875 -0.25z" fill-rule="nonzero"></path><path fill="#000000" fill-opacity="0.0" d="m333.18256 221.36887l127.55905 0l0 44.53543l-127.55905 0z" fill-rule="evenodd"></path><path fill="#000000" d="m362.03784 231.09283q0.828125 0 1.390625 0.21875q0.5625 0.203125 1.15625 0.6875l-0.703125 0.8125q-0.828125 -0.671875 -1.765625 -0.671875q-1.140625 0 -1.84375 0.875q-0.703125 0.875 -0.703125 2.828125q0 1.890625 0.6875 2.796875q0.703125 0.890625 1.84375 0.890625q0.59375 0 1.03125 -0.203125q0.4375 -0.203125 0.9375 -0.5625l0.625 0.8125q-0.4375 0.4375 -1.109375 0.734375q-0.65625 0.28125 -1.515625 0.28125q-1.125 0 -2.0 -0.546875q-0.875 -0.5625 -1.359375 -1.625q-0.484375 -1.078125 -0.484375 -2.578125q0 -1.515625 0.5 -2.578125q0.515625 -1.078125 1.375 -1.625q0.875 -0.546875 1.9375 -0.546875zm6.82312 2.15625q1.484375 0 2.296875 0.984375q0.828125 0.984375 0.828125 2.6875q0 1.09375 -0.375 1.921875q-0.375 0.828125 -1.09375 1.296875q-0.703125 0.453125 -1.671875 0.453125q-1.484375 0 -2.3125 -0.984375q-0.8125 -0.984375 -0.8125 -2.671875q0 -1.09375 0.359375 -1.921875q0.375 -0.84375 1.078125 -1.296875q0.71875 -0.46875 1.703125 -0.46875zm0 0.984375q-1.828125 0 -1.828125 2.703125q0 2.671875 1.8125 2.671875q1.8125 0 1.8125 -2.6875q0 -2.6875 -1.796875 -2.6875zm8.18985 -0.984375q0.375 0 0.703125 0.078125l-0.234375 1.203125q-0.3125 -0.078125 -0.609375 -0.078125q-0.65625 0 -1.0625 0.484375q-0.390625 0.46875 -0.609375 1.484375l0 4.015625l-1.234375 0l0 -7.03125l1.046875 0l0.125 1.4375q0.28125 -0.796875 0.75 -1.1875q0.484375 -0.40625 1.125 -0.40625zm7.410248 3.46875q0 0.3125 -0.03125 0.625l-4.484375 0q0.078125 1.15625 0.578125 1.703125q0.515625 0.546875 1.3125 0.546875q0.515625 0 0.9375 -0.140625q0.421875 -0.15625 0.890625 -0.46875l0.53125 0.734375q-1.109375 0.875 -2.453125 0.875q-1.453125 0 -2.28125 -0.953125q-0.8125 -0.96875 -0.8125 -2.640625q0 -1.09375 0.34375 -1.9375q0.359375 -0.84375 1.015625 -1.328125q0.65625 -0.484375 1.546875 -0.484375q1.40625 0 2.15625 0.921875q0.75 0.921875 0.75 2.546875zm-1.21875 -0.359375q0 -1.046875 -0.421875 -1.578125q-0.40625 -0.546875 -1.234375 -0.546875q-1.5 0 -1.640625 2.203125l3.296875 0l0 -0.078125zm9.983246 -5.265625q0.828125 0 1.390625 0.21875q0.5625 0.203125 1.15625 0.6875l-0.703125 0.8125q-0.828125 -0.671875 -1.765625 -0.671875q-1.140625 0 -1.84375 0.875q-0.703125 0.875 -0.703125 2.828125q0 1.890625 0.6875 2.796875q0.703125 0.890625 1.84375 0.890625q0.59375 0 1.03125 -0.203125q0.4375 -0.203125 0.9375 -0.5625l0.625 0.8125q-0.4375 0.4375 -1.109375 0.734375q-0.65625 0.28125 -1.515625 0.28125q-1.125 0 -2.0 -0.546875q-0.875 -0.5625 -1.359375 -1.625q-0.484375 -1.078125 -0.484375 -2.578125q0 -1.515625 0.5 -2.578125q0.515625 -1.078125 1.375 -1.625q0.875 -0.546875 1.9375 -0.546875zm6.8230896 2.15625q1.484375 0 2.296875 0.984375q0.828125 0.984375 0.828125 2.6875q0 1.09375 -0.375 1.921875q-0.375 0.828125 -1.09375 1.296875q-0.703125 0.453125 -1.671875 0.453125q-1.484375 0 -2.3125 -0.984375q-0.8125 -0.984375 -0.8125 -2.671875q0 -1.09375 0.359375 -1.921875q0.375 -0.84375 1.078125 -1.296875q0.71875 -0.46875 1.703125 -0.46875zm0 0.984375q-1.828125 0 -1.828125 2.703125q0 2.671875 1.8125 2.671875q1.8125 0 1.8125 -2.6875q0 -2.6875 -1.796875 -2.6875zm8.455475 -0.984375q0.953125 0 1.484375 0.578125q0.546875 0.578125 0.546875 1.578125l0 5.03125l-1.21875 0l0 -4.859375q0 -0.75 -0.28125 -1.046875q-0.28125 -0.3125 -0.828125 -0.3125q-0.5625 0 -1.0 0.328125q-0.421875 0.3125 -0.78125 0.90625l0 4.984375l-1.234375 0l0 -7.03125l1.046875 0l0.109375 1.046875q0.375 -0.5625 0.921875 -0.875q0.5625 -0.328125 1.234375 -0.328125zm8.044647 6.875q-0.6875 0.46875 -1.578125 0.46875q-0.890625 0 -1.390625 -0.5q-0.5 -0.515625 -0.5 -1.5l0 -4.234375l-1.21875 0l0 -0.953125l1.21875 0l0 -1.578125l1.234375 -0.140625l0 1.71875l1.65625 0l-0.125 0.953125l-1.53125 0l0 4.1875q0 0.546875 0.1875 0.796875q0.1875 0.234375 0.640625 0.234375q0.421875 0 0.9375 -0.28125l0.46875 0.828125zm6.577057 -3.40625q0 0.3125 -0.03125 0.625l-4.484375 0q0.078125 1.15625 0.578125 1.703125q0.515625 0.546875 1.3125 0.546875q0.515625 0 0.9375 -0.140625q0.421875 -0.15625 0.890625 -0.46875l0.53125 0.734375q-1.109375 0.875 -2.453125 0.875q-1.453125 0 -2.28125 -0.953125q-0.8125 -0.96875 -0.8125 -2.640625q0 -1.09375 0.34375 -1.9375q0.359375 -0.84375 1.015625 -1.328125q0.65625 -0.484375 1.546875 -0.484375q1.40625 0 2.15625 0.921875q0.75 0.921875 0.75 2.546875zm-1.21875 -0.359375q0 -1.046875 -0.421875 -1.578125q-0.40625 -0.546875 -1.234375 -0.546875q-1.5 0 -1.640625 2.203125l3.296875 0l0 -0.078125zm6.482544 -3.109375q0.953125 0 1.484375 0.578125q0.546875 0.578125 0.546875 1.578125l0 5.03125l-1.21875 0l0 -4.859375q0 -0.75 -0.28125 -1.046875q-0.28125 -0.3125 -0.828125 -0.3125q-0.5625 0 -1.0 0.328125q-0.421875 0.3125 -0.78125 0.90625l0 4.984375l-1.234375 0l0 -7.03125l1.046875 0l0.109375 1.046875q0.375 -0.5625 0.921875 -0.875q0.5625 -0.328125 1.234375 -0.328125zm8.044617 6.875q-0.6875 0.46875 -1.578125 0.46875q-0.890625 0 -1.390625 -0.5q-0.5 -0.515625 -0.5 -1.5l0 -4.234375l-1.21875 0l0 -0.953125l1.21875 0l0 -1.578125l1.234375 -0.140625l0 1.71875l1.65625 0l-0.125 0.953125l-1.53125 0l0 4.1875q0 0.546875 0.1875 0.796875q0.1875 0.234375 0.640625 0.234375q0.421875 0 0.9375 -0.28125l0.46875 0.828125z" fill-rule="nonzero"></path><path fill="#000000" d="m387.86298 256.43658l-1.234375 0l-0.3125 -4.140625q-0.203125 -2.4375 -0.234375 -3.75l-1.984375 6.84375l-1.1875 0l-2.09375 -6.859375q0 1.671875 -0.171875 3.859375l-0.296875 4.046875l-1.203125 0l0.765625 -9.1875l1.703125 0l1.921875 6.6875l1.84375 -6.6875l1.71875 0l0.765625 9.1875zm4.7286377 -7.1875q1.484375 0 2.296875 0.984375q0.828125 0.984375 0.828125 2.6875q0 1.09375 -0.375 1.921875q-0.375 0.828125 -1.09375 1.296875q-0.703125 0.453125 -1.671875 0.453125q-1.484375 0 -2.3125 -0.984375q-0.8125 -0.984375 -0.8125 -2.671875q0 -1.09375 0.359375 -1.921875q0.375 -0.84375 1.078125 -1.296875q0.71875 -0.46875 1.703125 -0.46875zm0 0.984375q-1.828125 0 -1.828125 2.703125q0 2.671875 1.8125 2.671875q1.8125 0 1.8125 -2.6875q0 -2.6875 -1.796875 -2.6875zm10.580475 -3.640625l0 9.84375l-1.078125 0l-0.125 -0.96875q-0.34375 0.53125 -0.859375 0.828125q-0.515625 0.296875 -1.15625 0.296875q-1.265625 0 -1.96875 -0.984375q-0.6875 -0.984375 -0.6875 -2.65625q0 -1.078125 0.328125 -1.90625q0.34375 -0.84375 0.96875 -1.3125q0.625 -0.484375 1.453125 -0.484375q1.09375 0 1.90625 0.875l0 -3.6875l1.21875 0.15625zm-2.953125 9.03125q0.5625 0 0.953125 -0.25q0.40625 -0.265625 0.78125 -0.796875l0 -3.4375q-0.359375 -0.453125 -0.75 -0.671875q-0.390625 -0.234375 -0.875 -0.234375q-0.828125 0 -1.28125 0.6875q-0.4375 0.671875 -0.4375 2.015625q0 1.359375 0.40625 2.03125q0.421875 0.65625 1.203125 0.65625zm10.798309 -2.90625q0 0.3125 -0.03125 0.625l-4.484375 0q0.078125 1.15625 0.578125 1.703125q0.515625 0.546875 1.3125 0.546875q0.515625 0 0.9375 -0.140625q0.421875 -0.15625 0.890625 -0.46875l0.53125 0.734375q-1.109375 0.875 -2.453125 0.875q-1.453125 0 -2.28125 -0.953125q-0.8125 -0.96875 -0.8125 -2.640625q0 -1.09375 0.34375 -1.9375q0.359375 -0.84375 1.015625 -1.328125q0.65625 -0.484375 1.546875 -0.484375q1.40625 0 2.15625 0.921875q0.75 0.921875 0.75 2.546875zm-1.21875 -0.359375q0 -1.046875 -0.421875 -1.578125q-0.40625 -0.546875 -1.234375 -0.546875q-1.5 0 -1.640625 2.203125l3.296875 0l0 -0.078125zm4.576294 4.234375q-0.6875 0 -1.078125 -0.40625q-0.390625 -0.40625 -0.390625 -1.140625l0 -8.453125l1.21875 -0.15625l0 8.59375q0 0.28125 0.09375 0.421875q0.109375 0.125 0.34375 0.125q0.265625 0 0.453125 -0.078125l0.328125 0.859375q-0.4375 0.234375 -0.96875 0.234375z" fill-rule="nonzero"></path><path fill="#000000" fill-opacity="0.0" d="m41.331432 378.0104l486.42523 0" fill-rule="evenodd"></path><path stroke="#000000" stroke-width="1.0" stroke-linejoin="round" stroke-linecap="butt" d="m47.331432 378.01038l474.42523 0" fill-rule="evenodd"></path><path fill="#000000" stroke="#000000" stroke-width="1.0" stroke-linecap="butt" d="m47.331432 376.35864l-4.5380974 1.6517334l4.5380974 1.6517334z" fill-rule="evenodd"></path><path fill="#000000" stroke="#000000" stroke-width="1.0" stroke-linecap="butt" d="m521.75665 379.6621l4.538086 -1.6517334l-4.538086 -1.6517334z" fill-rule="evenodd"></path><path fill="#000000" fill-opacity="0.0" d="m53.97119 387.10815l127.55905 0l0 44.53543l-127.55905 0z" fill-rule="evenodd"></path><path fill="#000000" d="m64.22119 396.98837q2.078125 0 3.328125 0.96875q1.265625 0.96875 1.265625 3.578125q0 2.546875 -1.265625 3.59375q-1.25 1.046875 -3.046875 1.046875l-2.203125 0l0 -9.1875l1.921875 0zm-0.65625 1.015625l0 7.171875l1.03125 0q1.28125 0 2.078125 -0.78125q0.796875 -0.796875 0.796875 -2.859375q0 -1.453125 -0.421875 -2.234375q-0.40625 -0.78125 -1.046875 -1.03125q-0.640625 -0.265625 -1.5 -0.265625l-0.9375 0zm9.895782 0.984375q1.484375 0 2.296875 0.984375q0.828125 0.984375 0.828125 2.6875q0 1.09375 -0.375 1.921875q-0.375 0.828125 -1.09375 1.296875q-0.703125 0.453125 -1.671875 0.453125q-1.484375 0 -2.3125 -0.984375q-0.8125 -0.984375 -0.8125 -2.671875q0 -1.09375 0.359375 -1.921875q0.375 -0.84375 1.078125 -1.296875q0.71875 -0.46875 1.703125 -0.46875zm0 0.984375q-1.828125 0 -1.828125 2.703125q0 2.671875 1.8125 2.671875q1.8125 0 1.8125 -2.6875q0 -2.6875 -1.796875 -2.6875zm7.705475 -0.984375q0.625 0 1.140625 0.1875q0.515625 0.171875 1.0 0.578125l-0.578125 0.765625q-0.375 -0.265625 -0.734375 -0.390625q-0.34375 -0.125 -0.78125 -0.125q-0.84375 0 -1.328125 0.6875q-0.46875 0.671875 -0.46875 2.0q0 1.34375 0.46875 1.984375q0.46875 0.625 1.328125 0.625q0.421875 0 0.765625 -0.125q0.34375 -0.140625 0.765625 -0.40625l0.5625 0.796875q-0.953125 0.765625 -2.140625 0.765625q-1.421875 0 -2.25 -0.953125q-0.8125 -0.96875 -0.8125 -2.65625q0 -1.125 0.359375 -1.953125q0.375 -0.84375 1.0625 -1.3125q0.6875 -0.46875 1.640625 -0.46875zm9.027069 7.1875l-1.046875 0l-0.09375 -1.09375q-0.40625 0.65625 -0.921875 0.953125q-0.515625 0.296875 -1.265625 0.296875q-0.921875 0 -1.4375 -0.546875q-0.515625 -0.5625 -0.515625 -1.59375l0 -5.046875l1.21875 0l0 4.90625q0 0.71875 0.25 1.03125q0.265625 0.296875 0.828125 0.296875q1.03125 0 1.765625 -1.21875l0 -5.015625l1.21875 0l0 7.03125zm9.585068 -7.1875q0.875 0 1.390625 0.578125q0.515625 0.578125 0.515625 1.578125l0 5.03125l-1.21875 0l0 -4.859375q0 -1.359375 -0.984375 -1.359375q-0.53125 0 -0.890625 0.296875q-0.359375 0.296875 -0.765625 0.9375l0 4.984375l-1.234375 0l0 -4.859375q0 -1.359375 -0.984375 -1.359375q-0.53125 0 -0.890625 0.3125q-0.359375 0.296875 -0.75 0.921875l0 4.984375l-1.234375 0l0 -7.03125l1.046875 0l0.109375 1.03125q0.796875 -1.1875 2.03125 -1.1875q0.65625 0 1.109375 0.34375q0.46875 0.328125 0.65625 0.921875q0.421875 -0.609375 0.921875 -0.9375q0.5 -0.328125 1.171875 -0.328125zm9.68779 3.46875q0 0.3125 -0.03125 0.625l-4.484375 0q0.078125 1.15625 0.578125 1.703125q0.515625 0.546875 1.3125 0.546875q0.515625 0 0.9375 -0.140625q0.421875 -0.15625 0.890625 -0.46875l0.53125 0.734375q-1.109375 0.875 -2.453125 0.875q-1.453125 0 -2.28125 -0.953125q-0.8125 -0.96875 -0.8125 -2.640625q0 -1.09375 0.34375 -1.9375q0.359375 -0.84375 1.015625 -1.328125q0.65625 -0.484375 1.546875 -0.484375q1.40625 0 2.15625 0.921875q0.75 0.921875 0.75 2.546875zm-1.21875 -0.359375q0 -1.046875 -0.421875 -1.578125q-0.40625 -0.546875 -1.234375 -0.546875q-1.5 0 -1.640625 2.203125l3.296875 0l0 -0.078125zm6.482544 -3.109375q0.953125 0 1.484375 0.578125q0.546875 0.578125 0.546875 1.578125l0 5.03125l-1.21875 0l0 -4.859375q0 -0.75 -0.28125 -1.046875q-0.28125 -0.3125 -0.828125 -0.3125q-0.5625 0 -1.0 0.328125q-0.421875 0.3125 -0.78125 0.90625l0 4.984375l-1.234375 0l0 -7.03125l1.046875 0l0.109375 1.046875q0.375 -0.5625 0.921875 -0.875q0.5625 -0.328125 1.234375 -0.328125zm8.044632 6.875q-0.6875 0.46875 -1.578125 0.46875q-0.890625 0 -1.390625 -0.5q-0.5 -0.515625 -0.5 -1.5l0 -4.234375l-1.21875 0l0 -0.953125l1.21875 0l0 -1.578125l1.234375 -0.140625l0 1.71875l1.65625 0l-0.125 0.953125l-1.53125 0l0 4.1875q0 0.546875 0.1875 0.796875q0.1875 0.234375 0.640625 0.234375q0.421875 0 0.9375 -0.28125l0.46875 0.828125zm5.998932 -1.328125q0 0.421875 0.140625 0.640625q0.15625 0.203125 0.4375 0.3125l-0.28125 0.84375q-0.546875 -0.0625 -0.875 -0.296875q-0.328125 -0.25 -0.484375 -0.75q-0.71875 1.046875 -2.09375 1.046875q-1.046875 0 -1.65625 -0.578125q-0.59375 -0.59375 -0.59375 -1.53125q0 -1.125 0.8125 -1.71875q0.8125 -0.609375 2.28125 -0.609375l1.078125 0l0 -0.515625q0 -0.75 -0.359375 -1.0625q-0.359375 -0.328125 -1.09375 -0.328125q-0.78125 0 -1.90625 0.375l-0.296875 -0.890625q1.296875 -0.484375 2.421875 -0.484375q1.234375 0 1.84375 0.609375q0.625 0.609375 0.625 1.734375l0 3.203125zm-2.875 0.875q1.046875 0 1.640625 -1.09375l0 -1.609375l-0.90625 0q-1.953125 0 -1.953125 1.4375q0 0.625 0.296875 0.953125q0.3125 0.3125 0.921875 0.3125zm8.937973 0.453125q-0.6875 0.46875 -1.578125 0.46875q-0.890625 0 -1.390625 -0.5q-0.5 -0.515625 -0.5 -1.5l0 -4.234375l-1.21875 0l0 -0.953125l1.21875 0l0 -1.578125l1.234375 -0.140625l0 1.71875l1.65625 0l-0.125 0.953125l-1.53125 0l0 4.1875q0 0.546875 0.1875 0.796875q0.1875 0.234375 0.640625 0.234375q0.421875 0 0.9375 -0.28125l0.46875 0.828125zm2.498932 -6.71875l0 7.03125l-1.234375 0l0 -7.03125l1.234375 0zm-0.640625 -3.359375q0.390625 0 0.625 0.234375q0.234375 0.234375 0.234375 0.59375q0 0.359375 -0.234375 0.59375q-0.234375 0.234375 -0.625 0.234375q-0.375 0 -0.625 -0.234375q-0.234375 -0.234375 -0.234375 -0.59375q0 -0.359375 0.234375 -0.59375q0.25 -0.234375 0.625 -0.234375zm5.8053894 3.203125q1.484375 0 2.296875 0.984375q0.828125 0.984375 0.828125 2.6875q0 1.09375 -0.375 1.921875q-0.375 0.828125 -1.09375 1.296875q-0.703125 0.453125 -1.671875 0.453125q-1.484375 0 -2.3125 -0.984375q-0.8125 -0.984375 -0.8125 -2.671875q0 -1.09375 0.359375 -1.921875q0.375 -0.84375 1.078125 -1.296875q0.71875 -0.46875 1.703125 -0.46875zm0 0.984375q-1.828125 0 -1.828125 2.703125q0 2.671875 1.8125 2.671875q1.8125 0 1.8125 -2.6875q0 -2.6875 -1.796875 -2.6875zm8.455475 -0.984375q0.953125 0 1.484375 0.578125q0.546875 0.578125 0.546875 1.578125l0 5.03125l-1.21875 0l0 -4.859375q0 -0.75 -0.28125 -1.046875q-0.28125 -0.3125 -0.828125 -0.3125q-0.5625 0 -1.0 0.328125q-0.421875 0.3125 -0.78125 0.90625l0 4.984375l-1.234375 0l0 -7.03125l1.046875 0l0.109375 1.046875q0.375 -0.5625 0.921875 -0.875q0.5625 -0.328125 1.234375 -0.328125zm4.825882 5.5q0.390625 0 0.65625 0.265625q0.265625 0.265625 0.265625 0.65625q0 0.40625 -0.234375 0.9375l-0.890625 2.046875l-0.890625 0l0.546875 -2.21875q-0.1875 -0.140625 -0.28125 -0.328125q-0.09375 -0.203125 -0.09375 -0.4375q0 -0.390625 0.265625 -0.65625q0.265625 -0.265625 0.65625 -0.265625z" fill-rule="nonzero"></path><path fill="#000000" d="m69.28369 414.98837q0.875 0 1.390625 0.578125q0.515625 0.578125 0.515625 1.578125l0 5.03125l-1.21875 0l0 -4.859375q0 -1.359375 -0.984375 -1.359375q-0.53125 0 -0.890625 0.296875q-0.359375 0.296875 -0.765625 0.9375l0 4.984375l-1.234375 0l0 -4.859375q0 -1.359375 -0.984375 -1.359375q-0.53125 0 -0.890625 0.3125q-0.359375 0.296875 -0.75 0.921875l0 4.984375l-1.234375 0l0 -7.03125l1.046875 0l0.109375 1.03125q0.796875 -1.1875 2.03125 -1.1875q0.65625 0 1.109375 0.34375q0.46875 0.328125 0.65625 0.921875q0.421875 -0.609375 0.921875 -0.9375q0.5 -0.328125 1.171875 -0.328125zm9.68779 3.46875q0 0.3125 -0.03125 0.625l-4.484375 0q0.078125 1.15625 0.578125 1.703125q0.515625 0.546875 1.3125 0.546875q0.515625 0 0.9375 -0.140625q0.421875 -0.15625 0.890625 -0.46875l0.53125 0.734375q-1.109375 0.875 -2.453125 0.875q-1.453125 0 -2.28125 -0.953125q-0.8125 -0.96875 -0.8125 -2.640625q0 -1.09375 0.34375 -1.9375q0.359375 -0.84375 1.015625 -1.328125q0.65625 -0.484375 1.546875 -0.484375q1.40625 0 2.15625 0.921875q0.75 0.921875 0.75 2.546875zm-1.21875 -0.359375q0 -1.046875 -0.421875 -1.578125q-0.40625 -0.546875 -1.234375 -0.546875q-1.5 0 -1.640625 2.203125l3.296875 0l0 -0.078125zm8.607544 -5.765625l0 9.84375l-1.078125 0l-0.125 -0.96875q-0.34375 0.53125 -0.859375 0.828125q-0.515625 0.296875 -1.15625 0.296875q-1.265625 0 -1.96875 -0.984375q-0.6875 -0.984375 -0.6875 -2.65625q0 -1.078125 0.328125 -1.90625q0.34375 -0.84375 0.96875 -1.3125q0.625 -0.484375 1.453125 -0.484375q1.09375 0 1.90625 0.875l0 -3.6875l1.21875 0.15625zm-2.953125 9.03125q0.5625 0 0.953125 -0.25q0.40625 -0.265625 0.78125 -0.796875l0 -3.4375q-0.359375 -0.453125 -0.75 -0.671875q-0.390625 -0.234375 -0.875 -0.234375q-0.828125 0 -1.28125 0.6875q-0.4375 0.671875 -0.4375 2.015625q0 1.359375 0.40625 2.03125q0.421875 0.65625 1.203125 0.65625zm6.7201843 -6.21875l0 7.03125l-1.234375 0l0 -7.03125l1.234375 0zm-0.640625 -3.359375q0.390625 0 0.625 0.234375q0.234375 0.234375 0.234375 0.59375q0 0.359375 -0.234375 0.59375q-0.234375 0.234375 -0.625 0.234375q-0.375 0 -0.625 -0.234375q-0.234375 -0.234375 -0.234375 -0.59375q0 -0.359375 0.234375 -0.59375q0.25 -0.234375 0.625 -0.234375zm7.8991394 8.75q0 0.421875 0.140625 0.640625q0.15625 0.203125 0.4375 0.3125l-0.28125 0.84375q-0.546875 -0.0625 -0.875 -0.296875q-0.328125 -0.25 -0.484375 -0.75q-0.71875 1.046875 -2.09375 1.046875q-1.046875 0 -1.65625 -0.578125q-0.59375 -0.59375 -0.59375 -1.53125q0 -1.125 0.8125 -1.71875q0.8125 -0.609375 2.28125 -0.609375l1.078125 0l0 -0.515625q0 -0.75 -0.359375 -1.0625q-0.359375 -0.328125 -1.09375 -0.328125q-0.78125 0 -1.90625 0.375l-0.296875 -0.890625q1.296875 -0.484375 2.421875 -0.484375q1.234375 0 1.84375 0.609375q0.625 0.609375 0.625 1.734375l0 3.203125zm-2.875 0.875q1.046875 0 1.640625 -1.09375l0 -1.609375l-0.90625 0q-1.953125 0 -1.953125 1.4375q0 0.625 0.296875 0.953125q0.3125 0.3125 0.921875 0.3125zm8.937973 0.453125q-0.6875 0.46875 -1.578125 0.46875q-0.890625 0 -1.390625 -0.5q-0.5 -0.515625 -0.5 -1.5l0 -4.234375l-1.21875 0l0 -0.953125l1.21875 0l0 -1.578125l1.234375 -0.140625l0 1.71875l1.65625 0l-0.125 0.953125l-1.53125 0l0 4.1875q0 0.546875 0.1875 0.796875q0.1875 0.234375 0.640625 0.234375q0.421875 0 0.9375 -0.28125l0.46875 0.828125zm2.498932 -6.71875l0 7.03125l-1.234375 0l0 -7.03125l1.234375 0zm-0.640625 -3.359375q0.390625 0 0.625 0.234375q0.234375 0.234375 0.234375 0.59375q0 0.359375 -0.234375 0.59375q-0.234375 0.234375 -0.625 0.234375q-0.375 0 -0.625 -0.234375q-0.234375 -0.234375 -0.234375 -0.59375q0 -0.359375 0.234375 -0.59375q0.25 -0.234375 0.625 -0.234375zm6.4772644 3.203125q0.953125 0 1.484375 0.578125q0.546875 0.578125 0.546875 1.578125l0 5.03125l-1.21875 0l0 -4.859375q0 -0.75 -0.28125 -1.046875q-0.28125 -0.3125 -0.828125 -0.3125q-0.5625 0 -1.0 0.328125q-0.421875 0.3125 -0.78125 0.90625l0 4.984375l-1.234375 0l0 -7.03125l1.046875 0l0.109375 1.046875q0.375 -0.5625 0.921875 -0.875q0.5625 -0.328125 1.234375 -0.328125zm10.169632 0.484375q-0.40625 0.125 -0.890625 0.171875q-0.46875 0.046875 -1.171875 0.046875q1.25 0.546875 1.25 1.765625q0 1.046875 -0.734375 1.71875q-0.71875 0.671875 -1.953125 0.671875q-0.484375 0 -0.890625 -0.140625q-0.15625 0.109375 -0.25 0.296875q-0.09375 0.171875 -0.09375 0.359375q0 0.578125 0.921875 0.578125l1.109375 0q0.703125 0 1.25 0.25q0.546875 0.25 0.84375 0.6875q0.3125 0.4375 0.3125 1.0q0 1.03125 -0.84375 1.578125q-0.84375 0.5625 -2.453125 0.5625q-1.125 0 -1.796875 -0.234375q-0.65625 -0.234375 -0.9375 -0.703125q-0.28125 -0.46875 -0.28125 -1.203125l1.109375 0q0 0.4375 0.15625 0.671875q0.171875 0.25 0.578125 0.375q0.40625 0.125 1.171875 0.125q1.109375 0 1.578125 -0.28125q0.46875 -0.265625 0.46875 -0.8125q0 -0.484375 -0.375 -0.75q-0.359375 -0.25 -1.03125 -0.25l-1.109375 0q-0.890625 0 -1.359375 -0.375q-0.453125 -0.375 -0.453125 -0.953125q0 -0.34375 0.203125 -0.65625q0.203125 -0.328125 0.578125 -0.578125q-0.625 -0.328125 -0.90625 -0.796875q-0.28125 -0.46875 -0.28125 -1.15625q0 -0.703125 0.34375 -1.265625q0.359375 -0.5625 0.96875 -0.875q0.625 -0.3125 1.390625 -0.3125q0.828125 0.015625 1.375 -0.046875q0.5625 -0.078125 0.921875 -0.203125q0.375 -0.140625 0.921875 -0.375l0.359375 1.109375zm-3.578125 0.40625q-0.6875 0 -1.078125 0.4375q-0.375 0.421875 -0.375 1.125q0 0.71875 0.375 1.15625q0.390625 0.4375 1.109375 0.4375q0.71875 0 1.09375 -0.421875q0.375 -0.421875 0.375 -1.1875q0 -1.546875 -1.5 -1.546875z" fill-rule="nonzero"></path><path fill="#000000" fill-opacity="0.0" d="m392.72952 387.10815l127.55905 0l0 44.53543l-127.55905 0z" fill-rule="evenodd"></path><path fill="#000000" d="m457.25934 396.83212q0.828125 0 1.390625 0.21875q0.5625 0.203125 1.15625 0.6875l-0.703125 0.8125q-0.828125 -0.671875 -1.765625 -0.671875q-1.140625 0 -1.84375 0.875q-0.703125 0.875 -0.703125 2.828125q0 1.890625 0.6875 2.796875q0.703125 0.890625 1.84375 0.890625q0.59375 0 1.03125 -0.203125q0.4375 -0.203125 0.9375 -0.5625l0.625 0.8125q-0.4375 0.4375 -1.109375 0.734375q-0.65625 0.28125 -1.515625 0.28125q-1.125 0 -2.0 -0.546875q-0.875 -0.5625 -1.359375 -1.625q-0.484375 -1.078125 -0.484375 -2.578125q0 -1.515625 0.5 -2.578125q0.515625 -1.078125 1.375 -1.625q0.875 -0.546875 1.9375 -0.546875zm7.22937 2.15625q0.375 0 0.703125 0.078125l-0.234375 1.203125q-0.3125 -0.078125 -0.609375 -0.078125q-0.65625 0 -1.0625 0.484375q-0.390625 0.46875 -0.609375 1.484375l0 4.015625l-1.234375 0l0 -7.03125l1.046875 0l0.125 1.4375q0.28125 -0.796875 0.75 -1.1875q0.484375 -0.40625 1.125 -0.40625zm7.410248 3.46875q0 0.3125 -0.03125 0.625l-4.484375 0q0.078125 1.15625 0.578125 1.703125q0.515625 0.546875 1.3125 0.546875q0.515625 0 0.9375 -0.140625q0.421875 -0.15625 0.890625 -0.46875l0.53125 0.734375q-1.109375 0.875 -2.453125 0.875q-1.453125 0 -2.28125 -0.953125q-0.8125 -0.96875 -0.8125 -2.640625q0 -1.09375 0.34375 -1.9375q0.359375 -0.84375 1.015625 -1.328125q0.65625 -0.484375 1.546875 -0.484375q1.40625 0 2.15625 0.921875q0.75 0.921875 0.75 2.546875zm-1.21875 -0.359375q0 -1.046875 -0.421875 -1.578125q-0.40625 -0.546875 -1.234375 -0.546875q-1.5 0 -1.640625 2.203125l3.296875 0l0 -0.078125zm7.904419 2.4375q0 0.421875 0.140625 0.640625q0.15625 0.203125 0.4375 0.3125l-0.28125 0.84375q-0.546875 -0.0625 -0.875 -0.296875q-0.328125 -0.25 -0.484375 -0.75q-0.71875 1.046875 -2.09375 1.046875q-1.046875 0 -1.65625 -0.578125q-0.59375 -0.59375 -0.59375 -1.53125q0 -1.125 0.8125 -1.71875q0.8125 -0.609375 2.28125 -0.609375l1.078125 0l0 -0.515625q0 -0.75 -0.359375 -1.0625q-0.359375 -0.328125 -1.09375 -0.328125q-0.78125 0 -1.90625 0.375l-0.296875 -0.890625q1.296875 -0.484375 2.421875 -0.484375q1.234375 0 1.84375 0.609375q0.625 0.609375 0.625 1.734375l0 3.203125zm-2.875 0.875q1.046875 0 1.640625 -1.09375l0 -1.609375l-0.90625 0q-1.953125 0 -1.953125 1.4375q0 0.625 0.296875 0.953125q0.3125 0.3125 0.921875 0.3125zm8.937988 0.453125q-0.6875 0.46875 -1.578125 0.46875q-0.890625 0 -1.390625 -0.5q-0.5 -0.515625 -0.5 -1.5l0 -4.234375l-1.21875 0l0 -0.953125l1.21875 0l0 -1.578125l1.234375 -0.140625l0 1.71875l1.65625 0l-0.125 0.953125l-1.53125 0l0 4.1875q0 0.546875 0.1875 0.796875q0.1875 0.234375 0.640625 0.234375q0.421875 0 0.9375 -0.28125l0.46875 0.828125zm2.498932 -6.71875l0 7.03125l-1.234375 0l0 -7.03125l1.234375 0zm-0.640625 -3.359375q0.390625 0 0.625 0.234375q0.234375 0.234375 0.234375 0.59375q0 0.359375 -0.234375 0.59375q-0.234375 0.234375 -0.625 0.234375q-0.375 0 -0.625 -0.234375q-0.234375 -0.234375 -0.234375 -0.59375q0 -0.359375 0.234375 -0.59375q0.25 -0.234375 0.625 -0.234375zm8.321014 3.359375l-2.390625 7.03125l-1.46875 0l-2.421875 -7.03125l1.328125 0l1.84375 5.9375l1.8125 -5.9375l1.296875 0zm2.6355286 0l0 7.03125l-1.234375 0l0 -7.03125l1.234375 0zm-0.640625 -3.359375q0.390625 0 0.625 0.234375q0.234375 0.234375 0.234375 0.59375q0 0.359375 -0.234375 0.59375q-0.234375 0.234375 -0.625 0.234375q-0.375 0 -0.625 -0.234375q-0.234375 -0.234375 -0.234375 -0.59375q0 -0.359375 0.234375 -0.59375q0.25 -0.234375 0.625 -0.234375zm6.7116394 10.078125q-0.6875 0.46875 -1.578125 0.46875q-0.890625 0 -1.390625 -0.5q-0.5 -0.515625 -0.5 -1.5l0 -4.234375l-1.21875 0l0 -0.953125l1.21875 0l0 -1.578125l1.234375 -0.140625l0 1.71875l1.65625 0l-0.125 0.953125l-1.53125 0l0 4.1875q0 0.546875 0.1875 0.796875q0.1875 0.234375 0.640625 0.234375q0.421875 0 0.9375 -0.28125l0.46875 0.828125zm4.077057 0.359375q-0.40625 1.21875 -1.15625 1.921875q-0.734375 0.71875 -2.109375 0.875l-0.125 -0.96875q0.6875 -0.109375 1.09375 -0.34375q0.421875 -0.21875 0.65625 -0.578125q0.25 -0.359375 0.46875 -0.953125l-0.40625 0l-2.359375 -7.03125l1.296875 0l1.875 6.140625l1.84375 -6.140625l1.265625 0l-2.34375 7.078125zm4.073059 -1.734375q0.390625 0 0.65625 0.265625q0.265625 0.265625 0.265625 0.65625q0 0.40625 -0.234375 0.9375l-0.890625 2.046875l-0.890625 0l0.546875 -2.21875q-0.1875 -0.140625 -0.28125 -0.328125q-0.09375 -0.203125 -0.09375 -0.4375q0 -0.390625 0.265625 -0.65625q0.265625 -0.265625 0.65625 -0.265625z" fill-rule="nonzero"></path><path fill="#000000" d="m449.9743 418.45712q0 0.3125 -0.03125 0.625l-4.484375 0q0.078125 1.15625 0.578125 1.703125q0.515625 0.546875 1.3125 0.546875q0.515625 0 0.9375 -0.140625q0.421875 -0.15625 0.890625 -0.46875l0.53125 0.734375q-1.109375 0.875 -2.453125 0.875q-1.453125 0 -2.28125 -0.953125q-0.8125 -0.96875 -0.8125 -2.640625q0 -1.09375 0.34375 -1.9375q0.359375 -0.84375 1.015625 -1.328125q0.65625 -0.484375 1.546875 -0.484375q1.40625 0 2.15625 0.921875q0.75 0.921875 0.75 2.546875zm-1.21875 -0.359375q0 -1.046875 -0.421875 -1.578125q-0.40625 -0.546875 -1.234375 -0.546875q-1.5 0 -1.640625 2.203125l3.296875 0l0 -0.078125zm5.857544 0.3125l2.4375 3.765625l-1.46875 0l-1.71875 -2.96875l-1.75 2.96875l-1.390625 0l2.453125 -3.703125l-2.171875 -3.328125l1.4375 0l1.46875 2.578125l1.484375 -2.578125l1.390625 0l-2.171875 3.265625zm6.9953613 -3.421875q1.359375 0 1.984375 0.96875q0.625 0.953125 0.625 2.703125q0 1.65625 -0.71875 2.671875q-0.71875 1.0 -2.046875 1.0q-1.171875 0 -1.828125 -0.796875l0 3.328125l-1.234375 0.15625l0 -9.875l1.046875 0l0.09375 0.953125q0.390625 -0.53125 0.9375 -0.8125q0.546875 -0.296875 1.140625 -0.296875zm-0.453125 6.34375q1.734375 0 1.734375 -2.671875q0 -2.6875 -1.578125 -2.6875q-0.515625 0 -0.953125 0.3125q-0.421875 0.296875 -0.734375 0.765625l0 3.4375q0.265625 0.40625 0.65625 0.625q0.40625 0.21875 0.875 0.21875zm6.557495 1.0q-0.6875 0 -1.078125 -0.40625q-0.390625 -0.40625 -0.390625 -1.140625l0 -8.453125l1.21875 -0.15625l0 8.59375q0 0.28125 0.09375 0.421875q0.109375 0.125 0.34375 0.125q0.265625 0 0.453125 -0.078125l0.328125 0.859375q-0.4375 0.234375 -0.96875 0.234375zm5.139496 -7.34375q1.484375 0 2.296875 0.984375q0.828125 0.984375 0.828125 2.6875q0 1.09375 -0.375 1.921875q-0.375 0.828125 -1.09375 1.296875q-0.703125 0.453125 -1.671875 0.453125q-1.484375 0 -2.3125 -0.984375q-0.8125 -0.984375 -0.8125 -2.671875q0 -1.09375 0.359375 -1.921875q0.375 -0.84375 1.078125 -1.296875q0.71875 -0.46875 1.703125 -0.46875zm0 0.984375q-1.828125 0 -1.828125 2.703125q0 2.671875 1.8125 2.671875q1.8125 0 1.8125 -2.6875q0 -2.6875 -1.796875 -2.6875zm8.18985 -0.984375q0.375 0 0.703125 0.078125l-0.234375 1.203125q-0.3125 -0.078125 -0.609375 -0.078125q-0.65625 0 -1.0625 0.484375q-0.390625 0.46875 -0.609375 1.484375l0 4.015625l-1.234375 0l0 -7.03125l1.046875 0l0.125 1.4375q0.28125 -0.796875 0.75 -1.1875q0.484375 -0.40625 1.125 -0.40625zm6.832123 5.546875q0 0.421875 0.140625 0.640625q0.15625 0.203125 0.4375 0.3125l-0.28125 0.84375q-0.546875 -0.0625 -0.875 -0.296875q-0.328125 -0.25 -0.484375 -0.75q-0.71875 1.046875 -2.09375 1.046875q-1.046875 0 -1.65625 -0.578125q-0.59375 -0.59375 -0.59375 -1.53125q0 -1.125 0.8125 -1.71875q0.8125 -0.609375 2.28125 -0.609375l1.078125 0l0 -0.515625q0 -0.75 -0.359375 -1.0625q-0.359375 -0.328125 -1.09375 -0.328125q-0.78125 0 -1.90625 0.375l-0.296875 -0.890625q1.296875 -0.484375 2.421875 -0.484375q1.234375 0 1.84375 0.609375q0.625 0.609375 0.625 1.734375l0 3.203125zm-2.875 0.875q1.046875 0 1.640625 -1.09375l0 -1.609375l-0.90625 0q-1.953125 0 -1.953125 1.4375q0 0.625 0.296875 0.953125q0.3125 0.3125 0.921875 0.3125zm8.937988 0.453125q-0.6875 0.46875 -1.578125 0.46875q-0.890625 0 -1.390625 -0.5q-0.5 -0.515625 -0.5 -1.5l0 -4.234375l-1.21875 0l0 -0.953125l1.21875 0l0 -1.578125l1.234375 -0.140625l0 1.71875l1.65625 0l-0.125 0.953125l-1.53125 0l0 4.1875q0 0.546875 0.1875 0.796875q0.1875 0.234375 0.640625 0.234375q0.421875 0 0.9375 -0.28125l0.46875 0.828125zm2.498932 -6.71875l0 7.03125l-1.234375 0l0 -7.03125l1.234375 0zm-0.640625 -3.359375q0.390625 0 0.625 0.234375q0.234375 0.234375 0.234375 0.59375q0 0.359375 -0.234375 0.59375q-0.234375 0.234375 -0.625 0.234375q-0.375 0 -0.625 -0.234375q-0.234375 -0.234375 -0.234375 -0.59375q0 -0.359375 0.234375 -0.59375q0.25 -0.234375 0.625 -0.234375zm5.8053894 3.203125q1.484375 0 2.296875 0.984375q0.828125 0.984375 0.828125 2.6875q0 1.09375 -0.375 1.921875q-0.375 0.828125 -1.09375 1.296875q-0.703125 0.453125 -1.671875 0.453125q-1.484375 0 -2.3125 -0.984375q-0.8125 -0.984375 -0.8125 -2.671875q0 -1.09375 0.359375 -1.921875q0.375 -0.84375 1.078125 -1.296875q0.71875 -0.46875 1.703125 -0.46875zm0 0.984375q-1.828125 0 -1.828125 2.703125q0 2.671875 1.8125 2.671875q1.8125 0 1.8125 -2.6875q0 -2.6875 -1.796875 -2.6875zm8.455475 -0.984375q0.953125 0 1.484375 0.578125q0.546875 0.578125 0.546875 1.578125l0 5.03125l-1.21875 0l0 -4.859375q0 -0.75 -0.28125 -1.046875q-0.28125 -0.3125 -0.828125 -0.3125q-0.5625 0 -1.0 0.328125q-0.421875 0.3125 -0.78125 0.90625l0 4.984375l-1.234375 0l0 -7.03125l1.046875 0l0.109375 1.046875q0.375 -0.5625 0.921875 -0.875q0.5625 -0.328125 1.234375 -0.328125z" fill-rule="nonzero"></path><path fill="#000000" fill-opacity="0.0" d="m31.324612 1.7374268l0 348.31497" fill-rule="evenodd"></path><path stroke="#000000" stroke-width="1.0" stroke-linejoin="round" stroke-linecap="butt" d="m31.324612 7.7374263l0 336.31494" fill-rule="evenodd"></path><path fill="#000000" stroke="#000000" stroke-width="1.0" stroke-linecap="butt" d="m32.976345 7.7374268l-1.6517334 -4.5380974l-1.6517334 4.5380974z" fill-rule="evenodd"></path><path fill="#000000" stroke="#000000" stroke-width="1.0" stroke-linecap="butt" d="m29.672878 344.05237l1.6517334 4.538086l1.6517334 -4.538086z" fill-rule="evenodd"></path><path fill="#000000" fill-opacity="0.0" d="m-2.4006999 344.15005l0 -136.06299l41.732285 0l0 136.06299z" fill-rule="evenodd"></path><path fill="#000000" d="m23.265442 329.38443l0 1.6875l-7.796875 3.734375q0.921875 -0.078125 1.703125 -0.125q0.78125 -0.046875 1.875 -0.046875l4.21875 0l0 1.1875l-9.1875 0l0 -1.65625l7.8125 -3.765625q-0.34375 0.03125 -1.203125 0.109375q-0.875 0.0625 -1.59375 0.0625l-5.015625 0l0 -1.1875l9.1875 0zm-3.71875 -7.915558q0.3125 0 0.625 0.03125l0 4.484375q1.15625 -0.078125 1.703125 -0.578125q0.546875 -0.515625 0.546875 -1.3125q0 -0.515625 -0.140625 -0.9375q-0.15625 -0.421875 -0.46875 -0.890625l0.734375 -0.53125q0.875 1.109375 0.875 2.453125q0 1.453125 -0.953125 2.28125q-0.96875 0.8125 -2.640625 0.8125q-1.09375 0 -1.9375 -0.34375q-0.84375 -0.359375 -1.328125 -1.015625q-0.484375 -0.65625 -0.484375 -1.546875q0 -1.40625 0.921875 -2.15625q0.921875 -0.75 2.546875 -0.75zm-0.359375 1.21875q-1.046875 0 -1.578125 0.421875q-0.546875 0.40625 -0.546875 1.234375q0 1.5 2.203125 1.640625l0 -3.296875l-0.078125 0zm-2.953125 -11.201294l7.03125 1.609375l0 1.65625l-5.921875 1.234375l5.921875 1.265625l0 1.625l-7.03125 1.640625l0 -1.234375l6.171875 -1.265625l-6.171875 -1.375l0 -1.375l6.171875 -1.328125l-6.171875 -1.265625l0 -1.1875zm-0.15625 -6.9631653q0 -0.71875 0.203125 -1.28125q0.203125 -0.578125 0.59375 -1.109375l0.78125 0.53125q-0.3125 0.46875 -0.453125 0.90625q-0.140625 0.4375 -0.140625 0.90625q0 0.609375 0.25 0.953125q0.234375 0.34375 0.65625 0.34375q0.4375 0 0.671875 -0.328125q0.234375 -0.328125 0.46875 -1.171875q0.296875 -1.171875 0.796875 -1.75q0.5 -0.578125 1.390625 -0.578125q1.03125 0 1.578125 0.8125q0.546875 0.796875 0.546875 1.953125q0 1.59375 -0.921875 2.65625l-0.734375 -0.65625q0.671875 -0.890625 0.671875 -1.96875q0 -0.703125 -0.28125 -1.109375q-0.296875 -0.40625 -0.78125 -0.40625q-0.359375 0 -0.578125 0.15625q-0.21875 0.140625 -0.390625 0.5q-0.171875 0.359375 -0.359375 1.046875q-0.28125 1.125 -0.765625 1.625q-0.5 0.5 -1.265625 0.5q-0.546875 0 -0.984375 -0.328125q-0.453125 -0.328125 -0.703125 -0.90625q-0.25 -0.578125 -0.25 -1.296875zm7.234375 -7.1304626q1.21875 0.40625 1.921875 1.15625q0.71875 0.734375 0.875 2.109375l-0.96875 0.125q-0.109375 -0.6875 -0.34375 -1.09375q-0.21875 -0.421875 -0.578125 -0.65625q-0.359375 -0.25 -0.953125 -0.46875l0 0.40625l-7.03125 2.359375l0 -1.296875l6.140625 -1.875l-6.140625 -1.84375l0 -1.265625l7.078125 2.34375zm-7.234375 -5.651184q0 -0.71875 0.203125 -1.28125q0.203125 -0.578125 0.59375 -1.109375l0.78125 0.53125q-0.3125 0.46875 -0.453125 0.90625q-0.140625 0.4375 -0.140625 0.90625q0 0.609375 0.25 0.953125q0.234375 0.34375 0.65625 0.34375q0.4375 0 0.671875 -0.328125q0.234375 -0.328125 0.46875 -1.171875q0.296875 -1.171875 0.796875 -1.75q0.5 -0.578125 1.390625 -0.578125q1.03125 0 1.578125 0.8125q0.546875 0.796875 0.546875 1.953125q0 1.59375 -0.921875 2.65625l-0.734375 -0.65625q0.671875 -0.890625 0.671875 -1.96875q0 -0.703125 -0.28125 -1.109375q-0.296875 -0.40625 -0.78125 -0.40625q-0.359375 0 -0.578125 0.15625q-0.21875 0.140625 -0.390625 0.5q-0.171875 0.359375 -0.359375 1.046875q-0.28125 1.125 -0.765625 1.625q-0.5 0.5 -1.265625 0.5q-0.546875 0 -0.984375 -0.328125q-0.453125 -0.328125 -0.703125 -0.90625q-0.25 -0.578125 -0.25 -1.296875zm6.875 -7.8648376q0.46875 0.6875 0.46875 1.578125q0 0.890625 -0.5 1.390625q-0.515625 0.5 -1.5 0.5l-4.234375 0l0 1.21875l-0.953125 0l0 -1.21875l-1.578125 0l-0.140625 -1.234375l1.71875 0l0 -1.65625l0.953125 0.125l0 1.53125l4.1875 0q0.546875 0 0.796875 -0.1875q0.234375 -0.1875 0.234375 -0.640625q0 -0.421875 -0.28125 -0.9375l0.828125 -0.46875zm-3.40625 -6.577057q0.3125 0 0.625 0.03125l0 4.484375q1.15625 -0.078125 1.703125 -0.578125q0.546875 -0.515625 0.546875 -1.3125q0 -0.515625 -0.140625 -0.9375q-0.15625 -0.421875 -0.46875 -0.890625l0.734375 -0.53125q0.875 1.109375 0.875 2.453125q0 1.453125 -0.953125 2.28125q-0.96875 0.8125 -2.640625 0.8125q-1.09375 0 -1.9375 -0.34375q-0.84375 -0.359375 -1.328125 -1.015625q-0.484375 -0.65625 -0.484375 -1.546875q0 -1.40625 0.921875 -2.15625q0.921875 -0.75 2.546875 -0.75zm-0.359375 1.21875q-1.046875 0 -1.578125 0.421875q-0.546875 0.40625 -0.546875 1.234375q0 1.5 2.203125 1.640625l0 -3.296875l-0.078125 0zm-3.109375 -10.216919q0 -0.875 0.578125 -1.390625q0.578125 -0.515625 1.578125 -0.515625l5.03125 0l0 1.21875l-4.859375 0q-1.359375 0 -1.359375 0.984375q0 0.53125 0.296875 0.890625q0.296875 0.359375 0.9375 0.765625l4.984375 0l0 1.234375l-4.859375 0q-1.359375 0 -1.359375 0.984375q0 0.53125 0.3125 0.890625q0.296875 0.359375 0.921875 0.75l4.984375 0l0 1.234375l-7.03125 0l0 -1.046875l1.03125 -0.109375q-1.1875 -0.796875 -1.1875 -2.03125q0 -0.65625 0.34375 -1.109375q0.328125 -0.46875 0.921875 -0.65625q-0.609375 -0.421875 -0.9375 -0.921875q-0.328125 -0.5 -0.328125 -1.171875zm0 -6.2815247q0 -0.71875 0.203125 -1.28125q0.203125 -0.578125 0.59375 -1.109375l0.78125 0.53125q-0.3125 0.46875 -0.453125 0.90625q-0.140625 0.4375 -0.140625 0.90625q0 0.609375 0.25 0.953125q0.234375 0.34375 0.65625 0.34375q0.4375 0 0.671875 -0.328125q0.234375 -0.328125 0.46875 -1.171875q0.296875 -1.171875 0.796875 -1.75q0.5 -0.578125 1.390625 -0.578125q1.03125 0 1.578125 0.8125q0.546875 0.796875 0.546875 1.953125q0 1.59375 -0.921875 2.65625l-0.734375 -0.65625q0.671875 -0.890625 0.671875 -1.96875q0 -0.703125 -0.28125 -1.109375q-0.296875 -0.40625 -0.78125 -0.40625q-0.359375 0 -0.578125 0.15625q-0.21875 0.140625 -0.390625 0.5q-0.171875 0.359375 -0.359375 1.046875q-0.28125 1.125 -0.765625 1.625q-0.5 0.5 -1.265625 0.5q-0.546875 0 -0.984375 -0.328125q-0.453125 -0.328125 -0.703125 -0.90625q-0.25 -0.578125 -0.25 -1.296875z" fill-rule="nonzero"></path><path fill="#000000" fill-opacity="0.0" d="m-8.0 198.8328l0 -196.7874l41.732285 0l0 196.7874z" fill-rule="evenodd"></path><path fill="#000000" d="m14.344782 156.36581l9.1875 0l0 1.265625l-9.1875 0l0 -1.265625zm8.875 -6.150528q0.46875 0.6875 0.46875 1.578125q0 0.890625 -0.5 1.390625q-0.515625 0.5 -1.5 0.5l-4.234375 0l0 1.21875l-0.953125 0l0 -1.21875l-1.578125 0l-0.140625 -1.234375l1.71875 0l0 -1.65625l0.953125 0.125l0 1.53125l4.1875 0q0.546875 0 0.796875 -0.1875q0.234375 -0.1875 0.234375 -0.640625q0 -0.421875 -0.28125 -0.9375l0.828125 -0.46875zm-3.40625 -6.577057q0.3125 0 0.625 0.03125l0 4.484375q1.15625 -0.078125 1.703125 -0.578125q0.546875 -0.515625 0.546875 -1.3125q0 -0.515625 -0.140625 -0.9375q-0.15625 -0.421875 -0.46875 -0.890625l0.734375 -0.53125q0.875 1.109375 0.875 2.453125q0 1.453125 -0.953125 2.28125q-0.96875 0.8125 -2.640625 0.8125q-1.09375 0 -1.9375 -0.34375q-0.84375 -0.359375 -1.328125 -1.015625q-0.484375 -0.65625 -0.484375 -1.546875q0 -1.40625 0.921875 -2.15625q0.921875 -0.75 2.546875 -0.75zm-0.359375 1.21875q-1.046875 0 -1.578125 0.421875q-0.546875 0.40625 -0.546875 1.234375q0 1.5 2.203125 1.640625l0 -3.296875l-0.078125 0zm-3.109375 -6.216919q0 -0.375 0.078125 -0.703125l1.203125 0.234375q-0.078125 0.3125 -0.078125 0.609375q0 0.65625 0.484375 1.0625q0.46875 0.390625 1.484375 0.609375l4.015625 0l0 1.234375l-7.03125 0l0 -1.046875l1.4375 -0.125q-0.796875 -0.28125 -1.1875 -0.75q-0.40625 -0.484375 -0.40625 -1.125zm5.546875 -6.832138q0.421875 0 0.640625 -0.140625q0.203125 -0.15625 0.3125 -0.4375l0.84375 0.28125q-0.0625 0.546875 -0.296875 0.875q-0.25 0.328125 -0.75 0.484375q1.046875 0.71875 1.046875 2.09375q0 1.046875 -0.578125 1.65625q-0.59375 0.59375 -1.53125 0.59375q-1.125 0 -1.71875 -0.8125q-0.609375 -0.8125 -0.609375 -2.28125l0 -1.078125l-0.515625 0q-0.75 0 -1.0625 0.359375q-0.328125 0.359375 -0.328125 1.09375q0 0.78125 0.375 1.90625l-0.890625 0.296875q-0.484375 -1.296875 -0.484375 -2.421875q0 -1.234375 0.609375 -1.84375q0.609375 -0.625 1.734375 -0.625l3.203125 0zm0.875 2.875q0 -1.046875 -1.09375 -1.640625l-1.609375 0l0 0.90625q0 1.953125 1.4375 1.953125q0.625 0 0.953125 -0.296875q0.3125 -0.3125 0.3125 -0.921875zm0.453125 -8.937981q0.46875 0.6875 0.46875 1.578125q0 0.8906326 -0.5 1.3906326q-0.515625 0.5 -1.5 0.5l-4.234375 0l0 1.21875l-0.953125 0l0 -1.21875l-1.578125 0l-0.140625 -1.2343826l1.71875 0l0 -1.65625l0.953125 0.125l0 1.53125l4.1875 0q0.546875 0 0.796875 -0.1875q0.234375 -0.1875 0.234375 -0.640625q0 -0.421875 -0.28125 -0.9375l0.828125 -0.46875zm-6.71875 -2.498932l7.03125 0l0 1.234375l-7.03125 0l0 -1.234375zm-3.359375 0.640625q0 -0.390625 0.234375 -0.625q0.234375 -0.234375 0.59375 -0.234375q0.359375 0 0.59375 0.234375q0.234375 0.234375 0.234375 0.625q0 0.375 -0.234375 0.625q-0.234375 0.234375 -0.59375 0.234375q-0.359375 0 -0.59375 -0.234375q-0.234375 -0.25 -0.234375 -0.625zm3.203125 -5.8053894q0 -1.484375 0.984375 -2.296875q0.984375 -0.828125 2.6875 -0.828125q1.09375 0 1.921875 0.375q0.828125 0.375 1.296875 1.09375q0.453125 0.703125 0.453125 1.671875q0 1.484375 -0.984375 2.3125q-0.984375 0.8125 -2.671875 0.8125q-1.09375 0 -1.921875 -0.359375q-0.84375 -0.375 -1.296875 -1.078125q-0.46875 -0.71875 -0.46875 -1.703125zm0.984375 0q0 1.828125 2.703125 1.828125q2.671875 0 2.671875 -1.8125q0 -1.8125 -2.6875 -1.8125q-2.6875 0 -2.6875 1.796875zm-0.984375 -8.455475q0 -0.953125 0.578125 -1.484375q0.578125 -0.546875 1.578125 -0.546875l5.03125 0l0 1.21875l-4.859375 0q-0.75 0 -1.046875 0.28125q-0.3125 0.28125 -0.3125 0.828125q0 0.5625 0.328125 1.0q0.3125 0.421875 0.90625 0.78125l4.984375 0l0 1.234375l-7.03125 0l0 -1.046875l1.046875 -0.109375q-0.5625 -0.375 -0.875 -0.921875q-0.328125 -0.5625 -0.328125 -1.234375zm0.265625 -10.639069l2.0 0l0 -1.953125l1.015625 0l0 1.953125l1.984375 0l0 1.109375l-1.984375 0l0 1.9375l-1.015625 0l0 -1.9375l-2.0 0l0 -1.109375zm-0.265625 -14.620148q0 -0.875 0.578125 -1.390625q0.578125 -0.515625 1.578125 -0.515625l5.03125 0l0 1.21875l-4.859375 0q-1.359375 0 -1.359375 0.984375q0 0.53125 0.296875 0.890625q0.296875 0.359375 0.9375 0.765625l4.984375 0l0 1.234375l-4.859375 0q-1.359375 0 -1.359375 0.984375q0 0.53125 0.3125 0.890625q0.296875 0.359375 0.921875 0.75l4.984375 0l0 1.234375l-7.03125 0l0 -1.046875l1.03125 -0.109375q-1.1875 -0.796875 -1.1875 -2.03125q0 -0.65625 0.34375 -1.109375q0.328125 -0.46875 0.921875 -0.65625q-0.609375 -0.421875 -0.9375 -0.921875q-0.328125 -0.5 -0.328125 -1.171875zm3.46875 -9.68779q0.3125 0 0.625 0.03125l0 4.484375q1.15625 -0.078125 1.703125 -0.578125q0.546875 -0.515625 0.546875 -1.3125q0 -0.515625 -0.140625 -0.9375q-0.15625 -0.421875 -0.46875 -0.890625l0.734375 -0.53125q0.875 1.109375 0.875 2.453125q0 1.453125 -0.953125 2.28125q-0.96875 0.8125 -2.640625 0.8125q-1.09375 0 -1.9375 -0.34375q-0.84375 -0.359375 -1.328125 -1.015625q-0.484375 -0.65625 -0.484375 -1.546875q0 -1.40625 0.921875 -2.15625q0.921875 -0.75 2.546875 -0.75zm-0.359375 1.21875q-1.046875 0 -1.578125 0.421875q-0.546875 0.40625 -0.546875 1.234375q0 1.5 2.203125 1.640625l0 -3.296875l-0.078125 0zm2.4375 -7.904419q0.421875 0 0.640625 -0.140625q0.203125 -0.15625 0.3125 -0.4375l0.84375 0.28125q-0.0625 0.546875 -0.296875 0.875q-0.25 0.328125 -0.75 0.484375q1.046875 0.71875 1.046875 2.09375q0 1.046875 -0.578125 1.65625q-0.59375 0.59375 -1.53125 0.59375q-1.125 0 -1.71875 -0.8125q-0.609375 -0.8125 -0.609375 -2.28125l0 -1.078125l-0.515625 0q-0.75 0 -1.0625 0.359375q-0.328125 0.359375 -0.328125 1.09375q0 0.78125 0.375 1.90625l-0.890625 0.296875q-0.484375 -1.296875 -0.484375 -2.421875q0 -1.234375 0.609375 -1.84375q0.609375 -0.625 1.734375 -0.625l3.203125 0zm0.875 2.875q0 -1.046875 -1.09375 -1.640625l-1.609375 0l0 0.90625q0 1.953125 1.4375 1.953125q0.625 0 0.953125 -0.296875q0.3125 -0.3125 0.3125 -0.921875zm-6.421875 -7.297344q0 -0.71875 0.203125 -1.28125q0.203125 -0.578125 0.59375 -1.109375l0.78125 0.53125q-0.3125 0.46875 -0.453125 0.90625q-0.140625 0.4375 -0.140625 0.90625q0 0.6093712 0.25 0.9531212q0.234375 0.34375 0.65625 0.34375q0.4375 0 0.671875 -0.328125q0.234375 -0.328125 0.46875 -1.1718712q0.296875 -1.171875 0.796875 -1.75q0.5 -0.578125 1.390625 -0.578125q1.03125 0 1.578125 0.8125q0.546875 0.796875 0.546875 1.953125q0 1.5937462 -0.921875 2.6562462l-0.734375 -0.65625q0.671875 -0.890625 0.671875 -1.9687462q0 -0.703125 -0.28125 -1.109375q-0.296875 -0.40625 -0.78125 -0.40625q-0.359375 0 -0.578125 0.15625q-0.21875 0.140625 -0.390625 0.5q-0.171875 0.359375 -0.359375 1.046875q-0.28125 1.1249962 -0.765625 1.6249962q-0.5 0.5 -1.265625 0.5q-0.546875 0 -0.984375 -0.328125q-0.453125 -0.328125 -0.703125 -0.90625q-0.25 -0.578125 -0.25 -1.2968712zm7.1875 -9.536713l0 1.046875l-1.09375 0.09375q0.65625 0.40625 0.953125 0.921875q0.296875 0.515625 0.296875 1.265625q0 0.921875 -0.546875 1.4375q-0.5625 0.515625 -1.59375 0.515625l-5.046875 0l0 -1.21875l4.90625 0q0.71875 0 1.03125 -0.25q0.296875 -0.265625 0.296875 -0.828125q0 -1.03125 -1.21875 -1.765625l-5.015625 0l0 -1.21875l7.03125 0zm-7.1875 -5.5850677q0 -0.375 0.078125 -0.703125l1.203125 0.234375q-0.078125 0.3125 -0.078125 0.609375q0 0.65625 0.484375 1.0625q0.46875 0.390625 1.484375 0.609375l4.015625 0l0 1.234375l-7.03125 0l0 -1.046875l1.4375 -0.125q-0.796875 -0.28125 -1.1875 -0.75q-0.40625 -0.484375 -0.40625 -1.125zm3.46875 -7.410263q0.3125 0 0.625 0.03125l0 4.484375q1.15625 -0.078125 1.703125 -0.578125q0.546875 -0.515625 0.546875 -1.3125q0 -0.515625 -0.140625 -0.9375q-0.15625 -0.421875 -0.46875 -0.890625l0.734375 -0.53125q0.875 1.109375 0.875 2.453125q0 1.453125 -0.953125 2.28125q-0.96875 0.8125 -2.640625 0.8125q-1.09375 0 -1.9375 -0.34375q-0.84375 -0.359375 -1.328125 -1.015625q-0.484375 -0.65625 -0.484375 -1.546875q0 -1.40625 0.921875 -2.15625q0.921875 -0.75 2.546875 -0.75zm-0.359375 1.21875q-1.046875 0 -1.578125 0.421875q-0.546875 0.40625 -0.546875 1.234375q0 1.5 2.203125 1.640625l0 -3.296875l-0.078125 0zm-3.109375 -10.216919q0 -0.875 0.578125 -1.390625q0.578125 -0.515625 1.578125 -0.515625l5.03125 0l0 1.21875l-4.859375 0q-1.359375 0 -1.359375 0.984375q0 0.53125 0.296875 0.890625q0.296875 0.359375 0.9375 0.765625l4.984375 0l0 1.234375l-4.859375 0q-1.359375 0 -1.359375 0.984375q0 0.53125 0.3125 0.890625q0.296875 0.359375 0.921875 0.75l4.984375 0l0 1.234375l-7.03125 0l0 -1.046875l1.03125 -0.109375q-1.1875 -0.796875 -1.1875 -2.03125q0 -0.65625 0.34375 -1.109375q0.328125 -0.46875 0.921875 -0.65625q-0.609375 -0.421875 -0.9375 -0.921875q-0.328125 -0.5 -0.328125 -1.171875zm3.46875 -9.68779q0.3125 0 0.625 0.03125l0 4.484375q1.15625 -0.078125 1.703125 -0.578125q0.546875 -0.515625 0.546875 -1.3125q0 -0.515625 -0.140625 -0.9375q-0.15625 -0.421875 -0.46875 -0.890625l0.734375 -0.53125q0.875 1.109375 0.875 2.453125q0 1.453125 -0.953125 2.28125q-0.96875 0.8125 -2.640625 0.8125q-1.09375 0 -1.9375 -0.34375q-0.84375 -0.359375 -1.328125 -1.015625q-0.484375 -0.65625 -0.484375 -1.546875q0 -1.40625 0.921875 -2.15625q0.921875 -0.75 2.546875 -0.75zm-0.359375 1.21875q-1.046875 0 -1.578125 0.421875q-0.546875 0.40625 -0.546875 1.234375q0 1.5 2.203125 1.640625l0 -3.296875l-0.078125 0zm-3.109375 -6.482544q0 -0.953125 0.578125 -1.484376q0.578125 -0.546875 1.578125 -0.546875l5.03125 0l0 1.218751l-4.859375 0q-0.75 0 -1.046875 0.28125q-0.3125 0.28125 -0.3125 0.828125q0 0.5625 0.328125 1.0q0.3125 0.421875 0.90625 0.78125l4.984375 0l0 1.234375l-7.03125 0l0 -1.046875l1.046875 -0.109375q-0.5625 -0.375 -0.875 -0.921875q-0.328125 -0.5625 -0.328125 -1.234375zm6.875 -8.044633q0.46875 0.6875 0.46875 1.578125q0 0.890625 -0.5 1.390625q-0.515625 0.5 -1.5 0.5l-4.234375 0l0 1.21875l-0.953125 0l0 -1.21875l-1.578125 0l-0.140625 -1.234375l1.71875 0l0 -1.65625l0.953125 0.125l0 1.53125l4.1875 0q0.546875 0 0.796875 -0.1875q0.234375 -0.1875 0.234375 -0.640625q0 -0.421875 -0.28125 -0.9375l0.828125 -0.46875z" fill-rule="nonzero"></path><path fill="#ffffff" d="m165.11882 77.74462l127.55904 0l0 35.9685l-127.55904 0z" fill-rule="evenodd"></path><path stroke="#000000" stroke-width="1.0" stroke-linejoin="round" stroke-linecap="butt" d="m165.11882 77.74462l127.55904 0l0 35.9685l-127.55904 0z" fill-rule="evenodd"></path><path fill="#000000" d="m177.50945 91.18512q0.859375 0 1.5 0.265625q0.65625 0.265625 1.203125 0.78125l-0.796875 0.6875q-0.453125 -0.375 -0.890625 -0.53125q-0.421875 -0.15625 -1.0 -0.15625q-1.109375 0 -1.859375 0.75q-0.734375 0.75 -1.078125 1.90625q-0.34375 1.15625 -0.34375 2.34375q0 1.25 0.515625 1.84375q0.515625 0.578125 1.5625 0.578125q0.953125 0 1.734375 -0.453125l0.40625 -2.734375l-1.59375 0l0 -1.03125l2.984375 0l-0.609375 4.375q-0.6875 0.4375 -1.4375 0.65625q-0.75 0.21875 -1.65625 0.21875q-1.515625 0 -2.375 -0.921875q-0.859375 -0.921875 -0.859375 -2.6875q0 -1.40625 0.5 -2.765625q0.5 -1.359375 1.53125 -2.234375q1.046875 -0.890625 2.5625 -0.890625zm6.3300476 9.5q-1.296875 0 -2.0 -0.765625q-0.703125 -0.78125 -0.703125 -2.140625q0 -0.984375 0.359375 -2.0q0.375 -1.015625 1.1875 -1.71875q0.8125 -0.71875 2.09375 -0.71875q1.296875 0 1.984375 0.78125q0.703125 0.765625 0.703125 2.125q0 0.96875 -0.359375 2.0q-0.359375 1.015625 -1.171875 1.734375q-0.8125 0.703125 -2.09375 0.703125zm0.03125 -0.984375q0.84375 0 1.359375 -0.578125q0.515625 -0.578125 0.734375 -1.390625q0.21875 -0.828125 0.21875 -1.609375q0 -1.796875 -1.4375 -1.796875q-0.84375 0 -1.375 0.59375q-0.515625 0.578125 -0.734375 1.390625q-0.21875 0.8125 -0.21875 1.609375q0 1.78125 1.453125 1.78125zm8.688004 -6.359375q0.65625 0 1.25 0.15625q0.59375 0.140625 1.21875 0.453125l-0.71875 4.984375q-0.03125 0.203125 -0.03125 0.28125q0 0.25 0.09375 0.40625q0.109375 0.140625 0.359375 0.21875l-0.34375 0.84375q-0.5625 -0.0625 -0.875 -0.34375q-0.296875 -0.28125 -0.359375 -0.828125q-0.421875 0.546875 -0.96875 0.859375q-0.53125 0.3125 -1.125 0.3125q-1.0625 0 -1.65625 -0.734375q-0.578125 -0.734375 -0.578125 -1.953125q0 -1.0625 0.390625 -2.125q0.390625 -1.078125 1.21875 -1.796875q0.84375 -0.734375 2.125 -0.734375zm0.03125 0.984375q-0.84375 0 -1.390625 0.5625q-0.546875 0.5625 -0.8125 1.40625q-0.265625 0.84375 -0.265625 1.71875q0 0.859375 0.296875 1.28125q0.3125 0.421875 0.890625 0.421875q0.546875 0 0.984375 -0.328125q0.4375 -0.34375 0.890625 -0.96875l0.546875 -3.875q-0.28125 -0.125 -0.546875 -0.171875q-0.25 -0.046875 -0.59375 -0.046875zm5.255554 4.828125q-0.015625 0.0625 -0.015625 0.171875q0 0.1875 0.078125 0.265625q0.078125 0.078125 0.25 0.078125q0.203125 0 0.484375 -0.09375l0.25 0.890625q-0.5 0.21875 -0.96875 0.21875q-0.609375 0 -0.953125 -0.328125q-0.34375 -0.328125 -0.34375 -0.984375q0 -0.125 0.03125 -0.421875l1.171875 -8.265625l1.21875 -0.15625l-1.203125 8.625zm13.993576 -5.8125q0.703125 0 1.125 0.484375q0.421875 0.46875 0.421875 1.265625q0 0.296875 -0.03125 0.4375l-0.703125 5.0l-1.21875 0l0.703125 -4.90625q0.015625 -0.15625 0.015625 -0.40625q0 -0.484375 -0.203125 -0.65625q-0.1875 -0.1875 -0.546875 -0.1875q-0.515625 0 -1.015625 0.53125q-0.484375 0.515625 -0.96875 1.390625l-0.609375 4.234375l-1.203125 0l0.6875 -4.90625q0.03125 -0.15625 0.03125 -0.40625q0 -0.484375 -0.203125 -0.65625q-0.203125 -0.1875 -0.5625 -0.1875q-0.5 0 -1.0 0.53125q-0.5 0.53125 -0.984375 1.40625l-0.578125 4.21875l-1.203125 0l0.984375 -7.03125l1.03125 0l-0.109375 1.359375q0.53125 -0.734375 1.078125 -1.125q0.5625 -0.390625 1.21875 -0.390625q0.59375 0 1.015625 0.375q0.421875 0.375 0.515625 1.0625q0.53125 -0.71875 1.09375 -1.078125q0.578125 -0.359375 1.21875 -0.359375zm9.020966 1.796875q0 1.34375 -1.203125 1.9375q-1.203125 0.59375 -3.359375 0.84375q0.046875 1.75 1.515625 1.75q0.5 0 0.953125 -0.15625q0.453125 -0.171875 0.9375 -0.5l0.515625 0.828125q-1.1875 0.84375 -2.515625 0.84375q-1.28125 0 -1.984375 -0.75q-0.703125 -0.75 -0.703125 -2.09375q0 -1.0625 0.359375 -2.09375q0.375 -1.03125 1.1875 -1.71875q0.8125 -0.6875 2.078125 -0.6875q1.0625 0 1.640625 0.53125q0.578125 0.515625 0.578125 1.265625zm-4.484375 1.84375q1.640625 -0.1875 2.421875 -0.5625q0.78125 -0.390625 0.78125 -1.25q0 -0.3125 -0.234375 -0.578125q-0.21875 -0.265625 -0.71875 -0.265625q-1.015625 0 -1.5625 0.765625q-0.546875 0.765625 -0.6875 1.890625zm9.249985 -3.640625q0.65625 0 1.25 0.15625q0.59375 0.140625 1.21875 0.453125l-0.71875 4.984375q-0.03125 0.203125 -0.03125 0.28125q0 0.25 0.09375 0.40625q0.109375 0.140625 0.359375 0.21875l-0.34375 0.84375q-0.5625 -0.0625 -0.875 -0.34375q-0.296875 -0.28125 -0.359375 -0.828125q-0.421875 0.546875 -0.96875 0.859375q-0.53125 0.3125 -1.125 0.3125q-1.0625 0 -1.65625 -0.734375q-0.578125 -0.734375 -0.578125 -1.953125q0 -1.0625 0.390625 -2.125q0.390625 -1.078125 1.21875 -1.796875q0.84375 -0.734375 2.125 -0.734375zm0.03125 0.984375q-0.84375 0 -1.390625 0.5625q-0.546875 0.5625 -0.8125 1.40625q-0.265625 0.84375 -0.265625 1.71875q0 0.859375 0.296875 1.28125q0.3125 0.421875 0.890625 0.421875q0.546875 0 0.984375 -0.328125q0.4375 -0.34375 0.890625 -0.96875l0.546875 -3.875q-0.28125 -0.125 -0.546875 -0.171875q-0.25 -0.046875 -0.59375 -0.046875zm6.646179 -0.984375q1.34375 0 2.3125 0.875l-0.59375 0.734375q-0.796875 -0.625 -1.734375 -0.625q-0.625 0 -1.015625 0.25q-0.375 0.25 -0.375 0.6875q0 0.40625 0.3125 0.625q0.3125 0.203125 1.09375 0.4375q1.03125 0.328125 1.5 0.8125q0.484375 0.484375 0.484375 1.296875q0 0.75 -0.40625 1.265625q-0.40625 0.5 -1.078125 0.75q-0.65625 0.234375 -1.421875 0.234375q-1.5625 0 -2.609375 -1.015625l0.703125 -0.703125q0.859375 0.734375 1.953125 0.734375q0.84375 0 1.21875 -0.34375q0.375 -0.359375 0.375 -0.796875q0 -0.359375 -0.140625 -0.578125q-0.140625 -0.21875 -0.453125 -0.375q-0.3125 -0.15625 -0.890625 -0.34375q-1.015625 -0.3125 -1.453125 -0.75q-0.421875 -0.453125 -0.421875 -1.171875q0 -0.484375 0.28125 -0.9375q0.296875 -0.46875 0.890625 -0.765625q0.609375 -0.296875 1.46875 -0.296875zm5.3161163 7.34375q-0.8125 0 -1.28125 -0.453125q-0.453125 -0.46875 -0.453125 -1.28125q0 -0.21875 0.03125 -0.46875l0.703125 -4.984375l1.21875 0l-0.6875 4.9375q-0.046875 0.234375 -0.046875 0.4375q0 0.453125 0.1875 0.65625q0.203125 0.203125 0.59375 0.203125q0.59375 0 1.109375 -0.453125q0.515625 -0.453125 1.015625 -1.203125l0.640625 -4.578125l1.21875 0l-0.984375 7.03125l-1.046875 0l0.09375 -1.296875q-0.515625 0.71875 -1.078125 1.09375q-0.546875 0.359375 -1.234375 0.359375zm9.755096 -7.34375q0.328125 0 0.703125 0.09375l-0.359375 1.1875q-0.25 -0.0625 -0.578125 -0.0625q-0.65625 0 -1.140625 0.5625q-0.484375 0.5625 -0.875 1.6875l-0.53125 3.71875l-1.203125 0l0.984375 -7.03125l1.03125 0l-0.078125 1.453125q0.390625 -0.8125 0.90625 -1.203125q0.53125 -0.40625 1.140625 -0.40625zm6.859253 1.796875q0 1.34375 -1.203125 1.9375q-1.203125 0.59375 -3.359375 0.84375q0.046875 1.75 1.515625 1.75q0.5 0 0.953125 -0.15625q0.453125 -0.171875 0.9375 -0.5l0.515625 0.828125q-1.1875 0.84375 -2.515625 0.84375q-1.28125 0 -1.984375 -0.75q-0.703125 -0.75 -0.703125 -2.09375q0 -1.0625 0.359375 -2.09375q0.375 -1.03125 1.1875 -1.71875q0.8125 -0.6875 2.078125 -0.6875q1.0625 0 1.640625 0.53125q0.578125 0.515625 0.578125 1.265625zm-4.484375 1.84375q1.640625 -0.1875 2.421875 -0.5625q0.78125 -0.390625 0.78125 -1.25q0 -0.3125 -0.234375 -0.578125q-0.21875 -0.265625 -0.71875 -0.265625q-1.015625 0 -1.5625 0.765625q-0.546875 0.765625 -0.6875 1.890625zm13.656235 -3.640625q0.703125 0 1.125 0.484375q0.421875 0.46875 0.421875 1.265625q0 0.296875 -0.03125 0.4375l-0.703125 5.0l-1.21875 0l0.703125 -4.90625q0.015625 -0.15625 0.015625 -0.40625q0 -0.484375 -0.203125 -0.65625q-0.1875 -0.1875 -0.546875 -0.1875q-0.515625 0 -1.015625 0.53125q-0.484375 0.515625 -0.96875 1.390625l-0.609375 4.234375l-1.203125 0l0.6875 -4.90625q0.03125 -0.15625 0.03125 -0.40625q0 -0.484375 -0.203125 -0.65625q-0.203125 -0.1875 -0.5625 -0.1875q-0.5 0 -1.0 0.53125q-0.5 0.53125 -0.984375 1.40625l-0.578125 4.21875l-1.203125 0l0.984375 -7.03125l1.03125 0l-0.109375 1.359375q0.53125 -0.734375 1.078125 -1.125q0.5625 -0.390625 1.21875 -0.390625q0.59375 0 1.015625 0.375q0.421875 0.375 0.515625 1.0625q0.53125 -0.71875 1.09375 -1.078125q0.578125 -0.359375 1.21875 -0.359375zm9.020966 1.796875q0 1.34375 -1.203125 1.9375q-1.203125 0.59375 -3.359375 0.84375q0.046875 1.75 1.515625 1.75q0.5 0 0.953125 -0.15625q0.453125 -0.171875 0.9375 -0.5l0.515625 0.828125q-1.1875 0.84375 -2.515625 0.84375q-1.28125 0 -1.984375 -0.75q-0.703125 -0.75 -0.703125 -2.09375q0 -1.0625 0.359375 -2.09375q0.375 -1.03125 1.1875 -1.71875q0.8125 -0.6875 2.078125 -0.6875q1.0625 0 1.640625 0.53125q0.578125 0.515625 0.578125 1.265625zm-4.484375 1.84375q1.640625 -0.1875 2.421875 -0.5625q0.78125 -0.390625 0.78125 -1.25q0 -0.3125 -0.234375 -0.578125q-0.21875 -0.265625 -0.71875 -0.265625q-1.015625 0 -1.5625 0.765625q-0.546875 0.765625 -0.6875 1.890625zm9.9687195 -3.640625q0.765625 0 1.203125 0.484375q0.453125 0.46875 0.453125 1.296875q0 0.203125 -0.03125 0.46875l-0.703125 4.9375l-1.203125 0l0.6875 -4.90625q0.03125 -0.296875 0.03125 -0.390625q0 -0.453125 -0.203125 -0.65625q-0.203125 -0.203125 -0.578125 -0.203125q-0.609375 0 -1.1875 0.546875q-0.5625 0.546875 -1.03125 1.390625l-0.59375 4.21875l-1.203125 0l0.984375 -7.03125l1.03125 0l-0.109375 1.375q0.53125 -0.734375 1.125 -1.125q0.59375 -0.40625 1.328125 -0.40625zm4.9177856 5.328125q-0.03125 0.265625 -0.03125 0.359375q0 0.328125 0.140625 0.484375q0.15625 0.15625 0.484375 0.15625q0.234375 0 0.46875 -0.078125q0.234375 -0.078125 0.546875 -0.21875l0.390625 0.84375q-0.734375 0.46875 -1.546875 0.46875q-0.8125 0 -1.265625 -0.421875q-0.4375 -0.421875 -0.4375 -1.1875q0 -0.28125 0.03125 -0.421875l0.578125 -4.203125l-1.203125 0l0.125 -0.953125l1.265625 0l0.453125 -1.625l0.953125 -0.09375l-0.234375 1.71875l1.640625 0l-0.265625 0.953125l-1.515625 0l-0.578125 4.21875z" fill-rule="nonzero"></path><path fill="#000000" fill-opacity="0.0" d="m165.11882 95.728874c-15.35434 0 -30.708664 20.677162 -30.708664 41.354332" fill-rule="evenodd"></path><path stroke="#000000" stroke-width="1.0" stroke-linejoin="round" stroke-linecap="butt" d="m165.11882 95.72887c-7.67717 0 -15.35434 5.1692963 -21.112213 12.923233c-2.8789368 3.8769684 -5.2780457 8.400093 -6.957428 13.246307c-0.83969116 2.4231033 -1.4994507 4.926979 -1.9492798 7.471237c-0.056228638 0.31803894 -0.109176636 0.6367035 -0.15878296 0.95591736c-0.024810791 0.15960693 -0.04878235 0.3193512 -0.07191467 0.4792328l-0.040802002 0.29299927" fill-rule="evenodd"></path><path fill="#000000" stroke="#000000" stroke-width="1.0" stroke-linecap="butt" d="m133.18068 130.98265l1.3313751 4.6421967l1.9640656 -4.411911z" fill-rule="evenodd"></path><path fill="#ffffff" d="m348.49658 152.4027l100.8819 0l0 35.96849l-100.8819 0z" fill-rule="evenodd"></path><path stroke="#000000" stroke-width="1.0" stroke-linejoin="round" stroke-linecap="butt" d="m348.49658 152.4027l100.8819 0l0 35.96849l-100.8819 0z" fill-rule="evenodd"></path><path fill="#000000" d="m360.8872 157.84319q0.859375 0 1.5 0.265625q0.65625 0.265625 1.203125 0.78125l-0.796875 0.6875q-0.453125 -0.375 -0.890625 -0.53125q-0.421875 -0.15625 -1.0 -0.15625q-1.109375 0 -1.859375 0.75q-0.734375 0.75 -1.078125 1.90625q-0.34375 1.15625 -0.34375 2.34375q0 1.25 0.515625 1.84375q0.515625 0.578125 1.5625 0.578125q0.953125 0 1.734375 -0.453125l0.40625 -2.734375l-1.59375 0l0 -1.03125l2.984375 0l-0.609375 4.375q-0.6875 0.4375 -1.4375 0.65625q-0.75 0.21875 -1.65625 0.21875q-1.515625 0 -2.375 -0.921875q-0.859375 -0.921875 -0.859375 -2.6875q0 -1.40625 0.5 -2.765625q0.5 -1.359375 1.53125 -2.234375q1.046875 -0.890625 2.5625 -0.890625zm6.3300476 9.5q-1.296875 0 -2.0 -0.765625q-0.703125 -0.78125 -0.703125 -2.140625q0 -0.984375 0.359375 -2.0q0.375 -1.015625 1.1875 -1.71875q0.8125 -0.71875 2.09375 -0.71875q1.296875 0 1.984375 0.78125q0.703125 0.765625 0.703125 2.125q0 0.96875 -0.359375 2.0q-0.359375 1.015625 -1.171875 1.734375q-0.8125 0.703125 -2.09375 0.703125zm0.03125 -0.984375q0.84375 0 1.359375 -0.578125q0.515625 -0.578125 0.734375 -1.390625q0.21875 -0.828125 0.21875 -1.609375q0 -1.796875 -1.4375 -1.796875q-0.84375 0 -1.375 0.59375q-0.515625 0.578125 -0.734375 1.390625q-0.21875 0.8125 -0.21875 1.609375q0 1.78125 1.453125 1.78125zm8.687988 -6.359375q0.65625 0 1.25 0.15625q0.59375 0.140625 1.21875 0.453125l-0.71875 4.984375q-0.03125 0.203125 -0.03125 0.28125q0 0.25 0.09375 0.40625q0.109375 0.140625 0.359375 0.21875l-0.34375 0.84375q-0.5625 -0.0625 -0.875 -0.34375q-0.296875 -0.28125 -0.359375 -0.828125q-0.421875 0.546875 -0.96875 0.859375q-0.53125 0.3125 -1.125 0.3125q-1.0625 0 -1.65625 -0.734375q-0.578125 -0.734375 -0.578125 -1.953125q0 -1.0625 0.390625 -2.125q0.390625 -1.078125 1.21875 -1.796875q0.84375 -0.734375 2.125 -0.734375zm0.03125 0.984375q-0.84375 0 -1.390625 0.5625q-0.546875 0.5625 -0.8125 1.40625q-0.265625 0.84375 -0.265625 1.71875q0 0.859375 0.296875 1.28125q0.3125 0.421875 0.890625 0.421875q0.546875 0 0.984375 -0.328125q0.4375 -0.34375 0.890625 -0.96875l0.546875 -3.875q-0.28125 -0.125 -0.546875 -0.171875q-0.25 -0.046875 -0.59375 -0.046875zm5.255554 4.828125q-0.015625 0.0625 -0.015625 0.171875q0 0.1875 0.078125 0.265625q0.078125 0.078125 0.25 0.078125q0.203125 0 0.484375 -0.09375l0.25 0.890625q-0.5 0.21875 -0.96875 0.21875q-0.609375 0 -0.953125 -0.328125q-0.34375 -0.328125 -0.34375 -0.984375q0 -0.125 0.03125 -0.421875l1.171875 -8.265625l1.21875 -0.15625l-1.203125 8.625z" fill-rule="nonzero"></path><path fill="#000000" d="m358.4497 176.15569l-0.984375 7.03125l-1.203125 0l0.984375 -7.03125l1.203125 0zm-0.3125 -1.703125q-0.359375 0 -0.578125 -0.21875q-0.203125 -0.21875 -0.203125 -0.53125q0 -0.390625 0.265625 -0.640625q0.265625 -0.265625 0.65625 -0.265625q0.359375 0 0.5625 0.21875q0.21875 0.203125 0.21875 0.53125q0 0.390625 -0.265625 0.65625q-0.265625 0.25 -0.65625 0.25zm8.546661 -1.109375l-1.390625 9.84375l-1.0625 0l0.015625 -1.15625q-0.390625 0.625 -0.921875 0.96875q-0.53125 0.34375 -1.203125 0.34375q-1.0625 0 -1.640625 -0.734375q-0.578125 -0.75 -0.578125 -2.046875q0 -1.015625 0.328125 -2.0625q0.34375 -1.0625 1.078125 -1.78125q0.734375 -0.71875 1.84375 -0.71875q1.109375 0 1.8125 0.890625l0.515625 -3.671875l1.203125 0.125zm-3.296875 3.640625q-0.78125 0 -1.28125 0.59375q-0.484375 0.578125 -0.703125 1.421875q-0.21875 0.84375 -0.21875 1.65625q0 0.859375 0.296875 1.296875q0.3125 0.421875 0.875 0.421875q0.625 0 1.078125 -0.390625q0.46875 -0.40625 1.0 -1.234375l0.40625 -2.921875q-0.28125 -0.421875 -0.625 -0.625q-0.34375 -0.21875 -0.828125 -0.21875zm10.182953 0.8125q0 1.34375 -1.203125 1.9375q-1.203125 0.59375 -3.359375 0.84375q0.046875 1.75 1.515625 1.75q0.5 0 0.953125 -0.15625q0.453125 -0.171875 0.9375 -0.5l0.515625 0.828125q-1.1875 0.84375 -2.515625 0.84375q-1.28125 0 -1.984375 -0.75q-0.703125 -0.75 -0.703125 -2.09375q0 -1.0625 0.359375 -2.09375q0.375 -1.03125 1.1875 -1.71875q0.8125 -0.6875 2.078125 -0.6875q1.0625 0 1.640625 0.53125q0.578125 0.515625 0.578125 1.265625zm-4.484375 1.84375q1.640625 -0.1875 2.421875 -0.5625q0.78125 -0.390625 0.78125 -1.25q0 -0.3125 -0.234375 -0.578125q-0.21875 -0.265625 -0.71875 -0.265625q-1.015625 0 -1.5625 0.765625q-0.546875 0.765625 -0.6875 1.890625zm9.9687195 -3.640625q0.765625 0 1.203125 0.484375q0.453125 0.46875 0.453125 1.296875q0 0.203125 -0.03125 0.46875l-0.703125 4.9375l-1.203125 0l0.6875 -4.90625q0.03125 -0.296875 0.03125 -0.390625q0 -0.453125 -0.203125 -0.65625q-0.203125 -0.203125 -0.578125 -0.203125q-0.609375 0 -1.1875 0.546875q-0.5625 0.546875 -1.03125 1.390625l-0.59375 4.21875l-1.203125 0l0.984375 -7.03125l1.03125 0l-0.109375 1.375q0.53125 -0.734375 1.125 -1.125q0.59375 -0.40625 1.328125 -0.40625zm4.9177856 5.328125q-0.03125 0.265625 -0.03125 0.359375q0 0.328125 0.140625 0.484375q0.15625 0.15625 0.484375 0.15625q0.234375 0 0.46875 -0.078125q0.234375 -0.078125 0.546875 -0.21875l0.390625 0.84375q-0.734375 0.46875 -1.546875 0.46875q-0.8125 0 -1.265625 -0.421875q-0.4375 -0.421875 -0.4375 -1.1875q0 -0.28125 0.03125 -0.421875l0.578125 -4.203125l-1.203125 0l0.125 -0.953125l1.265625 0l0.453125 -1.625l0.953125 -0.09375l-0.234375 1.71875l1.640625 0l-0.265625 0.953125l-1.515625 0l-0.578125 4.21875zm5.372101 -5.171875l-0.984375 7.03125l-1.203125 0l0.984375 -7.03125l1.203125 0zm-0.3125 -1.703125q-0.359375 0 -0.578125 -0.21875q-0.203125 -0.21875 -0.203125 -0.53125q0 -0.390625 0.265625 -0.640625q0.265625 -0.265625 0.65625 -0.265625q0.359375 0 0.5625 0.21875q0.21875 0.203125 0.21875 0.53125q0 0.390625 -0.265625 0.65625q-0.265625 0.25 -0.65625 0.25zm5.4997864 -0.28125q-0.5625 0 -0.859375 0.265625q-0.296875 0.265625 -0.359375 0.796875l-0.140625 0.921875l1.703125 0l-0.28125 0.953125l-1.546875 0l-0.8125 5.6875q-0.125 0.984375 -0.4375 1.5625q-0.3125 0.578125 -0.8125 0.9375q-0.5 0.359375 -1.375 0.734375l-0.34375 -0.921875q0.5625 -0.25 0.890625 -0.5q0.328125 -0.234375 0.546875 -0.671875q0.21875 -0.421875 0.328125 -1.140625l0.796875 -5.6875l-1.234375 0l0.125 -0.953125l1.25 0l0.140625 -1.0q0.125 -0.90625 0.75 -1.4375q0.625 -0.53125 1.640625 -0.53125q0.46875 0 0.84375 0.125q0.375 0.125 0.796875 0.390625l-0.453125 0.8125q-0.5 -0.34375 -1.15625 -0.34375zm2.9161682 1.984375l-0.984375 7.03125l-1.203125 0l0.984375 -7.03125l1.203125 0zm-0.3125 -1.703125q-0.359375 0 -0.578125 -0.21875q-0.203125 -0.21875 -0.203125 -0.53125q0 -0.390625 0.265625 -0.640625q0.265625 -0.265625 0.65625 -0.265625q0.359375 0 0.5625 0.21875q0.21875 0.203125 0.21875 0.53125q0 0.390625 -0.265625 0.65625q-0.265625 0.25 -0.65625 0.25zm5.3279114 1.546875q1.234375 0 2.046875 0.78125l-0.65625 0.75q-0.328125 -0.28125 -0.65625 -0.390625q-0.3125 -0.125 -0.71875 -0.125q-0.828125 0 -1.34375 0.5625q-0.515625 0.546875 -0.734375 1.359375q-0.21875 0.8125 -0.21875 1.640625q0 1.734375 1.4375 1.734375q0.4375 0 0.796875 -0.125q0.375 -0.140625 0.828125 -0.421875l0.484375 0.84375q-1.03125 0.734375 -2.203125 0.734375q-1.25 0 -1.9375 -0.75q-0.6875 -0.75 -0.6875 -2.109375q0 -1.015625 0.375 -2.046875q0.375 -1.03125 1.171875 -1.734375q0.796875 -0.703125 2.015625 -0.703125zm6.447113 0q0.65625 0 1.25 0.15625q0.59375 0.140625 1.21875 0.453125l-0.71875 4.984375q-0.03125 0.203125 -0.03125 0.28125q0 0.25 0.09375 0.40625q0.109375 0.140625 0.359375 0.21875l-0.34375 0.84375q-0.5625 -0.0625 -0.875 -0.34375q-0.296875 -0.28125 -0.359375 -0.828125q-0.421875 0.546875 -0.96875 0.859375q-0.53125 0.3125 -1.125 0.3125q-1.0625 0 -1.65625 -0.734375q-0.578125 -0.734375 -0.578125 -1.953125q0 -1.0625 0.390625 -2.125q0.390625 -1.078125 1.21875 -1.796875q0.84375 -0.734375 2.125 -0.734375zm0.03125 0.984375q-0.84375 0 -1.390625 0.5625q-0.546875 0.5625 -0.8125 1.40625q-0.265625 0.84375 -0.265625 1.71875q0 0.859375 0.296875 1.28125q0.3125 0.421875 0.890625 0.421875q0.546875 0 0.984375 -0.328125q0.4375 -0.34375 0.890625 -0.96875l0.546875 -3.875q-0.28125 -0.125 -0.546875 -0.171875q-0.25 -0.046875 -0.59375 -0.046875zm5.458679 4.34375q-0.03125 0.265625 -0.03125 0.359375q0 0.328125 0.140625 0.484375q0.15625 0.15625 0.484375 0.15625q0.234375 0 0.46875 -0.078125q0.234375 -0.078125 0.546875 -0.21875l0.390625 0.84375q-0.734375 0.46875 -1.546875 0.46875q-0.8125 0 -1.265625 -0.421875q-0.4375 -0.421875 -0.4375 -1.1875q0 -0.28125 0.03125 -0.421875l0.578125 -4.203125l-1.203125 0l0.125 -0.953125l1.265625 0l0.453125 -1.625l0.953125 -0.09375l-0.234375 1.71875l1.640625 0l-0.265625 0.953125l-1.515625 0l-0.578125 4.21875zm5.3720703 -5.171875l-0.984375 7.03125l-1.203125 0l0.984375 -7.03125l1.203125 0zm-0.3125 -1.703125q-0.359375 0 -0.578125 -0.21875q-0.203125 -0.21875 -0.203125 -0.53125q0 -0.390625 0.265625 -0.640625q0.265625 -0.265625 0.65625 -0.265625q0.359375 0 0.5625 0.21875q0.21875 0.203125 0.21875 0.53125q0 0.390625 -0.265625 0.65625q-0.265625 0.25 -0.65625 0.25zm4.4685364 8.890625q-1.296875 0 -2.0 -0.765625q-0.703125 -0.78125 -0.703125 -2.140625q0 -0.984375 0.359375 -2.0q0.375 -1.015625 1.1875 -1.71875q0.8125 -0.71875 2.09375 -0.71875q1.296875 0 1.984375 0.78125q0.703125 0.765625 0.703125 2.125q0 0.96875 -0.359375 2.0q-0.359375 1.015625 -1.171875 1.734375q-0.8125 0.703125 -2.09375 0.703125zm0.03125 -0.984375q0.84375 0 1.359375 -0.578125q0.515625 -0.578125 0.734375 -1.390625q0.21875 -0.828125 0.21875 -1.609375q0 -1.796875 -1.4375 -1.796875q-0.84375 0 -1.375 0.59375q-0.515625 0.578125 -0.734375 1.390625q-0.21875 0.8125 -0.21875 1.609375q0 1.78125 1.453125 1.78125zm9.406769 -6.359375q0.765625 0 1.203125 0.484375q0.453125 0.46875 0.453125 1.296875q0 0.203125 -0.03125 0.46875l-0.703125 4.9375l-1.203125 0l0.6875 -4.90625q0.03125 -0.296875 0.03125 -0.390625q0 -0.453125 -0.203125 -0.65625q-0.203125 -0.203125 -0.578125 -0.203125q-0.609375 0 -1.1875 0.546875q-0.5625 0.546875 -1.03125 1.390625l-0.59375 4.21875l-1.203125 0l0.984375 -7.03125l1.03125 0l-0.109375 1.375q0.53125 -0.734375 1.125 -1.125q0.59375 -0.40625 1.328125 -0.40625z" fill-rule="nonzero"></path><path fill="#000000" fill-opacity="0.0" d="m348.49658 170.38695c-15.35434 0 -30.708649 20.677155 -30.708649 41.354324" fill-rule="evenodd"></path><path stroke="#000000" stroke-width="1.0" stroke-linejoin="round" stroke-linecap="butt" d="m348.49658 170.38695c-7.6771545 0 -15.35434 5.169281 -21.112213 12.923218c-2.8789368 3.8769684 -5.2780457 8.400101 -6.957428 13.246307c-0.83969116 2.423111 -1.4994507 4.9269867 -1.9492798 7.4712524c-0.056243896 0.31800842 -0.109191895 0.63668823 -0.15878296 0.95588684c-0.024810791 0.15962219 -0.048797607 0.31936646 -0.071899414 0.4792328l-0.04083252 0.29301453" fill-rule="evenodd"></path><path fill="#000000" stroke="#000000" stroke-width="1.0" stroke-linecap="butt" d="m316.55844 205.64072l1.3313904 4.6421967l1.9640503 -4.411911z" fill-rule="evenodd"></path><path fill="#ffffff" d="m440.18442 257.66953l86.01578 0l0 35.968506l-86.01578 0z" fill-rule="evenodd"></path><path stroke="#000000" stroke-width="1.0" stroke-linejoin="round" stroke-linecap="butt" d="m440.18442 257.66953l86.01578 0l0 35.968506l-86.01578 0z" fill-rule="evenodd"></path><path fill="#000000" d="m454.21567 263.26627l-0.28125 1.015625l-3.53125 0l-0.421875 3.0l3.0625 0l-0.125 1.015625l-3.0625 0l-0.453125 3.140625l3.78125 0l-0.15625 1.015625l-5.015625 0l1.296875 -9.1875l4.90625 0zm6.5974426 2.15625l-2.625 3.359375l1.890625 3.671875l-1.359375 0l-1.34375 -2.953125l-2.140625 2.953125l-1.421875 0l2.9375 -3.765625l-1.65625 -3.265625l1.34375 0l1.109375 2.609375l1.84375 -2.609375l1.421875 0zm1.5693359 0l1.03125 0l-0.015625 0.890625q0.515625 -0.578125 1.03125 -0.8125q0.515625 -0.234375 1.09375 -0.234375q1.0 0 1.5625 0.734375q0.578125 0.71875 0.578125 2.03125q0 1.078125 -0.390625 2.140625q-0.375 1.046875 -1.21875 1.75q-0.84375 0.6875 -2.109375 0.6875q-0.65625 0 -1.34375 -0.21875l-0.390625 2.7812805l-1.21875 0.15625l1.390625 -9.9062805zm1.625 6.21875q0.8125 0 1.34375 -0.5625q0.546875 -0.578125 0.796875 -1.421875q0.25 -0.859375 0.25 -1.71875q0 -1.6875 -1.21875 -1.6875q-0.515625 0 -0.953125 0.265625q-0.4375 0.265625 -0.890625 0.734375l-0.578125 4.171875q0.34375 0.125 0.609375 0.171875q0.265625 0.046875 0.640625 0.046875zm6.4513245 -0.5625q-0.015625 0.0625 -0.015625 0.171875q0 0.1875 0.078125 0.265625q0.078125 0.078125 0.25 0.078125q0.203125 0 0.484375 -0.09375l0.25 0.890625q-0.5 0.21875 -0.96875 0.21875q-0.609375 0 -0.953125 -0.328125q-0.34375 -0.328125 -0.34375 -0.984375q0 -0.125 0.03125 -0.421875l1.171875 -8.265625l1.21875 -0.15625l-1.203125 8.625zm5.119751 1.53125q-1.296875 0 -2.0 -0.765625q-0.703125 -0.78125 -0.703125 -2.140625q0 -0.984375 0.359375 -2.0q0.375 -1.015625 1.1875 -1.71875q0.8125 -0.71875 2.09375 -0.71875q1.296875 0 1.984375 0.78125q0.703125 0.765625 0.703125 2.125q0 0.96875 -0.359375 2.0q-0.359375 1.015625 -1.171875 1.734375q-0.8125 0.703125 -2.09375 0.703125zm0.03125 -0.984375q0.84375 0 1.359375 -0.578125q0.515625 -0.578125 0.734375 -1.390625q0.21875 -0.828125 0.21875 -1.609375q0 -1.796875 -1.4375 -1.796875q-0.84375 0 -1.375 0.59375q-0.515625 0.578125 -0.734375 1.390625q-0.21875 0.8125 -0.21875 1.609375q0 1.78125 1.453125 1.78125zm9.031738 -6.359375q0.328125 0 0.703125 0.09375l-0.359375 1.1875q-0.25 -0.0625 -0.578125 -0.0625q-0.65625 0 -1.140625 0.5625q-0.484375 0.5625 -0.875 1.6875l-0.53125 3.71875l-1.203125 0l0.984375 -7.03125l1.03125 0l-0.078125 1.453125q0.390625 -0.8125 0.90625 -1.203125q0.53125 -0.40625 1.140625 -0.40625zm4.734253 0q0.65625 0 1.25 0.15625q0.59375 0.140625 1.21875 0.453125l-0.71875 4.984375q-0.03125 0.203125 -0.03125 0.28125q0 0.25 0.09375 0.40625q0.109375 0.140625 0.359375 0.21875l-0.34375 0.84375q-0.5625 -0.0625 -0.875 -0.34375q-0.296875 -0.28125 -0.359375 -0.828125q-0.421875 0.546875 -0.96875 0.859375q-0.53125 0.3125 -1.125 0.3125q-1.0625 0 -1.65625 -0.734375q-0.578125 -0.734375 -0.578125 -1.953125q0 -1.0625 0.390625 -2.125q0.390625 -1.078125 1.21875 -1.796875q0.84375 -0.734375 2.125 -0.734375zm0.03125 0.984375q-0.84375 0 -1.390625 0.5625q-0.546875 0.5625 -0.8125 1.40625q-0.265625 0.84375 -0.265625 1.71875q0 0.859375 0.296875 1.28125q0.3125 0.421875 0.890625 0.421875q0.546875 0 0.984375 -0.328125q0.4375 -0.34375 0.890625 -0.96875l0.546875 -3.875q-0.28125 -0.125 -0.546875 -0.171875q-0.25 -0.046875 -0.59375 -0.046875zm5.458679 4.34375q-0.03125 0.265625 -0.03125 0.359375q0 0.328125 0.140625 0.484375q0.15625 0.15625 0.484375 0.15625q0.234375 0 0.46875 -0.078125q0.234375 -0.078125 0.546875 -0.21875l0.390625 0.84375q-0.734375 0.46875 -1.546875 0.46875q-0.8125 0 -1.265625 -0.421875q-0.4375 -0.421875 -0.4375 -1.1875q0 -0.28125 0.03125 -0.421875l0.578125 -4.203125l-1.203125 0l0.125 -0.953125l1.265625 0l0.453125 -1.625l0.953125 -0.09375l-0.234375 1.71875l1.640625 0l-0.265625 0.953125l-1.515625 0l-0.578125 4.21875zm5.809601 2.015625q-1.296875 0 -2.0 -0.765625q-0.703125 -0.78125 -0.703125 -2.140625q0 -0.984375 0.359375 -2.0q0.375 -1.015625 1.1875 -1.71875q0.8125 -0.71875 2.09375 -0.71875q1.296875 0 1.984375 0.78125q0.703125 0.765625 0.703125 2.125q0 0.96875 -0.359375 2.0q-0.359375 1.015625 -1.171875 1.734375q-0.8125 0.703125 -2.09375 0.703125zm0.03125 -0.984375q0.84375 0 1.359375 -0.578125q0.515625 -0.578125 0.734375 -1.390625q0.21875 -0.828125 0.21875 -1.609375q0 -1.796875 -1.4375 -1.796875q-0.84375 0 -1.375 0.59375q-0.515625 0.578125 -0.734375 1.390625q-0.21875 0.8125 -0.21875 1.609375q0 1.78125 1.453125 1.78125zm9.031738 -6.359375q0.328125 0 0.703125 0.09375l-0.359375 1.1875q-0.25 -0.0625 -0.578125 -0.0625q-0.65625 0 -1.140625 0.5625q-0.484375 0.5625 -0.875 1.6875l-0.53125 3.71875l-1.203125 0l0.984375 -7.03125l1.03125 0l-0.078125 1.453125q0.390625 -0.8125 0.90625 -1.203125q0.53125 -0.40625 1.140625 -0.40625zm3.921753 7.25q-0.546875 1.2187805 -1.421875 1.9219055q-0.859375 0.703125 -2.234375 0.859375l-0.0625 -0.96875q0.71875 -0.109375 1.171875 -0.34375q0.453125 -0.21875 0.75 -0.5781555q0.3125 -0.359375 0.625 -0.953125l-0.453125 0l-1.34375 -7.03125l1.28125 0l0.984375 6.09375l2.6875 -6.09375l1.265625 0l-3.25 7.09375z" fill-rule="nonzero"></path><path fill="#000000" d="m451.43442 281.2663q1.234375 0 2.046875 0.78125l-0.65625 0.75q-0.328125 -0.28125 -0.65625 -0.390625q-0.3125 -0.125 -0.71875 -0.125q-0.828125 0 -1.34375 0.5625q-0.515625 0.546875 -0.734375 1.359375q-0.21875 0.8125 -0.21875 1.640625q0 1.734375 1.4375 1.734375q0.4375 0 0.796875 -0.125q0.375 -0.140625 0.828125 -0.421875l0.484375 0.84375q-1.03125 0.734375 -2.203125 0.734375q-1.25 0 -1.9375 -0.75q-0.6875 -0.75 -0.6875 -2.109375q0 -1.015625 0.375 -2.046875q0.375 -1.03125 1.171875 -1.734375q0.796875 -0.703125 2.015625 -0.703125zm5.431488 7.34375q-1.296875 0 -2.0 -0.765625q-0.703125 -0.78125 -0.703125 -2.140625q0 -0.984375 0.359375 -2.0q0.375 -1.015625 1.1875 -1.71875q0.8125 -0.71875 2.09375 -0.71875q1.296875 0 1.984375 0.78125q0.703125 0.765625 0.703125 2.125q0 0.96875 -0.359375 2.0q-0.359375 1.015625 -1.171875 1.734375q-0.8125 0.703125 -2.09375 0.703125zm0.03125 -0.984375q0.84375 0 1.359375 -0.578125q0.515625 -0.578125 0.734375 -1.390625q0.21875 -0.828125 0.21875 -1.609375q0 -1.796875 -1.4375 -1.796875q-0.84375 0 -1.375 0.59375q-0.515625 0.578125 -0.734375 1.390625q-0.21875 0.8125 -0.21875 1.609375q0 1.78125 1.453125 1.78125zm9.406738 -6.359375q0.765625 0 1.203125 0.484375q0.453125 0.46875 0.453125 1.296875q0 0.203125 -0.03125 0.46875l-0.703125 4.9375l-1.203125 0l0.6875 -4.90625q0.03125 -0.296875 0.03125 -0.390625q0 -0.453125 -0.203125 -0.65625q-0.203125 -0.203125 -0.578125 -0.203125q-0.609375 0 -1.1875 0.546875q-0.5625 0.546875 -1.03125 1.390625l-0.59375 4.21875l-1.203125 0l0.984375 -7.03125l1.03125 0l-0.109375 1.375q0.53125 -0.734375 1.125 -1.125q0.59375 -0.40625 1.328125 -0.40625zm6.8552856 0q1.234375 0 2.046875 0.78125l-0.65625 0.75q-0.328125 -0.28125 -0.65625 -0.390625q-0.3125 -0.125 -0.71875 -0.125q-0.828125 0 -1.34375 0.5625q-0.515625 0.546875 -0.734375 1.359375q-0.21875 0.8125 -0.21875 1.640625q0 1.734375 1.4375 1.734375q0.4375 0 0.796875 -0.125q0.375 -0.140625 0.828125 -0.421875l0.484375 0.84375q-1.03125 0.734375 -2.203125 0.734375q-1.25 0 -1.9375 -0.75q-0.6875 -0.75 -0.6875 -2.109375q0 -1.015625 0.375 -2.046875q0.375 -1.03125 1.171875 -1.734375q0.796875 -0.703125 2.015625 -0.703125zm8.572113 1.796875q0 1.34375 -1.203125 1.9375q-1.203125 0.59375 -3.359375 0.84375q0.046875 1.75 1.515625 1.75q0.5 0 0.953125 -0.15625q0.453125 -0.171875 0.9375 -0.5l0.515625 0.828125q-1.1875 0.84375 -2.515625 0.84375q-1.28125 0 -1.984375 -0.75q-0.703125 -0.75 -0.703125 -2.09375q0 -1.0625 0.359375 -2.09375q0.375 -1.03125 1.1875 -1.71875q0.8125 -0.6875 2.078125 -0.6875q1.0625 0 1.640625 0.53125q0.578125 0.515625 0.578125 1.265625zm-4.484375 1.84375q1.640625 -0.1875 2.421875 -0.5625q0.78125 -0.390625 0.78125 -1.25q0 -0.3125 -0.234375 -0.578125q-0.21875 -0.265625 -0.71875 -0.265625q-1.015625 0 -1.5625 0.765625q-0.546875 0.765625 -0.6875 1.890625zm6.5937195 -3.484375l1.03125 0l-0.015625 0.890625q0.515625 -0.578125 1.03125 -0.8125q0.515625 -0.234375 1.09375 -0.234375q1.0 0 1.5625 0.734375q0.578125 0.71875 0.578125 2.03125q0 1.078125 -0.390625 2.140625q-0.375 1.046875 -1.21875 1.75q-0.84375 0.6875 -2.109375 0.6875q-0.65625 0 -1.34375 -0.21875l-0.390625 2.78125l-1.21875 0.15625l1.390625 -9.90625zm1.625 6.21875q0.8125 0 1.34375 -0.5625q0.546875 -0.578125 0.796875 -1.421875q0.25 -0.859375 0.25 -1.71875q0 -1.6875 -1.21875 -1.6875q-0.515625 0 -0.953125 0.265625q-0.4375 0.265625 -0.890625 0.734375l-0.578125 4.171875q0.34375 0.125 0.609375 0.171875q0.265625 0.046875 0.640625 0.046875zm6.6544495 -1.046875q-0.03125 0.265625 -0.03125 0.359375q0 0.328125 0.140625 0.484375q0.15625 0.15625 0.484375 0.15625q0.234375 0 0.46875 -0.078125q0.234375 -0.078125 0.546875 -0.21875l0.390625 0.84375q-0.734375 0.46875 -1.546875 0.46875q-0.8125 0 -1.265625 -0.421875q-0.4375 -0.421875 -0.4375 -1.1875q0 -0.28125 0.03125 -0.421875l0.578125 -4.203125l-1.203125 0l0.125 -0.953125l1.265625 0l0.453125 -1.625l0.953125 -0.09375l-0.234375 1.71875l1.640625 0l-0.265625 0.953125l-1.515625 0l-0.578125 4.21875zm5.918976 -5.328125q1.34375 0 2.3125 0.875l-0.59375 0.734375q-0.796875 -0.625 -1.734375 -0.625q-0.625 0 -1.015625 0.25q-0.375 0.25 -0.375 0.6875q0 0.40625 0.3125 0.625q0.3125 0.203125 1.09375 0.4375q1.03125 0.328125 1.5 0.8125q0.484375 0.484375 0.484375 1.296875q0 0.75 -0.40625 1.265625q-0.40625 0.5 -1.078125 0.75q-0.65625 0.234375 -1.421875 0.234375q-1.5625 0 -2.609375 -1.015625l0.703125 -0.703125q0.859375 0.734375 1.953125 0.734375q0.84375 0 1.21875 -0.34375q0.375 -0.359375 0.375 -0.796875q0 -0.359375 -0.140625 -0.578125q-0.140625 -0.21875 -0.453125 -0.375q-0.3125 -0.15625 -0.890625 -0.34375q-1.015625 -0.3125 -1.453125 -0.75q-0.421875 -0.453125 -0.421875 -1.171875q0 -0.484375 0.28125 -0.9375q0.296875 -0.46875 0.890625 -0.765625q0.609375 -0.296875 1.46875 -0.296875z" fill-rule="nonzero"></path><path fill="#000000" fill-opacity="0.0" d="m440.18442 275.65378c-15.354309 0 -30.708649 20.677155 -30.708649 41.35434" fill-rule="evenodd"></path><path stroke="#000000" stroke-width="1.0" stroke-linejoin="round" stroke-linecap="butt" d="m440.18442 275.65378c-7.6771545 0 -15.354309 5.1693115 -21.112213 12.923248c-2.8789368 3.8769531 -5.2780457 8.400085 -6.957428 13.246307c-0.83969116 2.4230957 -1.4994507 4.9269714 -1.9492493 7.4712524c-0.056243896 0.31799316 -0.109191895 0.63668823 -0.15881348 0.9558716c-0.024810791 0.15963745 -0.048797607 0.31939697 -0.0718689 0.47924805l-0.040863037 0.29299927" fill-rule="evenodd"></path><path fill="#000000" stroke="#000000" stroke-width="1.0" stroke-linecap="butt" d="m408.24628 310.9076l1.3313904 4.6421814l1.9640503 -4.4119263z" fill-rule="evenodd"></path></g></svg>
