<svg id="Layer_1" data-name="Layer 1" xmlns="http://www.w3.org/2000/svg" viewBox="0 0 1274.08 638.26"><title>plex-numbers</title><path d="M235.07,111.52c0-42.13,13.49-66.71,44.35-66.71s44.35,24.58,44.35,66.71-13.49,66.71-44.35,66.71S235.07,153.65,235.07,111.52Zm72.44,10.53V101c0-24.95-7.95-42.69-28.09-42.69S251.34,76,251.34,101v21.07c0,24.95,7.95,42.69,28.09,42.69S307.51,147,307.51,122.05Z" transform="translate(-46.2 -38.78)"/><path d="M351.12,176V162.34h36V61.07l-36.4,21.62-6.1-11.83,41-23.84h17V162.34h33.26V176Z" transform="translate(-46.2 -38.78)"/><path d="M544.21,176H459.58V160.12l42.13-38.8c12-11.09,21.25-24,21.25-36.4V82.69c0-14.23-7.95-24-23.84-24s-23.28,9.61-26.79,21.8l-13.86-5.36c5-15.15,16.45-30.3,41.39-30.3,25.13,0,39.54,15.52,39.54,37.51,0,20-11.83,34-28.27,48.78L476.4,162.34h67.82Z" transform="translate(-46.2 -38.78)"/><path d="M604.82,101.73c17.37,0,26.24-9.05,26.24-21.44V79c0-13.49-9.42-20.33-23.1-20.33-13.3,0-21.25,6.28-26.61,16.08l-11.46-8.87c6.47-10.35,17.74-21.07,38.43-21.07,21.8,0,39.17,11.64,39.17,32.52,0,16.63-11.09,26.61-24.76,30.12v.74c13.86,2.77,27.16,13.12,27.16,32.52,0,22.17-17.55,37.51-43.79,37.51-22.36,0-33.82-10.9-41.76-22L576,147.37c6.65,10.16,14.23,17,29.93,17,18.11,0,27.72-8.68,27.72-23.84v-1.48c0-15.15-9.61-23.84-27.72-23.84H590.77V101.73Z" transform="translate(-46.2 -38.78)"/><path d="M736.75,176V150.69H674.48V137l54-90h23.1v90.73H770.2v12.93H751.53V176Zm-47.67-38.25h47.67V59h-.92Z" transform="translate(-46.2 -38.78)"/><path d="M870.34,60.7H813.8l-3.7,49.15h1.29c6.1-8.69,12.93-14.23,26.42-14.23,22.17,0,38.44,15,38.44,39.91,0,25.13-16.26,42.69-43.42,42.69-21.44,0-32.52-10.9-40.28-22l11.64-8.87c6.65,10.16,13.12,17,28.64,17,17.55,0,27-9.79,27-26.79v-1.85c0-17-9.42-26.79-27-26.79-11.83,0-17.74,5-23.1,10.9L796.62,118l4.62-71h69.11Z" transform="translate(-46.2 -38.78)"/><path d="M901.57,128.71c0-38.25,25.32-68.19,46-81.67h20C940,67.17,924.67,84,917.65,113.92l.92.37c6.1-10.53,15.34-18.48,31-18.48,22.17,0,38.07,15.34,38.07,39.73,0,25.32-17,42.69-42.87,42.69C918,178.23,901.57,159.38,901.57,128.71Zm70,8.87V136.1c0-17.37-10-27.16-27-27.16s-27,9.79-27,27.16v1.48c0,17.37,10,27.16,27,27.16S971.6,154.94,971.6,137.57Z" transform="translate(-46.2 -38.78)"/><path d="M1032.39,176l49.34-115.67h-55.07v24H1012.8V47h84.63V60.7L1049,176Z" transform="translate(-46.2 -38.78)"/><path d="M1121.64,140.9c0-17.55,10.53-27.72,26.05-32v-1.48c-13.49-4.62-22.17-15.52-22.17-30.3,0-19.59,15.15-32.34,40.84-32.34s40.84,12.75,40.84,32.34c0,14.78-8.68,25.68-22.17,30.3v1.48c15.52,4.25,26.05,14.41,26.05,32,0,21.25-15.34,37.33-44.72,37.33S1121.64,162.15,1121.64,140.9Zm73,.74v-3.88c0-14.6-10.35-23.1-28.27-23.1s-28.27,8.5-28.27,23.1v3.88c0,14.6,10.35,23.1,28.27,23.1S1194.63,156.24,1194.63,141.64Zm-3.51-60.24V78.63c0-13.12-8.68-20.33-24.76-20.33s-24.76,7.21-24.76,20.33V81.4c0,13.12,8.69,20.33,24.76,20.33S1191.12,94.52,1191.12,81.4Z" transform="translate(-46.2 -38.78)"/><path d="M1274.27,176h-20c27.53-20.14,42.87-37,49.89-66.89l-.92-.37c-6.1,10.53-15.34,18.48-31,18.48-22.17,0-38.07-15.34-38.07-39.73,0-25.32,17-42.69,42.87-42.69,26.79,0,43.24,18.85,43.24,49.52C1320.28,132.59,1295,162.52,1274.27,176Zm29.94-89.07V85.47c0-17.37-10-27.16-27-27.16s-27,9.79-27,27.16v1.48c0,17.37,10,27.16,27,27.16S1304.2,104.31,1304.2,86.94Z" transform="translate(-46.2 -38.78)"/><path d="M316,357.48c0,41-13.49,63.75-40.65,63.75S234.7,398.5,234.7,357.29s13.49-63.57,40.65-63.57S316,316.27,316,357.48Zm-65.23-.18c0,36.77,8.5,51.55,24.58,51.55,15.89,0,24.58-14.78,24.58-51.37,0-36.77-8.69-51.37-24.58-51.37C259.28,306.11,250.78,320.7,250.78,357.29Z" transform="translate(-46.2 -38.78)"/><path d="M380.32,419H364.79V312.2l-29.2,17.92L328.76,319l37.88-23.47h13.67Z" transform="translate(-46.2 -38.78)"/><path d="M479.36,327.17c0,23.47-14.6,39.54-53.22,78.72h56.17L480.47,419H408.4V406.63c44-46.2,54.7-58.21,54.7-78.72,0-13.49-8.5-21.43-20.88-21.43-10.72,0-17.92,4.43-26.05,13.67L406,312c10-12.2,21.62-18.29,37-18.29C465.31,293.73,479.36,308.14,479.36,327.17Z" transform="translate(-46.2 -38.78)"/><path d="M568.24,325c0,15.89-10.35,25.32-24.21,28.46,15.52,1.29,27.9,11.27,27.9,30.12,0,21.62-16.08,37.7-41.39,37.7-14.78,0-27.35-5.36-36.77-16.45l9.42-8.68c8.32,8.68,16.63,12.38,26.79,12.38,16.08,0,25.69-10,25.69-24.95,0-17.55-9.79-23.1-25.13-23.1h-9.05l1.85-12h6.28c12.38,0,22.91-7.58,22.91-22.54,0-12.2-8.32-19.59-21.25-19.59-9.79,0-17.37,3.33-25.87,11.09l-8.13-9.24c10.35-9.61,21.62-14.41,34.92-14.41C555.3,293.73,568.24,308.14,568.24,325Z" transform="translate(-46.2 -38.78)"/><path d="M673.19,388.15H657.12V419H642V388.15h-53V376.88l37.33-83.15,12.93,5.36-33.82,76.5h36.77l1.48-33.82h13.49v33.82h16.08Z" transform="translate(-46.2 -38.78)"/><path d="M754.31,307.77H705.53v37.7a43.32,43.32,0,0,1,20.14-5c20.88,0,34.92,14.6,34.92,39,0,24.58-16.63,41.76-42.13,41.76-15.52,0-26.61-5.91-36-15.52l9.24-9.05c7.76,7.95,15.71,11.83,26.79,11.83,15.89,0,26.05-10.72,26.05-29.38,0-19.4-10.16-26.42-23.47-26.42-7,0-12,1.48-18.11,4.62h-12.2V295.57h65.78Z" transform="translate(-46.2 -38.78)"/><path d="M859.45,377.25c0,27-17,44-38.62,44-29.75,0-40.84-24.95-40.84-59.69,0-41,17.37-67.82,46-67.82a43.73,43.73,0,0,1,24.95,7.39l-6.1,10.35a35.63,35.63,0,0,0-19-5.36c-18.48,0-29.57,19.4-30.3,48.6,8.13-11.46,18.11-16.63,30.12-16.63C843.74,338.07,859.45,350.82,859.45,377.25Zm-15.71.37c0-20-8.68-27.16-20.7-27.16-11.46,0-20.88,7-27.35,17.55.74,27.16,7.95,40.84,25.13,40.84C836,408.85,843.74,396.28,843.74,377.62Z" transform="translate(-46.2 -38.78)"/><path d="M938.72,307.22,892,420.67l-14.23-4.62L923,308.32H867.58V295.57h71.14Z" transform="translate(-46.2 -38.78)"/><path d="M1033.14,386.12c0,20.7-17.37,35.11-42.32,35.11-25.13,0-41.58-14.41-41.58-34.74,0-16.08,9.24-25.87,24.95-32.52-13.67-6.65-19.77-15.89-19.77-28.83,0-20.51,18.29-31.41,36.77-31.41,18.29,0,37,10.16,37,31,0,12.56-7,20.88-21.25,28.09C1024.08,360.06,1033.14,370.6,1033.14,386.12Zm-16.26.18c0-13.67-7.21-19.59-27-26.61l-5-1.66c-13.3,5.91-19.4,14.6-19.4,28.46,0,14,9.79,22.17,25.5,22.17C1006.9,408.66,1016.88,400,1016.88,386.3Zm-47.12-61c0,12.57,8.13,17.55,22.73,22.54l3.7,1.29c11.64-6.47,16.63-13.12,16.63-23.84,0-12.2-7.95-20-21.62-20C978.26,305.37,969.76,312.57,969.76,325.32Z" transform="translate(-46.2 -38.78)"/><path d="M1125.71,342.14c0,50.45-20.51,67.82-64.86,80.75l-3.7-11.64c31.6-9.05,51.18-23.84,52.48-52.66a33.64,33.64,0,0,1-28.27,15.34c-19.22,0-34-15.15-34-39.54,0-25.69,17.55-40.65,39-40.65C1112.78,293.73,1125.71,312.76,1125.71,342.14Zm-15.89,3.33c.55-28.09-7-39.36-23.1-39.36-15,0-23.65,10.35-23.65,28.64,0,18.11,8.87,26.79,21.43,26.79C1095.41,361.54,1103.54,355.44,1109.82,345.47Z" transform="translate(-46.2 -38.78)"/><path d="M232.12,595.74A101.53,101.53,0,0,1,234,580.59a74.32,74.32,0,0,1,4.25-14,37.25,37.25,0,0,1,7.58-11.64,34.49,34.49,0,0,1,12.1-7.95,53,53,0,0,1,34.92,0,34.54,34.54,0,0,1,12.1,7.95,37.31,37.31,0,0,1,7.58,11.64,74.5,74.5,0,0,1,4.25,14,102.24,102.24,0,0,1,1.85,15.15q.37,7.76.37,15t-.37,15a102.21,102.21,0,0,1-1.85,15.15,72.11,72.11,0,0,1-4.25,14,37.58,37.58,0,0,1-7.58,11.55,33.66,33.66,0,0,1-12,7.85,55,55,0,0,1-35,0,33.47,33.47,0,0,1-12.1-7.85,37.52,37.52,0,0,1-7.58-11.55,71.94,71.94,0,0,1-4.25-14,101.5,101.5,0,0,1-1.85-15.15q-.37-7.76-.37-15T232.12,595.74Zm16.72,31.32a69.54,69.54,0,0,0,3,17.18,32.45,32.45,0,0,0,8,13.58q5.54,5.54,15.52,5.54t15.52-5.54a32.45,32.45,0,0,0,8-13.58,69.68,69.68,0,0,0,3-17.18q.46-9.15.46-16.54,0-4.8-.09-10.62a92.9,92.9,0,0,0-.92-11.64,86.88,86.88,0,0,0-2.4-11.37,30.15,30.15,0,0,0-4.62-9.7,23.85,23.85,0,0,0-7.67-6.74,25.86,25.86,0,0,0-22.54,0,23.81,23.81,0,0,0-7.67,6.74,30.08,30.08,0,0,0-4.62,9.7,86.4,86.4,0,0,0-2.4,11.37,92.44,92.44,0,0,0-.92,11.64q-.1,5.82-.09,10.63Q248.38,617.91,248.84,627.06Z" transform="translate(-46.2 -38.78)"/><path d="M376.8,675V581.14h-34V568.58a80.76,80.76,0,0,0,12.93-1,35.28,35.28,0,0,0,11.36-3.79,25.91,25.91,0,0,0,8.59-7.58,28.81,28.81,0,0,0,4.8-12.2h12V675Z" transform="translate(-46.2 -38.78)"/><path d="M439.63,571.9a39.16,39.16,0,0,1,8-14.69,37.72,37.72,0,0,1,13.58-9.7A46.22,46.22,0,0,1,479.72,544a50.25,50.25,0,0,1,16,2.49,38.85,38.85,0,0,1,13,7.21,33.61,33.61,0,0,1,8.78,11.73,38.53,38.53,0,0,1,3.23,16.26A40.87,40.87,0,0,1,518.07,597,43.72,43.72,0,0,1,511,609a59.76,59.76,0,0,1-10.16,9.52q-5.73,4.25-11.83,8.13-6.1,3.7-12.2,7.3a96.32,96.32,0,0,0-11.18,7.67,50.74,50.74,0,0,0-8.68,8.78,24.82,24.82,0,0,0-4.71,10.81h67.26V675H433.9a69.53,69.53,0,0,1,4.16-19.86,53.1,53.1,0,0,1,8.22-14.32,61.85,61.85,0,0,1,11.27-10.72q6.28-4.62,13.12-8.69,8.32-5.17,14.6-9.52a64.65,64.65,0,0,0,10.44-8.78,29.5,29.5,0,0,0,8.41-21.62,22.64,22.64,0,0,0-2-9.7,23.29,23.29,0,0,0-13.49-12.29,28.72,28.72,0,0,0-9.79-1.66,22.85,22.85,0,0,0-11.73,2.86,24.64,24.64,0,0,0-8,7.48,31.22,31.22,0,0,0-4.53,10.44,44.4,44.4,0,0,0-1.2,11.73H437.59A52.93,52.93,0,0,1,439.63,571.9Z" transform="translate(-46.2 -38.78)"/><path d="M574.15,600.36h5.17a32.35,32.35,0,0,0,9.52-1.39,24.26,24.26,0,0,0,7.95-4.07,19.54,19.54,0,0,0,5.45-6.75,20.39,20.39,0,0,0,2-9.24q0-10.53-6.65-15.8T581,557.86a24.7,24.7,0,0,0-11,2.31,22.06,22.06,0,0,0-7.76,6.19,26.05,26.05,0,0,0-4.53,9.05,39.44,39.44,0,0,0-1.48,10.9H540.52a59.55,59.55,0,0,1,3-17.18,38.26,38.26,0,0,1,7.67-13.3,34.43,34.43,0,0,1,12.47-8.68A44.36,44.36,0,0,1,581,544a56.42,56.42,0,0,1,15.8,2.13,36.63,36.63,0,0,1,12.66,6.38,29.18,29.18,0,0,1,8.41,10.9,37.41,37.41,0,0,1,3,15.71,25.33,25.33,0,0,1-5.17,15.71,33.06,33.06,0,0,1-12.93,10.35v.37q12,2.59,17.83,11.27a36,36,0,0,1,5.82,20.51,39.37,39.37,0,0,1-3.6,17.28,36.1,36.1,0,0,1-9.7,12.47,41.24,41.24,0,0,1-14.32,7.48A59.84,59.84,0,0,1,581.35,677a55.88,55.88,0,0,1-18.11-2.77A37.17,37.17,0,0,1,549.39,666a36,36,0,0,1-8.78-13.4,47.79,47.79,0,0,1-2.86-18.11h15.71q.37,12.75,7.39,20.79t20.51,8a33.67,33.67,0,0,0,10.9-1.75,28.06,28.06,0,0,0,9.05-5,23.59,23.59,0,0,0,8.5-18.57,25.1,25.1,0,0,0-2.22-10.81,23.32,23.32,0,0,0-14.69-12.75,37.14,37.14,0,0,0-11-1.57,76.14,76.14,0,0,0-9.42.55v-13.3A8.48,8.48,0,0,0,574.15,600.36Z" transform="translate(-46.2 -38.78)"/><path d="M730.1,630.48v13.86H712.36V675H697.58V644.34H640.11V629.18L699.8,544h12.56v86.48Zm-32.52-64.12h-.37L653.6,630.48h44Z" transform="translate(-46.2 -38.78)"/><path d="M771.68,560.08l-7,37.7.37.37A25.27,25.27,0,0,1,776,591a41.17,41.17,0,0,1,13.4-2.31,48.52,48.52,0,0,1,16.45,2.77,36.47,36.47,0,0,1,13.49,8.41,40.11,40.11,0,0,1,9.05,14,53.35,53.35,0,0,1,3.33,19.68,46.86,46.86,0,0,1-2.86,16.17,40.41,40.41,0,0,1-8.59,14,41.17,41.17,0,0,1-14.32,9.7,51.57,51.57,0,0,1-20,3.6,50.22,50.22,0,0,1-16-2.49,41,41,0,0,1-13.21-7.21,33.53,33.53,0,0,1-9.05-11.73,38.55,38.55,0,0,1-3.51-15.89h15.71a25.23,25.23,0,0,0,2.49,9.33,24.57,24.57,0,0,0,5.73,7.58,25.36,25.36,0,0,0,8.5,5,31.78,31.78,0,0,0,10.81,1.75A29.55,29.55,0,0,0,798,661.43a24.45,24.45,0,0,0,8.87-5.82,27.91,27.91,0,0,0,6-9.7,38.07,38.07,0,0,0,2.22-13.58A32.58,32.58,0,0,0,813,620.41a27.77,27.77,0,0,0-6-9.42,27.22,27.22,0,0,0-9.33-6.19,31.84,31.84,0,0,0-12.1-2.22A27.34,27.34,0,0,0,771.77,606a38.69,38.69,0,0,0-10.62,9l-13.49-.74,12.2-68h64.67v13.86Z" transform="translate(-46.2 -38.78)"/><path d="M910.08,563.22q-5.73-5.36-15.15-5.36-10,0-16.08,4.9a33.4,33.4,0,0,0-9.52,12.38,59.86,59.86,0,0,0-4.71,16.17,132.19,132.19,0,0,0-1.48,16.26l.37.37a33.76,33.76,0,0,1,13.77-13.12,46,46,0,0,1,35.85-.83,35.23,35.23,0,0,1,12.57,9,40.74,40.74,0,0,1,7.85,13.49,49.65,49.65,0,0,1,2.77,16.81,54.41,54.41,0,0,1-2.22,15,40.19,40.19,0,0,1-7.3,14.14,39,39,0,0,1-13.49,10.53Q904.9,677,892.52,677q-14.6,0-23.47-5.91A40.33,40.33,0,0,1,855.38,656,62.7,62.7,0,0,1,849,635.65a152.56,152.56,0,0,1-1.57-21.43,145.31,145.31,0,0,1,2.31-26.15,71.19,71.19,0,0,1,7.85-22.45,44.15,44.15,0,0,1,14.78-15.71q9.24-5.91,23.28-5.91,16.26,0,25.87,8.59t11.09,24.85H916.92A22.61,22.61,0,0,0,910.08,563.22Zm-28.46,43.7a25.51,25.51,0,0,0-8.5,6.28,26.12,26.12,0,0,0-5.27,9.42,37.38,37.38,0,0,0-1.76,11.55,34.89,34.89,0,0,0,1.85,11.46,27.14,27.14,0,0,0,5.27,9.24,24.8,24.8,0,0,0,8.5,6.19,27.58,27.58,0,0,0,11.55,2.31,26.33,26.33,0,0,0,11.36-2.31,23.33,23.33,0,0,0,8.22-6.37,29.15,29.15,0,0,0,5.08-9.33,34.57,34.57,0,0,0,1.76-11,41.6,41.6,0,0,0-1.57-11.55,25.48,25.48,0,0,0-4.9-9.42A24.6,24.6,0,0,0,904.9,607a26.58,26.58,0,0,0-11.64-2.4A27.47,27.47,0,0,0,881.62,606.92Z" transform="translate(-46.2 -38.78)"/><path d="M1018.54,583a207.14,207.14,0,0,0-15.43,28.83,210.56,210.56,0,0,0-11,31.6,163.76,163.76,0,0,0-5.17,31.6H969.39a162.82,162.82,0,0,1,5.45-32.43A187.33,187.33,0,0,1,986,612.28a191,191,0,0,1,15.8-27.44A199.88,199.88,0,0,1,1021.13,561H952.39V546.22h84.81v13.49A134.41,134.41,0,0,0,1018.54,583Z" transform="translate(-46.2 -38.78)"/><path d="M1061,563.13a31.11,31.11,0,0,1,8.5-10.44,38.41,38.41,0,0,1,12.29-6.47,47.32,47.32,0,0,1,14.51-2.22,51.87,51.87,0,0,1,18.29,2.86,34.2,34.2,0,0,1,12.29,7.58,29.48,29.48,0,0,1,6.93,10.72,35.23,35.23,0,0,1,2.22,12.29,28.41,28.41,0,0,1-4.9,16.17,30.41,30.41,0,0,1-13.21,11q11.82,3.7,17.55,12.1t5.73,20.6a40.1,40.1,0,0,1-3.42,17,36.86,36.86,0,0,1-9.24,12.47,39,39,0,0,1-13.77,7.67,54.62,54.62,0,0,1-17,2.59,61.79,61.79,0,0,1-17.55-2.4,39.16,39.16,0,0,1-14.14-7.39,34.66,34.66,0,0,1-9.42-12.47,41.63,41.63,0,0,1-3.42-17.46,34.79,34.79,0,0,1,5.91-20.23q5.91-8.59,17-12.47a28.26,28.26,0,0,1-13.3-10.81,28.88,28.88,0,0,1-5-16.35A31.21,31.21,0,0,1,1061,563.13Zm16.72,93.5q7.85,6.75,20,6.74a29.12,29.12,0,0,0,10.81-1.94,26.25,26.25,0,0,0,8.5-5.36,23.48,23.48,0,0,0,5.54-8,26,26,0,0,0,1.94-10.16,23,23,0,0,0-2.12-9.89,24.47,24.47,0,0,0-5.82-7.85,28.42,28.42,0,0,0-19-7.21,32.9,32.9,0,0,0-10.81,1.75,26.27,26.27,0,0,0-8.87,5.08,23.52,23.52,0,0,0-5.91,7.95,24.46,24.46,0,0,0-2.12,10.35Q1069.91,649.88,1077.77,656.62Zm-1.39-69.29a18.33,18.33,0,0,0,5,6.56,21.1,21.1,0,0,0,7.39,3.88,30.89,30.89,0,0,0,9.05,1.29q9.42,0,15.52-5.54t6.1-15.52q0-10-6.19-15.06t-15.8-5.08a30.35,30.35,0,0,0-8.87,1.29,20.23,20.23,0,0,0-7.3,3.88,19.67,19.67,0,0,0-4.9,6.28,19.19,19.19,0,0,0-1.85,8.69A21.9,21.9,0,0,0,1076.38,587.33Z" transform="translate(-46.2 -38.78)"/><path d="M1181.15,658.19a26.16,26.16,0,0,0,16.26,5.17q14.41,0,21.62-12.47t7.95-38.16l-.37-.37a34.27,34.27,0,0,1-30.3,18.11,45.77,45.77,0,0,1-17.74-3.23,36.43,36.43,0,0,1-13-9,37.46,37.46,0,0,1-7.95-13.86,56.35,56.35,0,0,1-2.68-17.74,46.09,46.09,0,0,1,3.14-17.28,39,39,0,0,1,8.87-13.49,40.46,40.46,0,0,1,13.67-8.78A46.86,46.86,0,0,1,1198,544a51.92,51.92,0,0,1,17.37,2.86,33.4,33.4,0,0,1,14.23,9.89q6.1,7,9.7,19.13t3.6,30.77q0,34-10.81,52.2T1197.41,677q-16.45,0-27.35-8.31t-12.38-25.32h15.71Q1174.31,653,1181.15,658.19Zm41.3-81.86a29.17,29.17,0,0,0-5.17-9.52,24.52,24.52,0,0,0-8.41-6.56,26.58,26.58,0,0,0-11.64-2.4,25.26,25.26,0,0,0-11.92,2.59,22.25,22.25,0,0,0-7.95,6.93,29.47,29.47,0,0,0-4.43,9.89,47.84,47.84,0,0,0-1.39,11.64,28.29,28.29,0,0,0,1.94,10.35,29.38,29.38,0,0,0,5.36,8.87,25.91,25.91,0,0,0,8.13,6.19,23.38,23.38,0,0,0,10.44,2.31,26.06,26.06,0,0,0,11.09-2.31A25.46,25.46,0,0,0,1217,608a27.6,27.6,0,0,0,5.36-9.24,33,33,0,0,0,1.85-11A36.63,36.63,0,0,0,1222.45,576.34Z" transform="translate(-46.2 -38.78)"/><path d="M133.13,48.54h3.48V52.2h.17A6.56,6.56,0,0,1,143.36,48c5.62,0,9.15,4.57,9.15,11.76S149,71.53,143.36,71.53a6.77,6.77,0,0,1-6.58-4.18h-.17V79.72h-3.48Zm15.63,13.15V57.86c0-4-2.44-6.71-6.36-6.71-3.18,0-5.79,1.83-5.79,4.31v8.36c0,2.92,2.61,4.57,5.79,4.57C146.32,68.4,148.76,65.7,148.76,61.69Z" transform="translate(-46.2 -38.78)"/><path d="M162.08,71a3.41,3.41,0,0,1-3.7-3.61V38.78h3.48V68h3.31v3Z" transform="translate(-46.2 -38.78)"/><path d="M168.57,59.77c0-7.14,4-11.76,10.1-11.76s9.71,4.62,9.71,11v1.65H172.23v1c0,3.88,2.48,6.79,6.66,6.79a6.51,6.51,0,0,0,6.18-3.88l2.48,1.79c-1.44,3-4.66,5.14-8.88,5.14C172.58,71.53,168.57,66.92,168.57,59.77Zm3.66-2V58h12.41v-.48c0-4-2.4-6.62-6-6.62C174.89,50.93,172.23,53.81,172.23,57.73Z" transform="translate(-46.2 -38.78)"/><path d="M190.82,71l8.32-11.32-8-11.15h4.09L201,56.9h.13L207,48.54h3.88L203,59.43,211.07,71h-4l-6-9H201l-6.45,9Z" transform="translate(-46.2 -38.78)"/><path d="M166.57,285l-1.31,2.57a10.84,10.84,0,0,0-5-1.18c-3.14,0-4.09,1.18-4.09,3.53v3.18H169V316h-3.66V295.93H156.2V316h-3.66V295.93h-3.66V293.1h3.66v-3.18c0-3.83,2.35-6.49,7.62-6.49A13.38,13.38,0,0,1,166.57,285Z" transform="translate(-46.2 -38.78)"/><path d="M189.43,292.84l-.65,3.57a7.19,7.19,0,0,0-2-.26c-2.92,0-4.57,2-5.62,6.45V316H177.5V293.1h3.14l.35,4.79c1.22-3.53,3.35-5.31,6.18-5.31A9.26,9.26,0,0,1,189.43,292.84Z" transform="translate(-46.2 -38.78)"/><path d="M209.72,314l-.87,2.57c-2.22-.3-3.66-1.22-4.27-3.53a7.82,7.82,0,0,1-6.88,3.53c-4.53,0-7.23-2.83-7.23-6.92,0-4.88,3.66-7.49,9.93-7.49h3.75v-1.83c0-3.4-1.61-4.7-4.92-4.7a19.25,19.25,0,0,0-6.18,1.26l-.91-2.7a21.39,21.39,0,0,1,7.75-1.57c5.44,0,7.93,2.79,7.93,7.53v10.63C207.81,312.87,208.5,313.53,209.72,314Zm-5.57-4v-5.44h-3.27c-4.27,0-6.53,1.61-6.53,4.88,0,2.79,1.44,4.31,4.18,4.31C201,313.75,202.84,312.48,204.15,310Z" transform="translate(-46.2 -38.78)"/><path d="M49.9,529.92v11.89H50A4.92,4.92,0,0,1,51.21,540,6.91,6.91,0,0,1,53,538.87a9.12,9.12,0,0,1,2-.67,10.38,10.38,0,0,1,2.07-.22,9.77,9.77,0,0,1,3.7.61,6.11,6.11,0,0,1,2.4,1.7,6.32,6.32,0,0,1,1.28,2.59,14,14,0,0,1,.37,3.33V561h-3.7V545.77a4.47,4.47,0,0,0-1.22-3.31,4.53,4.53,0,0,0-3.35-1.22,7.56,7.56,0,0,0-2.94.52,5.52,5.52,0,0,0-2.07,1.48,6.37,6.37,0,0,0-1.24,2.24,9.1,9.1,0,0,0-.41,2.81V561H46.2V529.92Z" transform="translate(-46.2 -38.78)"/><path d="M86.35,559.57A10.21,10.21,0,0,1,80,561.49a11.55,11.55,0,0,1-4.68-.87A9.22,9.22,0,0,1,72,558.18a10.35,10.35,0,0,1-2-3.75,18,18,0,0,1-.76-4.75A13.55,13.55,0,0,1,70,545a11.24,11.24,0,0,1,2.2-3.7,10,10,0,0,1,3.35-2.44,10.24,10.24,0,0,1,4.25-.87,9.23,9.23,0,0,1,5,1.24,9.86,9.86,0,0,1,3.18,3.16,12.51,12.51,0,0,1,1.65,4.18,18,18,0,0,1,.37,4.31H73.11a8.93,8.93,0,0,0,.35,2.81A6.34,6.34,0,0,0,74.72,556a6.22,6.22,0,0,0,2.22,1.63,7.66,7.66,0,0,0,3.18.61A6.4,6.4,0,0,0,84,557.18a5.27,5.27,0,0,0,2-3.31h3.66A9,9,0,0,1,86.35,559.57Zm-.89-14.46a6.34,6.34,0,0,0-1.35-2,6.41,6.41,0,0,0-2-1.35,6.33,6.33,0,0,0-2.55-.5,6.44,6.44,0,0,0-2.59.5,6,6,0,0,0-2,1.37,6.58,6.58,0,0,0-1.31,2,7.7,7.7,0,0,0-.57,2.46H86A7.59,7.59,0,0,0,85.46,545.12Z" transform="translate(-46.2 -38.78)"/><path d="M97.72,529.92V561H94V529.92Z" transform="translate(-46.2 -38.78)"/><path d="M109.65,561l-8.36-22.51h4.14l6.31,18.77h.09L118,538.5h3.88L113.61,561Z" transform="translate(-46.2 -38.78)"/><path d="M141.18,559.57a10.21,10.21,0,0,1-6.36,1.92,11.55,11.55,0,0,1-4.68-.87,9.22,9.22,0,0,1-3.33-2.44,10.35,10.35,0,0,1-2-3.75,18,18,0,0,1-.76-4.75,13.55,13.55,0,0,1,.78-4.7,11.24,11.24,0,0,1,2.2-3.7,10,10,0,0,1,3.35-2.44,10.24,10.24,0,0,1,4.25-.87,9.23,9.23,0,0,1,5,1.24,9.86,9.86,0,0,1,3.18,3.16,12.51,12.51,0,0,1,1.65,4.18,18,18,0,0,1,.37,4.31H127.94a8.93,8.93,0,0,0,.35,2.81,6.34,6.34,0,0,0,1.26,2.35,6.22,6.22,0,0,0,2.22,1.63,7.66,7.66,0,0,0,3.18.61,6.4,6.4,0,0,0,3.85-1.09,5.27,5.27,0,0,0,2-3.31h3.66A9,9,0,0,1,141.18,559.57Zm-.89-14.46a6.34,6.34,0,0,0-1.35-2,6.41,6.41,0,0,0-2-1.35,6.33,6.33,0,0,0-2.55-.5,6.44,6.44,0,0,0-2.59.5,6,6,0,0,0-2,1.37,6.58,6.58,0,0,0-1.31,2,7.7,7.7,0,0,0-.57,2.46h12.93A7.59,7.59,0,0,0,140.28,545.12Z" transform="translate(-46.2 -38.78)"/><path d="M158.25,538.5v3.27h-4.49v14a4,4,0,0,0,.11,1,1.07,1.07,0,0,0,.41.61,1.81,1.81,0,0,0,.85.28,12,12,0,0,0,1.42.07h1.7V561h-2.83a13.36,13.36,0,0,1-2.46-.2,3.62,3.62,0,0,1-1.65-.72,3.06,3.06,0,0,1-.94-1.48,8.56,8.56,0,0,1-.3-2.53V541.76h-3.83V538.5h3.83v-6.75h3.7v6.75Z" transform="translate(-46.2 -38.78)"/><path d="M162.56,534.45v-4.53h3.7v4.53Zm3.7,4.05V561h-3.7V538.5Z" transform="translate(-46.2 -38.78)"/><path d="M185.46,542.42a5.62,5.62,0,0,0-3.75-1.18,6.9,6.9,0,0,0-3.35.74,6,6,0,0,0-2.16,2,8.22,8.22,0,0,0-1.15,2.81,15.28,15.28,0,0,0-.35,3.29,12.5,12.5,0,0,0,.37,3,8.16,8.16,0,0,0,1.15,2.63,5.83,5.83,0,0,0,2,1.85,6.12,6.12,0,0,0,3,.7,6.06,6.06,0,0,0,4.29-1.44,6.49,6.49,0,0,0,1.89-4h3.79a10.37,10.37,0,0,1-3.11,6.45,9.78,9.78,0,0,1-6.82,2.26,11.74,11.74,0,0,1-4.55-.83,8.83,8.83,0,0,1-3.31-2.35,10.17,10.17,0,0,1-2-3.64,15.15,15.15,0,0,1-.67-4.64,16.54,16.54,0,0,1,.65-4.73,10.94,10.94,0,0,1,2-3.83,9.3,9.3,0,0,1,3.33-2.57,10.88,10.88,0,0,1,4.66-.94,13.61,13.61,0,0,1,3.59.46,8.75,8.75,0,0,1,3,1.42,7.74,7.74,0,0,1,2.11,2.42,8.92,8.92,0,0,1,1,3.46h-3.83A5.65,5.65,0,0,0,185.46,542.42Z" transform="translate(-46.2 -38.78)"/><path d="M215.33,560.92a5.24,5.24,0,0,1-2.66.57,3.18,3.18,0,0,1-2.29-.8,3.5,3.5,0,0,1-.85-2.63,8.86,8.86,0,0,1-3.55,2.63,12.28,12.28,0,0,1-7.27.46,6.73,6.73,0,0,1-2.37-1.09,5.21,5.21,0,0,1-1.59-1.94,6.51,6.51,0,0,1-.59-2.9,6.62,6.62,0,0,1,.65-3.14,5.7,5.7,0,0,1,1.72-2,7.89,7.89,0,0,1,2.44-1.15q1.37-.39,2.81-.65t2.9-.46a16.15,16.15,0,0,0,2.42-.44,4,4,0,0,0,1.65-.83,2,2,0,0,0,.61-1.59,3.69,3.69,0,0,0-.46-2,3.14,3.14,0,0,0-1.18-1.13,4.77,4.77,0,0,0-1.61-.52,12.21,12.21,0,0,0-1.76-.13,7.82,7.82,0,0,0-3.92.89,3.79,3.79,0,0,0-1.7,3.37H195a8,8,0,0,1,.87-3.53,6.6,6.6,0,0,1,2.09-2.33,8.77,8.77,0,0,1,3-1.29,15.72,15.72,0,0,1,3.59-.39,21.17,21.17,0,0,1,3,.22,7.91,7.91,0,0,1,2.72.89,5.22,5.22,0,0,1,2,1.89,6,6,0,0,1,.74,3.17V555.7a8.59,8.59,0,0,0,.15,1.91q.15.61,1,.61a4.48,4.48,0,0,0,1.13-.17Zm-6-11.54a4.63,4.63,0,0,1-1.83.76q-1.13.24-2.37.39t-2.5.35a9.22,9.22,0,0,0-2.26.63,4.12,4.12,0,0,0-1.63,1.24,3.45,3.45,0,0,0-.63,2.19,3,3,0,0,0,.37,1.54,3.08,3.08,0,0,0,1,1,4,4,0,0,0,1.37.56,7.6,7.6,0,0,0,1.65.17,8.81,8.81,0,0,0,3.14-.5,6.59,6.59,0,0,0,2.13-1.26,5,5,0,0,0,1.22-1.65,4.15,4.15,0,0,0,.39-1.67Z" transform="translate(-46.2 -38.78)"/></svg>