<svg id="Layer_1" data-name="Layer 1" xmlns="http://www.w3.org/2000/svg" viewBox="0 0 808.99 674.85"><title>fira-notching</title><path d="M239.69,29.27h14.78V86.18h.74c5-12,14.78-17.74,27.9-17.74,23.84,0,38.8,19.4,38.8,49.89s-15,49.89-38.8,49.89c-13.12,0-22.17-5.91-27.9-17.74h-.74V166H239.69ZM306,126.47V110.21c0-17-10.35-28.46-27-28.46-13.49,0-24.58,7.76-24.58,18.29v35.48c0,12.38,11.09,19.4,24.58,19.4C295.68,154.92,306,143.47,306,126.47Z" transform="translate(-46.2 -28.78)"/><path d="M375.14,205.18c-29.75,0-41.95-8.5-41.95-23.47,0-10.35,5.73-15.89,15.15-18.48v-2c-5.36-2.59-8.5-6.84-8.5-13.3,0-9.61,6.84-14.23,16.45-16.63v-.74c-11.27-5.36-17.92-15.89-17.92-29.2,0-19.4,14.23-32.89,35.85-32.89a42.8,42.8,0,0,1,18.11,3.7V70.48c0-7.39,3.14-12.75,11.09-12.75h14.23V70.66H399.53v6.1a31.69,31.69,0,0,1,10.9,24.58c0,19.4-14.23,32.89-36,32.89a48.89,48.89,0,0,1-9.24-.92c-6.28,1.66-12.57,4.8-12.57,10.72,0,5.73,5.91,7.21,14.6,7.21h20.33c23.65,0,33.82,9.61,33.82,25.32C421.33,196.13,405.81,205.18,375.14,205.18Zm12.57-40.1H355.92c-6.1,2.77-8.87,7-8.87,12.93,0,8.32,5.73,15.15,20.7,15.15h13.67c16.45,0,26.05-5.17,26.05-15.52C407.47,170.08,402.48,165.09,387.7,165.09Zm7.21-61.16V98.75c0-12.56-7.95-18.48-20.51-18.48s-20.51,5.91-20.51,18.48v5.17c0,12.57,7.95,18.48,20.51,18.48S394.91,116.49,394.91,103.92Z" transform="translate(-46.2 -28.78)"/><path d="M434.69,29.27h14.78V86.18h.74c4.62-10.72,12.75-17.74,27-17.74,19.59,0,32,13.3,32,36.4V166H494.38V107.43c0-17-7.39-25.69-21.62-25.69-11.83,0-23.28,5.91-23.28,18.11V166H434.69Z" transform="translate(-46.2 -28.78)"/><path d="M533.66,166V70.66h14.78V88.22h.92c3.33-9.05,12-17.55,27.53-17.55h5.73V85.44h-8.69c-15.89,0-25.5,6.84-25.5,15.89V166Z" transform="translate(-46.2 -28.78)"/><path d="M623.79,166c-10.16,0-15.71-6.47-15.71-15.71V83.6H592.38V70.66h8.87c6.28,0,8.32-2.22,8.32-8.68V44.24h13.3V70.66h20.88V83.6H622.87v69.48h19.4V166Z" transform="translate(-46.2 -28.78)"/><path d="M719.68,150.49h-.74c-3.7,9.05-10.9,17.74-26.79,17.74-19.59,0-32.15-13.3-32.15-36.4V70.66h14.78v58.58c0,17,7.58,25.69,21.8,25.69,11.64,0,23.1-5.73,23.1-18.29v-66h14.78V166H719.68Z" transform="translate(-46.2 -28.78)"/><path d="M822.08,150.49h-.74c-5.73,11.83-14.78,17.74-27.9,17.74-23.84,0-38.8-19.4-38.8-49.89s15-49.89,38.8-49.89c13.12,0,22.91,5.73,27.9,17.74h.74V70.66h14.78V203H822.08Zm0-15V100c0-10.53-11.09-18.29-24.58-18.29-16.63,0-27,11.46-27,28.46v16.26c0,17,10.35,28.46,27,28.46C811,154.92,822.08,147.9,822.08,135.52Z" transform="translate(-46.2 -28.78)"/><path d="M321.37,360.23c0,30.67-14.23,51-37.88,51-11.09,0-19.59-5.17-26.24-13.12L255.59,409H242.1V272.64l15.52-1.85v53.4c6.65-9.05,15.89-14.6,27.9-14.6C307.51,309.6,321.37,327.89,321.37,360.23Zm-16.63,0c0-27.9-9.24-38.25-23.47-38.25-11.09,0-18.48,7.39-23.65,15.52v47.86c5.17,7.95,13.12,13.49,22.36,13.49C294.76,398.85,304.74,387.21,304.74,360.23Z" transform="translate(-46.2 -28.78)"/><path d="M424.25,315.69c-7.76,2.4-16.82,2.77-28.09,3,11.27,5,17,13.12,17,24.95,0,19-13.67,32.71-36.59,32.71a38.6,38.6,0,0,1-12.38-1.85,11.56,11.56,0,0,0-5.36,9.61c0,4.62,3,8.32,13.3,8.32h15.52c19.77,0,32.71,11.27,32.71,26.42,0,18.66-15,29.2-44.72,29.2-31.23,0-41.39-9.42-41.39-29h14c0,11.64,5.54,16.82,27.35,16.82,21.44,0,29-5.73,29-15.89,0-9.61-7.58-14.41-20.14-14.41H369.19c-17,0-24.76-8.5-24.76-18.11,0-6.47,3.7-12.56,10.53-17-11.09-5.91-16.26-14.41-16.26-27.16,0-19.77,15.52-33.63,37-33.63,24.58.55,33.08-3.14,44-8.13Zm-69.66,27.53c0,13.67,7.76,22.73,21.44,22.73,13.86,0,21.25-8.32,21.25-22.73s-7.21-22.36-21.62-22.36C361.8,320.87,354.59,330.29,354.59,343.23Z" transform="translate(-46.2 -28.78)"/><path d="M513.61,339.35V409H498.09V341.56c0-15-6.28-19.77-16.26-19.77-11.09,0-19,7.21-25.68,17.74V409H440.62V272.82L456.14,271v54.7c7.21-9.79,17-16.08,29.56-16.08C503.26,309.6,513.61,321.05,513.61,339.35Z" transform="translate(-46.2 -28.78)"/><path d="M592.49,310.7l-2.77,15.15a30.54,30.54,0,0,0-8.5-1.11c-12.38,0-19.4,8.69-23.84,27.35V409H541.86v-97.2h13.3l1.48,20.33c5.17-15,14.23-22.54,26.24-22.54A39.2,39.2,0,0,1,592.49,310.7Z" transform="translate(-46.2 -28.78)"/><path d="M666.22,404.76a37.16,37.16,0,0,1-21.43,6.47c-16.08,0-25.69-9.42-25.69-27.16V323.82H602.28v-12H619.1V289.45l15.52-1.66v24h23.47l-1.66,12h-21.8v59.5c0,10.16,3.51,15,12.2,15,4.62,0,8.68-1.29,13.49-4.07Z" transform="translate(-46.2 -28.78)"/><path d="M751.23,409h-13.3l-1.29-15.71c-7.21,11.83-16.45,17.92-30.49,17.92C689,411.23,679,400.51,679,381.48V311.81h15.52v68c0,13.86,4.8,19,15.89,19s19.22-7.21,25.32-17.37V311.81h15.52Z" transform="translate(-46.2 -28.78)"/><path d="M855.19,311.81V448l-15.52-1.85V396.08c-6.28,9.24-15.89,15.15-27.9,15.15-23.47,0-36.59-20-36.59-50.45,0-29.75,14.23-51.19,38.07-51.19,12.57,0,21.07,6.1,27.53,13.3l1.11-11.09Zm-15.52,71.7V335.1c-5.91-7.95-12.93-13.12-23.1-13.12-15.15,0-24.76,12.75-24.76,38.62s8.5,38.25,23.28,38.25C826.18,398.85,833.2,393.3,839.67,383.51Z" transform="translate(-46.2 -28.78)"/><path d="M252.07,533.08v49.34h.37a23.52,23.52,0,0,1,12.2-11.55,45.54,45.54,0,0,1,18.29-3.6,43.11,43.11,0,0,1,19.31,4.07,39.32,39.32,0,0,1,13.67,11,48.62,48.62,0,0,1,8.22,16,65.33,65.33,0,0,1,2.77,19.22,67.45,67.45,0,0,1-2.68,19.22,45.27,45.27,0,0,1-8.13,15.8,38.33,38.33,0,0,1-13.67,10.63A44.37,44.37,0,0,1,283.3,667a47.45,47.45,0,0,1-7.85-.74,43.7,43.7,0,0,1-8.59-2.4,33.47,33.47,0,0,1-8-4.53,25.23,25.23,0,0,1-6.38-7.11h-.37V665H236.37V533.08Zm56.45,70.31A35.2,35.2,0,0,0,303.17,592a26.27,26.27,0,0,0-9.24-7.95,28.08,28.08,0,0,0-13.21-3,25.93,25.93,0,0,0-22.54,11.36A34.34,34.34,0,0,0,253.09,604a55.94,55.94,0,0,0,.09,26.7,33.6,33.6,0,0,0,5.27,11.55,26.89,26.89,0,0,0,9.33,8,29.14,29.14,0,0,0,13.86,3q8.13,0,13.58-3.14a25.25,25.25,0,0,0,8.78-8.32,36.2,36.2,0,0,0,4.8-11.83,62.9,62.9,0,0,0,1.48-13.67A48.88,48.88,0,0,0,308.52,603.39Z" transform="translate(-46.2 -28.78)"/><path d="M414.36,692q-10.72,11.64-33.63,11.64a65,65,0,0,1-13.58-1.48,41.67,41.67,0,0,1-12.57-4.8,29.25,29.25,0,0,1-9.33-8.68,24.68,24.68,0,0,1-4.07-13.12H356.9a11.61,11.61,0,0,0,2.68,7.21,19.59,19.59,0,0,0,6.1,4.8,29.59,29.59,0,0,0,7.85,2.68,42.32,42.32,0,0,0,8.13.83,29.16,29.16,0,0,0,13.12-2.68,24.65,24.65,0,0,0,8.87-7.39,30.56,30.56,0,0,0,5.08-11.36A63.63,63.63,0,0,0,410.3,655v-6.28h-.37a26.42,26.42,0,0,1-12.29,13,38.18,38.18,0,0,1-17.46,4.16,42.07,42.07,0,0,1-18.66-3.88,39,39,0,0,1-13.3-10.44,44.37,44.37,0,0,1-8-15.34,63.22,63.22,0,0,1-2.68-18.57,72.58,72.58,0,0,1,2.22-17.46A47.63,47.63,0,0,1,347.1,584a40.49,40.49,0,0,1,13.67-12q8.5-4.71,20.88-4.71a35.28,35.28,0,0,1,16.63,4,28,28,0,0,1,11.83,11.92h.18V569.48h14.78v87.4Q425.08,680.34,414.36,692Zm-20-43a25.78,25.78,0,0,0,8.78-8.5,38.87,38.87,0,0,0,4.9-11.92,57.82,57.82,0,0,0,1.57-13.3,52.4,52.4,0,0,0-1.48-12.38,34.63,34.63,0,0,0-4.71-11,24.52,24.52,0,0,0-8.41-7.85,25,25,0,0,0-12.57-3A27.12,27.12,0,0,0,369.46,584a25.16,25.16,0,0,0-8.78,7.67,32.48,32.48,0,0,0-5,11.09,53.88,53.88,0,0,0-1.57,13.12,65.71,65.71,0,0,0,1.29,12.93,36.68,36.68,0,0,0,4.44,11.73,24.92,24.92,0,0,0,8.31,8.5q5.17,3.23,12.93,3.23A25.46,25.46,0,0,0,394.32,649Z" transform="translate(-46.2 -28.78)"/><path d="M460.95,533.08v50.45h.37a20.88,20.88,0,0,1,5.17-7.48,29.42,29.42,0,0,1,7.48-5,38.92,38.92,0,0,1,8.69-2.86,44,44,0,0,1,8.78-.92q9.42,0,15.71,2.59a25.88,25.88,0,0,1,10.16,7.21,26.81,26.81,0,0,1,5.45,11,59.23,59.23,0,0,1,1.57,14.14V665H508.62V600.34q0-8.87-5.17-14t-14.23-5.17a32,32,0,0,0-12.47,2.22,23.38,23.38,0,0,0-8.78,6.28,27.06,27.06,0,0,0-5.27,9.52,38.66,38.66,0,0,0-1.76,11.92v54H445.24V533.08Z" transform="translate(-46.2 -28.78)"/><path d="M558.75,569.48v20.14h.37q5.72-11.64,14-17.18t21.07-5.17v16.63a44.44,44.44,0,0,0-16.08,2.59,25.35,25.35,0,0,0-10.72,7.58,31.3,31.3,0,0,0-5.91,12.1,65.25,65.25,0,0,0-1.85,16.35V665H544V569.48Z" transform="translate(-46.2 -28.78)"/><path d="M650,569.48v13.86H631v59.31a17.11,17.11,0,0,0,.46,4.43,4.55,4.55,0,0,0,1.76,2.59,7.71,7.71,0,0,0,3.6,1.2,52.37,52.37,0,0,0,6,.28H650V665H638a56.44,56.44,0,0,1-10.44-.83,15.32,15.32,0,0,1-7-3,13,13,0,0,1-4-6.28,36.26,36.26,0,0,1-1.29-10.72V583.34H599V569.48h16.26V540.84H631v28.64Z" transform="translate(-46.2 -28.78)"/><path d="M726.27,665V649.86h-.37a32.09,32.09,0,0,1-12.75,13A38.2,38.2,0,0,1,694.86,667q-9.42,0-15.71-2.49A25,25,0,0,1,669,657.43a26.73,26.73,0,0,1-5.45-11A59.08,59.08,0,0,1,662,632.3V569.48h15.71v64.67q0,8.87,5.17,14t14.23,5.17a32,32,0,0,0,12.47-2.22,23.38,23.38,0,0,0,8.78-6.28,27.11,27.11,0,0,0,5.27-9.52,38.69,38.69,0,0,0,1.76-11.92v-54h15.71V665Z" transform="translate(-46.2 -28.78)"/><path d="M831.32,701.41V652.08h-.37a23.1,23.1,0,0,1-12.2,11.46A46.59,46.59,0,0,1,800.46,667,43.11,43.11,0,0,1,781.15,663a39.69,39.69,0,0,1-13.67-10.9,47.46,47.46,0,0,1-8.22-15.89A65.29,65.29,0,0,1,756.48,617a67.37,67.37,0,0,1,2.68-19.22,45.24,45.24,0,0,1,8.13-15.8A39.25,39.25,0,0,1,781,571.23a43.48,43.48,0,0,1,19.13-4A46.7,46.7,0,0,1,808,568a40.56,40.56,0,0,1,8.5,2.49,36.38,36.38,0,0,1,8,4.62,25.42,25.42,0,0,1,6.38,7.11h.37V569.48H847V701.41ZM774.87,631.1a35.13,35.13,0,0,0,5.36,11.36,26.21,26.21,0,0,0,9.24,7.95,28,28,0,0,0,13.21,3A25.93,25.93,0,0,0,825.22,642a34.41,34.41,0,0,0,5.08-11.55,55.93,55.93,0,0,0-.09-26.7,33.62,33.62,0,0,0-5.27-11.55,26.93,26.93,0,0,0-9.33-8,29.16,29.16,0,0,0-13.86-3,27,27,0,0,0-13.49,3.14,25,25,0,0,0-8.87,8.31,36.17,36.17,0,0,0-4.8,11.83,62.74,62.74,0,0,0-1.48,13.67A48.75,48.75,0,0,0,774.87,631.1Z" transform="translate(-46.2 -28.78)"/><path d="M133.13,38.54h3.48V42.2h.17A6.56,6.56,0,0,1,143.36,38c5.62,0,9.15,4.57,9.15,11.76S149,61.53,143.36,61.53a6.77,6.77,0,0,1-6.58-4.18h-.17V69.72h-3.48Zm15.63,13.15V47.86c0-4-2.44-6.71-6.36-6.71-3.18,0-5.79,1.83-5.79,4.31v8.36c0,2.92,2.61,4.57,5.79,4.57C146.32,58.4,148.76,55.7,148.76,51.69Z" transform="translate(-46.2 -28.78)"/><path d="M162.08,61a3.41,3.41,0,0,1-3.7-3.61V28.78h3.48V58h3.31v3Z" transform="translate(-46.2 -28.78)"/><path d="M168.57,49.77c0-7.14,4-11.76,10.1-11.76s9.71,4.62,9.71,11v1.65H172.23v1c0,3.88,2.48,6.79,6.66,6.79a6.51,6.51,0,0,0,6.18-3.88l2.48,1.79c-1.44,3-4.66,5.14-8.88,5.14C172.58,61.53,168.57,56.92,168.57,49.77Zm3.66-2V48h12.41v-.48c0-4-2.4-6.62-6-6.62C174.89,40.93,172.23,43.81,172.23,47.73Z" transform="translate(-46.2 -28.78)"/><path d="M190.82,61l8.32-11.32-8-11.15h4.09L201,46.9h.13L207,38.54h3.88L203,49.43,211.07,61h-4l-6-9H201l-6.45,9Z" transform="translate(-46.2 -28.78)"/><path d="M166.57,275l-1.31,2.57a10.84,10.84,0,0,0-5-1.18c-3.14,0-4.09,1.18-4.09,3.53v3.18H169V306h-3.66V285.93H156.2V306h-3.66V285.93h-3.66V283.1h3.66v-3.18c0-3.83,2.35-6.49,7.62-6.49A13.38,13.38,0,0,1,166.57,275Z" transform="translate(-46.2 -28.78)"/><path d="M189.43,282.84l-.65,3.57a7.19,7.19,0,0,0-2-.26c-2.92,0-4.57,2-5.62,6.45V306H177.5V283.1h3.14l.35,4.79c1.22-3.53,3.35-5.31,6.18-5.31A9.26,9.26,0,0,1,189.43,282.84Z" transform="translate(-46.2 -28.78)"/><path d="M209.72,304l-.87,2.57c-2.22-.3-3.66-1.22-4.27-3.53a7.82,7.82,0,0,1-6.88,3.53c-4.53,0-7.23-2.83-7.23-6.92,0-4.88,3.66-7.49,9.93-7.49h3.75v-1.83c0-3.4-1.61-4.7-4.92-4.7a19.25,19.25,0,0,0-6.18,1.26l-.91-2.7a21.39,21.39,0,0,1,7.75-1.57c5.44,0,7.93,2.79,7.93,7.53v10.63C207.81,302.87,208.5,303.53,209.72,304Zm-5.57-4v-5.44h-3.27c-4.27,0-6.53,1.61-6.53,4.88,0,2.79,1.44,4.31,4.18,4.31C201,303.75,202.84,302.48,204.15,300Z" transform="translate(-46.2 -28.78)"/><path d="M49.9,519.92v11.89H50A4.92,4.92,0,0,1,51.21,530,6.91,6.91,0,0,1,53,528.87a9.12,9.12,0,0,1,2-.67,10.38,10.38,0,0,1,2.07-.22,9.77,9.77,0,0,1,3.7.61,6.11,6.11,0,0,1,2.4,1.7,6.32,6.32,0,0,1,1.28,2.59,14,14,0,0,1,.37,3.33V551h-3.7V535.77a4.47,4.47,0,0,0-1.22-3.31,4.53,4.53,0,0,0-3.35-1.22,7.56,7.56,0,0,0-2.94.52,5.52,5.52,0,0,0-2.07,1.48,6.37,6.37,0,0,0-1.24,2.24,9.1,9.1,0,0,0-.41,2.81V551H46.2V519.92Z" transform="translate(-46.2 -28.78)"/><path d="M86.35,549.57A10.21,10.21,0,0,1,80,551.49a11.55,11.55,0,0,1-4.68-.87A9.22,9.22,0,0,1,72,548.18a10.35,10.35,0,0,1-2-3.75,18,18,0,0,1-.76-4.75A13.55,13.55,0,0,1,70,535a11.24,11.24,0,0,1,2.2-3.7,10,10,0,0,1,3.35-2.44,10.24,10.24,0,0,1,4.25-.87,9.23,9.23,0,0,1,5,1.24,9.86,9.86,0,0,1,3.18,3.16,12.51,12.51,0,0,1,1.65,4.18,18,18,0,0,1,.37,4.31H73.11a8.93,8.93,0,0,0,.35,2.81A6.34,6.34,0,0,0,74.72,546a6.22,6.22,0,0,0,2.22,1.63,7.66,7.66,0,0,0,3.18.61A6.4,6.4,0,0,0,84,547.18a5.27,5.27,0,0,0,2-3.31h3.66A9,9,0,0,1,86.35,549.57Zm-.89-14.46a6.34,6.34,0,0,0-1.35-2,6.41,6.41,0,0,0-2-1.35,6.33,6.33,0,0,0-2.55-.5,6.44,6.44,0,0,0-2.59.5,6,6,0,0,0-2,1.37,6.58,6.58,0,0,0-1.31,2,7.7,7.7,0,0,0-.57,2.46H86A7.59,7.59,0,0,0,85.46,535.12Z" transform="translate(-46.2 -28.78)"/><path d="M97.72,519.92V551H94V519.92Z" transform="translate(-46.2 -28.78)"/><path d="M109.65,551l-8.36-22.51h4.14l6.31,18.77h.09L118,528.5h3.88L113.61,551Z" transform="translate(-46.2 -28.78)"/><path d="M141.18,549.57a10.21,10.21,0,0,1-6.36,1.92,11.55,11.55,0,0,1-4.68-.87,9.22,9.22,0,0,1-3.33-2.44,10.35,10.35,0,0,1-2-3.75,18,18,0,0,1-.76-4.75,13.55,13.55,0,0,1,.78-4.7,11.24,11.24,0,0,1,2.2-3.7,10,10,0,0,1,3.35-2.44,10.24,10.24,0,0,1,4.25-.87,9.23,9.23,0,0,1,5,1.24,9.86,9.86,0,0,1,3.18,3.16,12.51,12.51,0,0,1,1.65,4.18,18,18,0,0,1,.37,4.31H127.94a8.93,8.93,0,0,0,.35,2.81,6.34,6.34,0,0,0,1.26,2.35,6.22,6.22,0,0,0,2.22,1.63,7.66,7.66,0,0,0,3.18.61,6.4,6.4,0,0,0,3.85-1.09,5.27,5.27,0,0,0,2-3.31h3.66A9,9,0,0,1,141.18,549.57Zm-.89-14.46a6.34,6.34,0,0,0-1.35-2,6.41,6.41,0,0,0-2-1.35,6.33,6.33,0,0,0-2.55-.5,6.44,6.44,0,0,0-2.59.5,6,6,0,0,0-2,1.37,6.58,6.58,0,0,0-1.31,2,7.7,7.7,0,0,0-.57,2.46h12.93A7.59,7.59,0,0,0,140.28,535.12Z" transform="translate(-46.2 -28.78)"/><path d="M158.25,528.5v3.27h-4.49v14a4,4,0,0,0,.11,1,1.07,1.07,0,0,0,.41.61,1.81,1.81,0,0,0,.85.28,12,12,0,0,0,1.42.07h1.7V551h-2.83a13.36,13.36,0,0,1-2.46-.2,3.62,3.62,0,0,1-1.65-.72,3.06,3.06,0,0,1-.94-1.48,8.56,8.56,0,0,1-.3-2.53V531.76h-3.83V528.5h3.83v-6.75h3.7v6.75Z" transform="translate(-46.2 -28.78)"/><path d="M162.56,524.45v-4.53h3.7v4.53Zm3.7,4.05V551h-3.7V528.5Z" transform="translate(-46.2 -28.78)"/><path d="M185.46,532.42a5.62,5.62,0,0,0-3.75-1.18,6.9,6.9,0,0,0-3.35.74,6,6,0,0,0-2.16,2,8.22,8.22,0,0,0-1.15,2.81,15.28,15.28,0,0,0-.35,3.29,12.5,12.5,0,0,0,.37,3,8.16,8.16,0,0,0,1.15,2.63,5.83,5.83,0,0,0,2,1.85,6.12,6.12,0,0,0,3,.7,6.06,6.06,0,0,0,4.29-1.44,6.49,6.49,0,0,0,1.89-4h3.79a10.37,10.37,0,0,1-3.11,6.45,9.78,9.78,0,0,1-6.82,2.26,11.74,11.74,0,0,1-4.55-.83,8.83,8.83,0,0,1-3.31-2.35,10.17,10.17,0,0,1-2-3.64,15.15,15.15,0,0,1-.67-4.64,16.54,16.54,0,0,1,.65-4.73,10.94,10.94,0,0,1,2-3.83,9.3,9.3,0,0,1,3.33-2.57,10.88,10.88,0,0,1,4.66-.94,13.61,13.61,0,0,1,3.59.46,8.75,8.75,0,0,1,3,1.42,7.74,7.74,0,0,1,2.11,2.42,8.92,8.92,0,0,1,1,3.46h-3.83A5.65,5.65,0,0,0,185.46,532.42Z" transform="translate(-46.2 -28.78)"/><path d="M215.33,550.92a5.24,5.24,0,0,1-2.66.57,3.18,3.18,0,0,1-2.29-.8,3.5,3.5,0,0,1-.85-2.63,8.86,8.86,0,0,1-3.55,2.63,12.28,12.28,0,0,1-7.27.46,6.73,6.73,0,0,1-2.37-1.09,5.21,5.21,0,0,1-1.59-1.94,6.51,6.51,0,0,1-.59-2.9,6.62,6.62,0,0,1,.65-3.14,5.7,5.7,0,0,1,1.72-2,7.89,7.89,0,0,1,2.44-1.15q1.37-.39,2.81-.65t2.9-.46a16.15,16.15,0,0,0,2.42-.44,4,4,0,0,0,1.65-.83,2,2,0,0,0,.61-1.59,3.69,3.69,0,0,0-.46-2,3.14,3.14,0,0,0-1.18-1.13,4.77,4.77,0,0,0-1.61-.52,12.21,12.21,0,0,0-1.76-.13,7.82,7.82,0,0,0-3.92.89,3.79,3.79,0,0,0-1.7,3.37H195a8,8,0,0,1,.87-3.53,6.6,6.6,0,0,1,2.09-2.33,8.77,8.77,0,0,1,3-1.29,15.72,15.72,0,0,1,3.59-.39,21.17,21.17,0,0,1,3,.22,7.91,7.91,0,0,1,2.72.89,5.22,5.22,0,0,1,2,1.89,6,6,0,0,1,.74,3.17V545.7a8.59,8.59,0,0,0,.15,1.91q.15.61,1,.61a4.48,4.48,0,0,0,1.13-.17Zm-6-11.54a4.63,4.63,0,0,1-1.83.76q-1.13.24-2.37.39t-2.5.35a9.22,9.22,0,0,0-2.26.63,4.12,4.12,0,0,0-1.63,1.24,3.45,3.45,0,0,0-.63,2.19,3,3,0,0,0,.37,1.54,3.08,3.08,0,0,0,1,1,4,4,0,0,0,1.37.56,7.6,7.6,0,0,0,1.65.17,8.81,8.81,0,0,0,3.14-.5,6.59,6.59,0,0,0,2.13-1.26,5,5,0,0,0,1.22-1.65,4.15,4.15,0,0,0,.39-1.67Z" transform="translate(-46.2 -28.78)"/></svg>