<svg version="1" xmlns="http://www.w3.org/2000/svg" width="1066.667" height="1066.667" viewBox="0 0 800.000000 800.000000"><path d="M204.4 55.1c-1.6.5-4 1.9-5.2 3.2-1.8 1.9-21.6 35.3-34.2 57.7-4.8 8.5-41.6 72.2-47.5 82.1-.5 1-1.7 3-2.6 4.6-.8 1.5-6.7 11.8-13.1 22.8-6.4 11-12.4 21.6-13.5 23.5-1.1 1.9-4.3 7.4-7.2 12.2-2.8 4.8-5.1 8.9-5.1 9.3 0 .3-.8 1.8-1.9 3.3-1 1.5-3.6 5.8-5.8 9.7-2.3 3.8-8.9 15.3-14.8 25.5s-11.8 20.3-13 22.5c-1.2 2.2-5.6 9.9-9.8 17.2-4.2 7.2-8.5 14.7-9.5 16.5-2.5 4.4-12.3 21.3-15.2 26.2-1.7 2.7-2.4 5.4-2.4 9 0 4.5.9 6.5 7.6 18.1 4.2 7.2 8.5 14.6 9.5 16.5L32 454.5c5.1 8.8 10.2 17.6 11.2 19.5 1.1 1.9 3.7 6.4 5.8 10 2.1 3.6 4.7 8.1 5.7 10 1.1 1.9 5.3 9.1 9.3 16 7.9 13.5 27.7 47.7 31.8 55 1.4 2.5 5.6 9.9 9.5 16.5 3.8 6.6 11.2 19.4 16.5 28.5 18.9 32.9 54 93.6 56.1 97 1.1 1.9 2.4 4.2 2.8 5 3.6 7.6 17.1 29.1 19.6 31.2l3.1 2.8h198.3c109.1 0 198.3-.3 198.3-.8 0-.4-2.3-4.5-5.1-9.2-2.8-4.7-6.3-10.7-7.7-13.4-1.5-2.7-3.1-5.6-3.7-6.5-.5-.9-7-12-14.3-24.6-7.3-12.7-13.7-23.7-14.2-24.5-2.2-3.7-15.5-27-17.8-31-1.3-2.5-3.7-6.5-5.2-9-2.4-3.8-6.2-10.4-12.7-22-.8-1.4-2.8-4.8-4.4-7.5-1.7-2.8-3.3-5.8-3.6-6.8-.3-.9-.9-1.7-1.4-1.7-.5 0-.9-.5-.9-1 0-.6-4.9-9.4-10.9-19.8-23.8-41-40.5-69.9-42.9-74.2-1.4-2.5-7.9-13.7-14.5-25-6.5-11.3-13.2-22.9-14.8-25.8-1.6-2.9-5.4-9.4-8.4-14.4s-5.5-9.3-5.5-9.5c0-.3-1.8-3.5-4-7.3-6.5-10.8-6.1-13.4 4.4-31 1.8-3 8.5-14.5 14.8-25.5 6.3-11 13.9-24.1 16.8-29 2.8-5 6.2-10.8 7.5-13 13.6-24.2 24-42 24.8-42.3.4-.2.7-.8.7-1.2 0-.5 5.6-10.5 12.3-22.2 6.8-11.7 13.5-23.3 14.9-25.8 1.4-2.5 4.9-8.6 7.8-13.5 2.9-5 6.2-10.8 7.5-13 1.2-2.2 4.5-7.9 7.4-12.7 2.8-4.8 5.1-9.1 5.1-9.7 0-.6.3-1.1.8-1.1.4 0 1.2-1 1.8-2.3.6-1.2 5.2-9.4 10.3-18.2 7.8-13.5 36.5-63.1 42.1-73 1-1.7 4.1-7 7-12 2.8-4.9 5.6-9.7 6.1-10.6.7-1.5-15.1-1.6-195.9-1.6-108.2 0-198.1.4-199.8.8z"/><path d="M639.5 146.2c-4.5 1.6-6.2 3.4-11.9 13.3-2.9 4.9-8.6 14.8-12.8 22-4.2 7.1-8.6 14.8-9.8 17-1.2 2.2-3.7 6.5-5.6 9.6-1.9 3.1-3.4 6.2-3.4 6.8 0 .6-.4 1.1-1 1.1-.5 0-1 .4-1 .9s-5.3 10-11.8 21.2c-6.5 11.2-13.4 23.1-15.3 26.4-1.9 3.3-3.8 6.7-4.4 7.6-.5.9-2 3.4-3.1 5.5-1.2 2.2-9.5 16.5-18.4 31.9-9 15.4-17.2 29.6-18.2 31.5-4.4 7.7-11.9 20.6-12.8 22-.6.8-1.3 2.2-1.7 3-.4.8-2.7 4.9-5.2 9-9.1 15.4-12.1 21.7-12.1 25.6 0 4.6-.9 2.8 15.7 31.4 7.1 12.4 22.4 38.9 34 59 25.7 44.6 23.7 41 35.8 62 5.5 9.4 10.9 18.8 12.1 20.9 1.1 2 7.1 12.4 13.3 23.1 6.3 10.7 12.7 22 14.4 25 11 19.7 17.4 29.5 20.6 31.4 4.2 2.4 10.9 2.4 15.1-.1 2.6-1.5 9.4-11.1 12.3-17.3.4-.8 1.7-3.1 2.8-5 2.8-4.6 16.7-28.5 19.2-33 1.1-1.9 7.7-13.4 14.7-25.5 7-12.1 17-29.4 22.2-38.5 5.3-9.1 11.9-20.6 14.8-25.5 2.9-5 6.2-10.8 7.5-13 1.2-2.2 8-13.9 15-26s13.6-23.6 14.7-25.5c1.1-1.9 2.7-4.9 3.7-6.5 1-1.7 5.6-9.5 10.2-17.5 11.5-19.9 11.6-19-1.7-42-5.6-9.6-11.1-19.1-12.2-21-6.5-11.5-28.9-50.1-30.8-53.2-1.3-2.1-2.4-4-2.4-4.3 0-.5-8.7-15.5-12.6-21.7-1.3-2.1-2.4-4-2.4-4.3 0-.2-1.8-3.4-4-7s-4-6.7-4-6.9c0-.3-2.1-4-4.8-8.3-2.6-4.3-5.3-8.9-6-10.3-.7-1.4-2-3.9-3.1-5.5-1.8-2.9-4.1-6.9-8.6-15-1.3-2.2-6.2-10.8-11-19-4.8-8.3-9.9-17-11.3-19.5-1.4-2.5-5.3-9.3-8.8-15.3-3.5-5.9-6.4-11.1-6.4-11.5 0-1.3-5.4-6.9-7.8-8.2-3.3-1.7-8.2-2-11.7-.8z"/></svg>