<?xml version="1.0" encoding="utf-8"?>
<!-- Generator: Adobe Illustrator 15.0.0, SVG Export Plug-In . SVG Version: 6.00 Build 0)  -->
<!DOCTYPE svg PUBLIC "-//W3C//DTD SVG 1.1//EN" "http://www.w3.org/Graphics/SVG/1.1/DTD/svg11.dtd">
<svg version="1.1" id="Layer_1" xmlns="http://www.w3.org/2000/svg" xmlns:xlink="http://www.w3.org/1999/xlink" x="0px" y="0px"
	 width="620.167px" height="413.336px" viewBox="0 0 620.167 413.336" enable-background="new 0 0 620.167 413.336"
	 xml:space="preserve">
<g>
	<g>
		<text transform="matrix(1 0 0 1 22.168 403)" fill="#616162" font-family="'FranklinGothicFS-Cd'" font-size="12">Time is from online store launch in Sept 2012 to current date</text>
	</g>
</g>
<line fill="none" stroke="#007593" stroke-miterlimit="10" x1="422.13" y1="364" x2="422.13" y2="-22.665"/>
<rect x="417.324" y="243.648" fill="#FFFFFF" width="19.676" height="9.903"/>
<g>
	<g>
		<g>
			<g>
				<rect x="21.168" y="-1.337" fill="#DFDEDC" width="1" height="392.337"/>
				<rect x="96.168" y="-1.337" fill="#DFDEDC" width="1" height="392.337"/>
				<rect x="172.168" y="-1.337" fill="#DFDEDC" width="1" height="392.337"/>
				<rect x="246.168" y="-1.337" fill="#DFDEDC" width="1" height="392.337"/>
				<rect x="321.167" y="-1.337" fill="#DFDEDC" width="1" height="392.337"/>
				<rect x="396.167" y="-1.337" fill="#DFDEDC" width="1" height="392.337"/>
				<rect x="472.167" y="-1.337" fill="#DFDEDC" width="1" height="392.337"/>
				<rect x="545.167" y="-1.337" fill="#DFDEDC" width="1" height="392.337"/>
				<rect x="21.168" y="390" fill="#DFDEDC" width="600" height="1"/>
				<rect x="21.168" y="298" fill="#DFDEDC" width="600" height="1"/>
				<rect x="21.168" y="205" fill="#DFDEDC" width="600" height="1"/>
				<rect x="21.168" y="113" fill="#DFDEDC" width="600" height="1"/>
				<rect x="21.168" y="21.5" fill="#DFDEDC" width="600" height="1"/>
			</g>
			<g>
				<g>
					<text transform="matrix(1 0 0 1 453.4585 107.9502)" font-family="'FranklinGothicFS-Cd'" font-size="12">Nov</text>
				</g>
				<circle fill="#007593" fill-opacity="0.8" cx="446.746" cy="29.75" r="28"/>
				<g>
					<text transform="matrix(1 0 0 1 476.7456 27.9502)" font-family="'FranklinGothicFS-Cd'" font-size="12">Dec</text>
				</g>
				<circle fill="#007593" fill-opacity="0.8" cx="472.183" cy="57.5" r="27"/>
				<g>
					<text transform="matrix(1 0 0 1 501.5093 55.7002)" font-family="'FranklinGothicFS-Cd'" font-size="12">Jan </text>
					<text transform="matrix(1 0 0 1 501.5093 68.1006)" font-family="'FranklinGothicFS-Cd'" font-size="12">2014</text>
				</g>
				<circle fill="#007593" fill-opacity="0.8" cx="497.621" cy="94.5" r="23"/>
				<g>
					<text transform="matrix(1 0 0 1 525.2808 98.7002)" font-family="'FranklinGothicFS-Cd'" font-size="12">Feb</text>
				</g>
				<circle fill="#BE4D36" fill-opacity="0.8" cx="396.658" cy="248.666" r="19"/>
				<g>
					<text transform="matrix(1 0 0 1 417.3237 252.8672)" font-family="'FranklinGothicFS-Cd'" font-size="12">Oct</text>
				</g>
				<circle fill="#007593" fill-opacity="0.8" cx="520.595" cy="159.25" r="18"/>
				<g>
					<text transform="matrix(1 0 0 1 540.2612 163.4502)" font-family="'FranklinGothicFS-Cd'" font-size="12">Mar</text>
				</g>
				<circle fill="#BE4D36" fill-opacity="0.8" cx="122.629" cy="165.417" r="18"/>
				<g>
					<text transform="matrix(1 0 0 1 141.9595 151.6172)" font-family="'FranklinGothicFS-Cd'" font-size="12">Nov</text>
				</g>
				<circle fill="#BE4D36" fill-opacity="0.8" cx="147.246" cy="171.584" r="17"/>
				<g>
					<text transform="matrix(1 0 0 1 166.5762 175.7832)" font-family="'FranklinGothicFS-Cd'" font-size="12">Dec</text>
				</g>
				<circle fill="#BE4D36" fill-opacity="0.8" cx="172.683" cy="193.166" r="17"/>
				<g>
					<text transform="matrix(1 0 0 1 193.0093 197.3672)" font-family="'FranklinGothicFS-Cd'" font-size="12">Jan 2013</text>
				</g>
				<circle fill="#BE4D36" fill-opacity="0.8" cx="246.498" cy="261" r="15"/>
				<g>
					<text transform="matrix(1 0 0 1 264.1611 265.2002)" font-family="'FranklinGothicFS-Cd'" font-size="12">Apr</text>
				</g>
				<circle fill="#BE4D36" fill-opacity="0.8" cx="97.158" cy="196.25" r="15"/>
				<g>
					<text transform="matrix(1 0 0 1 114.8242 200.4502)" font-family="'FranklinGothicFS-Cd'" font-size="12">Oct</text>
				</g>
				<circle fill="#BE4D36" fill-opacity="0.8" cx="372.042" cy="217.834" r="15"/>
				<g>
					<text transform="matrix(1 0 0 1 389.6987 222.0332)" font-family="'FranklinGothicFS-Cd'" font-size="12">Sept</text>
				</g>
				<circle fill="#BE4D36" fill-opacity="0.8" cx="296.552" cy="45.167" r="15"/>
				<g>
					<text transform="matrix(1 0 0 1 316.8784 49.3662)" font-family="'FranklinGothicFS-Cd'" font-size="12">Jun</text>
				</g>
				<circle fill="#BE4D36" fill-opacity="0.8" cx="346.605" cy="196.25" r="14"/>
				<g>
					<text transform="matrix(1 0 0 1 365.9292 200.4502)" font-family="'FranklinGothicFS-Cd'" font-size="12">Aug</text>
				</g>
				<circle fill="#BE4D36" fill-opacity="0.8" cx="271.115" cy="214.75" r="14"/>
				<g>
					<text transform="matrix(1 0 0 1 289.7798 218.9502)" font-family="'FranklinGothicFS-Cd'" font-size="12">May</text>
				</g>
				<circle fill="#BE4D36" fill-opacity="0.8" cx="221.095" cy="230.166" r="14"/>
				<g>
					<text transform="matrix(1 0 0 1 237.7622 234.3672)" font-family="'FranklinGothicFS-Cd'" font-size="12">Mar</text>
				</g>
				<circle fill="#BE4D36" fill-opacity="0.8" cx="198.12" cy="279.5" r="11"/>
				<g>
					<text transform="matrix(1 0 0 1 212.7812 283.7002)" font-family="'FranklinGothicFS-Cd'" font-size="12">Feb</text>
				</g>
				<circle fill="#BE4D36" fill-opacity="0.8" cx="321.167" cy="335" r="10"/>
				<g>
					<text transform="matrix(1 0 0 1 333.4976 339.2002)" font-family="'FranklinGothicFS-Cd'" font-size="12">Jul</text>
				</g>
				<circle fill="#007593" fill-opacity="0.8" cx="545.998" cy="51.333" r="9"/>
				<g>
					<text transform="matrix(1 0 0 1 557.9741 55.5332)" font-family="'FranklinGothicFS-Cd'" font-size="12">Apr</text>
					<g enable-background="new    ">
						<path fill="#616162" d="M559.628,60.75h-1.906v-0.816h4.797v0.816H560.6v7.184h-0.972V60.75z"/>
						<path fill="#616162" d="M563.289,59.934h0.876v2.999c0.276-0.744,0.743-1.08,1.476-1.08c0.647,0,1.163,0.3,1.402,0.816
							c0.145,0.3,0.181,0.647,0.181,1.595v3.67h-0.876v-3.67c0-0.744-0.035-1.02-0.168-1.247c-0.144-0.276-0.432-0.432-0.779-0.432
							c-0.791,0-1.235,0.803-1.235,2.267v3.082h-0.876V59.934z"/>
						<path fill="#616162" d="M568.809,62.021h0.78v1.235c0.252-0.647,0.479-0.959,0.887-1.211c0.18-0.12,0.42-0.192,0.624-0.192
							c0.036,0,0.036,0,0.192,0.013v0.983c-0.109-0.013-0.156-0.013-0.229-0.013c-0.396,0-0.768,0.192-1.008,0.54
							c-0.264,0.372-0.371,0.792-0.371,1.499v3.059h-0.876V62.021z"/>
						<path fill="#616162" d="M571.701,64.995c0-2.039,0.804-3.143,2.279-3.143c0.551,0,1.055,0.192,1.414,0.517
							c0.564,0.527,0.84,1.391,0.84,2.614c0,2.015-0.803,3.118-2.278,3.118C572.516,68.102,571.701,66.975,571.701,64.995z
							 M575.263,64.972c0-1.548-0.456-2.387-1.283-2.387c-0.852,0-1.308,0.815-1.308,2.387c0,1.57,0.443,2.398,1.295,2.398
							S575.263,66.542,575.263,64.972z"/>
						<path fill="#616162" d="M580.603,67.046c-0.396,0.768-0.803,1.056-1.535,1.056c-0.684,0-1.188-0.3-1.415-0.852
							c-0.108-0.275-0.168-0.756-0.168-1.499v-3.73h0.876v3.73c0,0.636,0.023,0.936,0.084,1.115
							c0.119,0.336,0.383,0.504,0.814,0.504c0.457,0,0.78-0.229,1.02-0.696c0.205-0.419,0.265-0.827,0.265-1.954v-2.699h0.876v5.913
							h-0.816V67.046z"/>
						<path fill="#616162" d="M587.203,61.853c-0.12-0.023-0.168-0.023-0.24-0.023c-0.371,0-0.551,0.216-0.623,0.743
							c0.312,0.42,0.455,0.828,0.455,1.332c0,1.163-0.84,2.015-2.002,2.015c-0.24,0-0.396-0.024-0.721-0.108
							c-0.371,0.132-0.491,0.264-0.491,0.563c0,0.216,0.084,0.36,0.264,0.444c0.192,0.096,0.265,0.096,1.296,0.144
							c0.898,0.048,1.307,0.12,1.619,0.276c0.42,0.216,0.635,0.636,0.635,1.235c0,1.104-0.911,1.727-2.506,1.727
							c-1.523,0-2.363-0.552-2.363-1.559c0-0.612,0.252-0.972,0.792-1.176c-0.408-0.275-0.552-0.516-0.552-0.911
							c0-0.516,0.24-0.864,0.756-1.092c-0.492-0.491-0.672-0.911-0.672-1.571c0-1.14,0.863-2.039,1.979-2.039
							c0.359,0,0.6,0.061,0.972,0.265c0.144-0.768,0.479-1.02,1.259-1.02h0.145V61.853z M583.928,67.693
							c-0.348,0.204-0.503,0.444-0.503,0.792c0,0.695,0.467,1.008,1.522,1.008c1.007,0,1.548-0.336,1.548-0.972
							c0-0.384-0.192-0.636-0.576-0.731c-0.24-0.061-0.288-0.097-1.584-0.097H583.928z M585.896,63.916
							c0-0.804-0.433-1.331-1.08-1.331c-0.648,0-1.056,0.516-1.056,1.343c0,0.792,0.42,1.308,1.056,1.308
							S585.896,64.684,585.896,63.916z"/>
						<path fill="#616162" d="M588.056,59.934h0.876v2.999c0.276-0.744,0.743-1.08,1.476-1.08c0.647,0,1.163,0.3,1.402,0.816
							c0.145,0.3,0.181,0.647,0.181,1.595v3.67h-0.876v-3.67c0-0.744-0.035-1.02-0.168-1.247c-0.144-0.276-0.432-0.432-0.779-0.432
							c-0.791,0-1.235,0.803-1.235,2.267v3.082h-0.876V59.934z"/>
						<path fill="#616162" d="M597.464,59.934h1.15l2.123,8h-0.971l-0.588-2.291h-2.41l-0.576,2.291h-0.972L597.464,59.934z
							 M598.975,64.863l-0.995-3.981l-1.008,3.981H598.975z"/>
						<path fill="#616162" d="M602.625,69.937h-0.876v-7.916h0.792v1.044c0.359-0.815,0.827-1.163,1.582-1.163
							c1.26,0,2.076,1.175,2.076,2.998c0,1.199-0.324,2.158-0.912,2.734c-0.3,0.288-0.672,0.42-1.164,0.42
							c-0.707,0-1.078-0.216-1.498-0.888V69.937z M602.625,65.427c0,0.815,0.06,1.044,0.359,1.415
							c0.264,0.324,0.564,0.48,0.936,0.48c0.852,0,1.307-0.84,1.307-2.375c0-1.463-0.479-2.314-1.307-2.314
							c-0.455,0-0.791,0.228-1.043,0.707c-0.205,0.372-0.252,0.612-0.252,1.199V65.427z"/>
						<path fill="#616162" d="M607.437,62.021h0.779v1.235c0.252-0.647,0.479-0.959,0.887-1.211c0.181-0.12,0.42-0.192,0.625-0.192
							c0.035,0,0.035,0,0.191,0.013v0.983c-0.107-0.013-0.156-0.013-0.229-0.013c-0.396,0-0.768,0.192-1.007,0.54
							c-0.265,0.372-0.372,0.792-0.372,1.499v3.059h-0.875V62.021z"/>
						<path fill="#616162" d="M612.369,65.355l3.01-5.577h1.212v5.505h1.079v0.72h-1.079v1.931h-0.911v-1.931h-3.311V65.355z
							 M615.679,65.283v-4.762l-2.423,4.762H615.679z"/>
					</g>
				</g>
				<circle fill="#BE4D36" fill-opacity="0.8" cx="72.542" cy="335" r="5"/>
				<g>
					<text transform="matrix(1 0 0 1 81.1992 338.2002)" font-family="'FranklinGothicFS-Cd'" font-size="12">Sept</text>
				</g>
				<g>
					<g>
						<text transform="matrix(1 0 0 1 5.2383 393.2002)" fill="#616162" font-family="'FranklinGothicFS-Cd'" font-size="12">0%</text>
					</g>
				</g>
				<g>
					<g>
						<text transform="matrix(0 -1 1 0 17.542 246.3252)" fill="#616162" font-family="'FranklinGothicFS-Cd'" font-size="12">Conversion Rate in %</text>
					</g>
				</g>
				<g>
					<g>
						<text transform="matrix(1 0 0 1 160.9453 387)" fill="#616162" font-family="'FranklinGothicFS-Cd'" font-size="12">2013</text>
					</g>
				</g>
				<g>
					<g>
						<text transform="matrix(1 0 0 1 459.9038 387)" fill="#616162" font-family="'FranklinGothicFS-Cd'" font-size="12">2014</text>
					</g>
				</g>
				<g>
					<g>
						<text transform="matrix(1 0 0 1 401.9937 375)" fill="#616162" font-family="'FranklinGothicFS-Cd'" font-size="12">Redesign</text>
						<text transform="matrix(1 0 0 1 407.4116 385.4004)" fill="#616162" font-family="'FranklinGothicFS-Cd'" font-size="12">launch</text>
					</g>
				</g>
			</g>
		</g>
	</g>
	<g>
		<g>
			<g>
				<text transform="matrix(1 0 0 1 31.168 23.5996)" font-family="'FranklinGothicFS-DemiCd'" font-size="19">Increase in conversion rate and sales</text>
			</g>
		</g>
	</g>
	<g>
		<g>
			<rect x="31.168" y="33" fill="#BE4D36" width="12" height="12"/>
		</g>
		<g>
			<rect x="31.168" y="51.7" fill="#007593" stroke="#FFFFFF" width="12" height="12"/>
		</g>
	</g>
</g>
<g>
	<text transform="matrix(1 0 0 1 47.168 61.9004)" font-family="'FranklinGothicFS-Cd'" font-size="14">Redesign launch on November</text>
	<text transform="matrix(1 0 0 1 201.2222 61.9004)" font-family="'FranklinGothicFS-Cd'" font-size="14"> </text>
</g>
<g>
	<g>
		<g enable-background="new    ">
			<path fill="#616162" d="M50.979,71.579c-0.132-0.695-0.228-0.983-0.396-1.235c-0.264-0.408-0.648-0.611-1.14-0.611
				c-1.188,0-1.811,1.163-1.811,3.37c0,1.127,0.18,2.003,0.54,2.59c0.324,0.516,0.708,0.744,1.284,0.744
				c0.863,0,1.235-0.444,1.523-1.859l0.888,0.216c-0.336,1.751-1.043,2.459-2.471,2.459c-1.823,0-2.794-1.451-2.794-4.162
				c0-2.662,1.02-4.174,2.831-4.174c1.367,0,2.123,0.756,2.482,2.447L50.979,71.579z"/>
			<path fill="#616162" d="M52.949,69.097h0.947v1.02h-0.947V69.097z M52.985,71.171h0.875v5.913h-0.875V71.171z"/>
			<path fill="#616162" d="M55.445,71.171h0.78v1.235c0.251-0.647,0.479-0.959,0.887-1.211c0.18-0.12,0.42-0.192,0.624-0.192
				c0.036,0,0.036,0,0.192,0.013v0.983c-0.108-0.013-0.156-0.013-0.228-0.013c-0.396,0-0.768,0.192-1.007,0.54
				c-0.264,0.372-0.372,0.792-0.372,1.499v3.059h-0.875V71.171z"/>
			<path fill="#616162" d="M62.511,75.189c-0.12,0.779-0.24,1.103-0.503,1.438c-0.3,0.396-0.864,0.624-1.523,0.624
				c-1.391,0-2.135-1.067-2.135-3.082c0-2.075,0.756-3.167,2.207-3.167c0.587,0,1.079,0.192,1.379,0.552
				c0.288,0.348,0.42,0.672,0.576,1.451l-0.887,0.181c-0.096-0.588-0.156-0.816-0.264-1.02c-0.168-0.288-0.456-0.432-0.828-0.432
				c-0.875,0-1.211,0.719-1.211,2.59c0,1.512,0.384,2.195,1.235,2.195c0.419,0,0.719-0.204,0.887-0.588
				c0.084-0.192,0.132-0.42,0.18-0.852L62.511,75.189z"/>
			<path fill="#616162" d="M63.557,69.084h0.875v8h-0.875V69.084z"/>
			<path fill="#616162" d="M69.987,75.513c-0.3,1.163-0.984,1.739-2.063,1.739c-1.439,0-2.255-1.115-2.255-3.047
				c0-1.967,0.888-3.202,2.291-3.202c0.636,0,1.188,0.276,1.547,0.768c0.24,0.324,0.432,0.912,0.516,1.523
				c0.024,0.204,0.048,0.479,0.06,0.936h-3.49v0.12c0,1.451,0.48,2.171,1.379,2.171c0.612,0,0.936-0.324,1.199-1.199L69.987,75.513z
				 M69.087,73.51c0-1.14-0.443-1.774-1.211-1.774c-0.72,0-1.14,0.6-1.235,1.774H69.087z"/>
			<path fill="#616162" d="M76.191,72.706c-0.228-0.671-0.588-0.971-1.151-0.971c-0.588,0-1.02,0.384-1.02,0.911
				c0,0.252,0.132,0.504,0.336,0.636c0.18,0.12,0.18,0.12,1.043,0.384c1.319,0.407,1.811,0.888,1.811,1.763
				c0,1.067-0.888,1.823-2.147,1.823c-0.636,0-1.211-0.192-1.571-0.54c-0.3-0.287-0.432-0.575-0.551-1.151l0.815-0.18
				c0.156,0.779,0.587,1.14,1.355,1.14c0.696,0,1.188-0.408,1.188-0.972c0-0.492-0.276-0.743-1.151-1.008
				c-0.912-0.287-1.223-0.419-1.487-0.647c-0.312-0.264-0.503-0.707-0.503-1.115c0-0.995,0.839-1.775,1.931-1.775
				c0.983,0,1.571,0.468,1.871,1.512L76.191,72.706z"/>
			<path fill="#616162" d="M78.185,69.097h0.947v1.02h-0.947V69.097z M78.221,71.171h0.875v5.913h-0.875V71.171z"/>
			<path fill="#616162" d="M80.021,76.364l2.614-4.474h-2.398v-0.72h3.514v0.48l-2.722,4.713h2.722v0.72h-3.729V76.364z"/>
			<path fill="#616162" d="M88.575,75.513c-0.3,1.163-0.984,1.739-2.063,1.739c-1.439,0-2.255-1.115-2.255-3.047
				c0-1.967,0.888-3.202,2.291-3.202c0.636,0,1.188,0.276,1.547,0.768c0.24,0.324,0.432,0.912,0.516,1.523
				c0.024,0.204,0.048,0.479,0.06,0.936h-3.49v0.12c0,1.451,0.48,2.171,1.379,2.171c0.612,0,0.936-0.324,1.199-1.199L88.575,75.513z
				 M87.675,73.51c0-1.14-0.443-1.774-1.211-1.774c-0.72,0-1.14,0.6-1.235,1.774H87.675z"/>
			<path fill="#616162" d="M92.068,69.097h0.947v1.02h-0.947V69.097z M92.104,71.171h0.875v5.913h-0.875V71.171z"/>
			<path fill="#616162" d="M97.227,72.706c-0.228-0.671-0.588-0.971-1.151-0.971c-0.588,0-1.02,0.384-1.02,0.911
				c0,0.252,0.132,0.504,0.336,0.636c0.18,0.12,0.18,0.12,1.043,0.384c1.319,0.407,1.811,0.888,1.811,1.763
				c0,1.067-0.888,1.823-2.147,1.823c-0.636,0-1.211-0.192-1.571-0.54c-0.3-0.287-0.432-0.575-0.551-1.151l0.815-0.18
				c0.156,0.779,0.587,1.14,1.355,1.14c0.696,0,1.188-0.408,1.188-0.972c0-0.492-0.276-0.743-1.151-1.008
				c-0.912-0.287-1.223-0.419-1.487-0.647c-0.312-0.264-0.503-0.707-0.503-1.115c0-0.995,0.839-1.775,1.931-1.775
				c0.983,0,1.571,0.468,1.871,1.512L97.227,72.706z"/>
			<path fill="#616162" d="M104.714,77.084c-0.048-0.372-0.06-0.588-0.072-1.056c-0.444,0.888-0.899,1.224-1.691,1.224
				c-1.056,0-1.751-0.708-1.751-1.787c0-0.492,0.167-0.972,0.443-1.308c0.432-0.503,1.14-0.755,2.159-0.755
				c0.24,0,0.443,0.012,0.779,0.048v-0.252c0-1.008-0.348-1.463-1.115-1.463c-0.624,0-0.996,0.3-1.164,0.935l-0.863-0.144
				c0.096-0.468,0.24-0.731,0.54-0.983c0.408-0.359,0.947-0.54,1.559-0.54c0.696,0,1.283,0.252,1.595,0.684
				c0.252,0.349,0.312,0.72,0.312,1.764v1.739c0,1.247,0.012,1.438,0.108,1.895H104.714z M104.583,74.157
				c-0.312-0.071-0.444-0.084-0.684-0.084c-1.199,0-1.775,0.468-1.775,1.428c0,0.659,0.36,1.02,0.996,1.02
				c0.875,0,1.511-0.78,1.475-1.943L104.583,74.157z"/>
			<path fill="#616162" d="M106.205,71.171h0.888l1.343,4.857l1.295-4.857h0.804l-1.715,5.913h-0.9L106.205,71.171z"/>
			<path fill="#616162" d="M115.322,75.513c-0.3,1.163-0.984,1.739-2.063,1.739c-1.439,0-2.255-1.115-2.255-3.047
				c0-1.967,0.888-3.202,2.291-3.202c0.635,0,1.187,0.276,1.547,0.768c0.24,0.324,0.432,0.912,0.516,1.523
				c0.024,0.204,0.048,0.479,0.06,0.936h-3.49v0.12c0,1.451,0.48,2.171,1.379,2.171c0.612,0,0.936-0.324,1.199-1.199L115.322,75.513
				z M114.422,73.51c0-1.14-0.443-1.774-1.211-1.774c-0.72,0-1.14,0.6-1.235,1.774H114.422z"/>
			<path fill="#616162" d="M116.584,71.171h0.78v1.235c0.251-0.647,0.479-0.959,0.887-1.211c0.18-0.12,0.42-0.192,0.624-0.192
				c0.036,0,0.036,0,0.192,0.013v0.983c-0.108-0.013-0.156-0.013-0.228-0.013c-0.396,0-0.768,0.192-1.007,0.54
				c-0.264,0.372-0.372,0.792-0.372,1.499v3.059h-0.875V71.171z"/>
			<path fill="#616162" d="M123.002,77.084c-0.048-0.372-0.06-0.588-0.072-1.056c-0.444,0.888-0.899,1.224-1.691,1.224
				c-1.056,0-1.751-0.708-1.751-1.787c0-0.492,0.167-0.972,0.443-1.308c0.432-0.503,1.14-0.755,2.159-0.755
				c0.24,0,0.443,0.012,0.779,0.048v-0.252c0-1.008-0.348-1.463-1.115-1.463c-0.624,0-0.996,0.3-1.164,0.935l-0.863-0.144
				c0.096-0.468,0.24-0.731,0.54-0.983c0.408-0.359,0.947-0.54,1.559-0.54c0.696,0,1.283,0.252,1.595,0.684
				c0.252,0.349,0.312,0.72,0.312,1.764v1.739c0,1.247,0.012,1.438,0.108,1.895H123.002z M122.871,74.157
				c-0.312-0.071-0.444-0.084-0.684-0.084c-1.199,0-1.775,0.468-1.775,1.428c0,0.659,0.36,1.02,0.996,1.02
				c0.875,0,1.511-0.78,1.475-1.943L122.871,74.157z"/>
			<path fill="#616162" d="M129.47,71.003c-0.12-0.023-0.168-0.023-0.24-0.023c-0.372,0-0.552,0.216-0.624,0.743
				c0.312,0.42,0.456,0.828,0.456,1.332c0,1.163-0.84,2.015-2.003,2.015c-0.24,0-0.396-0.024-0.72-0.108
				c-0.372,0.132-0.492,0.264-0.492,0.563c0,0.216,0.084,0.36,0.264,0.444c0.192,0.096,0.264,0.096,1.295,0.144
				c0.899,0.048,1.307,0.12,1.619,0.276c0.42,0.216,0.636,0.636,0.636,1.235c0,1.104-0.912,1.727-2.507,1.727
				c-1.523,0-2.363-0.552-2.363-1.559c0-0.612,0.252-0.972,0.792-1.176c-0.408-0.275-0.552-0.516-0.552-0.911
				c0-0.516,0.24-0.864,0.755-1.092c-0.492-0.491-0.671-0.911-0.671-1.571c0-1.14,0.863-2.039,1.979-2.039
				c0.36,0,0.6,0.061,0.972,0.265c0.144-0.768,0.479-1.02,1.259-1.02h0.144V71.003z M126.196,76.844
				c-0.348,0.204-0.503,0.444-0.503,0.792c0,0.695,0.468,1.008,1.523,1.008c1.007,0,1.547-0.336,1.547-0.972
				c0-0.384-0.192-0.636-0.576-0.731c-0.24-0.061-0.288-0.097-1.583-0.097H126.196z M128.163,73.066
				c0-0.804-0.432-1.331-1.079-1.331s-1.056,0.516-1.056,1.343c0,0.792,0.42,1.308,1.056,1.308S128.163,73.834,128.163,73.066z"/>
			<path fill="#616162" d="M134.342,75.513c-0.3,1.163-0.984,1.739-2.063,1.739c-1.439,0-2.255-1.115-2.255-3.047
				c0-1.967,0.888-3.202,2.291-3.202c0.636,0,1.188,0.276,1.547,0.768c0.24,0.324,0.432,0.912,0.516,1.523
				c0.024,0.204,0.048,0.479,0.06,0.936h-3.49v0.12c0,1.451,0.48,2.171,1.379,2.171c0.612,0,0.936-0.324,1.199-1.199L134.342,75.513
				z M133.442,73.51c0-1.14-0.443-1.774-1.211-1.774c-0.72,0-1.14,0.6-1.235,1.774H133.442z"/>
			<path fill="#616162" d="M140.546,72.706c-0.228-0.671-0.588-0.971-1.151-0.971c-0.588,0-1.02,0.384-1.02,0.911
				c0,0.252,0.132,0.504,0.336,0.636c0.18,0.12,0.18,0.12,1.043,0.384c1.319,0.407,1.811,0.888,1.811,1.763
				c0,1.067-0.888,1.823-2.147,1.823c-0.636,0-1.211-0.192-1.571-0.54c-0.3-0.287-0.432-0.575-0.551-1.151l0.815-0.18
				c0.156,0.779,0.587,1.14,1.355,1.14c0.696,0,1.188-0.408,1.188-0.972c0-0.492-0.276-0.743-1.151-1.008
				c-0.912-0.287-1.223-0.419-1.487-0.647c-0.312-0.264-0.503-0.707-0.503-1.115c0-0.995,0.839-1.775,1.931-1.775
				c0.983,0,1.571,0.468,1.871,1.512L140.546,72.706z"/>
			<path fill="#616162" d="M145.922,77.084c-0.048-0.372-0.06-0.588-0.072-1.056c-0.444,0.888-0.899,1.224-1.691,1.224
				c-1.056,0-1.751-0.708-1.751-1.787c0-0.492,0.168-0.972,0.444-1.308c0.432-0.503,1.14-0.755,2.159-0.755
				c0.24,0,0.443,0.012,0.779,0.048v-0.252c0-1.008-0.348-1.463-1.115-1.463c-0.624,0-0.996,0.3-1.164,0.935l-0.863-0.144
				c0.096-0.468,0.24-0.731,0.54-0.983c0.408-0.359,0.948-0.54,1.559-0.54c0.696,0,1.283,0.252,1.595,0.684
				c0.252,0.349,0.312,0.72,0.312,1.764v1.739c0,1.247,0.012,1.438,0.108,1.895H145.922z M145.79,74.157
				c-0.312-0.071-0.444-0.084-0.684-0.084c-1.199,0-1.775,0.468-1.775,1.428c0,0.659,0.36,1.02,0.995,1.02
				c0.876,0,1.511-0.78,1.476-1.943L145.79,74.157z"/>
			<path fill="#616162" d="M148.24,69.084h0.875v8h-0.875V69.084z"/>
			<path fill="#616162" d="M154.67,75.513c-0.3,1.163-0.984,1.739-2.063,1.739c-1.439,0-2.255-1.115-2.255-3.047
				c0-1.967,0.888-3.202,2.291-3.202c0.635,0,1.187,0.276,1.547,0.768c0.24,0.324,0.432,0.912,0.516,1.523
				c0.024,0.204,0.048,0.479,0.06,0.936h-3.49v0.12c0,1.451,0.48,2.171,1.379,2.171c0.612,0,0.936-0.324,1.199-1.199L154.67,75.513z
				 M153.77,73.51c0-1.14-0.443-1.774-1.211-1.774c-0.72,0-1.14,0.6-1.235,1.774H153.77z"/>
			<path fill="#616162" d="M158.738,72.706c-0.228-0.671-0.588-0.971-1.151-0.971c-0.588,0-1.02,0.384-1.02,0.911
				c0,0.252,0.132,0.504,0.336,0.636c0.18,0.12,0.18,0.12,1.043,0.384c1.319,0.407,1.811,0.888,1.811,1.763
				c0,1.067-0.888,1.823-2.147,1.823c-0.636,0-1.211-0.192-1.571-0.54c-0.3-0.287-0.432-0.575-0.551-1.151l0.815-0.18
				c0.156,0.779,0.587,1.14,1.355,1.14c0.696,0,1.188-0.408,1.188-0.972c0-0.492-0.276-0.743-1.151-1.008
				c-0.912-0.287-1.223-0.419-1.487-0.647c-0.312-0.264-0.503-0.707-0.503-1.115c0-0.995,0.839-1.775,1.931-1.775
				c0.983,0,1.571,0.468,1.871,1.512L158.738,72.706z"/>
			<path fill="#616162" d="M163.899,79.087h-0.875v-7.916h0.792v1.044c0.36-0.815,0.828-1.163,1.583-1.163
				c1.26,0,2.075,1.175,2.075,2.998c0,1.199-0.324,2.158-0.912,2.734c-0.3,0.288-0.671,0.42-1.164,0.42
				c-0.708,0-1.079-0.216-1.499-0.888V79.087z M163.899,74.577c0,0.815,0.06,1.044,0.36,1.415c0.264,0.324,0.564,0.48,0.936,0.48
				c0.852,0,1.307-0.84,1.307-2.375c0-1.463-0.479-2.314-1.307-2.314c-0.456,0-0.792,0.228-1.043,0.707
				c-0.204,0.372-0.252,0.612-0.252,1.199V74.577z"/>
			<path fill="#616162" d="M172.766,75.513c-0.3,1.163-0.984,1.739-2.063,1.739c-1.439,0-2.255-1.115-2.255-3.047
				c0-1.967,0.888-3.202,2.291-3.202c0.635,0,1.187,0.276,1.547,0.768c0.24,0.324,0.432,0.912,0.516,1.523
				c0.024,0.204,0.048,0.479,0.06,0.936h-3.49v0.12c0,1.451,0.48,2.171,1.379,2.171c0.612,0,0.936-0.324,1.199-1.199L172.766,75.513
				z M171.866,73.51c0-1.14-0.443-1.774-1.211-1.774c-0.72,0-1.14,0.6-1.235,1.774H171.866z"/>
			<path fill="#616162" d="M174.027,71.171h0.78v1.235c0.252-0.647,0.479-0.959,0.887-1.211c0.18-0.12,0.42-0.192,0.624-0.192
				c0.036,0,0.036,0,0.192,0.013v0.983c-0.108-0.013-0.156-0.013-0.228-0.013c-0.396,0-0.768,0.192-1.007,0.54
				c-0.264,0.372-0.372,0.792-0.372,1.499v3.059h-0.875V71.171z"/>
			<path fill="#616162" d="M179.043,74.146c0-2.039,0.804-3.143,2.279-3.143c0.552,0,1.055,0.192,1.415,0.517
				c0.564,0.527,0.84,1.391,0.84,2.614c0,2.015-0.804,3.118-2.279,3.118C179.859,77.252,179.043,76.125,179.043,74.146z
				 M182.605,74.122c0-1.548-0.456-2.387-1.283-2.387c-0.852,0-1.307,0.815-1.307,2.387c0,1.57,0.443,2.398,1.295,2.398
				S182.605,75.692,182.605,74.122z"/>
			<path fill="#616162" d="M184.863,71.171h0.78v1.235c0.252-0.647,0.479-0.959,0.887-1.211c0.18-0.12,0.42-0.192,0.624-0.192
				c0.036,0,0.036,0,0.192,0.013v0.983c-0.108-0.013-0.156-0.013-0.228-0.013c-0.396,0-0.768,0.192-1.007,0.54
				c-0.264,0.372-0.372,0.792-0.372,1.499v3.059h-0.875V71.171z"/>
			<path fill="#616162" d="M191.401,76.257c-0.372,0.659-0.852,0.947-1.583,0.947c-1.319,0-2.075-1.092-2.075-3.011
				c0-1.931,0.803-3.142,2.099-3.142c0.696,0,1.151,0.275,1.475,0.923v-2.891h0.875v8h-0.792V76.257z M191.317,73.57
				c0-0.648-0.084-0.948-0.384-1.319c-0.24-0.312-0.563-0.468-0.947-0.468c-0.852,0-1.284,0.779-1.284,2.29
				c0,1.607,0.444,2.399,1.332,2.399c0.408,0,0.768-0.192,1.007-0.516c0.204-0.288,0.276-0.636,0.276-1.403V73.57z"/>
			<path fill="#616162" d="M197.761,75.513c-0.3,1.163-0.984,1.739-2.063,1.739c-1.439,0-2.255-1.115-2.255-3.047
				c0-1.967,0.888-3.202,2.291-3.202c0.636,0,1.188,0.276,1.547,0.768c0.24,0.324,0.432,0.912,0.516,1.523
				c0.024,0.204,0.048,0.479,0.06,0.936h-3.49v0.12c0,1.451,0.48,2.171,1.379,2.171c0.612,0,0.936-0.324,1.199-1.199L197.761,75.513
				z M196.861,73.51c0-1.14-0.443-1.774-1.211-1.774c-0.72,0-1.14,0.6-1.235,1.774H196.861z"/>
			<path fill="#616162" d="M199.023,71.171h0.78v1.235c0.251-0.647,0.479-0.959,0.887-1.211c0.18-0.12,0.42-0.192,0.624-0.192
				c0.036,0,0.036,0,0.192,0.013v0.983c-0.108-0.013-0.156-0.013-0.228-0.013c-0.396,0-0.768,0.192-1.007,0.54
				c-0.264,0.372-0.372,0.792-0.372,1.499v3.059h-0.875V71.171z"/>
		</g>
	</g>
</g>
<circle fill="#007593" fill-opacity="0.8" cx="422.13" cy="103.75" r="30"/>
<g>
	<text transform="matrix(1 0 0 1 46.168 43.2002)" font-family="'FranklinGothicFS-Cd'" font-size="14">Original site through October 2013</text>
</g>
<polyline fill="none" stroke="#007593" stroke-miterlimit="10" points="206.958,73.75 408.332,73.75 408.332,77.114 "/>
</svg>
