<?xml version="1.0" encoding="utf-8"?>
<!-- Generator: Adobe Illustrator 15.0.0, SVG Export Plug-In . SVG Version: 6.00 Build 0)  -->
<!DOCTYPE svg PUBLIC "-//W3C//DTD SVG 1.1//EN" "http://www.w3.org/Graphics/SVG/1.1/DTD/svg11.dtd">
<svg version="1.1" id="Layer_1" xmlns="http://www.w3.org/2000/svg" xmlns:xlink="http://www.w3.org/1999/xlink" x="0px" y="0px"
	 width="620.167px" height="413.336px" viewBox="-20.167 0 620.167 413.336" enable-background="new -20.167 0 620.167 413.336"
	 xml:space="preserve">
<g>
	<g>
		<text transform="matrix(1 0 0 1 1 403)" fill="#616162" font-family="'FranklinGothicFS-Cd'" font-size="12">Time is from online store launch in Sept 2012 to current date</text>
	</g>
</g>
<line fill="none" stroke="#007593" stroke-miterlimit="10" x1="400.962" y1="364" x2="400.962" y2="-22.665"/>
<rect x="396.156" y="243.648" fill="#FFFFFF" width="19.675" height="9.904"/>
<g>
	<g>
		<g>
			<g>
				<rect y="-1.337" fill="#DFDEDC" width="1" height="392.337"/>
				<rect x="75" y="-1.337" fill="#DFDEDC" width="1" height="392.337"/>
				<rect x="151" y="-1.337" fill="#DFDEDC" width="1" height="392.337"/>
				<rect x="225" y="-1.337" fill="#DFDEDC" width="1" height="392.337"/>
				<rect x="300" y="-1.337" fill="#DFDEDC" width="1" height="392.337"/>
				<rect x="375" y="-1.337" fill="#DFDEDC" width="1" height="392.337"/>
				<rect x="451" y="-1.337" fill="#DFDEDC" width="1" height="392.337"/>
				<rect x="524" y="-1.337" fill="#DFDEDC" width="1" height="392.337"/>
				<rect y="390" fill="#DFDEDC" width="600" height="1"/>
				<rect y="298" fill="#DFDEDC" width="600" height="1"/>
				<rect y="205" fill="#DFDEDC" width="600" height="1"/>
				<rect y="113" fill="#DFDEDC" width="600" height="1"/>
				<rect y="21.5" fill="#DFDEDC" width="600" height="1"/>
			</g>
			<g>
				<g>
					<text transform="matrix(1 0 0 1 432.291 107.9502)" font-family="'FranklinGothicFS-Cd'" font-size="12">Nov</text>
				</g>
				<circle fill="#007593" fill-opacity="0.8" cx="425.578" cy="29.75" r="28"/>
				<g>
					<text transform="matrix(1 0 0 1 455.5781 27.9502)" font-family="'FranklinGothicFS-Cd'" font-size="12">Dec</text>
				</g>
				<circle fill="#007593" fill-opacity="0.8" cx="451.015" cy="57.5" r="27"/>
				<g>
					<text transform="matrix(1 0 0 1 480.3418 55.7002)" font-family="'FranklinGothicFS-Cd'" font-size="12">Jan </text>
					<text transform="matrix(1 0 0 1 480.3418 68.1006)" font-family="'FranklinGothicFS-Cd'" font-size="12">2014</text>
				</g>
				<circle fill="#007593" fill-opacity="0.8" cx="476.452" cy="94.5" r="23"/>
				<g>
					<text transform="matrix(1 0 0 1 504.1133 98.7002)" font-family="'FranklinGothicFS-Cd'" font-size="12">Feb</text>
				</g>
				<circle fill="#BE4D36" fill-opacity="0.8" cx="375.49" cy="248.666" r="19"/>
				<g>
					<text transform="matrix(1 0 0 1 396.1562 252.8672)" font-family="'FranklinGothicFS-Cd'" font-size="12">Oct</text>
				</g>
				<circle fill="#007593" fill-opacity="0.8" cx="499.428" cy="159.25" r="18"/>
				<g>
					<text transform="matrix(1 0 0 1 519.0938 163.4502)" font-family="'FranklinGothicFS-Cd'" font-size="12">Mar</text>
				</g>
				<circle fill="#BE4D36" fill-opacity="0.8" cx="101.461" cy="165.417" r="18"/>
				<g>
					<text transform="matrix(1 0 0 1 120.7915 151.6172)" font-family="'FranklinGothicFS-Cd'" font-size="12">Nov</text>
				</g>
				<circle fill="#BE4D36" fill-opacity="0.8" cx="126.078" cy="171.584" r="17"/>
				<g>
					<text transform="matrix(1 0 0 1 145.4082 175.7832)" font-family="'FranklinGothicFS-Cd'" font-size="12">Dec</text>
				</g>
				<circle fill="#BE4D36" fill-opacity="0.8" cx="151.515" cy="193.166" r="17"/>
				<g>
					<text transform="matrix(1 0 0 1 171.8413 197.3672)" font-family="'FranklinGothicFS-Cd'" font-size="12">Jan 2013</text>
				</g>
				<circle fill="#BE4D36" fill-opacity="0.8" cx="225.33" cy="261" r="15"/>
				<g>
					<text transform="matrix(1 0 0 1 242.9932 265.2002)" font-family="'FranklinGothicFS-Cd'" font-size="12">Apr</text>
				</g>
				<circle fill="#BE4D36" fill-opacity="0.8" cx="75.99" cy="196.25" r="15"/>
				<g>
					<text transform="matrix(1 0 0 1 93.6562 200.4502)" font-family="'FranklinGothicFS-Cd'" font-size="12">Oct</text>
				</g>
				<circle fill="#BE4D36" fill-opacity="0.8" cx="350.874" cy="217.834" r="15"/>
				<g>
					<text transform="matrix(1 0 0 1 368.5312 222.0332)" font-family="'FranklinGothicFS-Cd'" font-size="12">Sept</text>
				</g>
				<circle fill="#BE4D36" fill-opacity="0.8" cx="275.384" cy="45.167" r="15"/>
				<g>
					<text transform="matrix(1 0 0 1 295.71 49.3662)" font-family="'FranklinGothicFS-Cd'" font-size="12">Jun</text>
				</g>
				<circle fill="#BE4D36" fill-opacity="0.8" cx="325.438" cy="196.25" r="14"/>
				<g>
					<text transform="matrix(1 0 0 1 344.7617 200.4502)" font-family="'FranklinGothicFS-Cd'" font-size="12">Aug</text>
				</g>
				<circle fill="#BE4D36" fill-opacity="0.8" cx="249.947" cy="214.75" r="14"/>
				<g>
					<text transform="matrix(1 0 0 1 268.6118 218.9502)" font-family="'FranklinGothicFS-Cd'" font-size="12">May</text>
				</g>
				<circle fill="#BE4D36" fill-opacity="0.8" cx="199.927" cy="230.166" r="14"/>
				<g>
					<text transform="matrix(1 0 0 1 216.5942 234.3672)" font-family="'FranklinGothicFS-Cd'" font-size="12">Mar</text>
				</g>
				<circle fill="#BE4D36" fill-opacity="0.8" cx="176.952" cy="279.5" r="11"/>
				<g>
					<text transform="matrix(1 0 0 1 191.6133 283.7002)" font-family="'FranklinGothicFS-Cd'" font-size="12">Feb</text>
				</g>
				<circle fill="#BE4D36" fill-opacity="0.8" cx="300" cy="335" r="10"/>
				<g>
					<text transform="matrix(1 0 0 1 312.3301 339.2002)" font-family="'FranklinGothicFS-Cd'" font-size="12">Jul</text>
				</g>
				<circle fill="#007593" fill-opacity="0.8" cx="524.83" cy="51.333" r="9"/>
				<g>
					<text transform="matrix(1 0 0 1 536.8057 55.5332)" font-family="'FranklinGothicFS-Cd'" font-size="12">Apr</text>
					<text transform="matrix(1 0 0 1 536.8057 67.9336)" fill="#616162" font-family="'FranklinGothicFS-Cd'" font-size="12">Through Apr 4</text>
				</g>
				<circle fill="#BE4D36" fill-opacity="0.8" cx="51.374" cy="335" r="5"/>
				<g>
					<text transform="matrix(1 0 0 1 60.0312 338.2002)" font-family="'FranklinGothicFS-Cd'" font-size="12">Sept</text>
				</g>
				<g>
					<g>
						<text transform="matrix(1 0 0 1 -15.9297 393.2002)" fill="#616162" font-family="'FranklinGothicFS-Cd'" font-size="12">0%</text>
					</g>
				</g>
				<g>
					<g>
						<text transform="matrix(0 -1 1 0 -3.626 246.3252)" fill="#616162" font-family="'FranklinGothicFS-Cd'" font-size="12">Conversion Rate in %</text>
					</g>
				</g>
				<g>
					<g>
						<text transform="matrix(1 0 0 1 139.7773 387)" fill="#616162" font-family="'FranklinGothicFS-Cd'" font-size="12">2013</text>
					</g>
				</g>
				<g>
					<g>
						<text transform="matrix(1 0 0 1 438.7363 387)" fill="#616162" font-family="'FranklinGothicFS-Cd'" font-size="12">2014</text>
					</g>
				</g>
				<g>
					<g>
						<text transform="matrix(1 0 0 1 380.8262 375)" enable-background="new    "><tspan x="0" y="0" fill="#616162" font-family="'FranklinGothicFS-Cd'" font-size="12">Redesign</tspan><tspan x="5.418" y="10.4" fill="#616162" font-family="'FranklinGothicFS-Cd'" font-size="12">launch</tspan></text>
					</g>
				</g>
			</g>
		</g>
	</g>
	<g>
		<g>
			<g>
				<text transform="matrix(1 0 0 1 10 23.5996)" font-family="'FranklinGothicFS-DemiCd'" font-size="19">Increase in conversion rate and sales</text>
			</g>
		</g>
	</g>
	<g>
		<g>
			<rect x="10" y="33" fill="#BE4D36" width="12" height="12"/>
		</g>
		<g>
			<rect x="10" y="51.7" fill="#007593" stroke="#FFFFFF" width="12" height="12"/>
		</g>
	</g>
</g>
<g>
	<text transform="matrix(1 0 0 1 26 61.9004)" enable-background="new    "><tspan x="0" y="0" font-family="'FranklinGothicFS-Cd'" font-size="14">Redesign launch on November</tspan><tspan x="154.054" y="0" font-family="'FranklinGothicFS-Cd'" font-size="14"> </tspan></text>
</g>
<g>
	<g>
		<text transform="matrix(1 0 0 1 24.9058 77.0835)" fill="#616162" font-family="'FranklinGothicFS-Cd'" font-size="12">Circle size is average sales per order</text>
	</g>
</g>
<circle fill="#007593" fill-opacity="0.8" cx="400.962" cy="103.75" r="30"/>
<g>
	<text transform="matrix(1 0 0 1 25 43.2002)" font-family="'FranklinGothicFS-Cd'" font-size="14">Original site through October 2013</text>
</g>
<polyline fill="none" stroke="#007593" stroke-miterlimit="10" points="183.79,73.75 387.164,73.75 387.164,77.114 "/>
</svg>
