<svg id="Layer_1" data-name="Layer 1" xmlns="http://www.w3.org/2000/svg" viewBox="0 0 1248.09 735.58"><title>plex-letters</title><path d="M248.05,216V35.39H358.29V54.54h-88.5v56.41h83.33V130.1H269.79v66.76h88.5V216Z" transform="translate(-46.2 -24.52)"/><path d="M133.13,38.54h3.48V42.2h.17A6.56,6.56,0,0,1,143.36,38c5.62,0,9.15,4.57,9.15,11.76S149,61.53,143.36,61.53a6.77,6.77,0,0,1-6.58-4.18h-.17V69.72h-3.48Zm15.63,13.15V47.86c0-4-2.44-6.71-6.36-6.71-3.18,0-5.79,1.83-5.79,4.31v8.36c0,2.92,2.61,4.57,5.79,4.57C146.32,58.4,148.76,55.7,148.76,51.69Z" transform="translate(-46.2 -24.52)"/><path d="M162.08,61a3.41,3.41,0,0,1-3.7-3.61V28.78h3.48V58h3.31v3Z" transform="translate(-46.2 -24.52)"/><path d="M168.57,49.77c0-7.14,4-11.76,10.1-11.76s9.71,4.62,9.71,11v1.65H172.23v1c0,3.88,2.48,6.79,6.66,6.79a6.51,6.51,0,0,0,6.18-3.88l2.48,1.79c-1.44,3-4.66,5.14-8.88,5.14C172.58,61.53,168.57,56.92,168.57,49.77Zm3.66-2V48h12.41v-.48c0-4-2.4-6.62-6-6.62C174.89,40.93,172.23,43.81,172.23,47.73Z" transform="translate(-46.2 -24.52)"/><path d="M190.82,61l8.32-11.32-8-11.15h4.09L201,46.9h.13L207,38.54h3.88L203,49.43,211.07,61h-4l-6-9H201l-6.45,9Z" transform="translate(-46.2 -24.52)"/><path d="M343,301.09H272.9v60h60.81v18.11H272.9V442.9h74.53V461H250.64V283h95Z" transform="translate(-46.2 -24.52)"/><path d="M166.57,275l-1.31,2.57a10.84,10.84,0,0,0-5-1.18c-3.14,0-4.09,1.18-4.09,3.53v3.18H169V306h-3.66V285.93H156.2V306h-3.66V285.93h-3.66V283.1h3.66v-3.18c0-3.83,2.35-6.49,7.62-6.49A13.38,13.38,0,0,1,166.57,275Z" transform="translate(-46.2 -24.52)"/><path d="M189.43,282.84l-.65,3.57a7.19,7.19,0,0,0-2-.26c-2.92,0-4.57,2-5.62,6.45V306H177.5V283.1h3.14l.35,4.79c1.22-3.53,3.35-5.31,6.18-5.31A9.26,9.26,0,0,1,189.43,282.84Z" transform="translate(-46.2 -24.52)"/><path d="M209.72,304l-.87,2.57c-2.22-.3-3.66-1.22-4.27-3.53a7.82,7.82,0,0,1-6.88,3.53c-4.53,0-7.23-2.83-7.23-6.92,0-4.88,3.66-7.49,9.93-7.49h3.75v-1.83c0-3.4-1.61-4.7-4.92-4.7a19.25,19.25,0,0,0-6.18,1.26l-.91-2.7a21.39,21.39,0,0,1,7.75-1.57c5.44,0,7.93,2.79,7.93,7.53v10.63C207.81,302.87,208.5,303.53,209.72,304Zm-5.57-4v-5.44h-3.27c-4.27,0-6.53,1.61-6.53,4.88,0,2.79,1.44,4.31,4.18,4.31C201,303.75,202.84,302.48,204.15,300Z" transform="translate(-46.2 -24.52)"/><path d="M375.75,521.24v20.7h-103v58.74h96v20.7h-96v63.92H376.53V706H248.17V521.24Z" transform="translate(-46.2 -24.52)"/><path d="M726.51,216V197.9h25.36V53.5H726.51V35.39H799V53.5H773.61V197.9H799V216Z" transform="translate(-46.2 -24.52)"/><path d="M759.9,461H737.64V283H759.9Z" transform="translate(-46.2 -24.52)"/><path d="M760.79,521.24V706H736.21V521.24Z" transform="translate(-46.2 -24.52)"/><path d="M1002.86,270.87c-41.66,0-58.74-11.9-58.74-32.86,0-14.49,8-22.25,21.22-25.88v-2.85c-7.5-3.62-11.9-9.57-11.9-18.63,0-13.46,9.57-19.93,23-23.29v-1c-15.79-7.5-25.1-22.25-25.1-40.89,0-27.17,19.92-46.06,50.2-46.06a59.93,59.93,0,0,1,25.36,5.18V82.22c0-10.35,4.4-17.86,15.53-17.86h19.92V82.48H1037V91c9.58,8.28,15.27,20.18,15.27,34.42,0,27.17-19.93,46.06-50.46,46.06a68.5,68.5,0,0,1-12.94-1.29c-8.8,2.33-17.6,6.73-17.6,15,0,8,8.28,10.09,20.44,10.09h28.46c33.12,0,47.36,13.46,47.36,35.45C1067.55,258.19,1045.81,270.87,1002.86,270.87Zm17.6-56.15H975.94c-8.54,3.88-12.42,9.83-12.42,18.11,0,11.64,8,21.22,29,21.22h19.15c23,0,36.49-7.25,36.49-21.74C1048.14,221.7,1041.15,214.72,1020.45,214.72Zm10.09-85.65v-7.25c0-17.6-11.13-25.88-28.72-25.88s-28.72,8.28-28.72,25.88v7.25c0,17.6,11.13,25.88,28.72,25.88S1030.54,146.66,1030.54,129.06Z" transform="translate(-46.2 -24.52)"/><path d="M1066,330.33c-10.87,3.36-23.55,3.88-39.33,4.14,15.79,7,23.81,18.37,23.81,34.93,0,26.65-19.15,45.8-51.24,45.8a54.07,54.07,0,0,1-17.34-2.59,16.19,16.19,0,0,0-7.5,13.46c0,6.47,4.14,11.64,18.63,11.64h21.74c27.69,0,45.8,15.79,45.8,37,0,26.14-21,40.89-62.62,40.89-43.73,0-58-13.2-58-40.63h19.67c0,16.3,7.76,23.55,38.3,23.55,30,0,40.63-8,40.63-22.25,0-13.46-10.61-20.18-28.21-20.18H988.88c-23.81,0-34.68-11.9-34.68-25.36,0-9.06,5.18-17.6,14.75-23.81-15.53-8.28-22.77-20.18-22.77-38,0-27.69,21.74-47.1,51.75-47.1,34.42.78,46.32-4.4,61.59-11.39Zm-97.56,38.56c0,19.15,10.87,31.83,30,31.83,19.41,0,29.76-11.65,29.76-31.83s-10.09-31.31-30.28-31.31C978.53,337.57,968.44,350.77,968.44,368.89Z" transform="translate(-46.2 -24.52)"/><path d="M1054,743.79q-15,16.3-47.1,16.3a91.09,91.09,0,0,1-19-2.07,58.36,58.36,0,0,1-17.6-6.73,41,41,0,0,1-13.07-12.16q-5.18-7.51-5.69-18.37h22a16.26,16.26,0,0,0,3.75,10.09,27.43,27.43,0,0,0,8.54,6.73,41.43,41.43,0,0,0,11,3.75,59.32,59.32,0,0,0,11.39,1.17q10.87,0,18.37-3.75a34.52,34.52,0,0,0,12.42-10.35,42.78,42.78,0,0,0,7.12-15.92,89.1,89.1,0,0,0,2.2-20.44v-8.8h-.52a37,37,0,0,1-17.21,18.24,53.47,53.47,0,0,1-24.46,5.82q-15,0-26.14-5.43a54.66,54.66,0,0,1-18.63-14.62,62.15,62.15,0,0,1-11.26-21.48,88.53,88.53,0,0,1-3.75-26,101.67,101.67,0,0,1,3.11-24.46,66.7,66.7,0,0,1,10.35-22.77,56.73,56.73,0,0,1,19.15-16.82q11.9-6.6,29.24-6.6a49.41,49.41,0,0,1,23.29,5.56A39.21,39.21,0,0,1,1048,591.37h.26V572.22H1069v122.4Q1069,727.49,1054,743.79Zm-28.08-60.17a36.09,36.09,0,0,0,12.29-11.9A54.45,54.45,0,0,0,1045,655a81,81,0,0,0,2.2-18.63,73.42,73.42,0,0,0-2.07-17.34,48.49,48.49,0,0,0-6.6-15.4,34.34,34.34,0,0,0-11.77-11q-7.25-4.14-17.6-4.14-10.61,0-18.12,4a35.23,35.23,0,0,0-12.29,10.74,45.49,45.49,0,0,0-7,15.53,75.49,75.49,0,0,0-2.2,18.37,92,92,0,0,0,1.81,18.12,51.38,51.38,0,0,0,6.21,16.43,34.91,34.91,0,0,0,11.65,11.9q7.24,4.53,18.11,4.53T1025.88,683.63Z" transform="translate(-46.2 -24.52)"/><path d="M1178,24.52h20.7V145.88h1l20.44-22.77,37.78-40.63H1283l-49.43,52.79L1288,216h-25.1L1218.61,148l-19.92,20.44V216H1178Z" transform="translate(-46.2 -24.52)"/><path d="M1203.08,461h-21.74V270l21.74-2.59ZM1229,385.19,1286.67,461h-26.14l-55.89-74.27,51.75-61.85h24.33Z" transform="translate(-46.2 -24.52)"/><path d="M1199.84,521.24V630.7l61.07-58.48h29.5l-53,48.65L1294.29,706h-27.95l-45.8-69.87-20.7,19.15V706h-22V521.24Z" transform="translate(-46.2 -24.52)"/><path d="M521,201v3.62c0,14-8.8,33.12-23.55,45.8H480.08c10.35-10.87,16.56-19.93,19.41-32.09-7-1.55-10.09-6.73-10.09-13.71V201c0-9.06,4.92-15.27,15.79-15.27S521,191.94,521,201Z" transform="translate(-46.2 -24.52)"/><path d="M559.78,204.11v-3.36c0-8.8,4.92-15,15.79-15s15.79,6.21,15.79,15v3.36c0,8.8-4.92,15-15.79,15S559.78,212.9,559.78,204.11Z" transform="translate(-46.2 -24.52)"/><path d="M516.57,447.29c0,5.43-1.29,10.35-4.4,17.34l-16.82,38.56H479.82l10.35-41.92a17.64,17.64,0,0,1-7-14,16.69,16.69,0,0,1,33.38,0Z" transform="translate(-46.2 -24.52)"/><path d="M576.6,447.29a16.69,16.69,0,1,1-16.82-16.56A16.47,16.47,0,0,1,576.6,447.29Z" transform="translate(-46.2 -24.52)"/><path d="M524.19,677.29v26.14q0,14.75-6.73,25.36t-21.74,15V730.85a19.42,19.42,0,0,0,7.38-4.53,26.31,26.31,0,0,0,4.79-6.47,25.07,25.07,0,0,0,2.46-7.12,26.32,26.32,0,0,0,.39-6.73H495.47V677.29Z" transform="translate(-46.2 -24.52)"/><path d="M596.13,677.29V706H567.41V677.29Z" transform="translate(-46.2 -24.52)"/><path d="M49.9,519.92v11.89H50A4.92,4.92,0,0,1,51.21,530,6.91,6.91,0,0,1,53,528.87a9.12,9.12,0,0,1,2-.67,10.38,10.38,0,0,1,2.07-.22,9.77,9.77,0,0,1,3.7.61,6.11,6.11,0,0,1,2.4,1.7,6.32,6.32,0,0,1,1.28,2.59,14,14,0,0,1,.37,3.33V551h-3.7V535.77a4.47,4.47,0,0,0-1.22-3.31,4.53,4.53,0,0,0-3.35-1.22,7.56,7.56,0,0,0-2.94.52,5.52,5.52,0,0,0-2.07,1.48,6.37,6.37,0,0,0-1.24,2.24,9.1,9.1,0,0,0-.41,2.81V551H46.2V519.92Z" transform="translate(-46.2 -24.52)"/><path d="M86.35,549.57A10.21,10.21,0,0,1,80,551.49a11.55,11.55,0,0,1-4.68-.87A9.22,9.22,0,0,1,72,548.18a10.35,10.35,0,0,1-2-3.75,18,18,0,0,1-.76-4.75A13.55,13.55,0,0,1,70,535a11.24,11.24,0,0,1,2.2-3.7,10,10,0,0,1,3.35-2.44,10.24,10.24,0,0,1,4.25-.87,9.23,9.23,0,0,1,5,1.24,9.86,9.86,0,0,1,3.18,3.16,12.51,12.51,0,0,1,1.65,4.18,18,18,0,0,1,.37,4.31H73.11a8.93,8.93,0,0,0,.35,2.81A6.34,6.34,0,0,0,74.72,546a6.22,6.22,0,0,0,2.22,1.63,7.66,7.66,0,0,0,3.18.61A6.4,6.4,0,0,0,84,547.18a5.27,5.27,0,0,0,2-3.31h3.66A9,9,0,0,1,86.35,549.57Zm-.89-14.46a6.34,6.34,0,0,0-1.35-2,6.41,6.41,0,0,0-2-1.35,6.33,6.33,0,0,0-2.55-.5,6.44,6.44,0,0,0-2.59.5,6,6,0,0,0-2,1.37,6.58,6.58,0,0,0-1.31,2,7.7,7.7,0,0,0-.57,2.46H86A7.59,7.59,0,0,0,85.46,535.12Z" transform="translate(-46.2 -24.52)"/><path d="M97.72,519.92V551H94V519.92Z" transform="translate(-46.2 -24.52)"/><path d="M109.65,551l-8.36-22.51h4.14l6.31,18.77h.09L118,528.5h3.88L113.61,551Z" transform="translate(-46.2 -24.52)"/><path d="M141.18,549.57a10.21,10.21,0,0,1-6.36,1.92,11.55,11.55,0,0,1-4.68-.87,9.22,9.22,0,0,1-3.33-2.44,10.35,10.35,0,0,1-2-3.75,18,18,0,0,1-.76-4.75,13.55,13.55,0,0,1,.78-4.7,11.24,11.24,0,0,1,2.2-3.7,10,10,0,0,1,3.35-2.44,10.24,10.24,0,0,1,4.25-.87,9.23,9.23,0,0,1,5,1.24,9.86,9.86,0,0,1,3.18,3.16,12.51,12.51,0,0,1,1.65,4.18,18,18,0,0,1,.37,4.31H127.94a8.93,8.93,0,0,0,.35,2.81,6.34,6.34,0,0,0,1.26,2.35,6.22,6.22,0,0,0,2.22,1.63,7.66,7.66,0,0,0,3.18.61,6.4,6.4,0,0,0,3.85-1.09,5.27,5.27,0,0,0,2-3.31h3.66A9,9,0,0,1,141.18,549.57Zm-.89-14.46a6.34,6.34,0,0,0-1.35-2,6.41,6.41,0,0,0-2-1.35,6.33,6.33,0,0,0-2.55-.5,6.44,6.44,0,0,0-2.59.5,6,6,0,0,0-2,1.37,6.58,6.58,0,0,0-1.31,2,7.7,7.7,0,0,0-.57,2.46h12.93A7.59,7.59,0,0,0,140.28,535.12Z" transform="translate(-46.2 -24.52)"/><path d="M158.25,528.5v3.27h-4.49v14a4,4,0,0,0,.11,1,1.07,1.07,0,0,0,.41.61,1.81,1.81,0,0,0,.85.28,12,12,0,0,0,1.42.07h1.7V551h-2.83a13.36,13.36,0,0,1-2.46-.2,3.62,3.62,0,0,1-1.65-.72,3.06,3.06,0,0,1-.94-1.48,8.56,8.56,0,0,1-.3-2.53V531.76h-3.83V528.5h3.83v-6.75h3.7v6.75Z" transform="translate(-46.2 -24.52)"/><path d="M162.56,524.45v-4.53h3.7v4.53Zm3.7,4.05V551h-3.7V528.5Z" transform="translate(-46.2 -24.52)"/><path d="M185.46,532.42a5.62,5.62,0,0,0-3.75-1.18,6.9,6.9,0,0,0-3.35.74,6,6,0,0,0-2.16,2,8.22,8.22,0,0,0-1.15,2.81,15.28,15.28,0,0,0-.35,3.29,12.5,12.5,0,0,0,.37,3,8.16,8.16,0,0,0,1.15,2.63,5.83,5.83,0,0,0,2,1.85,6.12,6.12,0,0,0,3,.7,6.06,6.06,0,0,0,4.29-1.44,6.49,6.49,0,0,0,1.89-4h3.79a10.37,10.37,0,0,1-3.11,6.45,9.78,9.78,0,0,1-6.82,2.26,11.74,11.74,0,0,1-4.55-.83,8.83,8.83,0,0,1-3.31-2.35,10.17,10.17,0,0,1-2-3.64,15.15,15.15,0,0,1-.67-4.64,16.54,16.54,0,0,1,.65-4.73,10.94,10.94,0,0,1,2-3.83,9.3,9.3,0,0,1,3.33-2.57,10.88,10.88,0,0,1,4.66-.94,13.61,13.61,0,0,1,3.59.46,8.75,8.75,0,0,1,3,1.42,7.74,7.74,0,0,1,2.11,2.42,8.92,8.92,0,0,1,1,3.46h-3.83A5.65,5.65,0,0,0,185.46,532.42Z" transform="translate(-46.2 -24.52)"/><path d="M215.33,550.92a5.24,5.24,0,0,1-2.66.57,3.18,3.18,0,0,1-2.29-.8,3.5,3.5,0,0,1-.85-2.63,8.86,8.86,0,0,1-3.55,2.63,12.28,12.28,0,0,1-7.27.46,6.73,6.73,0,0,1-2.37-1.09,5.21,5.21,0,0,1-1.59-1.94,6.51,6.51,0,0,1-.59-2.9,6.62,6.62,0,0,1,.65-3.14,5.7,5.7,0,0,1,1.72-2,7.89,7.89,0,0,1,2.44-1.15q1.37-.39,2.81-.65t2.9-.46a16.15,16.15,0,0,0,2.42-.44,4,4,0,0,0,1.65-.83,2,2,0,0,0,.61-1.59,3.69,3.69,0,0,0-.46-2,3.14,3.14,0,0,0-1.18-1.13,4.77,4.77,0,0,0-1.61-.52,12.21,12.21,0,0,0-1.76-.13,7.82,7.82,0,0,0-3.92.89,3.79,3.79,0,0,0-1.7,3.37H195a8,8,0,0,1,.87-3.53,6.6,6.6,0,0,1,2.09-2.33,8.77,8.77,0,0,1,3-1.29,15.72,15.72,0,0,1,3.59-.39,21.17,21.17,0,0,1,3,.22,7.91,7.91,0,0,1,2.72.89,5.22,5.22,0,0,1,2,1.89,6,6,0,0,1,.74,3.17V545.7a8.59,8.59,0,0,0,.15,1.91q.15.61,1,.61a4.48,4.48,0,0,0,1.13-.17Zm-6-11.54a4.63,4.63,0,0,1-1.83.76q-1.13.24-2.37.39t-2.5.35a9.22,9.22,0,0,0-2.26.63,4.12,4.12,0,0,0-1.63,1.24,3.45,3.45,0,0,0-.63,2.19,3,3,0,0,0,.37,1.54,3.08,3.08,0,0,0,1,1,4,4,0,0,0,1.37.56,7.6,7.6,0,0,0,1.65.17,8.81,8.81,0,0,0,3.14-.5,6.59,6.59,0,0,0,2.13-1.26,5,5,0,0,0,1.22-1.65,4.15,4.15,0,0,0,.39-1.67Z" transform="translate(-46.2 -24.52)"/></svg>