<?xml version="1.0" encoding="utf-8"?>
<!-- Generator: Adobe Illustrator 22.0.1, SVG Export Plug-In . SVG Version: 6.00 Build 0)  -->
<svg version="1.1" id="Layer_1" xmlns="http://www.w3.org/2000/svg" xmlns:xlink="http://www.w3.org/1999/xlink" x="0px" y="0px"
	 viewBox="0 0 630.4 502" style="enable-background:new 0 0 630.4 502;" xml:space="preserve">
<style type="text/css">
	.st0{fill-opacity:0;}
	.st1{fill:none;stroke:#000000;stroke-linejoin:round;stroke-miterlimit:10;}
</style>
<g>
	<g>
		<path class="st0" d="M46.5,338.8L46.5,338.8c0-81.4,66-147.4,147.4-147.4l0,0c39.1,0,76.6,15.5,104.2,43.2s43.2,65.1,43.2,104.2
			l0,0c0,81.4-66,147.4-147.4,147.4l0,0C112.5,486.2,46.5,420.2,46.5,338.8z"/>
		<path class="st1" d="M46.5,338.8L46.5,338.8c0-81.4,66-147.4,147.4-147.4l0,0c39.1,0,76.6,15.5,104.2,43.2s43.2,65.1,43.2,104.2
			l0,0c0,81.4-66,147.4-147.4,147.4l0,0C112.5,486.2,46.5,420.2,46.5,338.8z"/>
		<path d="M120.8,335.7c0,2-0.6,3.5-1.9,4.5c-1.3,0.9-3,1.4-5.2,1.4h-2.4v6.8H109V330h4.7c2.3,0,4,0.5,5.2,1.4
			C120.2,332.4,120.8,333.8,120.8,335.7z M118.3,335.7c0-1.3-0.4-2.3-1.2-2.9c-0.8-0.6-1.8-0.9-3.2-0.9h-2.7v7.9h2.6
			c1.4,0,2.5-0.3,3.2-0.9C117.9,338.2,118.3,337.2,118.3,335.7z M134.1,334.1c0.6,0,1.2,0.1,2,0.3l-0.3,4.8h-1.8v-3h-0.1
			c-2.2,0-3.7,1.5-4.6,4.6v5.9h2.9v1.7h-7.3v-1.7h2.2v-10.6h-2.2v-1.7h3.9l0.4,3.3c0.6-1.2,1.2-2.1,2-2.7S132.9,334.1,134.1,334.1z
			 M146,334.1c1.9,0,3.4,0.7,4.5,2c1,1.3,1.6,3.1,1.6,5.3c0,2.2-0.5,4-1.6,5.3c-1.1,1.3-2.5,2-4.5,2c-1.9,0-3.4-0.7-4.5-2
			c-1-1.3-1.6-3.1-1.6-5.4c0-2.2,0.5-4,1.6-5.3C142.5,334.7,144,334.1,146,334.1z M146,335.9c-1.2,0-2.1,0.5-2.8,1.4
			c-0.6,0.9-0.9,2.3-0.9,4.1c0,1.9,0.3,3.2,0.9,4.1s1.5,1.3,2.7,1.3c1.2,0,2.1-0.4,2.7-1.3s0.9-2.3,0.9-4.1c0-1.9-0.3-3.2-0.9-4.1
			S147.2,335.9,146,335.9z M168.7,335c-0.5,0.2-1.1,0.3-1.7,0.3c-0.6,0-1.4,0.1-2.4,0.1c1.6,0.8,2.5,1.9,2.5,3.5
			c0,1.4-0.5,2.6-1.4,3.5c-0.9,0.9-2.2,1.3-3.9,1.3c-0.8,0-1.5-0.1-2.1-0.3c-0.2,0.2-0.4,0.4-0.5,0.6c-0.1,0.2-0.2,0.5-0.2,0.8
			c0,0.8,0.6,1.2,1.9,1.2h2.5c0.9,0,1.8,0.2,2.5,0.5c0.8,0.3,1.4,0.8,1.8,1.4s0.7,1.2,0.7,2c0,1.4-0.6,2.4-1.8,3.2
			c-1.2,0.7-2.8,1.1-5,1.1c-2.2,0-3.7-0.3-4.6-1c-0.9-0.7-1.3-1.8-1.3-3.2h2c0,0.6,0.1,1.1,0.3,1.4c0.2,0.3,0.6,0.6,1.2,0.8
			c0.6,0.2,1.4,0.3,2.4,0.3c1.5,0,2.6-0.2,3.3-0.6c0.7-0.4,1.1-1,1.1-1.7c0-0.6-0.3-1.1-0.9-1.5c-0.6-0.3-1.3-0.5-2.3-0.5h-2.5
			c-1.2,0-2-0.2-2.6-0.8c-0.6-0.5-0.9-1.1-0.9-1.9c0-0.4,0.1-0.9,0.4-1.3c0.3-0.4,0.7-0.8,1.2-1.1c-0.8-0.4-1.4-0.9-1.8-1.6
			c-0.4-0.6-0.6-1.4-0.6-2.3c0-0.9,0.2-1.8,0.7-2.5s1.1-1.3,2-1.7s1.8-0.6,2.9-0.6c1.6,0,2.8-0.1,3.7-0.3c0.8-0.2,1.7-0.5,2.7-0.9
			L168.7,335z M161.6,335.7c-1.1,0-1.9,0.3-2.5,0.9c-0.6,0.6-0.8,1.4-0.8,2.3c0,1,0.3,1.8,0.8,2.4s1.4,0.9,2.5,0.9
			c1,0,1.7-0.3,2.3-0.9c0.5-0.6,0.8-1.4,0.8-2.4C164.7,336.8,163.7,335.7,161.6,335.7z M182.1,334.1c0.6,0,1.2,0.1,2,0.3l-0.3,4.8
			h-1.8v-3h-0.1c-2.2,0-3.7,1.5-4.6,4.6v5.9h2.9v1.7h-7.3v-1.7h2.2v-10.6h-2.2v-1.7h3.9l0.4,3.3c0.6-1.2,1.2-2.1,2-2.7
			S180.9,334.1,182.1,334.1z M198.6,345.3c0,0.6,0.1,1,0.3,1.2c0.2,0.2,0.5,0.4,0.9,0.6l-0.6,1.6c-1.4-0.2-2.2-0.8-2.6-2
			c-0.5,0.6-1.1,1.1-1.9,1.5c-0.7,0.3-1.6,0.5-2.5,0.5c-1.4,0-2.5-0.4-3.3-1.2c-0.8-0.8-1.2-1.8-1.2-3.2c0-1.4,0.6-2.5,1.7-3.3
			c1.1-0.8,2.7-1.2,4.9-1.2h2.1v-1.1c0-1-0.3-1.7-0.9-2.1c-0.6-0.4-1.4-0.7-2.5-0.7c-1.1,0-2.3,0.2-3.7,0.7l-0.6-1.7
			c1.7-0.6,3.2-0.9,4.6-0.9c1.7,0,3,0.4,3.9,1.2c0.9,0.8,1.3,1.9,1.3,3.3V345.3z M192.8,347c0.7,0,1.3-0.2,2-0.5
			c0.6-0.4,1.2-0.8,1.6-1.5v-3.6h-2c-1.5,0-2.6,0.2-3.2,0.8c-0.7,0.5-1,1.2-1,2.2C190.1,346.1,191,347,192.8,347z M213.8,334.1
			c0.8,0,1.4,0.3,2,0.8c0.5,0.6,0.8,1.6,0.8,3v10.5h-2.1v-10.1c0-1-0.1-1.6-0.2-2s-0.4-0.5-0.9-0.5c-0.9,0-1.7,0.6-2.5,1.7v10.9
			h-2.1v-10.1c0-1-0.1-1.6-0.2-2s-0.4-0.5-0.9-0.5c-0.9,0-1.7,0.6-2.5,1.7v10.9h-2v-14h1.7l0.2,1.7c0.4-0.6,0.9-1.1,1.3-1.4
			c0.5-0.3,1-0.5,1.7-0.5c1.3,0,2.2,0.6,2.5,1.9c0.4-0.6,0.9-1.1,1.4-1.4C212.6,334.2,213.1,334.1,213.8,334.1z M229.8,334.1
			c0.8,0,1.4,0.3,2,0.8c0.5,0.6,0.8,1.6,0.8,3v10.5h-2.1v-10.1c0-1-0.1-1.6-0.2-2s-0.4-0.5-0.9-0.5c-0.9,0-1.7,0.6-2.5,1.7v10.9
			h-2.1v-10.1c0-1-0.1-1.6-0.2-2s-0.4-0.5-0.9-0.5c-0.9,0-1.7,0.6-2.5,1.7v10.9h-2v-14h1.7l0.2,1.7c0.4-0.6,0.9-1.1,1.3-1.4
			c0.5-0.3,1-0.5,1.7-0.5c1.3,0,2.2,0.6,2.5,1.9c0.4-0.6,0.9-1.1,1.4-1.4C228.6,334.2,229.1,334.1,229.8,334.1z M241.9,327.8
			c0.5,0,0.9,0.2,1.2,0.5c0.3,0.3,0.5,0.7,0.5,1.1c0,0.5-0.2,0.8-0.5,1.1c-0.3,0.3-0.7,0.4-1.2,0.4c-0.5,0-0.9-0.1-1.2-0.4
			c-0.3-0.3-0.4-0.7-0.4-1.1c0-0.5,0.1-0.8,0.4-1.1C241,327.9,241.4,327.8,241.9,327.8z M243.7,346.6h4v1.8h-10.5v-1.8h4.3v-10.5
			h-4.2v-1.8h6.4V346.6z M252.6,334.4h1.9l0.2,2c0.6-0.7,1.2-1.3,2.1-1.7c0.8-0.4,1.7-0.6,2.5-0.6c2.6,0,4,1.4,4,4.2v10.2H261v-8.5
			c0-1.1-0.1-1.8-0.2-2.4c-0.1-0.6-0.3-1-0.7-1.2c-0.3-0.3-0.8-0.4-1.5-0.4c-0.8,0-1.5,0.2-2.2,0.7c-0.7,0.5-1.2,1-1.7,1.7v10.2
			h-2.2V334.4z M280.6,335c-0.5,0.2-1.1,0.3-1.7,0.3c-0.6,0-1.4,0.1-2.4,0.1c1.6,0.8,2.5,1.9,2.5,3.5c0,1.4-0.5,2.6-1.4,3.5
			c-0.9,0.9-2.2,1.3-3.9,1.3c-0.8,0-1.5-0.1-2.1-0.3c-0.2,0.2-0.4,0.4-0.5,0.6c-0.1,0.2-0.2,0.5-0.2,0.8c0,0.8,0.6,1.2,1.9,1.2h2.5
			c0.9,0,1.8,0.2,2.5,0.5c0.8,0.3,1.4,0.8,1.8,1.4s0.7,1.2,0.7,2c0,1.4-0.6,2.4-1.8,3.2c-1.2,0.7-2.8,1.1-5,1.1
			c-2.2,0-3.7-0.3-4.6-1c-0.9-0.7-1.3-1.8-1.3-3.2h2c0,0.6,0.1,1.1,0.3,1.4c0.2,0.3,0.6,0.6,1.2,0.8c0.6,0.2,1.4,0.3,2.4,0.3
			c1.5,0,2.6-0.2,3.3-0.6c0.7-0.4,1.1-1,1.1-1.7c0-0.6-0.3-1.1-0.9-1.5c-0.6-0.3-1.3-0.5-2.3-0.5h-2.5c-1.2,0-2-0.2-2.6-0.8
			c-0.6-0.5-0.9-1.1-0.9-1.9c0-0.4,0.1-0.9,0.4-1.3c0.3-0.4,0.7-0.8,1.2-1.1c-0.8-0.4-1.4-0.9-1.8-1.6c-0.4-0.6-0.6-1.4-0.6-2.3
			c0-0.9,0.2-1.8,0.7-2.5s1.1-1.3,2-1.7s1.8-0.6,2.9-0.6c1.6,0,2.8-0.1,3.7-0.3c0.8-0.2,1.7-0.5,2.7-0.9L280.6,335z M273.5,335.7
			c-1.1,0-1.9,0.3-2.5,0.9c-0.6,0.6-0.8,1.4-0.8,2.3c0,1,0.3,1.8,0.8,2.4s1.4,0.9,2.5,0.9c1,0,1.7-0.3,2.3-0.9
			c0.5-0.6,0.8-1.4,0.8-2.4C276.7,336.8,275.6,335.7,273.5,335.7z"/>
		<path class="st0" d="M140.4,171.2L140.4,171.2c0-81.4,66-147.4,147.4-147.4l0,0c39.1,0,76.6,15.5,104.2,43.2s43.2,65.1,43.2,104.2
			l0,0c0,81.4-66,147.4-147.4,147.4l0,0C206.4,318.6,140.4,252.6,140.4,171.2z"/>
		<path class="st1" d="M140.4,171.2L140.4,171.2c0-81.4,66-147.4,147.4-147.4l0,0c39.1,0,76.6,15.5,104.2,43.2s43.2,65.1,43.2,104.2
			l0,0c0,81.4-66,147.4-147.4,147.4l0,0C206.4,318.6,140.4,252.6,140.4,171.2z"/>
		<path d="M249.7,166.1c0,0.6-0.2,1-0.6,1.4c-0.4,0.4-0.9,0.6-1.4,0.6s-1-0.2-1.4-0.6c-0.4-0.4-0.6-0.9-0.6-1.4
			c0-0.5,0.2-1.1,0.5-1.7l2.2-4.6h1.8l-1.1,4.9c0.2,0.1,0.4,0.4,0.5,0.6C249.6,165.5,249.7,165.8,249.7,166.1z M270.6,171.5
			c0,3.5-0.8,5.9-2.4,7.3c-1.6,1.3-3.6,2-5.9,2h-4.2v-18.4h3.9c2.6,0,4.7,0.7,6.2,2C269.8,165.7,270.6,168,270.6,171.5z
			 M268.1,171.5c0-2-0.3-3.5-0.8-4.6c-0.5-1.1-1.2-1.8-2-2.1c-0.8-0.3-1.7-0.5-2.8-0.5h-2.2v14.6h2.2c1.6,0,2.9-0.5,4-1.6
			C267.6,176.2,268.1,174.3,268.1,171.5z M284.6,177.7c0,0.6,0.1,1,0.3,1.2c0.2,0.2,0.5,0.4,0.9,0.6l-0.6,1.6
			c-1.4-0.2-2.2-0.8-2.6-2c-0.5,0.6-1.1,1.1-1.9,1.5c-0.8,0.3-1.6,0.5-2.5,0.5c-1.4,0-2.5-0.4-3.3-1.2c-0.8-0.8-1.2-1.8-1.2-3.2
			c0-1.4,0.6-2.5,1.7-3.3s2.7-1.2,4.9-1.2h2.1v-1.1c0-1-0.3-1.7-0.9-2.1c-0.6-0.4-1.4-0.7-2.5-0.7c-1.1,0-2.3,0.2-3.7,0.7l-0.6-1.7
			c1.7-0.6,3.2-0.9,4.6-0.9c1.7,0,3,0.4,3.9,1.2c0.9,0.8,1.3,1.9,1.3,3.3V177.7z M278.8,179.4c0.7,0,1.3-0.2,2-0.5
			c0.6-0.4,1.2-0.8,1.6-1.5v-3.6h-2c-1.5,0-2.6,0.2-3.2,0.8s-1,1.2-1,2.2C276.1,178.5,277,179.4,278.8,179.4z M301.7,180.1
			c-0.5,0.3-1.1,0.6-1.8,0.8c-0.7,0.2-1.4,0.3-2,0.3c-1.5,0-2.6-0.4-3.5-1.2c-0.8-0.8-1.2-1.8-1.2-3.1v-8.4h-3.2v-1.8h3.2v-3.2
			l2.2-0.3v3.4h4.9l-0.3,1.8h-4.6v8.3c0,0.8,0.2,1.4,0.6,1.8c0.4,0.4,1.1,0.6,2.1,0.6c1,0,1.9-0.2,2.7-0.7L301.7,180.1z
			 M316.6,177.7c0,0.6,0.1,1,0.3,1.2c0.2,0.2,0.5,0.4,0.9,0.6l-0.6,1.6c-1.4-0.2-2.2-0.8-2.6-2c-0.5,0.6-1.1,1.1-1.9,1.5
			c-0.8,0.3-1.6,0.5-2.5,0.5c-1.4,0-2.5-0.4-3.3-1.2c-0.8-0.8-1.2-1.8-1.2-3.2c0-1.4,0.6-2.5,1.7-3.3s2.7-1.2,4.9-1.2h2.1v-1.1
			c0-1-0.3-1.7-0.9-2.1c-0.6-0.4-1.4-0.7-2.5-0.7c-1.1,0-2.3,0.2-3.7,0.7l-0.6-1.7c1.7-0.6,3.2-0.9,4.6-0.9c1.7,0,3,0.4,3.9,1.2
			c0.9,0.8,1.3,1.9,1.3,3.3V177.7z M310.8,179.4c0.7,0,1.3-0.2,2-0.5c0.6-0.4,1.2-0.8,1.6-1.5v-3.6h-2c-1.5,0-2.6,0.2-3.2,0.8
			s-1,1.2-1,2.2C308.1,178.5,309,179.4,310.8,179.4z M325.9,161.7c0-0.5,0.2-1,0.6-1.4c0.4-0.4,0.9-0.6,1.4-0.6
			c0.6,0,1.1,0.2,1.5,0.6s0.6,0.8,0.6,1.4c0,0.2,0,0.5-0.1,0.7c-0.1,0.2-0.2,0.6-0.4,1l-2.2,4.6h-1.8l1.1-4.9
			c-0.2-0.2-0.4-0.4-0.5-0.6C326,162.3,325.9,162,325.9,161.7z"/>
		<path class="st0" d="M303.7,273.8L303.7,273.8c0-81.4,66-147.4,147.4-147.4l0,0c39.1,0,76.6,15.5,104.2,43.2
			c27.6,27.6,43.2,65.1,43.2,104.2l0,0c0,81.4-66,147.4-147.4,147.4l0,0C369.7,421.2,303.7,355.2,303.7,273.8z"/>
		<path class="st1" d="M303.7,273.8L303.7,273.8c0-81.4,66-147.4,147.4-147.4l0,0c39.1,0,76.6,15.5,104.2,43.2
			c27.6,27.6,43.2,65.1,43.2,104.2l0,0c0,81.4-66,147.4-147.4,147.4l0,0C369.7,421.2,303.7,355.2,303.7,273.8z"/>
		<path d="M422.8,249h2.3v16.3h8.4l-0.3,2h-10.4V249z M443.1,246.8c0.5,0,0.9,0.2,1.2,0.5c0.3,0.3,0.5,0.7,0.5,1.1
			c0,0.5-0.2,0.8-0.5,1.1c-0.3,0.3-0.7,0.4-1.2,0.4c-0.5,0-0.9-0.1-1.2-0.4c-0.3-0.3-0.4-0.7-0.4-1.1c0-0.5,0.1-0.8,0.4-1.1
			C442.3,246.9,442.6,246.8,443.1,246.8z M444.9,265.6h4v1.8h-10.5v-1.8h4.3v-10.5h-4.2v-1.8h6.4V265.6z M462.1,247.4
			c1.3,0,2.6,0.2,3.8,0.8l-0.7,1.7c-0.9-0.4-1.9-0.6-3-0.6c-1.9,0-2.9,0.8-2.9,2.3v2.9h4.7l-0.2,1.8h-4.5v11.2H457v-11.2h-3.3v-1.8
			h3.3v-2.8c0-1.3,0.5-2.3,1.5-3C459.4,247.8,460.6,247.4,462.1,247.4z M471.6,261.1c0.1,1.5,0.5,2.7,1.2,3.5
			c0.8,0.8,1.7,1.2,2.9,1.2c0.7,0,1.3-0.1,1.9-0.3c0.6-0.2,1.2-0.5,1.9-1l1,1.5c-0.7,0.5-1.4,0.9-2.2,1.2c-0.8,0.3-1.7,0.4-2.5,0.4
			c-2,0-3.6-0.7-4.7-2c-1.1-1.3-1.7-3.1-1.7-5.3c0-1.4,0.2-2.7,0.7-3.8c0.5-1.1,1.2-2,2.1-2.6c0.9-0.6,2-1,3.2-1
			c1.8,0,3.2,0.6,4.2,1.9c1,1.2,1.5,2.9,1.5,5c0,0.4,0,0.8,0,1.2H471.6z M475.3,254.9c-1.1,0-2,0.4-2.6,1.2
			c-0.7,0.8-1.1,1.9-1.1,3.4h7.3c0-1.5-0.3-2.6-1-3.4S476.4,254.9,475.3,254.9z"/>
		<path d="M401.5,294.3c0,1.1-0.3,2-0.8,2.8c-0.5,0.8-1.3,1.4-2.3,1.9c-1,0.4-2.2,0.7-3.6,0.7c-1.3,0-2.5-0.2-3.6-0.6
			c-1.1-0.4-2-1-2.8-1.7l1.4-1.6c0.7,0.6,1.4,1.1,2.2,1.5c0.8,0.3,1.8,0.5,2.8,0.5c1.2,0,2.2-0.3,3-0.9c0.8-0.6,1.2-1.4,1.2-2.5
			c0-0.6-0.1-1.1-0.3-1.5c-0.2-0.4-0.6-0.8-1.2-1.1c-0.6-0.3-1.4-0.6-2.4-0.9c-2-0.6-3.5-1.3-4.5-2.1c-1-0.8-1.5-1.9-1.5-3.2
			c0-0.9,0.2-1.7,0.8-2.4c0.5-0.7,1.2-1.3,2.1-1.7c0.9-0.4,1.9-0.6,3.1-0.6c1.2,0,2.3,0.2,3.2,0.5c0.9,0.4,1.8,0.9,2.6,1.6l-1.4,1.5
			c-1.3-1.1-2.7-1.7-4.4-1.7c-1.1,0-2,0.2-2.7,0.7c-0.7,0.5-1,1.1-1,2c0,0.5,0.1,1,0.4,1.4c0.3,0.4,0.8,0.7,1.4,1s1.6,0.7,2.8,1
			c1.7,0.5,3,1.2,4,2C401,291.5,401.5,292.7,401.5,294.3z M412.2,297.8c1.2,0,2.4-0.4,3.7-1.2l1.1,1.5c-0.6,0.5-1.3,0.9-2.2,1.2
			c-0.9,0.3-1.7,0.5-2.5,0.5c-2.1,0-3.7-0.7-4.9-2c-1.2-1.3-1.8-3.1-1.8-5.3c0-1.4,0.3-2.7,0.8-3.8c0.5-1.1,1.3-2,2.3-2.6
			c1-0.6,2.2-1,3.5-1c1.8,0,3.4,0.6,4.7,1.7l-1.1,1.5c-1.2-0.8-2.4-1.2-3.6-1.2c-1.3,0-2.3,0.5-3,1.4c-0.8,0.9-1.1,2.3-1.1,4.1
			c0,1.8,0.4,3.1,1.1,4C409.9,297.3,410.9,297.8,412.2,297.8z M427.1,278.8c0.5,0,0.9,0.2,1.2,0.5c0.3,0.3,0.5,0.7,0.5,1.1
			s-0.2,0.8-0.5,1.1c-0.3,0.3-0.7,0.4-1.2,0.4c-0.5,0-0.9-0.1-1.2-0.4c-0.3-0.3-0.4-0.7-0.4-1.1s0.1-0.8,0.4-1.1
			C426.3,278.9,426.7,278.8,427.1,278.8z M428.9,297.6h4v1.8h-10.5v-1.8h4.3v-10.5h-4.2v-1.8h6.4V297.6z M439.6,293.1
			c0.1,1.5,0.5,2.7,1.2,3.5c0.8,0.8,1.7,1.2,2.9,1.2c0.7,0,1.3-0.1,1.9-0.3c0.6-0.2,1.2-0.5,1.9-1l1,1.5c-0.7,0.5-1.4,0.9-2.2,1.2
			c-0.8,0.3-1.7,0.4-2.5,0.4c-2,0-3.6-0.7-4.7-2s-1.7-3.1-1.7-5.3c0-1.4,0.2-2.7,0.7-3.8c0.5-1.1,1.2-2,2.1-2.6c0.9-0.6,2-1,3.2-1
			c1.8,0,3.2,0.6,4.2,1.9c1,1.2,1.5,2.9,1.5,5c0,0.4,0,0.8,0,1.2H439.6z M443.4,286.9c-1.1,0-2,0.4-2.6,1.2s-1.1,1.9-1.1,3.4h7.3
			c0-1.5-0.3-2.6-1-3.4S444.4,286.9,443.4,286.9z M453.8,285.3h1.9l0.2,2c0.6-0.7,1.2-1.3,2.1-1.7c0.8-0.4,1.7-0.6,2.5-0.6
			c2.6,0,4,1.4,4,4.2v10.2h-2.2v-8.5c0-1.1-0.1-1.8-0.2-2.4c-0.1-0.6-0.3-1-0.7-1.2c-0.3-0.3-0.8-0.4-1.5-0.4
			c-0.8,0-1.5,0.2-2.2,0.7c-0.7,0.5-1.2,1-1.7,1.7v10.2h-2.2V285.3z M476.1,297.8c1.2,0,2.4-0.4,3.7-1.2l1.1,1.5
			c-0.6,0.5-1.3,0.9-2.2,1.2c-0.9,0.3-1.7,0.5-2.5,0.5c-2.1,0-3.7-0.7-4.9-2c-1.2-1.3-1.8-3.1-1.8-5.3c0-1.4,0.3-2.7,0.8-3.8
			c0.5-1.1,1.3-2,2.3-2.6c1-0.6,2.2-1,3.5-1c1.8,0,3.4,0.6,4.7,1.7l-1.1,1.5c-1.2-0.8-2.4-1.2-3.6-1.2c-1.3,0-2.3,0.5-3,1.4
			c-0.8,0.9-1.1,2.3-1.1,4.1c0,1.8,0.4,3.1,1.1,4C473.9,297.3,474.9,297.8,476.1,297.8z M487.6,293.1c0.1,1.5,0.5,2.7,1.2,3.5
			c0.8,0.8,1.7,1.2,2.9,1.2c0.7,0,1.3-0.1,1.9-0.3c0.6-0.2,1.2-0.5,1.9-1l1,1.5c-0.7,0.5-1.4,0.9-2.2,1.2c-0.8,0.3-1.7,0.4-2.5,0.4
			c-2,0-3.6-0.7-4.7-2s-1.7-3.1-1.7-5.3c0-1.4,0.2-2.7,0.7-3.8c0.5-1.1,1.2-2,2.1-2.6c0.9-0.6,2-1,3.2-1c1.8,0,3.2,0.6,4.2,1.9
			c1,1.2,1.5,2.9,1.5,5c0,0.4,0,0.8,0,1.2H487.6z M491.3,286.9c-1.1,0-2,0.4-2.6,1.2s-1.1,1.9-1.1,3.4h7.3c0-1.5-0.3-2.6-1-3.4
			S492.4,286.9,491.3,286.9z M506.6,297.8c1.1,0,1.9-0.2,2.5-0.6c0.6-0.4,0.9-0.9,0.9-1.6c0-0.5-0.1-0.8-0.2-1.1s-0.5-0.6-1-0.8
			c-0.5-0.2-1.2-0.5-2.2-0.7c-1.6-0.4-2.8-0.9-3.6-1.5c-0.8-0.6-1.2-1.4-1.2-2.6c0-1.2,0.5-2.1,1.5-2.8c1-0.7,2.3-1,3.9-1
			c2,0,3.7,0.5,5.1,1.5l-1,1.5c-0.6-0.4-1.2-0.7-1.8-0.9c-0.6-0.2-1.4-0.3-2.2-0.3c-2,0-3,0.6-3,1.8c0,0.4,0.1,0.8,0.3,1
			c0.2,0.3,0.6,0.5,1.1,0.7c0.5,0.2,1.3,0.4,2.3,0.7c1.5,0.4,2.7,0.9,3.4,1.6c0.8,0.6,1.1,1.5,1.1,2.8c0,1.4-0.6,2.5-1.7,3.2
			c-1.1,0.7-2.5,1-4.2,1c-2.2,0-4-0.6-5.5-1.9l1.2-1.5c0.6,0.5,1.2,0.8,2,1.1C505,297.7,505.8,297.8,506.6,297.8z"/>
	</g>
</g>
</svg>
