<?xml version="1.0" standalone="yes"?>

<svg version="1.1" viewBox="0.0 0.0 826.0 320.0" fill="none" stroke="none" stroke-linecap="square" stroke-miterlimit="10" xmlns="http://www.w3.org/2000/svg" xmlns:xlink="http://www.w3.org/1999/xlink"><clipPath id="p.0"><path d="m0 0l826.0 0l0 320.0l-826.0 0l0 -320.0z" clip-rule="nonzero"></path></clipPath><g clip-path="url(#p.0)"><path fill="#000000" fill-opacity="0.0" d="m0 0l826.0 0l0 320.0l-826.0 0z" fill-rule="evenodd"></path><path fill="#ffffff" d="m2.0 204.0l76.97638 0l0 94.48819l-76.97638 0z" fill-rule="evenodd"></path><path fill="#ffffff" d="m732.0 204.0l76.97638 0l0 94.48819l-76.97638 0z" fill-rule="evenodd"></path><path fill="#000000" fill-opacity="0.0" d="m7.774278 12.9921255l162.01575 0l0 53.007874l-162.01575 0z" fill-rule="evenodd"></path><path fill="#000000" d="m22.336779 25.992752q1.046875 0 1.84375 0.3125q0.8125 0.296875 1.53125 0.90625l-1.234375 1.484375q-0.5 -0.390625 -0.984375 -0.578125q-0.484375 -0.1875 -1.015625 -0.1875q-1.125 0 -1.78125 0.953125q-0.640625 0.9375 -0.640625 2.90625q0 1.9375 0.640625 2.875q0.65625 0.921875 1.8125 0.921875q0.609375 0 1.09375 -0.21875q0.5 -0.234375 1.078125 -0.671875l1.171875 1.5q-0.625 0.625 -1.515625 1.03125q-0.890625 0.390625 -1.96875 0.390625q-1.53125 0 -2.671875 -0.671875q-1.125 -0.671875 -1.765625 -1.984375q-0.625 -1.328125 -0.625 -3.171875q0 -1.8125 0.640625 -3.125q0.65625 -1.3125 1.796875 -1.984375q1.140625 -0.6875 2.59375 -0.6875zm8.309387 2.59375q1.9531231 0 3.046873 1.1875q1.109375 1.1875 1.109375 3.34375q0 1.359375 -0.5 2.375q-0.5 1.015625 -1.4375 1.578125q-0.9374981 0.546875 -2.218748 0.546875q-1.9375 0 -3.046875 -1.1875q-1.109375 -1.1875 -1.109375 -3.328125q0 -1.359375 0.5 -2.375q0.5 -1.015625 1.4375 -1.578125q0.9375 -0.5625 2.21875 -0.5625zm0 1.859375q-0.765625 0 -1.15625 0.65625q-0.375 0.640625 -0.375 2.0q0 1.390625 0.375 2.03125q0.375 0.640625 1.15625 0.640625q0.765625 0 1.140625 -0.640625q0.3906231 -0.65625 0.3906231 -2.015625q0 -1.390625 -0.3749981 -2.03125q-0.375 -0.640625 -1.15625 -0.640625zm10.640898 -1.859375q1.109375 0 1.71875 0.671875q0.625 0.671875 0.625 1.890625l0 6.203125l-2.515625 0l0 -5.78125q0 -0.640625 -0.203125 -0.875q-0.203125 -0.25 -0.609375 -0.25q-0.765625 0 -1.46875 1.09375l0 5.8125l-2.53125 0l0 -8.5l2.21875 0l0.171875 1.015625q0.546875 -0.640625 1.171875 -0.953125q0.640625 -0.328125 1.421875 -0.328125zm9.575775 8.359375q-0.453125 0.328125 -1.078125 0.5q-0.609375 0.171875 -1.21875 0.171875q-2.78125 -0.015625 -2.78125 -3.0625l0 -3.9375l-1.203125 0l0 -1.765625l1.203125 0l0 -1.84375l2.53125 -0.28125l0 2.125l1.953125 0l-0.28125 1.765625l-1.671875 0l0 3.90625q0 0.59375 0.1875 0.84375q0.1875 0.25 0.609375 0.25q0.421875 0 0.90625 -0.265625l0.84375 1.59375zm8.26976 -4.015625q0 0.53125 -0.046875 0.921875l-5.265625 0q0.125 1.0625 0.59375 1.5q0.484375 0.4375 1.34375 0.4375q0.5 0 0.984375 -0.1875q0.484375 -0.1875 1.046875 -0.5625l1.03125 1.40625q-1.484375 1.171875 -3.3125 1.171875q-2.0625 0 -3.171875 -1.203125q-1.09375 -1.21875 -1.09375 -3.265625q0 -1.296875 0.453125 -2.328125q0.46875 -1.03125 1.359375 -1.625q0.90625 -0.609375 2.15625 -0.609375q1.828125 0 2.875 1.15625q1.046875 1.140625 1.046875 3.1875zm-2.484375 -0.71875q-0.03125 -1.953125 -1.375 -1.953125q-0.65625 0 -1.015625 0.484375q-0.359375 0.484375 -0.4375 1.578125l2.828125 0l0 -0.109375zm8.878891 -3.625q1.109375 0 1.71875 0.671875q0.625 0.671875 0.625 1.890625l0 6.203125l-2.515625 0l0 -5.78125q0 -0.640625 -0.203125 -0.875q-0.203125 -0.25 -0.609375 -0.25q-0.765625 0 -1.46875 1.09375l0 5.8125l-2.53125 0l0 -8.5l2.21875 0l0.171875 1.015625q0.546875 -0.640625 1.171875 -0.953125q0.640625 -0.328125 1.421875 -0.328125zm9.575775 8.359375q-0.453125 0.328125 -1.078125 0.5q-0.609375 0.171875 -1.21875 0.171875q-2.78125 -0.015625 -2.78125 -3.0625l0 -3.9375l-1.203125 0l0 -1.765625l1.203125 0l0 -1.84375l2.53125 -0.28125l0 2.125l1.953125 0l-0.28125 1.765625l-1.671875 0l0 3.90625q0 0.59375 0.1875 0.84375q0.1875 0.25 0.609375 0.25q0.421875 0 0.90625 -0.265625l0.84375 1.59375z" fill-rule="nonzero"></path><path fill="#000000" fill-opacity="0.0" d="m294.98688 12.9921255l162.01575 0l0 53.007874l-162.01575 0z" fill-rule="evenodd"></path><path fill="#000000" d="m309.83063 25.992752q2.140625 0 3.6875 1.359375l-1.328125 1.390625q-0.59375 -0.453125 -1.09375 -0.640625q-0.5 -0.203125 -1.15625 -0.203125q-1.234375 0 -1.96875 0.96875q-0.734375 0.96875 -0.734375 2.9375q0 2.125 0.5625 3.015625q0.5625 0.890625 1.734375 0.890625q0.84375 0 1.515625 -0.375l0 -2.515625l-1.453125 0l-0.25 -1.859375l4.234375 0l0 5.5q-0.859375 0.546875 -1.90625 0.859375q-1.03125 0.296875 -2.078125 0.296875q-2.515625 0 -3.796875 -1.46875q-1.28125 -1.484375 -1.28125 -4.34375q0 -1.828125 0.6875 -3.140625q0.703125 -1.3125 1.90625 -1.984375q1.21875 -0.6875 2.71875 -0.6875zm9.148132 2.59375q1.953125 0 3.046875 1.1875q1.109375 1.1875 1.109375 3.34375q0 1.359375 -0.5 2.375q-0.5 1.015625 -1.4375 1.578125q-0.9375 0.546875 -2.21875 0.546875q-1.9375 0 -3.046875 -1.1875q-1.109375 -1.1875 -1.109375 -3.328125q0 -1.359375 0.5 -2.375q0.5 -1.015625 1.4375 -1.578125q0.9375 -0.5625 2.21875 -0.5625zm0 1.859375q-0.765625 0 -1.15625 0.65625q-0.375 0.640625 -0.375 2.0q0 1.390625 0.375 2.03125q0.375 0.640625 1.15625 0.640625q0.765625 0 1.140625 -0.640625q0.390625 -0.65625 0.390625 -2.015625q0 -1.390625 -0.375 -2.03125q-0.375 -0.640625 -1.15625 -0.640625zm12.42215 4.4375q0 0.484375 0.125 0.71875q0.140625 0.21875 0.4375 0.328125l-0.515625 1.640625q-0.78125 -0.0625 -1.28125 -0.34375q-0.5 -0.28125 -0.765625 -0.890625q-0.84375 1.28125 -2.5625 1.28125q-1.265625 0 -2.015625 -0.734375q-0.75 -0.734375 -0.75 -1.921875q0 -1.390625 1.015625 -2.125q1.03125 -0.734375 2.96875 -0.734375l0.859375 0l0 -0.359375q0 -0.765625 -0.328125 -1.03125q-0.3125 -0.28125 -1.109375 -0.28125q-0.421875 0 -1.015625 0.125q-0.59375 0.109375 -1.21875 0.3125l-0.5625 -1.65625q0.796875 -0.3125 1.625 -0.46875q0.84375 -0.15625 1.5625 -0.15625q1.828125 0 2.671875 0.75q0.859375 0.75 0.859375 2.25l0 3.296875zm-3.828125 0.9375q0.859375 0 1.34375 -0.828125l0 -1.5l-0.625 0q-0.859375 0 -1.296875 0.3125q-0.421875 0.296875 -0.421875 0.9375q0 0.515625 0.265625 0.796875q0.265625 0.28125 0.734375 0.28125zm8.096161 1.796875q-1.109375 0 -1.734375 -0.625q-0.609375 -0.625 -0.609375 -1.796875l0 -9.71875l2.53125 -0.265625l0 9.890625q0 0.515625 0.4375 0.515625q0.21875 0 0.40625 -0.078125l0.5 1.796875q-0.6875 0.28125 -1.53125 0.28125zm5.486389 -9.03125q0.90625 0 1.703125 0.28125q0.8125 0.265625 1.421875 0.75l-0.9375 1.4375q-1.03125 -0.65625 -2.09375 -0.65625q-0.5 0 -0.765625 0.171875q-0.25 0.15625 -0.25 0.46875q0 0.234375 0.109375 0.390625q0.125 0.140625 0.484375 0.3125q0.375 0.15625 1.140625 0.375q1.328125 0.390625 1.96875 1.015625q0.65625 0.609375 0.65625 1.6875q0 0.875 -0.5 1.5q-0.484375 0.625 -1.359375 0.96875q-0.859375 0.328125 -1.921875 0.328125q-1.0625 0 -1.984375 -0.328125q-0.921875 -0.34375 -1.5625 -0.921875l1.234375 -1.390625q1.078125 0.84375 2.25 0.84375q0.578125 0 0.90625 -0.203125q0.328125 -0.21875 0.328125 -0.609375q0 -0.296875 -0.125 -0.46875q-0.125 -0.171875 -0.5 -0.328125q-0.359375 -0.15625 -1.15625 -0.375q-1.265625 -0.375 -1.890625 -1.03125q-0.625 -0.65625 -0.625 -1.625q0 -0.734375 0.421875 -1.3125q0.421875 -0.59375 1.203125 -0.9375q0.796875 -0.34375 1.84375 -0.34375z" fill-rule="nonzero"></path><path fill="#000000" fill-opacity="0.0" d="m628.7979 17.805775l162.01575 0l0 53.007877l-162.01575 0z" fill-rule="evenodd"></path><path fill="#000000" d="m647.32916 38.478275q0 1.140625 -0.484375 2.046875q-0.484375 0.890625 -1.46875 1.40625q-0.96875 0.5 -2.375 0.5q-2.109375 0 -3.21875 -1.0625q-1.109375 -1.078125 -1.109375 -2.890625l0 -7.40625l2.625 0l0 7.296875q0 1.078125 0.40625 1.59375q0.40625 0.515625 1.296875 0.515625q0.890625 0 1.296875 -0.515625q0.40625 -0.515625 0.40625 -1.59375l0 -7.296875l2.625 0l0 7.40625zm4.8691406 -5.078125q0.90625 0 1.703125 0.28125q0.8125 0.265625 1.421875 0.75l-0.9375 1.4375q-1.03125 -0.65625 -2.09375 -0.65625q-0.5 0 -0.765625 0.171875q-0.25 0.15625 -0.25 0.46875q0 0.234375 0.109375 0.390625q0.125 0.140625 0.484375 0.3125q0.375 0.15625 1.140625 0.375q1.328125 0.390625 1.96875 1.015625q0.65625 0.609375 0.65625 1.6875q0 0.875 -0.5 1.5q-0.484375 0.625 -1.359375 0.96875q-0.859375 0.328125 -1.921875 0.328125q-1.0625 0 -1.984375 -0.328125q-0.921875 -0.34375 -1.5625 -0.921875l1.234375 -1.390625q1.078125 0.84375 2.25 0.84375q0.578125 0 0.90625 -0.203125q0.328125 -0.21875 0.328125 -0.609375q0 -0.296875 -0.125 -0.46875q-0.125 -0.171875 -0.5 -0.328125q-0.359375 -0.15625 -1.15625 -0.375q-1.265625 -0.375 -1.890625 -1.03125q-0.625 -0.65625 -0.625 -1.625q0 -0.734375 0.421875 -1.3125q0.421875 -0.59375 1.203125 -0.9375q0.796875 -0.34375 1.84375 -0.34375zm12.149902 4.34375q0 0.53125 -0.046875 0.921875l-5.265625 0q0.125 1.0625 0.59375 1.5q0.484375 0.4375 1.34375 0.4375q0.5 0 0.984375 -0.1875q0.484375 -0.1875 1.046875 -0.5625l1.03125 1.40625q-1.484375 1.171875 -3.3125 1.171875q-2.0625 0 -3.171875 -1.203125q-1.09375 -1.21875 -1.09375 -3.265625q0 -1.296875 0.453125 -2.328125q0.46875 -1.03125 1.359375 -1.625q0.90625 -0.609375 2.15625 -0.609375q1.828125 0 2.875 1.15625q1.046875 1.140625 1.046875 3.1875zm-2.484375 -0.71875q-0.03125 -1.953125 -1.375 -1.953125q-0.65625 0 -1.015625 0.484375q-0.359375 0.484375 -0.4375 1.578125l2.828125 0l0 -0.109375zm8.503845 -3.59375q0.46875 0 0.859375 0.109375l-0.40625 2.453125q-0.484375 -0.109375 -0.765625 -0.109375q-0.75 0 -1.140625 0.515625q-0.390625 0.515625 -0.625 1.5625l0 4.203125l-2.53125 0l0 -8.5l2.21875 0l0.203125 1.65625q0.296875 -0.890625 0.875 -1.390625q0.578125 -0.5 1.3125 -0.5zm4.8066406 -0.03125q0.90625 0 1.703125 0.28125q0.8125 0.265625 1.421875 0.75l-0.9375 1.4375q-1.03125 -0.65625 -2.09375 -0.65625q-0.5 0 -0.765625 0.171875q-0.25 0.15625 -0.25 0.46875q0 0.234375 0.109375 0.390625q0.125 0.140625 0.484375 0.3125q0.375 0.15625 1.140625 0.375q1.328125 0.390625 1.96875 1.015625q0.65625 0.609375 0.65625 1.6875q0 0.875 -0.5 1.5q-0.484375 0.625 -1.359375 0.96875q-0.859375 0.328125 -1.921875 0.328125q-1.0625 0 -1.984375 -0.328125q-0.921875 -0.34375 -1.5625 -0.921875l1.234375 -1.390625q1.078125 0.84375 2.25 0.84375q0.578125 0 0.90625 -0.203125q0.328125 -0.21875 0.328125 -0.609375q0 -0.296875 -0.125 -0.46875q-0.125 -0.171875 -0.5 -0.328125q-0.359375 -0.15625 -1.15625 -0.375q-1.265625 -0.375 -1.890625 -1.03125q-0.625 -0.65625 -0.625 -1.625q0 -0.734375 0.421875 -1.3125q0.421875 -0.59375 1.203125 -0.9375q0.796875 -0.34375 1.84375 -0.34375z" fill-rule="nonzero"></path><path fill="#ffffff" d="m294.97638 58.800526l193.03937 0l0 46.519688l-193.03937 0z" fill-rule="evenodd"></path><path stroke="#000000" stroke-width="1.0" stroke-linejoin="round" stroke-linecap="butt" d="m294.97638 58.800526l193.03937 0l0 46.519688l-193.03937 0z" fill-rule="evenodd"></path><path fill="#000000" d="m311.44513 87.920364l-0.828125 -2.765625l-4.171875 0l-0.84375 2.765625l-1.53125 0l3.53125 -11.03125l1.921875 0l3.53125 11.03125l-1.609375 0zm-4.640625 -4.0l3.4375 0l-1.703125 -5.765625l-1.734375 5.765625zm10.152374 -4.625q0.859375 0 1.546875 0.25q0.6875 0.234375 1.3125 0.71875l-0.625 0.921875q-0.578125 -0.375 -1.09375 -0.546875q-0.515625 -0.171875 -1.09375 -0.171875q-0.71875 0 -1.140625 0.296875q-0.421875 0.296875 -0.421875 0.796875q0 0.515625 0.390625 0.8125q0.40625 0.28125 1.421875 0.5625q1.40625 0.34375 2.09375 0.953125q0.703125 0.609375 0.703125 1.65625q0 1.25 -0.96875 1.90625q-0.96875 0.65625 -2.359375 0.65625q-1.921875 0 -3.171875 -1.09375l0.78125 -0.90625q1.0625 0.828125 2.359375 0.828125q0.84375 0 1.328125 -0.34375q0.484375 -0.359375 0.484375 -0.9375q0 -0.4375 -0.171875 -0.703125q-0.171875 -0.265625 -0.609375 -0.453125q-0.4375 -0.203125 -1.265625 -0.4375q-1.34375 -0.34375 -1.953125 -0.9375q-0.59375 -0.59375 -0.59375 -1.5q0 -0.65625 0.390625 -1.1875q0.390625 -0.546875 1.078125 -0.84375q0.703125 -0.296875 1.578125 -0.296875zm6.6438904 -3.375l0 12.0l-1.46875 0l0 -11.828125l1.46875 -0.171875zm4.859375 3.5625l-3.109375 3.734375l3.453125 4.703125l-1.75 0l-3.34375 -4.609375l3.09375 -3.828125l1.65625 0zm11.791412 6.46875q0 0.515625 0.171875 0.765625q0.171875 0.25 0.53125 0.375l-0.34375 1.015625q-0.65625 -0.078125 -1.0625 -0.359375q-0.390625 -0.296875 -0.578125 -0.90625q-0.84375 1.265625 -2.515625 1.265625q-1.25 0 -1.96875 -0.703125q-0.71875 -0.703125 -0.71875 -1.84375q0 -1.34375 0.96875 -2.0625q0.96875 -0.71875 2.75 -0.71875l1.296875 0l0 -0.625q0 -0.890625 -0.4375 -1.265625q-0.4375 -0.390625 -1.328125 -0.390625q-0.921875 0 -2.265625 0.453125l-0.375 -1.078125q1.5625 -0.578125 2.90625 -0.578125q1.5 0 2.234375 0.734375q0.734375 0.71875 0.734375 2.0625l0 3.859375zm-3.453125 1.0625q1.265625 0 1.984375 -1.3125l0 -1.9375l-1.109375 0q-2.34375 0 -2.34375 1.71875q0 0.75 0.375 1.140625q0.375 0.390625 1.09375 0.390625zm17.240906 -7.53125l0 11.84375l-1.46875 -0.171875l0 -4.359375q-0.421875 0.625 -1.046875 0.96875q-0.609375 0.34375 -1.359375 0.34375q-1.5 0 -2.34375 -1.171875q-0.84375 -1.1875 -0.84375 -3.1875q0 -1.296875 0.40625 -2.296875q0.40625 -1.015625 1.15625 -1.578125q0.75 -0.578125 1.75 -0.578125q1.34375 0 2.375 1.140625l0.109375 -0.953125l1.265625 0zm-3.546875 7.46875q0.671875 0 1.140625 -0.3125q0.484375 -0.3125 0.9375 -0.9375l0 -4.140625q-0.421875 -0.53125 -0.890625 -0.8125q-0.46875 -0.28125 -1.0625 -0.28125q-0.984375 0 -1.515625 0.8125q-0.53125 0.8125 -0.53125 2.4375q0 1.625 0.484375 2.4375q0.5 0.796875 1.4375 0.796875zm12.864899 0.96875l-1.265625 0l-0.109375 -1.3125q-0.484375 0.78125 -1.109375 1.140625q-0.625 0.359375 -1.515625 0.359375q-1.109375 0 -1.734375 -0.671875q-0.625 -0.671875 -0.625 -1.90625l0 -6.046875l1.46875 0l0 5.890625q0 0.859375 0.296875 1.234375q0.3125 0.359375 1.0 0.359375q1.234375 0 2.109375 -1.46875l0 -6.015625l1.484375 0l0 8.4375zm9.405762 -4.46875q0 0.375 -0.03125 0.75l-5.375 0q0.09375 1.40625 0.703125 2.0625q0.609375 0.640625 1.5625 0.640625q0.609375 0 1.125 -0.171875q0.515625 -0.171875 1.0625 -0.5625l0.640625 0.890625q-1.34375 1.046875 -2.9375 1.046875q-1.765625 0 -2.75 -1.140625q-0.984375 -1.15625 -0.984375 -3.171875q0 -1.3125 0.421875 -2.328125q0.4375 -1.015625 1.21875 -1.59375q0.796875 -0.578125 1.875 -0.578125q1.671875 0 2.5625 1.109375q0.90625 1.09375 0.90625 3.046875zm-1.453125 -0.421875q0 -1.25 -0.5 -1.90625q-0.5 -0.65625 -1.484375 -0.65625q-1.8125 0 -1.96875 2.65625l3.953125 0l0 -0.09375zm6.095001 -3.734375q0.859375 0 1.546875 0.25q0.6875 0.234375 1.3125 0.71875l-0.625 0.921875q-0.578125 -0.375 -1.09375 -0.546875q-0.515625 -0.171875 -1.09375 -0.171875q-0.71875 0 -1.140625 0.296875q-0.421875 0.296875 -0.421875 0.796875q0 0.515625 0.390625 0.8125q0.40625 0.28125 1.421875 0.5625q1.40625 0.34375 2.09375 0.953125q0.703125 0.609375 0.703125 1.65625q0 1.25 -0.96875 1.90625q-0.96875 0.65625 -2.359375 0.65625q-1.921875 0 -3.171875 -1.09375l0.78125 -0.90625q1.0625 0.828125 2.359375 0.828125q0.84375 0 1.328125 -0.34375q0.484375 -0.359375 0.484375 -0.9375q0 -0.4375 -0.171875 -0.703125q-0.171875 -0.265625 -0.609375 -0.453125q-0.4375 -0.203125 -1.265625 -0.4375q-1.34375 -0.34375 -1.953125 -0.9375q-0.59375 -0.59375 -0.59375 -1.5q0 -0.65625 0.390625 -1.1875q0.390625 -0.546875 1.078125 -0.84375q0.703125 -0.296875 1.578125 -0.296875zm9.440765 8.234375q-0.84375 0.578125 -1.890625 0.578125q-1.078125 0 -1.6875 -0.609375q-0.59375 -0.625 -0.59375 -1.78125l0 -5.09375l-1.46875 0l0 -1.140625l1.46875 0l0 -1.90625l1.484375 -0.171875l0 2.078125l2.0 0l-0.171875 1.140625l-1.828125 0l0 5.03125q0 0.65625 0.21875 0.953125q0.234375 0.28125 0.78125 0.28125q0.5 0 1.125 -0.328125l0.5625 0.96875zm2.9791565 -8.046875l0 8.4375l-1.46875 0l0 -8.4375l1.46875 0zm-0.734375 -4.046875q0.453125 0 0.734375 0.296875q0.296875 0.28125 0.296875 0.71875q0 0.421875 -0.296875 0.703125q-0.28125 0.28125 -0.734375 0.28125q-0.453125 0 -0.75 -0.28125q-0.28125 -0.28125 -0.28125 -0.703125q0 -0.4375 0.28125 -0.71875q0.296875 -0.296875 0.75 -0.296875zm6.9494934 3.859375q1.78125 0 2.765625 1.1875q0.984375 1.1875 0.984375 3.21875q0 1.3125 -0.453125 2.3125q-0.453125 1.0 -1.296875 1.546875q-0.84375 0.546875 -2.015625 0.546875q-1.78125 0 -2.78125 -1.171875q-0.984375 -1.1875 -0.984375 -3.21875q0 -1.3125 0.453125 -2.3125q0.453125 -1.0 1.296875 -1.546875q0.84375 -0.5625 2.03125 -0.5625zm0 1.1875q-2.1875 0 -2.1875 3.234375q0 3.21875 2.171875 3.21875q2.171875 0 2.171875 -3.234375q0 -3.21875 -2.15625 -3.21875zm10.1409 -1.1875q1.15625 0 1.796875 0.6875q0.65625 0.6875 0.65625 1.890625l0 6.046875l-1.46875 0l0 -5.84375q0 -0.890625 -0.34375 -1.25q-0.328125 -0.375 -0.984375 -0.375q-0.671875 0 -1.1875 0.390625q-0.515625 0.375 -0.96875 1.09375l0 5.984375l-1.46875 0l0 -8.4375l1.265625 0l0.125 1.25q0.453125 -0.671875 1.109375 -1.046875q0.671875 -0.390625 1.46875 -0.390625z" fill-rule="nonzero"></path><path fill="#ffffff" d="m294.97638 114.14632l193.03937 0l0 46.519684l-193.03937 0z" fill-rule="evenodd"></path><path stroke="#000000" stroke-width="1.0" stroke-linejoin="round" stroke-linecap="butt" d="m294.97638 114.14632l193.03937 0l0 46.519684l-193.03937 0z" fill-rule="evenodd"></path><path fill="#000000" d="m305.57013 143.26616l0 -11.03125l5.859375 0l-0.171875 1.21875l-4.15625 0l0 3.765625l3.59375 0l0 1.203125l-3.59375 0l0 4.84375l-1.53125 0zm9.246643 -8.4375l0 8.4375l-1.46875 0l0 -8.4375l1.46875 0zm-0.734375 -4.046875q0.453125 0 0.734375 0.296875q0.296875 0.28125 0.296875 0.71875q0 0.421875 -0.296875 0.703125q-0.28125 0.28125 -0.734375 0.28125q-0.453125 0 -0.75 -0.28125q-0.28125 -0.28125 -0.28125 -0.703125q0 -0.4375 0.28125 -0.71875q0.296875 -0.296875 0.75 -0.296875zm7.7463684 3.859375q1.15625 0 1.796875 0.6875q0.65625 0.6875 0.65625 1.890625l0 6.046875l-1.46875 0l0 -5.84375q0 -0.890625 -0.34375 -1.25q-0.328125 -0.375 -0.984375 -0.375q-0.671875 0 -1.1875 0.390625q-0.515625 0.375 -0.96875 1.09375l0 5.984375l-1.46875 0l0 -8.4375l1.265625 0l0.125 1.25q0.453125 -0.671875 1.109375 -1.046875q0.671875 -0.390625 1.46875 -0.390625zm11.938538 -3.203125l0 11.828125l-1.296875 0l-0.140625 -1.171875q-0.421875 0.640625 -1.046875 1.0q-0.625 0.359375 -1.390625 0.359375q-1.5 0 -2.34375 -1.171875q-0.84375 -1.1875 -0.84375 -3.1875q0 -1.296875 0.40625 -2.296875q0.40625 -1.015625 1.15625 -1.578125q0.75 -0.578125 1.75 -0.578125q1.296875 0 2.28125 1.046875l0 -4.421875l1.46875 0.171875zm-3.546875 10.859375q0.671875 0 1.140625 -0.3125q0.484375 -0.3125 0.9375 -0.9375l0 -4.140625q-0.421875 -0.53125 -0.890625 -0.8125q-0.46875 -0.28125 -1.0625 -0.28125q-0.984375 0 -1.515625 0.8125q-0.53125 0.8125 -0.53125 2.4375q0 1.625 0.484375 2.4375q0.5 0.796875 1.4375 0.796875zm13.995514 -7.65625q1.78125 0 2.765625 1.1875q0.984375 1.1875 0.984375 3.21875q0 1.3125 -0.453125 2.3125q-0.453125 1.0 -1.296875 1.546875q-0.84375 0.546875 -2.015625 0.546875q-1.78125 0 -2.78125 -1.171875q-0.984375 -1.1875 -0.984375 -3.21875q0 -1.3125 0.453125 -2.3125q0.453125 -1.0 1.296875 -1.546875q0.84375 -0.5625 2.03125 -0.5625zm0 1.1875q-2.1875 0 -2.1875 3.234375q0 3.21875 2.171875 3.21875q2.171875 0 2.171875 -3.234375q0 -3.21875 -2.15625 -3.21875zm12.4534 7.4375l-1.265625 0l-0.109375 -1.3125q-0.484375 0.78125 -1.109375 1.140625q-0.625 0.359375 -1.515625 0.359375q-1.109375 0 -1.734375 -0.671875q-0.625 -0.671875 -0.625 -1.90625l0 -6.046875l1.46875 0l0 5.890625q0 0.859375 0.296875 1.234375q0.3125 0.359375 1.0 0.359375q1.234375 0 2.109375 -1.46875l0 -6.015625l1.484375 0l0 8.4375zm7.2963867 -0.390625q-0.84375 0.578125 -1.890625 0.578125q-1.078125 0 -1.6875 -0.609375q-0.59375 -0.625 -0.59375 -1.78125l0 -5.09375l-1.46875 0l0 -1.140625l1.46875 0l0 -1.90625l1.484375 -0.171875l0 2.078125l2.0 0l-0.171875 1.140625l-1.828125 0l0 5.03125q0 0.65625 0.21875 0.953125q0.234375 0.28125 0.78125 0.28125q0.5 0 1.125 -0.328125l0.5625 0.96875zm15.391022 -8.046875l-1.921875 8.4375l-2.0 0l-1.46875 -7.109375l-1.53125 7.109375l-1.953125 0l-1.96875 -8.4375l1.484375 0l1.515625 7.40625l1.65625 -7.40625l1.65625 0l1.578125 7.40625l1.546875 -7.40625l1.40625 0zm5.800171 -0.1875q1.15625 0 1.796875 0.6875q0.65625 0.6875 0.65625 1.890625l0 6.046875l-1.46875 0l0 -5.84375q0 -0.890625 -0.34375 -1.25q-0.34375 -0.375 -1.0 -0.375q-0.65625 0 -1.171875 0.390625q-0.515625 0.375 -0.96875 1.078125l0 6.0l-1.46875 0l0 -11.8125l1.46875 -0.15625l0 4.703125q1.0 -1.359375 2.5 -1.359375zm11.782257 4.15625q0 0.375 -0.03125 0.75l-5.375 0q0.09375 1.40625 0.703125 2.0625q0.609375 0.640625 1.5625 0.640625q0.609375 0 1.125 -0.171875q0.515625 -0.171875 1.0625 -0.5625l0.640625 0.890625q-1.34375 1.046875 -2.9375 1.046875q-1.765625 0 -2.75 -1.140625q-0.984375 -1.15625 -0.984375 -3.171875q0 -1.3125 0.421875 -2.328125q0.4375 -1.015625 1.21875 -1.59375q0.796875 -0.578125 1.875 -0.578125q1.671875 0 2.5625 1.109375q0.90625 1.09375 0.90625 3.046875zm-1.453125 -0.421875q0 -1.25 -0.5 -1.90625q-0.5 -0.65625 -1.484375 -0.65625q-1.8125 0 -1.96875 2.65625l3.953125 0l0 -0.09375zm7.4700317 -3.734375q0.4375 0 0.828125 0.09375l-0.265625 1.4375q-0.390625 -0.09375 -0.734375 -0.09375q-0.796875 0 -1.28125 0.578125q-0.46875 0.578125 -0.75 1.796875l0 4.8125l-1.46875 0l0 -8.4375l1.265625 0l0.140625 1.71875q0.34375 -0.9375 0.921875 -1.421875q0.578125 -0.484375 1.34375 -0.484375zm8.87912 4.15625q0 0.375 -0.03125 0.75l-5.375 0q0.09375 1.40625 0.703125 2.0625q0.609375 0.640625 1.5625 0.640625q0.609375 0 1.125 -0.171875q0.515625 -0.171875 1.0625 -0.5625l0.640625 0.890625q-1.34375 1.046875 -2.9375 1.046875q-1.765625 0 -2.75 -1.140625q-0.984375 -1.15625 -0.984375 -3.171875q0 -1.3125 0.421875 -2.328125q0.4375 -1.015625 1.21875 -1.59375q0.796875 -0.578125 1.875 -0.578125q1.671875 0 2.5625 1.109375q0.90625 1.09375 0.90625 3.046875zm-1.453125 -0.421875q0 -1.25 -0.5 -1.90625q-0.5 -0.65625 -1.484375 -0.65625q-1.8125 0 -1.96875 2.65625l3.953125 0l0 -0.09375zm17.678772 -3.546875l-1.921875 8.4375l-2.0 0l-1.46875 -7.109375l-1.53125 7.109375l-1.953125 0l-1.96875 -8.4375l1.484375 0l1.515625 7.40625l1.65625 -7.40625l1.65625 0l1.578125 7.40625l1.546875 -7.40625l1.40625 0zm8.206421 3.96875q0 0.375 -0.03125 0.75l-5.375 0q0.09375 1.40625 0.703125 2.0625q0.609375 0.640625 1.5625 0.640625q0.609375 0 1.125 -0.171875q0.515625 -0.171875 1.0625 -0.5625l0.640625 0.890625q-1.34375 1.046875 -2.9375 1.046875q-1.765625 0 -2.75 -1.140625q-0.984375 -1.15625 -0.984375 -3.171875q0 -1.3125 0.421875 -2.328125q0.4375 -1.015625 1.21875 -1.59375q0.796875 -0.578125 1.875 -0.578125q1.671875 0 2.5625 1.109375q0.90625 1.09375 0.90625 3.046875zm-1.453125 -0.421875q0 -1.25 -0.5 -1.90625q-0.5 -0.65625 -1.484375 -0.65625q-1.8125 0 -1.96875 2.65625l3.953125 0l0 -0.09375zm13.725647 2.921875q0 0.515625 0.171875 0.765625q0.171875 0.25 0.53125 0.375l-0.34375 1.015625q-0.65625 -0.078125 -1.0625 -0.359375q-0.390625 -0.296875 -0.578125 -0.90625q-0.84375 1.265625 -2.515625 1.265625q-1.25 0 -1.96875 -0.703125q-0.71875 -0.703125 -0.71875 -1.84375q0 -1.34375 0.96875 -2.0625q0.96875 -0.71875 2.75 -0.71875l1.296875 0l0 -0.625q0 -0.890625 -0.4375 -1.265625q-0.4375 -0.390625 -1.328125 -0.390625q-0.921875 0 -2.265625 0.453125l-0.375 -1.078125q1.5625 -0.578125 2.90625 -0.578125q1.5 0 2.234375 0.734375q0.734375 0.71875 0.734375 2.0625l0 3.859375zm-3.453125 1.0625q1.265625 0 1.984375 -1.3125l0 -1.9375l-1.109375 0q-2.34375 0 -2.34375 1.71875q0 0.75 0.375 1.140625q0.375 0.390625 1.09375 0.390625zm10.14151 -7.71875q0.4375 0 0.828125 0.09375l-0.265625 1.4375q-0.390625 -0.09375 -0.734375 -0.09375q-0.796875 0 -1.28125 0.578125q-0.46875 0.578125 -0.75 1.796875l0 4.8125l-1.46875 0l0 -8.4375l1.265625 0l0.140625 1.71875q0.34375 -0.9375 0.921875 -1.421875q0.578125 -0.484375 1.34375 -0.484375zm8.87915 4.15625q0 0.375 -0.03125 0.75l-5.375 0q0.09375 1.40625 0.703125 2.0625q0.609375 0.640625 1.5625 0.640625q0.609375 0 1.125 -0.171875q0.515625 -0.171875 1.0625 -0.5625l0.640625 0.890625q-1.34375 1.046875 -2.9375 1.046875q-1.765625 0 -2.75 -1.140625q-0.984375 -1.15625 -0.984375 -3.171875q0 -1.3125 0.421875 -2.328125q0.4375 -1.015625 1.21875 -1.59375q0.796875 -0.578125 1.875 -0.578125q1.671875 0 2.5625 1.109375q0.90625 1.09375 0.90625 3.046875zm-1.453125 -0.421875q0 -1.25 -0.5 -1.90625q-0.5 -0.65625 -1.484375 -0.65625q-1.8125 0 -1.96875 2.65625l3.953125 0l0 -0.09375z" fill-rule="nonzero"></path><path fill="#ffffff" d="m294.97638 172.69148l193.03937 0l0 46.519684l-193.03937 0z" fill-rule="evenodd"></path><path stroke="#000000" stroke-width="1.0" stroke-linejoin="round" stroke-linecap="butt" d="m294.97638 172.69148l193.03937 0l0 46.519684l-193.03937 0z" fill-rule="evenodd"></path><path fill="#000000" d="m305.57013 201.81133l0 -11.03125l5.859375 0l-0.171875 1.21875l-4.15625 0l0 3.765625l3.59375 0l0 1.203125l-3.59375 0l0 4.84375l-1.53125 0zm9.246643 -8.4375l0 8.4375l-1.46875 0l0 -8.4375l1.46875 0zm-0.734375 -4.046875q0.453125 0 0.734375 0.296875q0.296875 0.28125 0.296875 0.71875q0 0.421875 -0.296875 0.703125q-0.28125 0.28125 -0.734375 0.28125q-0.453125 0 -0.75 -0.28125q-0.28125 -0.28125 -0.28125 -0.703125q0 -0.4375 0.28125 -0.71875q0.296875 -0.296875 0.75 -0.296875zm7.7463684 3.859375q1.15625 0 1.796875 0.6875q0.65625 0.6875 0.65625 1.890625l0 6.046875l-1.46875 0l0 -5.84375q0 -0.890625 -0.34375 -1.25q-0.328125 -0.375 -0.984375 -0.375q-0.671875 0 -1.1875 0.390625q-0.515625 0.375 -0.96875 1.09375l0 5.984375l-1.46875 0l0 -8.4375l1.265625 0l0.125 1.25q0.453125 -0.671875 1.109375 -1.046875q0.671875 -0.390625 1.46875 -0.390625zm11.938538 -3.203125l0 11.828125l-1.296875 0l-0.140625 -1.171875q-0.421875 0.640625 -1.046875 1.0q-0.625 0.359375 -1.390625 0.359375q-1.5 0 -2.34375 -1.171875q-0.84375 -1.1875 -0.84375 -3.1875q0 -1.296875 0.40625 -2.296875q0.40625 -1.015625 1.15625 -1.578125q0.75 -0.578125 1.75 -0.578125q1.296875 0 2.28125 1.046875l0 -4.421875l1.46875 0.171875zm-3.546875 10.859375q0.671875 0 1.140625 -0.3125q0.484375 -0.3125 0.9375 -0.9375l0 -4.140625q-0.421875 -0.53125 -0.890625 -0.8125q-0.46875 -0.28125 -1.0625 -0.28125q-0.984375 0 -1.515625 0.8125q-0.53125 0.8125 -0.53125 2.4375q0 1.625 0.484375 2.4375q0.5 0.796875 1.4375 0.796875zm13.995514 -7.65625q1.78125 0 2.765625 1.1875q0.984375 1.1875 0.984375 3.21875q0 1.3125 -0.453125 2.3125q-0.453125 1.0 -1.296875 1.546875q-0.84375 0.546875 -2.015625 0.546875q-1.78125 0 -2.78125 -1.171875q-0.984375 -1.1875 -0.984375 -3.21875q0 -1.3125 0.453125 -2.3125q0.453125 -1.0 1.296875 -1.546875q0.84375 -0.5625 2.03125 -0.5625zm0 1.1875q-2.1875 0 -2.1875 3.234375q0 3.21875 2.171875 3.21875q2.171875 0 2.171875 -3.234375q0 -3.21875 -2.15625 -3.21875zm12.4534 7.4375l-1.265625 0l-0.109375 -1.3125q-0.484375 0.78125 -1.109375 1.140625q-0.625 0.359375 -1.515625 0.359375q-1.109375 0 -1.734375 -0.671875q-0.625 -0.671875 -0.625 -1.90625l0 -6.046875l1.46875 0l0 5.890625q0 0.859375 0.296875 1.234375q0.3125 0.359375 1.0 0.359375q1.234375 0 2.109375 -1.46875l0 -6.015625l1.484375 0l0 8.4375zm6.7026367 -8.625q0.4375 0 0.828125 0.09375l-0.265625 1.4375q-0.390625 -0.09375 -0.734375 -0.09375q-0.796875 0 -1.28125 0.578125q-0.46875 0.578125 -0.75 1.796875l0 4.8125l-1.46875 0l0 -8.4375l1.265625 0l0.140625 1.71875q0.34375 -0.9375 0.921875 -1.421875q0.578125 -0.484375 1.34375 -0.484375zm9.916016 0q1.78125 0 2.765625 1.1875q0.984375 1.1875 0.984375 3.21875q0 1.3125 -0.453125 2.3125q-0.453125 1.0 -1.296875 1.546875q-0.84375 0.546875 -2.015625 0.546875q-1.78125 0 -2.78125 -1.171875q-0.984375 -1.1875 -0.984375 -3.21875q0 -1.3125 0.453125 -2.3125q0.453125 -1.0 1.296875 -1.546875q0.84375 -0.5625 2.03125 -0.5625zm0 1.1875q-2.1875 0 -2.1875 3.234375q0 3.21875 2.171875 3.21875q2.171875 0 2.171875 -3.234375q0 -3.21875 -2.15625 -3.21875zm10.04715 -1.1875q1.625 0 2.375 1.15625q0.75 1.15625 0.75 3.25q0 1.984375 -0.875 3.203125q-0.859375 1.203125 -2.4375 1.203125q-1.40625 0 -2.21875 -0.953125l0 4.0l-1.46875 0.171875l0 -11.84375l1.265625 0l0.109375 1.140625q0.46875 -0.640625 1.125 -0.984375q0.65625 -0.34375 1.375 -0.34375zm-0.546875 7.609375q2.078125 0 2.078125 -3.203125q0 -3.234375 -1.890625 -3.234375q-0.625 0 -1.140625 0.375q-0.515625 0.359375 -0.90625 0.9375l0 4.109375q0.328125 0.5 0.796875 0.765625q0.484375 0.25 1.0625 0.25zm12.550903 -3.453125q0 0.375 -0.03125 0.75l-5.375 0q0.09375 1.40625 0.703125 2.0625q0.609375 0.640625 1.5625 0.640625q0.609375 0 1.125 -0.171875q0.515625 -0.171875 1.0625 -0.5625l0.640625 0.890625q-1.34375 1.046875 -2.9375 1.046875q-1.765625 0 -2.75 -1.140625q-0.984375 -1.15625 -0.984375 -3.171875q0 -1.3125 0.421875 -2.328125q0.4375 -1.015625 1.21875 -1.59375q0.796875 -0.578125 1.875 -0.578125q1.671875 0 2.5625 1.109375q0.90625 1.09375 0.90625 3.046875zm-1.453125 -0.421875q0 -1.25 -0.5 -1.90625q-0.5 -0.65625 -1.484375 -0.65625q-1.8125 0 -1.96875 2.65625l3.953125 0l0 -0.09375zm7.766876 -3.734375q1.15625 0 1.796875 0.6875q0.65625 0.6875 0.65625 1.890625l0 6.046875l-1.46875 0l0 -5.84375q0 -0.890625 -0.34375 -1.25q-0.328125 -0.375 -0.984375 -0.375q-0.671875 0 -1.1875 0.390625q-0.515625 0.375 -0.96875 1.09375l0 5.984375l-1.46875 0l0 -8.4375l1.265625 0l0.125 1.25q0.453125 -0.671875 1.109375 -1.046875q0.671875 -0.390625 1.46875 -0.390625zm6.8760376 0.1875l0 8.4375l-1.46875 0l0 -8.4375l1.46875 0zm-0.734375 -4.046875q0.453125 0 0.734375 0.296875q0.296875 0.28125 0.296875 0.71875q0 0.421875 -0.296875 0.703125q-0.28125 0.28125 -0.734375 0.28125q-0.453125 0 -0.75 -0.28125q-0.28125 -0.28125 -0.28125 -0.703125q0 -0.4375 0.28125 -0.71875q0.296875 -0.296875 0.75 -0.296875zm7.7463684 3.859375q1.15625 0 1.796875 0.6875q0.65625 0.6875 0.65625 1.890625l0 6.046875l-1.46875 0l0 -5.84375q0 -0.890625 -0.34375 -1.25q-0.328125 -0.375 -0.984375 -0.375q-0.671875 0 -1.1875 0.390625q-0.515625 0.375 -0.96875 1.09375l0 5.984375l-1.46875 0l0 -8.4375l1.265625 0l0.125 1.25q0.453125 -0.671875 1.109375 -1.046875q0.671875 -0.390625 1.46875 -0.390625zm12.204163 0.578125q-0.46875 0.15625 -1.046875 0.203125q-0.578125 0.046875 -1.40625 0.046875q1.484375 0.671875 1.484375 2.140625q0 1.25 -0.875 2.0625q-0.859375 0.796875 -2.34375 0.796875q-0.578125 0 -1.0625 -0.15625q-0.203125 0.125 -0.3125 0.34375q-0.109375 0.203125 -0.109375 0.4375q0 0.6875 1.109375 0.6875l1.34375 0q0.84375 0 1.5 0.3125q0.65625 0.296875 1.015625 0.828125q0.359375 0.515625 0.359375 1.1875q0 1.234375 -1.015625 1.890625q-1.0 0.671875 -2.9375 0.671875q-1.359375 0 -2.15625 -0.28125q-0.78125 -0.28125 -1.125 -0.84375q-0.328125 -0.546875 -0.328125 -1.4375l1.328125 0q0 0.515625 0.1875 0.8125q0.1875 0.296875 0.6875 0.4375q0.5 0.15625 1.40625 0.15625q1.328125 0 1.890625 -0.328125q0.578125 -0.328125 0.578125 -0.984375q0 -0.578125 -0.453125 -0.890625q-0.453125 -0.296875 -1.25 -0.296875l-1.328125 0q-1.0625 0 -1.625 -0.453125q-0.546875 -0.46875 -0.546875 -1.15625q0 -0.40625 0.234375 -0.796875q0.25 -0.390625 0.6875 -0.6875q-0.734375 -0.390625 -1.078125 -0.953125q-0.34375 -0.5625 -0.34375 -1.390625q0 -0.84375 0.421875 -1.515625q0.421875 -0.671875 1.171875 -1.046875q0.75 -0.375 1.65625 -0.375q1.0 0.015625 1.671875 -0.0625q0.671875 -0.09375 1.109375 -0.25q0.4375 -0.15625 1.078125 -0.4375l0.421875 1.328125zm-4.28125 0.484375q-0.828125 0 -1.296875 0.515625q-0.453125 0.515625 -0.453125 1.359375q0 0.875 0.46875 1.390625q0.46875 0.515625 1.3125 0.515625q0.859375 0 1.3125 -0.5q0.46875 -0.5 0.46875 -1.421875q0 -1.859375 -1.8125 -1.859375zm14.310028 7.171875q-0.84375 0.578125 -1.890625 0.578125q-1.078125 0 -1.6875 -0.609375q-0.59375 -0.625 -0.59375 -1.78125l0 -5.09375l-1.46875 0l0 -1.140625l1.46875 0l0 -1.90625l1.484375 -0.171875l0 2.078125l2.0 0l-0.171875 1.140625l-1.828125 0l0 5.03125q0 0.65625 0.21875 0.953125q0.234375 0.28125 0.78125 0.28125q0.5 0 1.125 -0.328125l0.5625 0.96875zm2.979126 -8.046875l0 8.4375l-1.46875 0l0 -8.4375l1.46875 0zm-0.734375 -4.046875q0.453125 0 0.734375 0.296875q0.296875 0.28125 0.296875 0.71875q0 0.421875 -0.296875 0.703125q-0.28125 0.28125 -0.734375 0.28125q-0.453125 0 -0.75 -0.28125q-0.28125 -0.28125 -0.28125 -0.703125q0 -0.4375 0.28125 -0.71875q0.296875 -0.296875 0.75 -0.296875zm12.246399 3.859375q1.046875 0 1.65625 0.703125q0.625 0.6875 0.625 1.875l0 6.046875l-1.46875 0l0 -5.84375q0 -1.625 -1.1875 -1.625q-0.625 0 -1.0625 0.359375q-0.421875 0.359375 -0.921875 1.125l0 5.984375l-1.46875 0l0 -5.84375q0 -1.625 -1.1875 -1.625q-0.625 0 -1.0625 0.375q-0.4375 0.359375 -0.921875 1.109375l0 5.984375l-1.46875 0l0 -8.4375l1.265625 0l0.125 1.234375q0.953125 -1.421875 2.4375 -1.421875q0.78125 0 1.328125 0.40625q0.5625 0.390625 0.796875 1.109375q0.5 -0.734375 1.09375 -1.125q0.609375 -0.390625 1.421875 -0.390625zm11.618256 4.15625q0 0.375 -0.03125 0.75l-5.375 0q0.09375 1.40625 0.703125 2.0625q0.609375 0.640625 1.5625 0.640625q0.609375 0 1.125 -0.171875q0.515625 -0.171875 1.0625 -0.5625l0.640625 0.890625q-1.34375 1.046875 -2.9375 1.046875q-1.765625 0 -2.75 -1.140625q-0.984375 -1.15625 -0.984375 -3.171875q0 -1.3125 0.421875 -2.328125q0.4375 -1.015625 1.21875 -1.59375q0.796875 -0.578125 1.875 -0.578125q1.671875 0 2.5625 1.109375q0.90625 1.09375 0.90625 3.046875zm-1.453125 -0.421875q0 -1.25 -0.5 -1.90625q-0.5 -0.65625 -1.484375 -0.65625q-1.8125 0 -1.96875 2.65625l3.953125 0l0 -0.09375zm6.0950317 -3.734375q0.859375 0 1.546875 0.25q0.6875 0.234375 1.3125 0.71875l-0.625 0.921875q-0.578125 -0.375 -1.09375 -0.546875q-0.515625 -0.171875 -1.09375 -0.171875q-0.71875 0 -1.140625 0.296875q-0.421875 0.296875 -0.421875 0.796875q0 0.515625 0.390625 0.8125q0.40625 0.28125 1.421875 0.5625q1.40625 0.34375 2.09375 0.953125q0.703125 0.609375 0.703125 1.65625q0 1.25 -0.96875 1.90625q-0.96875 0.65625 -2.359375 0.65625q-1.921875 0 -3.171875 -1.09375l0.78125 -0.90625q1.0625 0.828125 2.359375 0.828125q0.84375 0 1.328125 -0.34375q0.484375 -0.359375 0.484375 -0.9375q0 -0.4375 -0.171875 -0.703125q-0.171875 -0.265625 -0.609375 -0.453125q-0.4375 -0.203125 -1.265625 -0.4375q-1.34375 -0.34375 -1.953125 -0.9375q-0.59375 -0.59375 -0.59375 -1.5q0 -0.65625 0.390625 -1.1875q0.390625 -0.546875 1.078125 -0.84375q0.703125 -0.296875 1.578125 -0.296875z" fill-rule="nonzero"></path><path fill="#ffffff" d="m628.7979 114.14818l193.03937 0l0 46.519684l-193.03937 0z" fill-rule="evenodd"></path><path stroke="#000000" stroke-width="1.0" stroke-linejoin="round" stroke-linecap="butt" d="m628.7979 114.14818l193.03937 0l0 46.519684l-193.03937 0z" fill-rule="evenodd"></path><path fill="#000000" d="m647.12604 143.26802l-2.03125 0l-4.484375 -9.359375q0.09375 1.109375 0.15625 2.046875q0.0625 0.921875 0.0625 2.25l0 5.0625l-1.4375 0l0 -11.03125l1.984375 0l4.53125 9.390625q-0.046875 -0.421875 -0.125 -1.453125q-0.078125 -1.046875 -0.078125 -1.921875l0 -6.015625l1.421875 0l0 11.03125zm9.49054 -4.46875q0 0.375 -0.03125 0.75l-5.375 0q0.09375 1.40625 0.703125 2.0625q0.609375 0.640625 1.5625 0.640625q0.609375 0 1.125 -0.171875q0.515625 -0.171875 1.0625 -0.5625l0.640625 0.890625q-1.34375 1.046875 -2.9375 1.046875q-1.765625 0 -2.75 -1.140625q-0.984375 -1.15625 -0.984375 -3.171875q0 -1.3125 0.421875 -2.328125q0.4375 -1.015625 1.21875 -1.59375q0.796875 -0.578125 1.875 -0.578125q1.671875 0 2.5625 1.109375q0.90625 1.09375 0.90625 3.046875zm-1.453125 -0.421875q0 -1.25 -0.5 -1.90625q-0.5 -0.65625 -1.484375 -0.65625q-1.8125 0 -1.96875 2.65625l3.953125 0l0 -0.09375zm13.438721 -3.546875l-1.921875 8.4375l-2.0 0l-1.46875 -7.109375l-1.53125 7.109375l-1.953125 0l-1.96875 -8.4375l1.484375 0l1.515625 7.40625l1.65625 -7.40625l1.65625 0l1.578125 7.40625l1.546875 -7.40625l1.40625 0zm9.149536 -0.1875q0.75 0 1.375 0.21875q0.625 0.21875 1.203125 0.6875l-0.703125 0.9375q-0.453125 -0.328125 -0.875 -0.46875q-0.421875 -0.15625 -0.9375 -0.15625q-1.03125 0 -1.59375 0.8125q-0.5625 0.8125 -0.5625 2.421875q0 1.59375 0.546875 2.359375q0.5625 0.75 1.609375 0.75q0.5 0 0.90625 -0.140625q0.421875 -0.15625 0.9375 -0.5l0.671875 0.96875q-1.15625 0.921875 -2.578125 0.921875q-1.71875 0 -2.703125 -1.140625q-0.984375 -1.15625 -0.984375 -3.1875q0 -1.34375 0.453125 -2.34375q0.453125 -1.015625 1.265625 -1.578125q0.828125 -0.5625 1.96875 -0.5625zm10.851135 8.625l-1.265625 0l-0.109375 -1.3125q-0.484375 0.78125 -1.109375 1.140625q-0.625 0.359375 -1.515625 0.359375q-1.109375 0 -1.734375 -0.671875q-0.625 -0.671875 -0.625 -1.90625l0 -6.046875l1.46875 0l0 5.890625q0 0.859375 0.296875 1.234375q0.3125 0.359375 1.0 0.359375q1.234375 0 2.109375 -1.46875l0 -6.015625l1.484375 0l0 8.4375zm5.3276367 -8.625q0.859375 0 1.546875 0.25q0.6875 0.234375 1.3125 0.71875l-0.625 0.921875q-0.578125 -0.375 -1.09375 -0.546875q-0.515625 -0.171875 -1.09375 -0.171875q-0.71875 0 -1.140625 0.296875q-0.421875 0.296875 -0.421875 0.796875q0 0.515625 0.390625 0.8125q0.40625 0.28125 1.421875 0.5625q1.40625 0.34375 2.09375 0.953125q0.703125 0.609375 0.703125 1.65625q0 1.25 -0.96875 1.90625q-0.96875 0.65625 -2.359375 0.65625q-1.921875 0 -3.171875 -1.09375l0.78125 -0.90625q1.0625 0.828125 2.359375 0.828125q0.84375 0 1.328125 -0.34375q0.484375 -0.359375 0.484375 -0.9375q0 -0.4375 -0.171875 -0.703125q-0.171875 -0.265625 -0.609375 -0.453125q-0.4375 -0.203125 -1.265625 -0.4375q-1.34375 -0.34375 -1.953125 -0.9375q-0.59375 -0.59375 -0.59375 -1.5q0 -0.65625 0.390625 -1.1875q0.390625 -0.546875 1.078125 -0.84375q0.703125 -0.296875 1.578125 -0.296875zm9.440796 8.234375q-0.84375 0.578125 -1.890625 0.578125q-1.078125 0 -1.6875 -0.609375q-0.59375 -0.625 -0.59375 -1.78125l0 -5.09375l-1.46875 0l0 -1.140625l1.46875 0l0 -1.90625l1.484375 -0.171875l0 2.078125l2.0 0l-0.171875 1.140625l-1.828125 0l0 5.03125q0 0.65625 0.21875 0.953125q0.234375 0.28125 0.78125 0.28125q0.5 0 1.125 -0.328125l0.5625 0.96875zm4.682251 -8.234375q1.78125 0 2.765625 1.1875q0.984375 1.1875 0.984375 3.21875q0 1.3125 -0.453125 2.3125q-0.453125 1.0 -1.296875 1.546875q-0.84375 0.546875 -2.015625 0.546875q-1.78125 0 -2.78125 -1.171875q-0.984375 -1.1875 -0.984375 -3.21875q0 -1.3125 0.453125 -2.3125q0.453125 -1.0 1.296875 -1.546875q0.84375 -0.5625 2.03125 -0.5625zm0 1.1875q-2.1875 0 -2.1875 3.234375q0 3.21875 2.171875 3.21875q2.171875 0 2.171875 -3.234375q0 -3.21875 -2.15625 -3.21875zm14.64093 -1.1875q1.046875 0 1.65625 0.703125q0.625 0.6875 0.625 1.875l0 6.046875l-1.46875 0l0 -5.84375q0 -1.625 -1.1875 -1.625q-0.625 0 -1.0625 0.359375q-0.421875 0.359375 -0.921875 1.125l0 5.984375l-1.46875 0l0 -5.84375q0 -1.625 -1.1875 -1.625q-0.625 0 -1.0625 0.375q-0.4375 0.359375 -0.921875 1.109375l0 5.984375l-1.46875 0l0 -8.4375l1.265625 0l0.125 1.234375q0.953125 -1.421875 2.4375 -1.421875q0.78125 0 1.328125 0.40625q0.5625 0.390625 0.796875 1.109375q0.5 -0.734375 1.09375 -1.125q0.609375 -0.390625 1.421875 -0.390625zm11.618225 4.15625q0 0.375 -0.03125 0.75l-5.375 0q0.09375 1.40625 0.703125 2.0625q0.609375 0.640625 1.5625 0.640625q0.609375 0 1.125 -0.171875q0.515625 -0.171875 1.0625 -0.5625l0.640625 0.890625q-1.34375 1.046875 -2.9375 1.046875q-1.765625 0 -2.75 -1.140625q-0.984375 -1.15625 -0.984375 -3.171875q0 -1.3125 0.421875 -2.328125q0.4375 -1.015625 1.21875 -1.59375q0.796875 -0.578125 1.875 -0.578125q1.671875 0 2.5625 1.109375q0.90625 1.09375 0.90625 3.046875zm-1.453125 -0.421875q0 -1.25 -0.5 -1.90625q-0.5 -0.65625 -1.484375 -0.65625q-1.8125 0 -1.96875 2.65625l3.953125 0l0 -0.09375zm7.4700317 -3.734375q0.4375 0 0.828125 0.09375l-0.265625 1.4375q-0.390625 -0.09375 -0.734375 -0.09375q-0.796875 0 -1.28125 0.578125q-0.46875 0.578125 -0.75 1.796875l0 4.8125l-1.46875 0l0 -8.4375l1.265625 0l0.140625 1.71875q0.34375 -0.9375 0.921875 -1.421875q0.578125 -0.484375 1.34375 -0.484375zm4.8010254 0q0.859375 0 1.546875 0.25q0.6875 0.234375 1.3125 0.71875l-0.625 0.921875q-0.578125 -0.375 -1.09375 -0.546875q-0.515625 -0.171875 -1.09375 -0.171875q-0.71875 0 -1.140625 0.296875q-0.421875 0.296875 -0.421875 0.796875q0 0.515625 0.390625 0.8125q0.40625 0.28125 1.421875 0.5625q1.40625 0.34375 2.09375 0.953125q0.703125 0.609375 0.703125 1.65625q0 1.25 -0.96875 1.90625q-0.96875 0.65625 -2.359375 0.65625q-1.921875 0 -3.171875 -1.09375l0.78125 -0.90625q1.0625 0.828125 2.359375 0.828125q0.84375 0 1.328125 -0.34375q0.484375 -0.359375 0.484375 -0.9375q0 -0.4375 -0.171875 -0.703125q-0.171875 -0.265625 -0.609375 -0.453125q-0.4375 -0.203125 -1.265625 -0.4375q-1.34375 -0.34375 -1.953125 -0.9375q-0.59375 -0.59375 -0.59375 -1.5q0 -0.65625 0.390625 -1.1875q0.390625 -0.546875 1.078125 -0.84375q0.703125 -0.296875 1.578125 -0.296875z" fill-rule="nonzero"></path><path fill="#ffffff" d="m628.7979 58.833214l193.03937 0l0 46.519684l-193.03937 0z" fill-rule="evenodd"></path><path stroke="#000000" stroke-width="1.0" stroke-linejoin="round" stroke-linecap="butt" d="m628.7979 58.833214l193.03937 0l0 46.519684l-193.03937 0z" fill-rule="evenodd"></path><path fill="#000000" d="m642.62604 83.28118l-1.703125 0l0 4.671875l-1.53125 0l0 -11.03125l2.90625 0q2.0625 0 3.125 0.796875q1.0625 0.78125 1.0625 2.328125q0 1.15625 -0.59375 1.875q-0.59375 0.71875 -1.796875 1.09375l2.984375 4.9375l-1.8125 0l-2.640625 -4.671875zm-0.171875 -1.171875q1.203125 0 1.8125 -0.484375q0.609375 -0.484375 0.609375 -1.578125q0 -1.015625 -0.625 -1.46875q-0.609375 -0.46875 -1.96875 -0.46875l-1.359375 0l0 4.0l1.53125 0zm12.914368 1.375q0 0.375 -0.03125 0.75l-5.375 0q0.09375 1.40625 0.703125 2.0625q0.609375 0.640625 1.5625 0.640625q0.609375 0 1.125 -0.171875q0.515625 -0.171875 1.0625 -0.5625l0.640625 0.890625q-1.34375 1.046875 -2.9375 1.046875q-1.765625 0 -2.75 -1.140625q-0.984375 -1.15625 -0.984375 -3.171875q0 -1.3125 0.421875 -2.328125q0.4375 -1.015625 1.21875 -1.59375q0.796875 -0.578125 1.875 -0.578125q1.671875 0 2.5625 1.109375q0.90625 1.09375 0.90625 3.046875zm-1.453125 -0.421875q0 -1.25 -0.5 -1.90625q-0.5 -0.65625 -1.484375 -0.65625q-1.8125 0 -1.96875 2.65625l3.953125 0l0 -0.09375zm8.063782 4.5q-0.84375 0.578125 -1.890625 0.578125q-1.078125 0 -1.6875 -0.609375q-0.59375 -0.625 -0.59375 -1.78125l0 -5.09375l-1.46875 0l0 -1.140625l1.46875 0l0 -1.90625l1.484375 -0.171875l0 2.078125l2.0 0l-0.171875 1.140625l-1.828125 0l0 5.03125q0 0.65625 0.21875 0.953125q0.234375 0.28125 0.78125 0.28125q0.5 0 1.125 -0.328125l0.5625 0.96875zm7.791626 0.390625l-1.265625 0l-0.109375 -1.3125q-0.484375 0.78125 -1.109375 1.140625q-0.625 0.359375 -1.515625 0.359375q-1.109375 0 -1.734375 -0.671875q-0.625 -0.671875 -0.625 -1.90625l0 -6.046875l1.46875 0l0 5.890625q0 0.859375 0.296875 1.234375q0.3125 0.359375 1.0 0.359375q1.234375 0 2.109375 -1.46875l0 -6.015625l1.484375 0l0 8.4375zm6.7026367 -8.625q0.4375 0 0.828125 0.09375l-0.265625 1.4375q-0.390625 -0.09375 -0.734375 -0.09375q-0.796875 0 -1.28125 0.578125q-0.46875 0.578125 -0.75 1.796875l0 4.8125l-1.46875 0l0 -8.4375l1.265625 0l0.140625 1.71875q0.34375 -0.9375 0.921875 -1.421875q0.578125 -0.484375 1.34375 -0.484375zm6.4729004 0q1.15625 0 1.796875 0.6875q0.65625 0.6875 0.65625 1.890625l0 6.046875l-1.46875 0l0 -5.84375q0 -0.890625 -0.34375 -1.25q-0.328125 -0.375 -0.984375 -0.375q-0.671875 0 -1.1875 0.390625q-0.515625 0.375 -0.96875 1.09375l0 5.984375l-1.46875 0l0 -8.4375l1.265625 0l0.125 1.25q0.453125 -0.671875 1.109375 -1.046875q0.671875 -0.390625 1.46875 -0.390625zm6.8760376 0.1875l0 8.4375l-1.46875 0l0 -8.4375l1.46875 0zm-0.734375 -4.046875q0.453125 0 0.734375 0.296875q0.296875 0.28125 0.296875 0.71875q0 0.421875 -0.296875 0.703125q-0.28125 0.28125 -0.734375 0.28125q-0.453125 0 -0.75 -0.28125q-0.28125 -0.28125 -0.28125 -0.703125q0 -0.4375 0.28125 -0.71875q0.296875 -0.296875 0.75 -0.296875zm7.746399 3.859375q1.15625 0 1.796875 0.6875q0.65625 0.6875 0.65625 1.890625l0 6.046875l-1.46875 0l0 -5.84375q0 -0.890625 -0.34375 -1.25q-0.328125 -0.375 -0.984375 -0.375q-0.671875 0 -1.1875 0.390625q-0.515625 0.375 -0.96875 1.09375l0 5.984375l-1.46875 0l0 -8.4375l1.265625 0l0.125 1.25q0.453125 -0.671875 1.109375 -1.046875q0.671875 -0.390625 1.46875 -0.390625zm12.204102 0.578125q-0.46875 0.15625 -1.046875 0.203125q-0.578125 0.046875 -1.40625 0.046875q1.484375 0.671875 1.484375 2.140625q0 1.25 -0.875 2.0625q-0.859375 0.796875 -2.34375 0.796875q-0.578125 0 -1.0625 -0.15625q-0.203125 0.125 -0.3125 0.34375q-0.109375 0.203125 -0.109375 0.4375q0 0.6875 1.109375 0.6875l1.34375 0q0.84375 0 1.5 0.3125q0.65625 0.296875 1.015625 0.828125q0.359375 0.515625 0.359375 1.1875q0 1.234375 -1.015625 1.890625q-1.0 0.671875 -2.9375 0.671875q-1.359375 0 -2.15625 -0.28125q-0.78125 -0.28125 -1.125 -0.84375q-0.328125 -0.546875 -0.328125 -1.4375l1.328125 0q0 0.515625 0.1875 0.8125q0.1875 0.296875 0.6875 0.4375q0.5 0.15625 1.40625 0.15625q1.328125 0 1.890625 -0.328125q0.578125 -0.328125 0.578125 -0.984375q0 -0.578125 -0.453125 -0.890625q-0.453125 -0.296875 -1.25 -0.296875l-1.328125 0q-1.0625 0 -1.625 -0.453125q-0.546875 -0.46875 -0.546875 -1.15625q0 -0.40625 0.234375 -0.796875q0.25 -0.390625 0.6875 -0.6875q-0.734375 -0.390625 -1.078125 -0.953125q-0.34375 -0.5625 -0.34375 -1.390625q0 -0.84375 0.421875 -1.515625q0.421875 -0.671875 1.171875 -1.046875q0.75 -0.375 1.65625 -0.375q1.0 0.015625 1.671875 -0.0625q0.671875 -0.09375 1.109375 -0.25q0.4375 -0.15625 1.078125 -0.4375l0.421875 1.328125zm-4.28125 0.484375q-0.828125 0 -1.296875 0.515625q-0.453125 0.515625 -0.453125 1.359375q0 0.875 0.46875 1.390625q0.46875 0.515625 1.3125 0.515625q0.859375 0 1.3125 -0.5q0.46875 -0.5 0.46875 -1.421875q0 -1.859375 -1.8125 -1.859375zm13.122559 -1.0625q0.75 0 1.375 0.21875q0.625 0.21875 1.203125 0.6875l-0.703125 0.9375q-0.453125 -0.328125 -0.875 -0.46875q-0.421875 -0.15625 -0.9375 -0.15625q-1.03125 0 -1.59375 0.8125q-0.5625 0.8125 -0.5625 2.421875q0 1.59375 0.546875 2.359375q0.5625 0.75 1.609375 0.75q0.5 0 0.90625 -0.140625q0.421875 -0.15625 0.9375 -0.5l0.671875 0.96875q-1.15625 0.921875 -2.578125 0.921875q-1.71875 0 -2.703125 -1.140625q-0.984375 -1.15625 -0.984375 -3.1875q0 -1.34375 0.453125 -2.34375q0.453125 -1.015625 1.265625 -1.578125q0.828125 -0.5625 1.96875 -0.5625zm10.851135 8.625l-1.265625 0l-0.109375 -1.3125q-0.484375 0.78125 -1.109375 1.140625q-0.625 0.359375 -1.515625 0.359375q-1.109375 0 -1.734375 -0.671875q-0.625 -0.671875 -0.625 -1.90625l0 -6.046875l1.46875 0l0 5.890625q0 0.859375 0.296875 1.234375q0.3125 0.359375 1.0 0.359375q1.234375 0 2.109375 -1.46875l0 -6.015625l1.484375 0l0 8.4375zm5.3276367 -8.625q0.859375 0 1.546875 0.25q0.6875 0.234375 1.3125 0.71875l-0.625 0.921875q-0.578125 -0.375 -1.09375 -0.546875q-0.515625 -0.171875 -1.09375 -0.171875q-0.71875 0 -1.140625 0.296875q-0.421875 0.296875 -0.421875 0.796875q0 0.515625 0.390625 0.8125q0.40625 0.28125 1.421875 0.5625q1.40625 0.34375 2.09375 0.953125q0.703125 0.609375 0.703125 1.65625q0 1.25 -0.96875 1.90625q-0.96875 0.65625 -2.359375 0.65625q-1.921875 0 -3.171875 -1.09375l0.78125 -0.90625q1.0625 0.828125 2.359375 0.828125q0.84375 0 1.328125 -0.34375q0.484375 -0.359375 0.484375 -0.9375q0 -0.4375 -0.171875 -0.703125q-0.171875 -0.265625 -0.609375 -0.453125q-0.4375 -0.203125 -1.265625 -0.4375q-1.34375 -0.34375 -1.953125 -0.9375q-0.59375 -0.59375 -0.59375 -1.5q0 -0.65625 0.390625 -1.1875q0.390625 -0.546875 1.078125 -0.84375q0.703125 -0.296875 1.578125 -0.296875zm9.440735 8.234375q-0.84375 0.578125 -1.890625 0.578125q-1.078125 0 -1.6875 -0.609375q-0.59375 -0.625 -0.59375 -1.78125l0 -5.09375l-1.46875 0l0 -1.140625l1.46875 0l0 -1.90625l1.484375 -0.171875l0 2.078125l2.0 0l-0.171875 1.140625l-1.828125 0l0 5.03125q0 0.65625 0.21875 0.953125q0.234375 0.28125 0.78125 0.28125q0.5 0 1.125 -0.328125l0.5625 0.96875zm4.682312 -8.234375q1.78125 0 2.765625 1.1875q0.984375 1.1875 0.984375 3.21875q0 1.3125 -0.453125 2.3125q-0.453125 1.0 -1.296875 1.546875q-0.84375 0.546875 -2.015625 0.546875q-1.78125 0 -2.78125 -1.171875q-0.984375 -1.1875 -0.984375 -3.21875q0 -1.3125 0.453125 -2.3125q0.453125 -1.0 1.296875 -1.546875q0.84375 -0.5625 2.03125 -0.5625zm0 1.1875q-2.1875 0 -2.1875 3.234375q0 3.21875 2.171875 3.21875q2.171875 0 2.171875 -3.234375q0 -3.21875 -2.15625 -3.21875zm14.640869 -1.1875q1.046875 0 1.65625 0.703125q0.625 0.6875 0.625 1.875l0 6.046875l-1.46875 0l0 -5.84375q0 -1.625 -1.1875 -1.625q-0.625 0 -1.0625 0.359375q-0.421875 0.359375 -0.921875 1.125l0 5.984375l-1.46875 0l0 -5.84375q0 -1.625 -1.1875 -1.625q-0.625 0 -1.0625 0.375q-0.4375 0.359375 -0.921875 1.109375l0 5.984375l-1.46875 0l0 -8.4375l1.265625 0l0.125 1.234375q0.953125 -1.421875 2.4375 -1.421875q0.78125 0 1.328125 0.40625q0.5625 0.390625 0.796875 1.109375q0.5 -0.734375 1.09375 -1.125q0.609375 -0.390625 1.421875 -0.390625zm11.618286 4.15625q0 0.375 -0.03125 0.75l-5.375 0q0.09375 1.40625 0.703125 2.0625q0.609375 0.640625 1.5625 0.640625q0.609375 0 1.125 -0.171875q0.515625 -0.171875 1.0625 -0.5625l0.640625 0.890625q-1.34375 1.046875 -2.9375 1.046875q-1.765625 0 -2.75 -1.140625q-0.984375 -1.15625 -0.984375 -3.171875q0 -1.3125 0.421875 -2.328125q0.4375 -1.015625 1.21875 -1.59375q0.796875 -0.578125 1.875 -0.578125q1.671875 0 2.5625 1.109375q0.90625 1.09375 0.90625 3.046875zm-1.453125 -0.421875q0 -1.25 -0.5 -1.90625q-0.5 -0.65625 -1.484375 -0.65625q-1.8125 0 -1.96875 2.65625l3.953125 0l0 -0.09375zm7.4700317 -3.734375q0.4375 0 0.828125 0.09375l-0.265625 1.4375q-0.390625 -0.09375 -0.734375 -0.09375q-0.796875 0 -1.28125 0.578125q-0.46875 0.578125 -0.75 1.796875l0 4.8125l-1.46875 0l0 -8.4375l1.265625 0l0.140625 1.71875q0.34375 -0.9375 0.921875 -1.421875q0.578125 -0.484375 1.34375 -0.484375zm4.8009644 0q0.859375 0 1.546875 0.25q0.6875 0.234375 1.3125 0.71875l-0.625 0.921875q-0.578125 -0.375 -1.09375 -0.546875q-0.515625 -0.171875 -1.09375 -0.171875q-0.71875 0 -1.140625 0.296875q-0.421875 0.296875 -0.421875 0.796875q0 0.515625 0.390625 0.8125q0.40625 0.28125 1.421875 0.5625q1.40625 0.34375 2.09375 0.953125q0.703125 0.609375 0.703125 1.65625q0 1.25 -0.96875 1.90625q-0.96875 0.65625 -2.359375 0.65625q-1.921875 0 -3.171875 -1.09375l0.78125 -0.90625q1.0625 0.828125 2.359375 0.828125q0.84375 0 1.328125 -0.34375q0.484375 -0.359375 0.484375 -0.9375q0 -0.4375 -0.171875 -0.703125q-0.171875 -0.265625 -0.609375 -0.453125q-0.4375 -0.203125 -1.265625 -0.4375q-1.34375 -0.34375 -1.953125 -0.9375q-0.59375 -0.59375 -0.59375 -1.5q0 -0.65625 0.390625 -1.1875q0.390625 -0.546875 1.078125 -0.84375q0.703125 -0.296875 1.578125 -0.296875z" fill-rule="nonzero"></path><path fill="#ffffff" d="m7.774278 58.800526l193.03937 0l0 46.519688l-193.03937 0z" fill-rule="evenodd"></path><path stroke="#000000" stroke-width="1.0" stroke-linejoin="round" stroke-linecap="butt" d="m7.774278 58.800526l193.03937 0l0 46.519688l-193.03937 0z" fill-rule="evenodd"></path><path fill="#000000" d="m22.227404 76.701614q1.0 0 1.671875 0.265625q0.6875 0.25 1.390625 0.828125l-0.828125 0.96875q-1.015625 -0.8125 -2.140625 -0.8125q-1.375 0 -2.21875 1.0625q-0.828125 1.046875 -0.828125 3.390625q0 2.265625 0.828125 3.34375q0.828125 1.078125 2.203125 1.078125q0.703125 0 1.234375 -0.234375q0.53125 -0.234375 1.125 -0.671875l0.75 0.953125q-0.515625 0.53125 -1.3125 0.890625q-0.796875 0.34375 -1.84375 0.34375q-1.34375 0 -2.390625 -0.65625q-1.046875 -0.671875 -1.640625 -1.953125q-0.578125 -1.296875 -0.578125 -3.09375q0 -1.8125 0.609375 -3.09375q0.609375 -1.296875 1.640625 -1.953125q1.046875 -0.65625 2.328125 -0.65625zm8.194397 2.59375q1.7812481 0 2.765623 1.1875q0.984375 1.1875 0.984375 3.21875q0 1.3125 -0.453125 2.3125q-0.453125 1.0 -1.296875 1.546875q-0.8437481 0.546875 -2.015623 0.546875q-1.78125 0 -2.78125 -1.171875q-0.984375 -1.1875 -0.984375 -3.21875q0 -1.3125 0.453125 -2.3125q0.453125 -1.0 1.296875 -1.546875q0.84375 -0.5625 2.03125 -0.5625zm0 1.1875q-2.1875 0 -2.1875 3.234375q0 3.21875 2.171875 3.21875q2.171873 0 2.171873 -3.234375q0 -3.21875 -2.156248 -3.21875zm10.140898 -1.1875q1.15625 0 1.796875 0.6875q0.65625 0.6875 0.65625 1.890625l0 6.046875l-1.46875 0l0 -5.84375q0 -0.890625 -0.34375 -1.25q-0.328125 -0.375 -0.984375 -0.375q-0.671875 0 -1.1875 0.390625q-0.515625 0.375 -0.96875 1.09375l0 5.984375l-1.46875 0l0 -8.4375l1.265625 0l0.125 1.25q0.453125 -0.671875 1.109375 -1.046875q0.671875 -0.390625 1.46875 -0.390625zm9.672897 8.234375q-0.84375 0.578125 -1.890625 0.578125q-1.078125 0 -1.6875 -0.609375q-0.59375 -0.625 -0.59375 -1.78125l0 -5.09375l-1.46875 0l0 -1.140625l1.46875 0l0 -1.90625l1.484375 -0.171875l0 2.078125l2.0 0l-0.171875 1.140625l-1.828125 0l0 5.03125q0 0.65625 0.21875 0.953125q0.234375 0.28125 0.78125 0.28125q0.5 0 1.125 -0.328125l0.5625 0.96875zm7.197891 -1.578125q0 0.515625 0.171875 0.765625q0.171875 0.25 0.53125 0.375l-0.34375 1.015625q-0.65625 -0.078125 -1.0625 -0.359375q-0.390625 -0.296875 -0.578125 -0.90625q-0.84375 1.265625 -2.515625 1.265625q-1.25 0 -1.96875 -0.703125q-0.71875 -0.703125 -0.71875 -1.84375q0 -1.34375 0.96875 -2.0625q0.96875 -0.71875 2.75 -0.71875l1.296875 0l0 -0.625q0 -0.890625 -0.4375 -1.265625q-0.4375 -0.390625 -1.328125 -0.390625q-0.921875 0 -2.265625 0.453125l-0.375 -1.078125q1.5625 -0.578125 2.90625 -0.578125q1.5 0 2.234375 0.734375q0.734375 0.71875 0.734375 2.0625l0 3.859375zm-3.453125 1.0625q1.265625 0 1.984375 -1.3125l0 -1.9375l-1.109375 0q-2.34375 0 -2.34375 1.71875q0 0.75 0.375 1.140625q0.375 0.390625 1.09375 0.390625zm9.547775 -7.71875q0.75 0 1.375 0.21875q0.625 0.21875 1.203125 0.6875l-0.703125 0.9375q-0.453125 -0.328125 -0.875 -0.46875q-0.421875 -0.15625 -0.9375 -0.15625q-1.03125 0 -1.59375 0.8125q-0.5625 0.8125 -0.5625 2.421875q0 1.59375 0.546875 2.359375q0.5625 0.75 1.609375 0.75q0.5 0 0.90625 -0.140625q0.421875 -0.15625 0.9375 -0.5l0.671875 0.96875q-1.15625 0.921875 -2.578125 0.921875q-1.71875 0 -2.703125 -1.140625q-0.984375 -1.15625 -0.984375 -3.1875q0 -1.34375 0.453125 -2.34375q0.453125 -1.015625 1.265625 -1.578125q0.828125 -0.5625 1.96875 -0.5625zm8.83551 8.234375q-0.84375 0.578125 -1.890625 0.578125q-1.078125 0 -1.6875 -0.609375q-0.59375 -0.625 -0.59375 -1.78125l0 -5.09375l-1.46875 0l0 -1.140625l1.46875 0l0 -1.90625l1.484375 -0.171875l0 2.078125l2.0 0l-0.171875 1.140625l-1.828125 0l0 5.03125q0 0.65625 0.21875 0.953125q0.234375 0.28125 0.78125 0.28125q0.5 0 1.125 -0.328125l0.5625 0.96875zm8.625397 -10.421875q-0.671875 0 -0.96875 0.296875q-0.28125 0.296875 -0.28125 0.921875l0 1.15625l2.046875 0l-0.15625 1.140625l-1.890625 0l0 7.296875l-1.484375 0l0 -7.296875l-1.5 0l0 -1.140625l1.5 0l0 -1.140625q0 -1.09375 0.703125 -1.75q0.703125 -0.671875 1.9375 -0.671875q0.578125 0 1.03125 0.109375q0.46875 0.09375 0.984375 0.328125l-0.453125 1.0625q-0.71875 -0.3125 -1.46875 -0.3125zm5.656891 2.1875q1.78125 0 2.765625 1.1875q0.984375 1.1875 0.984375 3.21875q0 1.3125 -0.453125 2.3125q-0.453125 1.0 -1.296875 1.546875q-0.84375 0.546875 -2.015625 0.546875q-1.78125 0 -2.78125 -1.171875q-0.984375 -1.1875 -0.984375 -3.21875q0 -1.3125 0.453125 -2.3125q0.453125 -1.0 1.296875 -1.546875q0.84375 -0.5625 2.03125 -0.5625zm0 1.1875q-2.1875 0 -2.1875 3.234375q0 3.21875 2.171875 3.21875q2.171875 0 2.171875 -3.234375q0 -3.21875 -2.15625 -3.21875zm9.844025 -1.1875q0.4375 0 0.828125 0.09375l-0.265625 1.4375q-0.390625 -0.09375 -0.734375 -0.09375q-0.796875 0 -1.28125 0.578125q-0.46875 0.578125 -0.75 1.796875l0 4.8125l-1.46875 0l0 -8.4375l1.265625 0l0.140625 1.71875q0.34375 -0.9375 0.921875 -1.421875q0.578125 -0.484375 1.34375 -0.484375zm10.972885 0q1.046875 0 1.65625 0.703125q0.625 0.6875 0.625 1.875l0 6.046875l-1.46875 0l0 -5.84375q0 -1.625 -1.1875 -1.625q-0.625 0 -1.0625 0.359375q-0.421875 0.359375 -0.921875 1.125l0 5.984375l-1.46875 0l0 -5.84375q0 -1.625 -1.1875 -1.625q-0.625 0 -1.0625 0.375q-0.4375 0.359375 -0.921875 1.109375l0 5.984375l-1.46875 0l0 -8.4375l1.265625 0l0.125 1.234375q0.953125 -1.421875 2.4375 -1.421875q0.78125 0 1.328125 0.40625q0.5625 0.390625 0.796875 1.109375q0.5 -0.734375 1.09375 -1.125q0.609375 -0.390625 1.421875 -0.390625z" fill-rule="nonzero"></path><path fill="#ffffff" d="m7.774278 114.14698l193.03937 0l0 46.51969l-193.03937 0z" fill-rule="evenodd"></path><path stroke="#000000" stroke-width="1.0" stroke-linejoin="round" stroke-linecap="butt" d="m7.774278 114.14698l193.03937 0l0 46.51969l-193.03937 0z" fill-rule="evenodd"></path><path fill="#000000" d="m28.227404 143.26683l-1.46875 0l-0.390625 -4.96875q-0.234375 -2.9375 -0.265625 -4.5l-2.390625 8.21875l-1.421875 0l-2.5 -8.234375q0 2.0 -0.21875 4.625l-0.359375 4.859375l-1.453125 0l0.921875 -11.03125l2.046875 0l2.3125 8.015625l2.21875 -8.015625l2.0625 0l0.90625 11.03125zm8.198027 -1.96875q0 0.515625 0.171875 0.765625q0.171875 0.25 0.53125 0.375l-0.34375 1.015625q-0.65625 -0.078125 -1.0625 -0.359375q-0.390625 -0.296875 -0.578125 -0.90625q-0.84375 1.265625 -2.515625 1.265625q-1.2499981 0 -1.9687481 -0.703125q-0.71875 -0.703125 -0.71875 -1.84375q0 -1.34375 0.96875 -2.0625q0.96875 -0.71875 2.749998 -0.71875l1.296875 0l0 -0.625q0 -0.890625 -0.4375 -1.265625q-0.4375 -0.390625 -1.328125 -0.390625q-0.921875 0 -2.265623 0.453125l-0.375 -1.078125q1.5624981 -0.578125 2.906248 -0.578125q1.5 0 2.234375 0.734375q0.734375 0.71875 0.734375 2.0625l0 3.859375zm-3.453125 1.0625q1.265625 0 1.984375 -1.3125l0 -1.9375l-1.109375 0q-2.343748 0 -2.343748 1.71875q0 0.75 0.375 1.140625q0.3749981 0.390625 1.0937481 0.390625zm10.34465 -7.71875q1.625 0 2.375 1.15625q0.75 1.15625 0.75 3.25q0 1.984375 -0.875 3.203125q-0.859375 1.203125 -2.4375 1.203125q-1.40625 0 -2.21875 -0.953125l0 4.0l-1.46875 0.171875l0 -11.84375l1.265625 0l0.109375 1.140625q0.46875 -0.640625 1.125 -0.984375q0.65625 -0.34375 1.375 -0.34375zm-0.546875 7.609375q2.078125 0 2.078125 -3.203125q0 -3.234375 -1.890625 -3.234375q-0.625 0 -1.140625 0.375q-0.515625 0.359375 -0.90625 0.9375l0 4.109375q0.328125 0.5 0.796875 0.765625q0.484375 0.25 1.0625 0.25z" fill-rule="nonzero"></path><path fill="#ffffff" d="m7.774278 172.69029l193.03937 0l0 46.519684l-193.03937 0z" fill-rule="evenodd"></path><path stroke="#000000" stroke-width="1.0" stroke-linejoin="round" stroke-linecap="butt" d="m7.774278 172.69029l193.03937 0l0 46.519684l-193.03937 0z" fill-rule="evenodd"></path><path fill="#000000" d="m21.086779 190.59138q1.109375 0 1.890625 0.3125q0.78125 0.3125 1.53125 0.96875l-0.84375 0.921875q-0.625 -0.484375 -1.21875 -0.71875q-0.59375 -0.234375 -1.28125 -0.234375q-0.875 0 -1.4375 0.40625q-0.546875 0.390625 -0.546875 1.15625q0 0.484375 0.1875 0.8125q0.1875 0.328125 0.703125 0.609375q0.53125 0.265625 1.515625 0.5625q1.046875 0.328125 1.734375 0.703125q0.6875 0.359375 1.109375 1.015625q0.421875 0.640625 0.421875 1.625q0 0.96875 -0.46875 1.703125q-0.46875 0.734375 -1.359375 1.15625q-0.890625 0.40625 -2.109375 0.40625q-2.28125 0 -3.734375 -1.421875l0.828125 -0.921875q0.671875 0.546875 1.359375 0.828125q0.6875 0.265625 1.53125 0.265625q1.03125 0 1.703125 -0.5q0.671875 -0.5 0.671875 -1.46875q0 -0.53125 -0.21875 -0.890625q-0.203125 -0.359375 -0.703125 -0.640625q-0.5 -0.296875 -1.46875 -0.59375q-1.6875 -0.5 -2.484375 -1.21875q-0.78125 -0.734375 -0.78125 -1.96875q0 -0.828125 0.4375 -1.484375q0.453125 -0.65625 1.234375 -1.015625q0.796875 -0.375 1.796875 -0.375zm10.1887665 10.828125q-0.84375 0.578125 -1.890625 0.578125q-1.078125 0 -1.6875 -0.609375q-0.59375 -0.625 -0.59375 -1.78125l0 -5.09375l-1.46875 0l0 -1.140625l1.46875 0l0 -1.90625l1.484375 -0.171875l0 2.078125l2.0 0l-0.171875 1.140625l-1.828125 0l0 5.03125q0 0.65625 0.21875 0.953125q0.234375 0.28125 0.78125 0.28125q0.5 0 1.125 -0.328125l0.5625 0.96875zm4.6822643 -8.234375q1.78125 0 2.765625 1.1875q0.984375 1.1875 0.984375 3.21875q0 1.3125 -0.453125 2.3125q-0.453125 1.0 -1.296875 1.546875q-0.84375 0.546875 -2.015625 0.546875q-1.78125 0 -2.78125 -1.171875q-0.984375 -1.1875 -0.984375 -3.21875q0 -1.3125 0.453125 -2.3125q0.453125 -1.0 1.296875 -1.546875q0.84375 -0.5625 2.03125 -0.5625zm0 1.1875q-2.1875 0 -2.1875 3.234375q0 3.21875 2.171875 3.21875q2.171875 0 2.171875 -3.234375q0 -3.21875 -2.15625 -3.21875zm9.844025 -1.1875q0.4375 0 0.828125 0.09375l-0.265625 1.4375q-0.390625 -0.09375 -0.734375 -0.09375q-0.796875 0 -1.28125 0.578125q-0.46875 0.578125 -0.75 1.796875l0 4.8125l-1.46875 0l0 -8.4375l1.265625 0l0.140625 1.71875q0.34375 -0.9375 0.921875 -1.421875q0.578125 -0.484375 1.34375 -0.484375zm8.879135 4.15625q0 0.375 -0.03125 0.75l-5.375 0q0.09375 1.40625 0.703125 2.0625q0.609375 0.640625 1.5625 0.640625q0.609375 0 1.125 -0.171875q0.515625 -0.171875 1.0625 -0.5625l0.640625 0.890625q-1.34375 1.046875 -2.9375 1.046875q-1.765625 0 -2.75 -1.140625q-0.984375 -1.15625 -0.984375 -3.171875q0 -1.3125 0.421875 -2.328125q0.4375 -1.015625 1.21875 -1.59375q0.796875 -0.578125 1.875 -0.578125q1.671875 0 2.5625 1.109375q0.90625 1.09375 0.90625 3.046875zm-1.453125 -0.421875q0 -1.25 -0.5 -1.90625q-0.5 -0.65625 -1.484375 -0.65625q-1.8125 0 -1.96875 2.65625l3.953125 0l0 -0.09375zm14.569397 -6.9375l0 11.828125l-1.296875 0l-0.140625 -1.171875q-0.421875 0.640625 -1.046875 1.0q-0.625 0.359375 -1.390625 0.359375q-1.5 0 -2.34375 -1.171875q-0.84375 -1.1875 -0.84375 -3.1875q0 -1.296875 0.40625 -2.296875q0.40625 -1.015625 1.15625 -1.578125q0.75 -0.578125 1.75 -0.578125q1.296875 0 2.28125 1.046875l0 -4.421875l1.46875 0.171875zm-3.546875 10.859375q0.671875 0 1.140625 -0.3125q0.484375 -0.3125 0.9375 -0.9375l0 -4.140625q-0.421875 -0.53125 -0.890625 -0.8125q-0.46875 -0.28125 -1.0625 -0.28125q-0.984375 0 -1.515625 0.8125q-0.53125 0.8125 -0.53125 2.4375q0 1.625 0.484375 2.4375q0.5 0.796875 1.4375 0.796875zm12.958649 -3.5q0 0.375 -0.03125 0.75l-5.375 0q0.09375 1.40625 0.703125 2.0625q0.609375 0.640625 1.5625 0.640625q0.609375 0 1.125 -0.171875q0.515625 -0.171875 1.0625 -0.5625l0.640625 0.890625q-1.34375 1.046875 -2.9375 1.046875q-1.765625 0 -2.75 -1.140625q-0.984375 -1.15625 -0.984375 -3.171875q0 -1.3125 0.421875 -2.328125q0.4375 -1.015625 1.21875 -1.59375q0.796875 -0.578125 1.875 -0.578125q1.671875 0 2.5625 1.109375q0.90625 1.09375 0.90625 3.046875zm-1.453125 -0.421875q0 -1.25 -0.5 -1.90625q-0.5 -0.65625 -1.484375 -0.65625q-1.8125 0 -1.96875 2.65625l3.953125 0l0 -0.09375zm8.0637665 4.5q-0.84375 0.578125 -1.890625 0.578125q-1.078125 0 -1.6875 -0.609375q-0.59375 -0.625 -0.59375 -1.78125l0 -5.09375l-1.46875 0l0 -1.140625l1.46875 0l0 -1.90625l1.484375 -0.171875l0 2.078125l2.0 0l-0.171875 1.140625l-1.828125 0l0 5.03125q0 0.65625 0.21875 0.953125q0.234375 0.28125 0.78125 0.28125q0.5 0 1.125 -0.328125l0.5625 0.96875zm7.197891 -1.578125q0 0.515625 0.171875 0.765625q0.171875 0.25 0.53125 0.375l-0.34375 1.015625q-0.65625 -0.078125 -1.0625 -0.359375q-0.390625 -0.296875 -0.578125 -0.90625q-0.84375 1.265625 -2.515625 1.265625q-1.25 0 -1.96875 -0.703125q-0.71875 -0.703125 -0.71875 -1.84375q0 -1.34375 0.96875 -2.0625q0.96875 -0.71875 2.75 -0.71875l1.296875 0l0 -0.625q0 -0.890625 -0.4375 -1.265625q-0.4375 -0.390625 -1.328125 -0.390625q-0.921875 0 -2.265625 0.453125l-0.375 -1.078125q1.5625 -0.578125 2.90625 -0.578125q1.5 0 2.234375 0.734375q0.734375 0.71875 0.734375 2.0625l0 3.859375zm-3.453125 1.0625q1.265625 0 1.984375 -1.3125l0 -1.9375l-1.109375 0q-2.34375 0 -2.34375 1.71875q0 0.75 0.375 1.140625q0.375 0.390625 1.09375 0.390625zm7.9384003 -7.53125l0 8.4375l-1.46875 0l0 -8.4375l1.46875 0zm-0.734375 -4.046875q0.453125 0 0.734375 0.296875q0.296875 0.28125 0.296875 0.71875q0 0.421875 -0.296875 0.703125q-0.28125 0.28125 -0.734375 0.28125q-0.453125 0 -0.75 -0.28125q-0.28125 -0.28125 -0.28125 -0.703125q0 -0.4375 0.28125 -0.71875q0.296875 -0.296875 0.75 -0.296875zm5.4651337 12.671875q-0.8125 0 -1.296875 -0.484375q-0.46875 -0.484375 -0.46875 -1.359375l0 -10.171875l1.46875 -0.171875l0 10.296875q0 0.359375 0.125 0.515625q0.125 0.15625 0.40625 0.15625q0.3125 0 0.546875 -0.09375l0.390625 1.03125q-0.53125 0.28125 -1.171875 0.28125zm5.2973785 -8.8125q0.859375 0 1.546875 0.25q0.6875 0.234375 1.3125 0.71875l-0.625 0.921875q-0.578125 -0.375 -1.09375 -0.546875q-0.515625 -0.171875 -1.09375 -0.171875q-0.71875 0 -1.140625 0.296875q-0.421875 0.296875 -0.421875 0.796875q0 0.515625 0.390625 0.8125q0.40625 0.28125 1.421875 0.5625q1.40625 0.34375 2.09375 0.953125q0.703125 0.609375 0.703125 1.65625q0 1.25 -0.96875 1.90625q-0.96875 0.65625 -2.359375 0.65625q-1.921875 0 -3.171875 -1.09375l0.78125 -0.90625q1.0625 0.828125 2.359375 0.828125q0.84375 0 1.328125 -0.34375q0.484375 -0.359375 0.484375 -0.9375q0 -0.4375 -0.171875 -0.703125q-0.171875 -0.265625 -0.609375 -0.453125q-0.4375 -0.203125 -1.265625 -0.4375q-1.34375 -0.34375 -1.953125 -0.9375q-0.59375 -0.59375 -0.59375 -1.5q0 -0.65625 0.390625 -1.1875q0.390625 -0.546875 1.078125 -0.84375q0.703125 -0.296875 1.578125 -0.296875z" fill-rule="nonzero"></path><path fill="#666666" d="m7.774278 231.2336l193.03937 0l0 46.5197l-193.03937 0z" fill-rule="evenodd"></path><path stroke="#000000" stroke-width="1.0" stroke-linejoin="round" stroke-linecap="butt" d="m7.774278 231.2336l193.03937 0l0 46.5197l-193.03937 0z" fill-rule="evenodd"></path><path fill="#ffffff" d="m24.883654 249.32219l-0.15625 1.296875l-3.0625 0l0 9.73436l-1.515625 0l0 -9.73436l-3.140625 0l0 -1.296875l7.875 0zm11.318892 2.59375l-1.921875 8.437485l-2.0 0l-1.4687481 -7.1093597l-1.53125 7.1093597l-1.953125 0l-1.96875 -8.437485l1.484375 0l1.515625 7.4062347l1.65625 -7.4062347l1.65625 0l1.5781231 7.4062347l1.546875 -7.4062347l1.40625 0zm3.3001556 0l0 8.437485l-1.46875 0l0 -8.437485l1.46875 0zm-0.734375 -4.046875q0.453125 0 0.734375 0.296875q0.296875 0.28125 0.296875 0.71875q0 0.421875 -0.296875 0.703125q-0.28125 0.28125 -0.734375 0.28125q-0.453125 0 -0.75 -0.28125q-0.28125 -0.28125 -0.28125 -0.703125q0 -0.4375 0.28125 -0.71875q0.296875 -0.296875 0.75 -0.296875zm8.043259 12.093735q-0.84375 0.578125 -1.890625 0.578125q-1.078125 0 -1.6875 -0.609375q-0.59375 -0.625 -0.59375 -1.78125l0 -5.0937347l-1.46875 0l0 -1.140625l1.46875 0l0 -1.90625l1.484375 -0.171875l0 2.078125l2.0 0l-0.171875 1.140625l-1.828125 0l0 5.0312347q0 0.65625 0.21875 0.953125q0.234375 0.28125 0.78125 0.28125q0.5 0 1.125 -0.328125l0.5625 0.96875zm5.776016 0q-0.84375 0.578125 -1.890625 0.578125q-1.078125 0 -1.6875 -0.609375q-0.59375 -0.625 -0.59375 -1.78125l0 -5.0937347l-1.46875 0l0 -1.140625l1.46875 0l0 -1.90625l1.484375 -0.171875l0 2.078125l2.0 0l-0.171875 1.140625l-1.828125 0l0 5.0312347q0 0.65625 0.21875 0.953125q0.234375 0.28125 0.78125 0.28125q0.5 0 1.125 -0.328125l0.5625 0.96875zm7.885391 -4.0781097q0 0.37498474 -0.03125 0.74998474l-5.375 0q0.09375 1.40625 0.703125 2.0625q0.609375 0.640625 1.5625 0.640625q0.609375 0 1.125 -0.171875q0.515625 -0.171875 1.0625 -0.5625l0.640625 0.890625q-1.34375 1.046875 -2.9375 1.046875q-1.765625 0 -2.75 -1.140625q-0.984375 -1.15625 -0.984375 -3.171875q0 -1.3124847 0.421875 -2.3281097q0.4375 -1.015625 1.21875 -1.59375q0.796875 -0.578125 1.875 -0.578125q1.671875 0 2.5625 1.109375q0.90625 1.09375 0.90625 3.046875zm-1.453125 -0.421875q0 -1.25 -0.5 -1.90625q-0.5 -0.65625 -1.484375 -0.65625q-1.8125 0 -1.96875 2.65625l3.953125 0l0 -0.09375zm7.4700165 -3.734375q0.4375 0 0.828125 0.09375l-0.265625 1.4375q-0.390625 -0.09375 -0.734375 -0.09375q-0.796875 0 -1.28125 0.578125q-0.46875 0.578125 -0.75 1.796875l0 4.8124847l-1.46875 0l0 -8.437485l1.265625 0l0.140625 1.71875q0.34375 -0.9375 0.921875 -1.421875q0.578125 -0.484375 1.34375 -0.484375zm9.619141 -2.1875q-0.671875 0 -0.96875 0.296875q-0.28125 0.296875 -0.28125 0.921875l0 1.15625l2.046875 0l-0.15625 1.140625l-1.890625 0l0 7.2968597l-1.484375 0l0 -7.2968597l-1.5 0l0 -1.140625l1.5 0l0 -1.140625q0 -1.09375 0.703125 -1.75q0.703125 -0.671875 1.9375 -0.671875q0.578125 0 1.03125 0.109375q0.46875 0.09375 0.984375 0.328125l-0.453125 1.0625q-0.71875 -0.3125 -1.46875 -0.3125zm8.860016 6.34375q0 0.37498474 -0.03125 0.74998474l-5.375 0q0.09375 1.40625 0.703125 2.0625q0.609375 0.640625 1.5625 0.640625q0.609375 0 1.125 -0.171875q0.515625 -0.171875 1.0625 -0.5625l0.640625 0.890625q-1.34375 1.046875 -2.9375 1.046875q-1.765625 0 -2.75 -1.140625q-0.984375 -1.15625 -0.984375 -3.171875q0 -1.3124847 0.421875 -2.3281097q0.4375 -1.015625 1.21875 -1.59375q0.796875 -0.578125 1.875 -0.578125q1.671875 0 2.5625 1.109375q0.90625 1.09375 0.90625 3.046875zm-1.453125 -0.421875q0 -1.25 -0.5 -1.90625q-0.5 -0.65625 -1.484375 -0.65625q-1.8125 0 -1.96875 2.65625l3.953125 0l0 -0.09375zm10.1731415 0.421875q0 0.37498474 -0.03125 0.74998474l-5.375 0q0.09375 1.40625 0.703125 2.0625q0.609375 0.640625 1.5625 0.640625q0.609375 0 1.125 -0.171875q0.515625 -0.171875 1.0625 -0.5625l0.640625 0.890625q-1.34375 1.046875 -2.9375 1.046875q-1.765625 0 -2.75 -1.140625q-0.984375 -1.15625 -0.984375 -3.171875q0 -1.3124847 0.421875 -2.3281097q0.4375 -1.015625 1.21875 -1.59375q0.796875 -0.578125 1.875 -0.578125q1.671875 0 2.5625 1.109375q0.90625 1.09375 0.90625 3.046875zm-1.453125 -0.421875q0 -1.25 -0.5 -1.90625q-0.5 -0.65625 -1.484375 -0.65625q-1.8125 0 -1.96875 2.65625l3.953125 0l0 -0.09375zm10.3293915 -6.9375l0 11.82811l-1.296875 0l-0.140625 -1.171875q-0.421875 0.640625 -1.046875 1.0q-0.625 0.359375 -1.390625 0.359375q-1.5 0 -2.34375 -1.171875q-0.84375 -1.1875 -0.84375 -3.1875q0 -1.2968597 0.40625 -2.2968597q0.40625 -1.015625 1.15625 -1.578125q0.75 -0.578125 1.75 -0.578125q1.296875 0 2.28125 1.046875l0 -4.421875l1.46875 0.171875zm-3.546875 10.85936q0.671875 0 1.140625 -0.3125q0.484375 -0.3125 0.9375 -0.9375l0 -4.1406097q-0.421875 -0.53125 -0.890625 -0.8125q-0.46875 -0.28125 -1.0625 -0.28125q-0.984375 0 -1.515625 0.8125q-0.53125 0.8125 -0.53125 2.4374847q0 1.625 0.484375 2.4375q0.5 0.796875 1.4375 0.796875z" fill-rule="nonzero"></path><path fill="#000000" fill-opacity="0.0" d="m488.01575 195.95132l70.39087 0l0 -58.551178l70.396545 0" fill-rule="evenodd"></path><path stroke="#000000" stroke-width="1.0" stroke-linejoin="round" stroke-linecap="butt" stroke-dasharray="1.0,3.0" d="m488.01575 195.95132l70.39087 0l0 -58.551178l70.396545 0" fill-rule="evenodd"></path><path fill="#000000" fill-opacity="0.0" d="m488.01575 195.95132l66.0 0l0 -98.173225l66.0 0" fill-rule="evenodd"></path><path stroke="#000000" stroke-width="1.0" stroke-linejoin="round" stroke-linecap="butt" stroke-dasharray="1.0,3.0" d="m488.01575 195.95132l66.0 0l0 -98.173225l66.0 0" fill-rule="evenodd"></path><path fill="#000000" fill-opacity="0.0" d="m488.01575 137.40616l70.39087 0l0 0.06298828l70.396545 0" fill-rule="evenodd"></path><path stroke="#000000" stroke-width="1.0" stroke-linejoin="round" stroke-linecap="butt" stroke-dasharray="1.0,3.0" d="m488.01575 137.40616l70.39087 0l0 0.06298828l70.396545 0" fill-rule="evenodd"></path><path fill="#000000" fill-opacity="0.0" d="m488.01575 82.06036l70.39087 0l0 55.338593l70.396545 0" fill-rule="evenodd"></path><path stroke="#000000" stroke-width="1.0" stroke-linejoin="round" stroke-linecap="butt" stroke-dasharray="1.0,3.0" d="m488.01575 82.06036l70.39087 0l0 55.338593l70.396545 0" fill-rule="evenodd"></path><path fill="#000000" fill-opacity="0.0" d="m488.01575 82.06036l70.39087 0l0 0.06299591l70.396545 0" fill-rule="evenodd"></path><path stroke="#000000" stroke-width="1.0" stroke-linejoin="round" stroke-linecap="butt" stroke-dasharray="1.0,3.0" d="m488.01575 82.06036l70.39087 0l0 0.06299591l70.396545 0" fill-rule="evenodd"></path><path fill="#000000" fill-opacity="0.0" d="m200.81364 82.06036l47.080963 0l0 0.06299591l47.09227 0" fill-rule="evenodd"></path><path stroke="#000000" stroke-width="1.0" stroke-linejoin="round" stroke-linecap="butt" stroke-dasharray="1.0,3.0" d="m200.81364 82.06036l47.080963 0l0 0.06299591l47.09227 0" fill-rule="evenodd"></path><path fill="#000000" fill-opacity="0.0" d="m200.81364 137.40683l47.080963 0l0 0.06298828l47.09227 0" fill-rule="evenodd"></path><path stroke="#000000" stroke-width="1.0" stroke-linejoin="round" stroke-linecap="butt" stroke-dasharray="1.0,3.0" d="m200.81364 137.40683l47.080963 0l0 0.06298828l47.09227 0" fill-rule="evenodd"></path><path fill="#000000" fill-opacity="0.0" d="m200.81364 195.95013l47.080963 0l0 0.06298828l47.09227 0" fill-rule="evenodd"></path><path stroke="#000000" stroke-width="1.0" stroke-linejoin="round" stroke-linecap="butt" stroke-dasharray="1.0,3.0" d="m200.81364 195.95013l47.080963 0l0 0.06298828l47.09227 0" fill-rule="evenodd"></path><path fill="#666666" d="m294.97638 231.23479l193.03937 0l0 46.5197l-193.03937 0z" fill-rule="evenodd"></path><path stroke="#000000" stroke-width="1.0" stroke-linejoin="round" stroke-linecap="butt" d="m294.97638 231.23479l193.03937 0l0 46.5197l-193.03937 0z" fill-rule="evenodd"></path><path fill="#ffffff" d="m307.10138 239.82338l0 11.03125l-1.53125 0l0 -11.03125l1.53125 0zm7.079376 2.40625q1.15625 0 1.796875 0.6875q0.65625 0.6875 0.65625 1.890625l0 6.046875l-1.46875 0l0 -5.84375q0 -0.890625 -0.34375 -1.25q-0.328125 -0.375 -0.984375 -0.375q-0.671875 0 -1.1875 0.390625q-0.515625 0.375 -0.96875 1.09375l0 5.984375l-1.46875 0l0 -8.4375l1.265625 0l0.125 1.25q0.453125 -0.671875 1.109375 -1.046875q0.671875 -0.390625 1.46875 -0.390625zm8.282288 -2.1875q-0.671875 0 -0.96875 0.296875q-0.28125 0.296875 -0.28125 0.921875l0 1.15625l2.046875 0l-0.15625 1.140625l-1.890625 0l0 7.296875l-1.484375 0l0 -7.296875l-1.5 0l0 -1.140625l1.5 0l0 -1.140625q0 -1.09375 0.703125 -1.75q0.703125 -0.671875 1.9375 -0.671875q0.578125 0 1.03125 0.109375q0.46875 0.09375 0.984375 0.328125l-0.453125 1.0625q-0.71875 -0.3125 -1.46875 -0.3125zm5.656891 2.1875q1.78125 0 2.765625 1.1875q0.984375 1.1875 0.984375 3.21875q0 1.3125 -0.453125 2.3125q-0.453125 1.0 -1.296875 1.546875q-0.84375 0.546875 -2.015625 0.546875q-1.78125 0 -2.78125 -1.171875q-0.984375 -1.1875 -0.984375 -3.21875q0 -1.3125 0.453125 -2.3125q0.453125 -1.0 1.296875 -1.546875q0.84375 -0.5625 2.03125 -0.5625zm0 1.1875q-2.1875 0 -2.1875 3.234375q0 3.21875 2.171875 3.21875q2.171875 0 2.171875 -3.234375q0 -3.21875 -2.15625 -3.21875zm13.584015 -1.1875q1.78125 0 2.765625 1.1875q0.984375 1.1875 0.984375 3.21875q0 1.3125 -0.453125 2.3125q-0.453125 1.0 -1.296875 1.546875q-0.84375 0.546875 -2.015625 0.546875q-1.78125 0 -2.78125 -1.171875q-0.984375 -1.1875 -0.984375 -3.21875q0 -1.3125 0.453125 -2.3125q0.453125 -1.0 1.296875 -1.546875q0.84375 -0.5625 2.03125 -0.5625zm0 1.1875q-2.1875 0 -2.1875 3.234375q0 3.21875 2.171875 3.21875q2.171875 0 2.171875 -3.234375q0 -3.21875 -2.15625 -3.21875zm10.1409 -1.1875q1.15625 0 1.796875 0.6875q0.65625 0.6875 0.65625 1.890625l0 6.046875l-1.46875 0l0 -5.84375q0 -0.890625 -0.34375 -1.25q-0.328125 -0.375 -0.984375 -0.375q-0.671875 0 -1.1875 0.390625q-0.515625 0.375 -0.96875 1.09375l0 5.984375l-1.46875 0l0 -8.4375l1.265625 0l0.125 1.25q0.453125 -0.671875 1.109375 -1.046875q0.671875 -0.390625 1.46875 -0.390625zm11.944153 0q0.859375 0 1.546875 0.25q0.6875 0.234375 1.3125 0.71875l-0.625 0.921875q-0.578125 -0.375 -1.09375 -0.546875q-0.515625 -0.171875 -1.09375 -0.171875q-0.71875 0 -1.140625 0.296875q-0.421875 0.296875 -0.421875 0.796875q0 0.515625 0.390625 0.8125q0.40625 0.28125 1.421875 0.5625q1.40625 0.34375 2.09375 0.953125q0.703125 0.609375 0.703125 1.65625q0 1.25 -0.96875 1.90625q-0.96875 0.65625 -2.359375 0.65625q-1.921875 0 -3.171875 -1.09375l0.78125 -0.90625q1.0625 0.828125 2.359375 0.828125q0.84375 0 1.328125 -0.34375q0.484375 -0.359375 0.484375 -0.9375q0 -0.4375 -0.171875 -0.703125q-0.171875 -0.265625 -0.609375 -0.453125q-0.4375 -0.203125 -1.265625 -0.4375q-1.34375 -0.34375 -1.953125 -0.9375q-0.59375 -0.59375 -0.59375 -1.5q0 -0.65625 0.390625 -1.1875q0.390625 -0.546875 1.078125 -0.84375q0.703125 -0.296875 1.578125 -0.296875zm10.86264 6.65625q0 0.515625 0.171875 0.765625q0.171875 0.25 0.53125 0.375l-0.34375 1.015625q-0.65625 -0.078125 -1.0625 -0.359375q-0.390625 -0.296875 -0.578125 -0.90625q-0.84375 1.265625 -2.515625 1.265625q-1.25 0 -1.96875 -0.703125q-0.71875 -0.703125 -0.71875 -1.84375q0 -1.34375 0.96875 -2.0625q0.96875 -0.71875 2.75 -0.71875l1.296875 0l0 -0.625q0 -0.890625 -0.4375 -1.265625q-0.4375 -0.390625 -1.328125 -0.390625q-0.921875 0 -2.265625 0.453125l-0.375 -1.078125q1.5625 -0.578125 2.90625 -0.578125q1.5 0 2.234375 0.734375q0.734375 0.71875 0.734375 2.0625l0 3.859375zm-3.453125 1.0625q1.265625 0 1.984375 -1.3125l0 -1.9375l-1.109375 0q-2.34375 0 -2.34375 1.71875q0 0.75 0.375 1.140625q0.375 0.390625 1.09375 0.390625zm8.157166 1.09375q-0.8125 0 -1.296875 -0.484375q-0.46875 -0.484375 -0.46875 -1.359375l0 -10.171875l1.46875 -0.171875l0 10.296875q0 0.359375 0.125 0.515625q0.125 0.15625 0.40625 0.15625q0.3125 0 0.546875 -0.09375l0.390625 1.03125q-0.53125 0.28125 -1.171875 0.28125zm9.375488 -4.65625q0 0.375 -0.03125 0.75l-5.375 0q0.09375 1.40625 0.703125 2.0625q0.609375 0.640625 1.5625 0.640625q0.609375 0 1.125 -0.171875q0.515625 -0.171875 1.0625 -0.5625l0.640625 0.890625q-1.34375 1.046875 -2.9375 1.046875q-1.765625 0 -2.75 -1.140625q-0.984375 -1.15625 -0.984375 -3.171875q0 -1.3125 0.421875 -2.328125q0.4375 -1.015625 1.21875 -1.59375q0.796875 -0.578125 1.875 -0.578125q1.671875 0 2.5625 1.109375q0.90625 1.09375 0.90625 3.046875zm-1.453125 -0.421875q0 -1.25 -0.5 -1.90625q-0.5 -0.65625 -1.484375 -0.65625q-1.8125 0 -1.96875 2.65625l3.953125 0l0 -0.09375zm6.0950317 -3.734375q0.859375 0 1.546875 0.25q0.6875 0.234375 1.3125 0.71875l-0.625 0.921875q-0.578125 -0.375 -1.09375 -0.546875q-0.515625 -0.171875 -1.09375 -0.171875q-0.71875 0 -1.140625 0.296875q-0.421875 0.296875 -0.421875 0.796875q0 0.515625 0.390625 0.8125q0.40625 0.28125 1.421875 0.5625q1.40625 0.34375 2.09375 0.953125q0.703125 0.609375 0.703125 1.65625q0 1.25 -0.96875 1.90625q-0.96875 0.65625 -2.359375 0.65625q-1.921875 0 -3.171875 -1.09375l0.78125 -0.90625q1.0625 0.828125 2.359375 0.828125q0.84375 0 1.328125 -0.34375q0.484375 -0.359375 0.484375 -0.9375q0 -0.4375 -0.171875 -0.703125q-0.171875 -0.265625 -0.609375 -0.453125q-0.4375 -0.203125 -1.265625 -0.4375q-1.34375 -0.34375 -1.953125 -0.9375q-0.59375 -0.59375 -0.59375 -1.5q0 -0.65625 0.390625 -1.1875q0.390625 -0.546875 1.078125 -0.84375q0.703125 -0.296875 1.578125 -0.296875zm5.5657654 6.59375q0.484375 0 0.796875 0.328125q0.328125 0.3125 0.328125 0.78125q0 0.484375 -0.296875 1.125l-1.078125 2.453125l-1.046875 0l0.640625 -2.65625q-0.203125 -0.15625 -0.328125 -0.390625q-0.125 -0.25 -0.125 -0.53125q0 -0.46875 0.3125 -0.78125q0.328125 -0.328125 0.796875 -0.328125z" fill-rule="nonzero"></path><path fill="#ffffff" d="m307.1795 270.04214q-0.8125 0 -1.296875 -0.484375q-0.46875 -0.484375 -0.46875 -1.359375l0 -10.171875l1.46875 -0.171875l0 10.296875q0 0.359375 0.125 0.515625q0.125 0.15625 0.40625 0.15625q0.3125 0 0.546875 -0.09375l0.390625 1.03125q-0.53125 0.28125 -1.171875 0.28125zm8.687988 -2.15625q0 0.515625 0.171875 0.765625q0.171875 0.25 0.53125 0.375l-0.34375 1.015625q-0.65625 -0.078125 -1.0625 -0.359375q-0.390625 -0.296875 -0.578125 -0.90625q-0.84375 1.265625 -2.515625 1.265625q-1.25 0 -1.96875 -0.703125q-0.71875 -0.703125 -0.71875 -1.84375q0 -1.34375 0.96875 -2.0625q0.96875 -0.71875 2.75 -0.71875l1.296875 0l0 -0.625q0 -0.890625 -0.4375 -1.265625q-0.4375 -0.390625 -1.328125 -0.390625q-0.921875 0 -2.265625 0.453125l-0.375 -1.078125q1.5625 -0.578125 2.90625 -0.578125q1.5 0 2.234375 0.734375q0.734375 0.71875 0.734375 2.0625l0 3.859375zm-3.453125 1.0625q1.265625 0 1.984375 -1.3125l0 -1.9375l-1.109375 0q-2.34375 0 -2.34375 1.71875q0 0.75 0.375 1.140625q0.375 0.390625 1.09375 0.390625zm8.766541 -7.71875q0.859375 0 1.546875 0.25q0.6875 0.234375 1.3125 0.71875l-0.625 0.921875q-0.578125 -0.375 -1.09375 -0.546875q-0.515625 -0.171875 -1.09375 -0.171875q-0.71875 0 -1.140625 0.296875q-0.421875 0.296875 -0.421875 0.796875q0 0.515625 0.390625 0.8125q0.40625 0.28125 1.421875 0.5625q1.40625 0.34375 2.09375 0.953125q0.703125 0.609375 0.703125 1.65625q0 1.25 -0.96875 1.90625q-0.96875 0.65625 -2.359375 0.65625q-1.921875 0 -3.171875 -1.09375l0.78125 -0.90625q1.0625 0.828125 2.359375 0.828125q0.84375 0 1.328125 -0.34375q0.484375 -0.359375 0.484375 -0.9375q0 -0.4375 -0.171875 -0.703125q-0.171875 -0.265625 -0.609375 -0.453125q-0.4375 -0.203125 -1.265625 -0.4375q-1.34375 -0.34375 -1.953125 -0.9375q-0.59375 -0.59375 -0.59375 -1.5q0 -0.65625 0.390625 -1.1875q0.390625 -0.546875 1.078125 -0.84375q0.703125 -0.296875 1.578125 -0.296875zm9.440765 8.234375q-0.84375 0.578125 -1.890625 0.578125q-1.078125 0 -1.6875 -0.609375q-0.59375 -0.625 -0.59375 -1.78125l0 -5.09375l-1.46875 0l0 -1.140625l1.46875 0l0 -1.90625l1.484375 -0.171875l0 2.078125l2.0 0l-0.171875 1.140625l-1.828125 0l0 5.03125q0 0.65625 0.21875 0.953125q0.234375 0.28125 0.78125 0.28125q0.5 0 1.125 -0.328125l0.5625 0.96875zm0.947876 -4.0l0 -1.234375l4.53125 0l0 1.234375l-4.53125 0zm15.479279 -4.234375q1.046875 0 1.65625 0.703125q0.625 0.6875 0.625 1.875l0 6.046875l-1.46875 0l0 -5.84375q0 -1.625 -1.1875 -1.625q-0.625 0 -1.0625 0.359375q-0.421875 0.359375 -0.921875 1.125l0 5.984375l-1.46875 0l0 -5.84375q0 -1.625 -1.1875 -1.625q-0.625 0 -1.0625 0.375q-0.4375 0.359375 -0.921875 1.109375l0 5.984375l-1.46875 0l0 -8.4375l1.265625 0l0.125 1.234375q0.953125 -1.421875 2.4375 -1.421875q0.78125 0 1.328125 0.40625q0.5625 0.390625 0.796875 1.109375q0.5 -0.734375 1.09375 -1.125q0.609375 -0.390625 1.421875 -0.390625zm6.7120056 0.1875l0 8.4375l-1.46875 0l0 -8.4375l1.46875 0zm-0.734375 -4.046875q0.453125 0 0.734375 0.296875q0.296875 0.28125 0.296875 0.71875q0 0.421875 -0.296875 0.703125q-0.28125 0.28125 -0.734375 0.28125q-0.453125 0 -0.75 -0.28125q-0.28125 -0.28125 -0.28125 -0.703125q0 -0.4375 0.28125 -0.71875q0.296875 -0.296875 0.75 -0.296875zm7.746399 3.859375q1.15625 0 1.796875 0.6875q0.65625 0.6875 0.65625 1.890625l0 6.046875l-1.46875 0l0 -5.84375q0 -0.890625 -0.34375 -1.25q-0.328125 -0.375 -0.984375 -0.375q-0.671875 0 -1.1875 0.390625q-0.515625 0.375 -0.96875 1.09375l0 5.984375l-1.46875 0l0 -8.4375l1.265625 0l0.125 1.25q0.453125 -0.671875 1.109375 -1.046875q0.671875 -0.390625 1.46875 -0.390625zm11.688507 8.625l-1.265625 0l-0.109375 -1.3125q-0.484375 0.78125 -1.109375 1.140625q-0.625 0.359375 -1.515625 0.359375q-1.109375 0 -1.734375 -0.671875q-0.625 -0.671875 -0.625 -1.90625l0 -6.046875l1.46875 0l0 5.890625q0 0.859375 0.296875 1.234375q0.3125 0.359375 1.0 0.359375q1.234375 0 2.109375 -1.46875l0 -6.015625l1.484375 0l0 8.4375zm7.2963867 -0.390625q-0.84375 0.578125 -1.890625 0.578125q-1.078125 0 -1.6875 -0.609375q-0.59375 -0.625 -0.59375 -1.78125l0 -5.09375l-1.46875 0l0 -1.140625l1.46875 0l0 -1.90625l1.484375 -0.171875l0 2.078125l2.0 0l-0.171875 1.140625l-1.828125 0l0 5.03125q0 0.65625 0.21875 0.953125q0.234375 0.28125 0.78125 0.28125q0.5 0 1.125 -0.328125l0.5625 0.96875zm7.8854065 -4.078125q0 0.375 -0.03125 0.75l-5.375 0q0.09375 1.40625 0.703125 2.0625q0.609375 0.640625 1.5625 0.640625q0.609375 0 1.125 -0.171875q0.515625 -0.171875 1.0625 -0.5625l0.640625 0.890625q-1.34375 1.046875 -2.9375 1.046875q-1.765625 0 -2.75 -1.140625q-0.984375 -1.15625 -0.984375 -3.171875q0 -1.3125 0.421875 -2.328125q0.4375 -1.015625 1.21875 -1.59375q0.796875 -0.578125 1.875 -0.578125q1.671875 0 2.5625 1.109375q0.90625 1.09375 0.90625 3.046875zm-1.453125 -0.421875q0 -1.25 -0.5 -1.90625q-0.5 -0.65625 -1.484375 -0.65625q-1.8125 0 -1.96875 2.65625l3.953125 0l0 -0.09375zm14.319397 4.890625l-1.265625 0l-0.109375 -1.3125q-0.484375 0.78125 -1.109375 1.140625q-0.625 0.359375 -1.515625 0.359375q-1.109375 0 -1.734375 -0.671875q-0.625 -0.671875 -0.625 -1.90625l0 -6.046875l1.46875 0l0 5.890625q0 0.859375 0.296875 1.234375q0.3125 0.359375 1.0 0.359375q1.234375 0 2.109375 -1.46875l0 -6.015625l1.484375 0l0 8.4375zm6.9057617 -8.625q1.625 0 2.375 1.15625q0.75 1.15625 0.75 3.25q0 1.984375 -0.875 3.203125q-0.859375 1.203125 -2.4375 1.203125q-1.40625 0 -2.21875 -0.953125l0 4.0l-1.46875 0.171875l0 -11.84375l1.265625 0l0.109375 1.140625q0.46875 -0.640625 1.125 -0.984375q0.65625 -0.34375 1.375 -0.34375zm-0.546875 7.609375q2.078125 0 2.078125 -3.203125q0 -3.234375 -1.890625 -3.234375q-0.625 0 -1.140625 0.375q-0.515625 0.359375 -0.90625 0.9375l0 4.109375q0.328125 0.5 0.796875 0.765625q0.484375 0.25 1.0625 0.25zm12.707123 -10.8125l0 11.828125l-1.296875 0l-0.140625 -1.171875q-0.421875 0.640625 -1.046875 1.0q-0.625 0.359375 -1.390625 0.359375q-1.5 0 -2.34375 -1.171875q-0.84375 -1.1875 -0.84375 -3.1875q0 -1.296875 0.40625 -2.296875q0.40625 -1.015625 1.15625 -1.578125q0.75 -0.578125 1.75 -0.578125q1.296875 0 2.28125 1.046875l0 -4.421875l1.46875 0.171875zm-3.546875 10.859375q0.671875 0 1.140625 -0.3125q0.484375 -0.3125 0.9375 -0.9375l0 -4.140625q-0.421875 -0.53125 -0.890625 -0.8125q-0.46875 -0.28125 -1.0625 -0.28125q-0.984375 0 -1.515625 0.8125q-0.53125 0.8125 -0.53125 2.4375q0 1.625 0.484375 2.4375q0.5 0.796875 1.4375 0.796875zm12.271149 -1.0q0 0.515625 0.171875 0.765625q0.171875 0.25 0.53125 0.375l-0.34375 1.015625q-0.65625 -0.078125 -1.0625 -0.359375q-0.390625 -0.296875 -0.578125 -0.90625q-0.84375 1.265625 -2.515625 1.265625q-1.25 0 -1.96875 -0.703125q-0.71875 -0.703125 -0.71875 -1.84375q0 -1.34375 0.96875 -2.0625q0.96875 -0.71875 2.75 -0.71875l1.296875 0l0 -0.625q0 -0.890625 -0.4375 -1.265625q-0.4375 -0.390625 -1.328125 -0.390625q-0.921875 0 -2.265625 0.453125l-0.375 -1.078125q1.5625 -0.578125 2.90625 -0.578125q1.5 0 2.234375 0.734375q0.734375 0.71875 0.734375 2.0625l0 3.859375zm-3.453125 1.0625q1.265625 0 1.984375 -1.3125l0 -1.9375l-1.109375 0q-2.34375 0 -2.34375 1.71875q0 0.75 0.375 1.140625q0.375 0.390625 1.09375 0.390625zm10.735291 0.515625q-0.84375 0.578125 -1.890625 0.578125q-1.078125 0 -1.6875 -0.609375q-0.59375 -0.625 -0.59375 -1.78125l0 -5.09375l-1.46875 0l0 -1.140625l1.46875 0l0 -1.90625l1.484375 -0.171875l0 2.078125l2.0 0l-0.171875 1.140625l-1.828125 0l0 5.03125q0 0.65625 0.21875 0.953125q0.234375 0.28125 0.78125 0.28125q0.5 0 1.125 -0.328125l0.5625 0.96875zm7.885376 -4.078125q0 0.375 -0.03125 0.75l-5.375 0q0.09375 1.40625 0.703125 2.0625q0.609375 0.640625 1.5625 0.640625q0.609375 0 1.125 -0.171875q0.515625 -0.171875 1.0625 -0.5625l0.640625 0.890625q-1.34375 1.046875 -2.9375 1.046875q-1.765625 0 -2.75 -1.140625q-0.984375 -1.15625 -0.984375 -3.171875q0 -1.3125 0.421875 -2.328125q0.4375 -1.015625 1.21875 -1.59375q0.796875 -0.578125 1.875 -0.578125q1.671875 0 2.5625 1.109375q0.90625 1.09375 0.90625 3.046875zm-1.453125 -0.421875q0 -1.25 -0.5 -1.90625q-0.5 -0.65625 -1.484375 -0.65625q-1.8125 0 -1.96875 2.65625l3.953125 0l0 -0.09375zm6.0950317 -3.734375q0.859375 0 1.546875 0.25q0.6875 0.234375 1.3125 0.71875l-0.625 0.921875q-0.578125 -0.375 -1.09375 -0.546875q-0.515625 -0.171875 -1.09375 -0.171875q-0.71875 0 -1.140625 0.296875q-0.421875 0.296875 -0.421875 0.796875q0 0.515625 0.390625 0.8125q0.40625 0.28125 1.421875 0.5625q1.40625 0.34375 2.09375 0.953125q0.703125 0.609375 0.703125 1.65625q0 1.25 -0.96875 1.90625q-0.96875 0.65625 -2.359375 0.65625q-1.921875 0 -3.171875 -1.09375l0.78125 -0.90625q1.0625 0.828125 2.359375 0.828125q0.84375 0 1.328125 -0.34375q0.484375 -0.359375 0.484375 -0.9375q0 -0.4375 -0.171875 -0.703125q-0.171875 -0.265625 -0.609375 -0.453125q-0.4375 -0.203125 -1.265625 -0.4375q-1.34375 -0.34375 -1.953125 -0.9375q-0.59375 -0.59375 -0.59375 -1.5q0 -0.65625 0.390625 -1.1875q0.390625 -0.546875 1.078125 -0.84375q0.703125 -0.296875 1.578125 -0.296875z" fill-rule="nonzero"></path><path fill="#000000" fill-opacity="0.0" d="m200.81364 254.49344l47.080963 0l0 0.06298828l47.09227 0" fill-rule="evenodd"></path><path stroke="#000000" stroke-width="2.0" stroke-linejoin="round" stroke-linecap="butt" d="m200.81364 254.49344l47.080963 0l0 0.06298828l47.09227 0" fill-rule="evenodd"></path><path fill="#000000" fill-opacity="0.0" d="m488.01575 254.49463l70.39087 0l0 -172.40945l70.396545 0" fill-rule="evenodd"></path><path stroke="#000000" stroke-width="2.0" stroke-linejoin="round" stroke-linecap="butt" d="m488.01575 254.49463l70.39087 0l0 -172.40945l70.396545 0" fill-rule="evenodd"></path><path fill="#000000" fill-opacity="0.0" d="m488.01575 254.49463l70.39087 0l0 -117.102356l70.396545 0" fill-rule="evenodd"></path><path stroke="#000000" stroke-width="2.0" stroke-linejoin="round" stroke-linecap="butt" d="m488.01575 254.49463l70.39087 0l0 -117.102356l70.396545 0" fill-rule="evenodd"></path></g></svg>

